<svg width="175" height="255" viewBox="0 0 175 255" fill="none" xmlns="http://www.w3.org/2000/svg">
<g clip-path="url(#clip0_22_686)">
<path d="M35.9531 1.62695V191.053H139.383C139.495 195.525 141.349 199.777 144.549 202.905C147.75 206.032 152.045 207.788 156.521 207.799V207.799C160.965 207.799 165.227 206.035 168.369 202.894C171.512 199.754 173.277 195.494 173.277 191.053V1.62695H35.9531Z" fill="white"/>
<path d="M34.3972 1.62677V167.823C34.3972 175.431 34.11 183.11 34.3972 190.742V191.053C34.4034 191.463 34.5693 191.855 34.8597 192.145C35.1502 192.436 35.5423 192.602 35.9531 192.608H139.383L137.827 191.053C137.933 194.614 139.039 198.073 141.02 201.035C143.002 203.996 145.777 206.341 149.029 207.799C152.163 209.144 155.606 209.603 158.982 209.126C162.359 208.65 165.54 207.255 168.178 205.096C170.242 203.36 171.901 201.197 173.042 198.755C174.183 196.313 174.778 193.652 174.785 190.957V31.866C174.785 21.9377 175.072 11.9617 174.785 2.03343C174.773 1.89014 174.773 1.74611 174.785 1.60282C174.785 1.18817 174.622 0.79013 174.331 0.494699C174.04 0.199267 173.644 0.0301489 173.229 0.0238663H41.5782C39.8068 0.0238663 37.9637 -0.0957509 36.1924 0.0238663H35.9531C35.5706 0.0711873 35.2186 0.25662 34.9634 0.545221C34.7082 0.833821 34.5673 1.20568 34.5673 1.59085C34.5673 1.97602 34.7082 2.34788 34.9634 2.63648C35.2186 2.92508 35.5706 3.11051 35.9531 3.15783H167.604C169.395 3.32529 171.198 3.32529 172.99 3.15783C173.077 3.14601 173.166 3.14601 173.253 3.15783L171.697 1.60282V183.421C171.697 185.957 171.697 188.469 171.697 191.005C171.68 193.856 170.875 196.647 169.372 199.07C167.868 201.494 165.724 203.454 163.176 204.737C160.038 206.227 156.493 206.631 153.1 205.886C149.707 205.141 146.658 203.289 144.433 200.622C142.223 197.911 140.97 194.548 140.867 191.053C140.861 190.642 140.695 190.25 140.404 189.96C140.114 189.67 139.722 189.504 139.311 189.498H35.9531L37.5089 191.053V24.9282C37.5089 17.3205 37.7962 9.64113 37.5089 2.00955V1.69854C37.5089 1.28612 37.345 0.890578 37.0532 0.598955C36.7615 0.307331 36.3657 0.143527 35.9531 0.143527C35.5404 0.143527 35.1447 0.307331 34.8529 0.598955C34.5611 0.890578 34.3972 1.28612 34.3972 1.69854" fill="#231815"/>
<path d="M139.359 190.694V121.627C139.371 121.468 139.371 121.308 139.359 121.149C139.359 116.707 137.594 112.448 134.451 109.307C131.309 106.167 127.047 104.402 122.603 104.402H35.9531V207.776H156.521C151.97 207.776 147.604 205.968 144.386 202.752C141.167 199.535 139.359 195.172 139.359 190.623" fill="#231815"/>
<path d="M141.034 190.693V130.023C141.034 127.081 141.177 124.09 141.034 121.148L139.478 122.703C139.889 122.697 140.281 122.531 140.571 122.241C140.862 121.95 141.028 121.558 141.034 121.148C141.012 117.859 140.114 114.636 138.431 111.81C136.748 108.984 134.341 106.658 131.459 105.071C128.317 103.518 124.836 102.778 121.334 102.918H35.9523C35.5416 102.924 35.1495 103.09 34.859 103.38C34.5686 103.671 34.4027 104.063 34.3965 104.473V207.847C34.4027 208.257 34.5686 208.649 34.859 208.939C35.1495 209.229 35.5416 209.395 35.9523 209.401H156.521C156.933 209.401 157.329 209.238 157.621 208.946C157.913 208.654 158.076 208.259 158.076 207.847C158.076 207.434 157.913 207.038 157.621 206.747C157.329 206.455 156.933 206.291 156.521 206.291C152.399 206.236 148.462 204.574 145.547 201.661C142.632 198.748 140.97 194.813 140.914 190.693C140.914 190.281 140.75 189.885 140.458 189.594C140.167 189.302 139.771 189.138 139.358 189.138C138.945 189.138 138.55 189.302 138.258 189.594C137.966 189.885 137.802 190.281 137.802 190.693C137.876 195.632 139.872 200.348 143.367 203.84C146.861 207.333 151.579 209.327 156.521 209.401V206.291H35.9523L37.5082 207.847V104.473C36.9816 105 36.455 105.502 35.9523 106.028H119.228C120.886 105.944 122.548 105.944 124.206 106.028C127.923 106.443 131.36 108.202 133.868 110.974C136.377 113.745 137.785 117.339 137.826 121.076L139.382 119.521C138.973 119.533 138.584 119.701 138.295 119.99C138.006 120.279 137.838 120.668 137.826 121.076C138.233 128.923 137.826 136.866 137.826 144.736V190.622C137.826 191.034 137.99 191.43 138.282 191.721C138.574 192.013 138.969 192.177 139.382 192.177C139.795 192.177 140.19 192.013 140.482 191.721C140.774 191.43 140.938 191.034 140.938 190.622" fill="#231815"/>
<path d="M122.698 104.474H18.2634C13.8195 104.474 9.55771 106.238 6.41543 109.378C3.27315 112.519 1.50781 116.779 1.50781 121.22V253.517H104.914V121.22C104.914 105.335 122.627 104.474 122.627 104.474" fill="white"/>
<path d="M122.699 102.918H19.3408C15.0522 102.78 10.8402 104.077 7.37249 106.603C5.08455 108.342 3.23356 110.59 1.96631 113.169C0.699072 115.748 0.0503966 118.586 0.0718021 121.459C0.0718021 126.555 0.0718021 131.65 0.0718021 136.722V253.445C0.0779794 253.855 0.24389 254.247 0.534345 254.537C0.8248 254.828 1.21702 254.994 1.62773 255H105.033C105.448 255 105.847 254.837 106.142 254.546C106.438 254.255 106.607 253.859 106.613 253.445V125.837C106.388 122.812 106.573 119.77 107.164 116.794C108.019 113.857 109.884 111.315 112.43 109.617C115.515 107.597 119.067 106.403 122.747 106.148C124.733 106.148 124.757 102.942 122.747 103.038C113.339 103.493 104.507 109.569 103.597 119.402C103.119 124.449 103.597 129.689 103.597 134.76V247.201C103.418 249.23 103.418 251.272 103.597 253.301C103.609 253.389 103.609 253.477 103.597 253.564C104.124 253.062 104.651 252.536 105.153 252.009H1.74739L3.30325 253.564V123.828C3.23408 122.232 3.27411 120.633 3.42297 119.043C3.97892 115.439 5.79802 112.149 8.55573 109.761C11.3134 107.373 14.8303 106.041 18.479 106.005C23.7929 106.005 29.1069 106.005 34.3968 106.005H122.962C123.375 106.005 123.77 105.841 124.062 105.549C124.354 105.257 124.518 104.862 124.518 104.449C124.518 104.037 124.354 103.642 124.062 103.35C123.77 103.058 123.375 102.895 122.962 102.895" fill="#231815"/>
<path d="M58.6447 22.6551C61.6607 22.6551 62.8576 25.9087 65.1555 27.4398C66.3959 28.2007 67.8384 28.567 69.2918 28.4901C70.7452 28.4132 72.1409 27.8968 73.2939 27.0092C75.4482 25.3106 76.8365 22.1049 80.0919 22.7747C82.6292 23.3011 83.8499 26.4111 86.0521 27.5594C87.3805 28.2822 88.9034 28.5672 90.4035 28.3738C91.9036 28.1805 93.3043 27.5187 94.4059 26.4828C96.3687 24.7125 97.9007 21.6981 101.036 22.7986C103.622 23.6359 104.747 26.77 107.284 27.8704C108.621 28.4368 110.099 28.5844 111.522 28.294C112.945 28.0035 114.247 27.2886 115.255 26.2436C117.361 24.234 119.587 20.9805 122.843 23.4446C124.039 24.3776 124.877 25.8369 126.026 26.7221C127.335 27.8195 128.985 28.4284 130.694 28.4446C132.68 28.4446 132.68 25.4063 130.694 25.3346C127.654 25.3346 126.457 22.081 124.159 20.5499C122.916 19.7923 121.472 19.43 120.019 19.5112C118.566 19.5924 117.171 20.1131 116.021 21.0044C113.866 22.7029 112.454 25.9087 109.223 25.2389C106.661 24.7125 105.441 21.6025 103.262 20.4542C101.931 19.7258 100.404 19.4377 98.8985 19.6311C97.3933 19.8245 95.9882 20.4895 94.8847 21.5307C92.9219 23.301 91.4139 26.3154 88.2543 25.2149C85.6931 24.3776 84.5441 21.2197 82.0308 20.1431C80.6934 19.5768 79.2156 19.4291 77.7926 19.7195C76.3695 20.01 75.068 20.7249 74.0599 21.7699C71.9295 23.7795 69.7273 27.0092 66.4959 24.569C65.2751 23.636 64.4613 22.1767 63.2884 21.2915C61.9876 20.1958 60.3458 19.5868 58.6447 19.569C56.6341 19.569 56.6341 22.6073 58.6447 22.679" fill="#231815"/>
<path d="M58.6447 33.4928C61.6607 33.4928 62.8576 36.7464 65.1555 38.2775C66.3959 39.0384 67.8384 39.4047 69.2918 39.3278C70.7452 39.2509 72.1409 38.7345 73.2939 37.8468C75.4482 36.1483 76.8365 32.9426 80.0919 33.6124C82.6292 34.1387 83.8499 37.2488 86.0521 38.3971C87.3805 39.1198 88.9034 39.4048 90.4035 39.2115C91.9036 39.0182 93.3043 38.3564 94.4059 37.3205C96.3687 35.5502 97.9007 32.5359 101.036 33.6364C103.622 34.4737 104.747 37.6077 107.284 38.7081C108.621 39.2744 110.099 39.4221 111.522 39.1317C112.945 38.8412 114.247 38.1263 115.255 37.0813C117.361 35.0717 119.587 31.8182 122.843 34.2823C124.039 35.2153 124.877 36.6746 126.026 37.5598C127.335 38.6572 128.985 39.266 130.694 39.2823C132.68 39.2823 132.68 36.244 130.694 36.1723C127.654 36.1723 126.457 32.9187 124.159 31.3876C122.919 30.6266 121.476 30.2603 120.023 30.3372C118.569 30.4141 117.174 30.9306 116.021 31.8182C113.866 33.5167 112.454 36.6028 109.223 36.0526C106.661 35.5263 105.441 32.4162 103.262 31.2679C101.931 30.5396 100.404 30.2515 98.8985 30.4449C97.3933 30.6383 95.9882 31.3033 94.8847 32.3445C92.9219 34.1148 91.4139 37.1292 88.2543 36.0287C85.6931 35.1914 84.5441 32.0334 82.0308 30.9569C80.6934 30.3906 79.2156 30.2429 77.7926 30.5334C76.3695 30.8238 75.068 31.5387 74.0599 32.5837C71.9295 34.5933 69.7273 37.8469 66.4959 35.3827C65.2751 34.4497 64.4613 32.9904 63.2884 32.1052C61.9876 31.0095 60.3458 30.4005 58.6447 30.3827C56.6341 30.3827 56.6341 33.421 58.6447 33.4928Z" fill="#231815"/>
<path d="M58.6447 44.3302C61.6607 44.3302 62.8576 47.5838 65.1555 49.1149C66.3982 49.8725 67.8421 50.2347 69.2955 50.1536C70.7489 50.0724 72.1434 49.5517 73.2939 48.6604C75.4482 46.9618 76.8365 43.756 80.0919 44.4259C82.6292 44.9522 83.8499 48.0623 86.0521 49.2106C87.3805 49.9333 88.9034 50.2183 90.4035 50.025C91.9036 49.8317 93.3043 49.17 94.4059 48.1341C96.3687 46.3637 97.9007 43.3494 101.036 44.4498C103.622 45.2872 104.747 48.4451 107.284 49.5216C108.621 50.0879 110.099 50.2356 111.522 49.9452C112.945 49.6548 114.247 48.9398 115.255 47.8948C117.361 45.8853 119.587 42.6556 122.843 45.0958C124.039 46.0288 124.877 47.4881 126.026 48.3733C127.335 49.4707 128.985 50.0795 130.694 50.0957C132.68 50.0957 132.68 47.0575 130.694 46.9857C127.654 46.9857 126.457 43.7321 124.159 42.201C122.919 41.4401 121.476 41.0738 120.023 41.1507C118.569 41.2276 117.174 41.744 116.021 42.6316C113.866 44.3302 112.454 47.536 109.223 46.8661C106.661 46.3398 105.441 43.2298 103.262 42.0815C101.931 41.3531 100.404 41.0649 98.8985 41.2584C97.3933 41.4518 95.9882 42.1168 94.8847 43.158C92.9219 44.9283 91.4139 47.9427 88.2543 46.8422C85.6931 46.0049 84.5441 42.8709 82.0308 41.7704C80.6934 41.2041 79.2156 41.0564 77.7926 41.3468C76.3695 41.6373 75.068 42.3522 74.0599 43.3972C71.9295 45.4068 69.7273 48.6604 66.4959 46.1963C65.2751 45.2633 64.4613 43.8039 63.2884 42.9187C61.9876 41.823 60.3458 41.214 58.6447 41.1962C56.6341 41.1962 56.6341 44.2345 58.6447 44.3063" fill="#231815"/>
<path d="M16.5637 212.249C19.6036 212.368 20.7765 215.526 23.0744 217.034C24.3172 217.791 25.761 218.153 27.2144 218.072C28.6679 217.991 30.0622 217.47 31.2128 216.579C33.3671 214.904 34.7554 211.794 38.0108 212.368C40.572 212.895 41.7689 215.981 43.971 217.153C45.3021 217.881 46.8299 218.17 48.335 217.976C49.8402 217.783 51.2453 217.118 52.3488 216.077C54.2877 214.306 55.8196 211.292 58.9552 212.392C61.5404 213.23 62.6654 216.364 65.2027 217.464C66.5401 218.03 68.0178 218.178 69.4408 217.888C70.8639 217.597 72.1654 216.882 73.1735 215.837C75.3039 213.804 77.5061 210.574 80.7615 213.038C81.9822 213.947 82.7961 215.431 83.9689 216.292C85.2601 217.407 86.9063 218.026 88.6126 218.038C90.6233 218.038 90.6233 215 88.6126 214.928C85.5727 214.928 84.3998 211.651 82.0779 210.144C80.8352 209.386 79.3914 209.024 77.938 209.105C76.4846 209.186 75.0901 209.707 73.9395 210.598C71.7852 212.297 70.3969 215.502 67.1416 214.833C64.5804 214.306 63.3836 211.196 61.1814 210.048C59.8479 209.323 58.3186 209.038 56.8134 209.236C55.3081 209.434 53.9044 210.103 52.8036 211.148C50.8408 212.895 49.3328 215.933 46.1731 214.809C43.6119 213.971 42.4869 210.837 39.9496 209.737C38.61 209.174 37.1308 209.03 35.7076 209.324C34.2844 209.619 32.9842 210.339 31.9788 211.388C29.8724 213.397 27.6463 216.627 24.4148 214.163C23.1941 213.254 22.3802 211.77 21.2074 210.909C19.9196 209.785 18.2731 209.158 16.5637 209.139C14.553 209.139 14.553 212.201 16.5637 212.249Z" fill="#231815"/>
<path d="M16.5644 223.11C19.6044 223.11 20.7773 226.364 23.0752 227.895C24.3156 228.656 25.758 229.022 27.2114 228.945C28.6648 228.868 30.0605 228.352 31.2136 227.464C33.3679 225.766 34.7562 222.68 38.0116 223.23C40.5728 223.756 41.7696 226.842 43.9718 228.015C45.3029 228.743 46.8307 229.031 48.3358 228.838C49.8409 228.644 51.2461 227.979 52.3496 226.938C54.2885 225.168 55.8203 222.153 58.956 223.254C61.5412 224.091 62.6662 227.225 65.2035 228.326C66.5409 228.892 68.0186 229.04 69.4416 228.749C70.8647 228.459 72.1662 227.744 73.1743 226.699C75.3047 224.665 77.5069 221.436 80.7623 223.9C81.983 224.809 82.7969 226.292 83.9697 227.177C85.2643 228.284 86.9101 228.894 88.6134 228.9C90.6241 228.9 90.6241 225.861 88.6134 225.79C85.5735 225.79 84.4006 222.536 82.0787 221.005C80.836 220.247 79.3922 219.885 77.9388 219.966C76.4854 220.047 75.0909 220.568 73.9403 221.46C71.786 223.158 70.3977 226.364 67.1424 225.694C64.5811 225.168 63.3843 222.058 61.1822 220.909C59.8511 220.181 58.3233 219.893 56.8181 220.086C55.313 220.28 53.9079 220.945 52.8044 221.986C50.8416 223.732 49.3336 226.771 46.1739 225.646C43.6127 224.809 42.4877 221.675 39.9504 220.574C38.6107 220.011 37.1315 219.867 35.7083 220.162C34.2851 220.457 32.985 221.176 31.9796 222.225C29.8732 224.235 27.6471 227.464 24.4156 225.024C23.1949 224.091 22.381 222.632 21.2081 221.747C19.9066 220.649 18.267 220.032 16.5644 220C16.182 220.047 15.83 220.233 15.5748 220.522C15.3196 220.81 15.1787 221.182 15.1787 221.567C15.1787 221.952 15.3196 222.324 15.5748 222.613C15.83 222.901 16.182 223.087 16.5644 223.134" fill="#231815"/>
<path d="M16.5641 233.948C19.6041 233.948 20.777 237.201 23.0749 238.732C24.3153 239.493 25.7577 239.86 27.2111 239.783C28.6645 239.706 30.0602 239.189 31.2133 238.302C33.3676 236.603 34.7559 233.517 38.0112 234.067C40.5725 234.594 41.7693 237.704 43.9715 238.852C45.3083 239.618 46.8561 239.934 48.3863 239.753C49.9165 239.572 51.3478 238.904 52.4689 237.847C54.4078 236.077 55.9397 233.063 59.0754 234.163C61.6606 235 62.7856 238.134 65.3228 239.235C66.6602 239.801 68.138 239.949 69.561 239.658C70.9841 239.368 72.2856 238.653 73.2937 237.608C75.4241 235.598 77.6262 232.345 80.8816 234.809C82.1023 235.742 82.9162 237.201 84.0891 238.086C85.3836 239.193 87.0295 239.803 88.7328 239.809C90.7434 239.809 90.7434 236.771 88.7328 236.699C85.6928 236.699 84.52 233.445 82.1981 231.914C80.9554 231.157 79.5115 230.794 78.0581 230.875C76.6047 230.957 75.2102 231.477 74.0597 232.369C71.9054 234.067 70.5171 237.153 67.2617 236.603C64.7005 236.077 63.5037 232.967 61.3015 231.818C59.9704 231.09 58.4427 230.802 56.9375 230.995C55.4324 231.189 54.0272 231.854 52.9237 232.895C50.9609 234.665 49.453 237.68 46.2933 236.579C43.7321 235.742 42.6071 232.584 40.0698 231.507C38.7325 230.941 37.2547 230.794 35.8316 231.084C34.4086 231.374 33.1071 232.089 32.0989 233.134C29.9925 235.144 27.7664 238.374 24.535 235.933C23.3142 235 22.5004 233.541 21.3275 232.656C20.033 231.549 18.3871 230.939 16.6838 230.933C14.6731 230.933 14.6731 233.972 16.6838 234.043" fill="#231815"/>
<path d="M16.5637 179.689C19.6036 179.689 20.7765 182.966 23.0744 184.473C24.3172 185.231 25.761 185.593 27.2144 185.512C28.6679 185.431 30.0622 184.91 31.2128 184.019C33.3671 182.32 34.7554 179.234 38.0108 179.784C40.572 180.335 41.7689 183.421 43.971 184.569C45.3021 185.297 46.8299 185.586 48.335 185.392C49.8402 185.199 51.2453 184.534 52.3488 183.493C54.2877 181.722 55.8196 178.708 58.9552 179.808C61.5404 180.646 62.6654 183.78 65.2027 184.88C66.5424 185.444 68.0216 185.587 69.4448 185.293C70.868 184.998 72.1682 184.278 73.1735 183.229C75.3039 181.22 77.5061 177.99 80.7615 180.454C81.9822 181.363 82.7961 182.847 83.9689 183.708C85.2601 184.823 86.9063 185.442 88.6126 185.454C90.6233 185.454 90.6233 182.416 88.6126 182.344C85.5727 182.225 84.3998 179.067 82.0779 177.56C80.8352 176.802 79.3914 176.44 77.938 176.521C76.4846 176.602 75.0901 177.123 73.9395 178.014C71.7852 179.689 70.3969 182.799 67.1416 182.225C64.5804 181.698 63.3836 178.612 61.1814 177.44C59.8503 176.712 58.3225 176.423 56.8173 176.617C55.3122 176.81 53.9071 177.475 52.8036 178.517C50.8408 180.287 49.3328 183.301 46.1731 182.201C43.6119 181.363 42.4869 178.229 39.9496 177.129C38.6123 176.563 37.1346 176.415 35.7115 176.705C34.2884 176.996 32.9869 177.711 31.9788 178.756C29.8724 180.789 27.6463 184.019 24.4148 181.555C23.1941 180.646 22.3802 179.162 21.2074 178.301C19.9162 177.186 18.27 176.567 16.5637 176.555C14.553 176.555 14.553 179.593 16.5637 179.665" fill="#231815"/>
<path d="M16.5637 190.526C19.6036 190.526 20.7765 193.804 23.0744 195.311C24.3172 196.068 25.761 196.431 27.2144 196.35C28.6679 196.268 30.0622 195.748 31.2128 194.856C33.3671 193.182 34.7554 190.072 38.0108 190.646C40.572 191.172 41.7689 194.258 43.971 195.431C45.3021 196.159 46.8299 196.447 48.335 196.254C49.8402 196.06 51.2453 195.395 52.3488 194.354C54.2877 192.584 55.8196 189.569 58.9552 190.67C61.5404 191.507 62.6654 194.641 65.2027 195.742C66.5401 196.308 68.0178 196.455 69.4408 196.165C70.8639 195.875 72.1654 195.16 73.1735 194.115C75.3039 192.081 77.5061 188.852 80.7615 191.316C81.9822 192.225 82.7961 193.588 83.9689 194.569C85.2601 195.684 86.9063 196.304 88.6126 196.316C90.6233 196.316 90.6233 193.277 88.6126 193.206C85.5727 193.086 84.3998 189.928 82.0779 188.421C80.8352 187.663 79.3914 187.301 77.938 187.382C76.4846 187.463 75.0901 187.984 73.9395 188.876C71.7852 190.55 70.3969 193.66 67.1416 193.086C64.5804 192.56 63.3836 189.474 61.1814 188.301C59.8503 187.573 58.3225 187.285 56.8173 187.478C55.3122 187.672 53.9071 188.337 52.8036 189.378C50.8408 191.148 49.3328 194.163 46.1731 193.062C43.6119 192.225 42.4869 189.091 39.9496 187.99C38.6123 187.424 37.1346 187.276 35.7115 187.567C34.2884 187.857 32.9869 188.572 31.9788 189.617C29.8724 191.651 27.6463 194.88 24.4148 192.416C23.1941 191.507 22.3802 190.024 21.2074 189.163C19.9162 188.048 18.27 187.428 16.5637 187.416C14.553 187.416 14.553 190.454 16.5637 190.526Z" fill="#231815"/>
<path d="M16.5637 201.364C19.6036 201.364 20.7765 204.642 23.0744 206.149C24.3172 206.906 25.761 207.269 27.2144 207.187C28.6679 207.106 30.0622 206.586 31.2128 205.694C33.3671 204.02 34.7554 200.909 38.0108 201.484C40.572 202.01 41.7689 205.096 43.971 206.268C45.3021 206.997 46.8299 207.285 48.335 207.091C49.8402 206.898 51.2453 206.233 52.3488 205.192C54.2877 203.421 55.8196 200.407 58.9552 201.508C61.5404 202.345 62.6654 205.479 65.2027 206.579C66.5401 207.146 68.0178 207.293 69.4408 207.003C70.8639 206.713 72.1654 205.998 73.1735 204.953C75.3039 202.919 77.5061 199.689 80.7615 202.154C81.9822 203.063 82.7961 204.426 83.9689 205.407C85.2601 206.522 86.9063 207.141 88.6126 207.154C90.6233 207.154 90.6233 204.115 88.6126 204.043C85.5727 204.043 84.3998 200.766 82.0779 199.259C80.8352 198.501 79.3914 198.139 77.938 198.22C76.4846 198.301 75.0901 198.822 73.9395 199.713C71.7852 201.412 70.3969 204.498 67.1416 203.924C64.5804 203.398 63.3836 200.311 61.1814 199.139C59.8503 198.411 58.3225 198.123 56.8173 198.316C55.3122 198.51 53.9071 199.175 52.8036 200.216C50.8408 201.986 49.3328 205 46.1731 203.9C43.6119 203.063 42.4869 199.929 39.9496 198.828C38.61 198.265 37.1308 198.121 35.7076 198.416C34.2844 198.71 32.9842 199.43 31.9788 200.479C29.8724 202.488 27.6463 205.718 24.4148 203.254C23.1941 202.345 22.3802 200.981 21.2074 200C19.9162 198.885 18.27 198.266 16.5637 198.254C14.553 198.254 14.553 201.292 16.5637 201.364" fill="#231815"/>
<path d="M81.1926 60.2873C84.2086 60.4069 85.4054 63.5648 87.7033 65.072C88.9461 65.8296 90.3899 66.1918 91.8433 66.1107C93.2968 66.0295 94.6911 65.5087 95.8417 64.6174C97.996 62.9428 99.3843 59.8327 102.64 60.4069C105.177 60.9332 106.398 64.0193 108.576 65.1916C109.907 65.9199 111.435 66.208 112.94 66.0146C114.445 65.8212 115.85 65.1562 116.954 64.1151C118.917 62.3447 120.448 59.3303 123.584 60.4308C126.145 61.2681 127.294 64.4021 129.832 65.5026C131.169 66.0689 132.647 66.2165 134.07 65.9261C135.493 65.6357 136.794 64.9208 137.802 63.8758C139.909 61.8423 142.135 58.6126 145.366 61.0767C146.587 61.9858 147.425 63.3495 148.574 64.3304C149.881 65.4347 151.53 66.0519 153.242 66.0768C155.228 66.0768 155.228 63.0385 153.242 62.9667C150.202 62.8471 149.005 59.6892 146.707 58.182C145.462 57.4191 144.013 57.0539 142.555 57.1351C141.096 57.2164 139.697 57.7401 138.544 58.6366C136.39 60.3112 135.002 63.4213 131.747 62.8471C129.209 62.3208 127.989 59.2347 125.81 58.0624C124.479 57.3341 122.951 57.046 121.446 57.2394C119.941 57.4328 118.536 58.0978 117.433 59.1389C115.47 60.9093 113.938 63.9236 110.802 62.8232C108.217 61.9858 107.092 58.8519 104.555 57.7514C103.217 57.1851 101.74 57.0374 100.316 57.3278C98.8934 57.6182 97.5919 58.3332 96.5837 59.3782C94.4773 61.4117 92.2752 64.6414 89.0198 62.1773C87.823 61.2682 86.9852 59.9045 85.8363 58.9236C84.5357 57.8245 82.8955 57.2077 81.1926 57.1773C79.1819 57.1773 79.1819 60.2155 81.1926 60.2873" fill="#231815"/>
<path d="M81.1926 71.1243C84.2086 71.2439 85.4054 74.4018 87.7033 75.909C88.9461 76.6666 90.3899 77.0288 91.8433 76.9476C93.2968 76.8664 94.6911 76.3457 95.8417 75.4544C97.996 73.7798 99.3843 70.6697 102.64 71.2439C105.177 71.7702 106.398 74.8563 108.576 76.0286C109.907 76.7569 111.435 77.0451 112.94 76.8517C114.445 76.6582 115.85 75.9931 116.954 74.952C118.917 73.1816 120.448 70.1673 123.584 71.2678C126.145 72.1051 127.294 75.2391 129.832 76.3396C131.169 76.9059 132.647 77.0536 134.07 76.7632C135.493 76.4727 136.794 75.7578 137.802 74.7128C139.909 72.6793 142.135 69.4497 145.366 71.9138C146.587 72.8229 147.425 74.3061 148.574 75.1673C149.881 76.2716 151.53 76.8888 153.242 76.9137C155.228 76.9137 155.228 73.8755 153.242 73.8037C150.202 73.6841 149.005 70.5262 146.707 69.019C145.462 68.2561 144.013 67.8908 142.555 67.9721C141.096 68.0533 139.697 68.5771 138.544 69.4735C136.39 71.1721 135.002 74.2583 131.747 73.6841C129.209 73.1578 127.989 70.0717 125.81 68.8994C124.479 68.1711 122.951 67.8829 121.446 68.0763C119.941 68.2697 118.536 68.9348 117.433 69.976C115.47 71.7463 113.938 74.7606 110.802 73.6602C108.217 72.8228 107.092 69.6889 104.555 68.5884C103.215 68.025 101.736 67.8812 100.313 68.1759C98.8894 68.4706 97.5891 69.1901 96.5837 70.2391C94.4773 72.2487 92.2752 75.4783 89.0198 73.0142C87.823 72.1051 86.9852 70.6219 85.8363 69.7606C84.539 68.6528 82.8984 68.0274 81.1926 67.9903C79.1819 67.9903 79.1819 71.0286 81.1926 71.1003" fill="#231815"/>
</g>
<defs>
<clipPath id="clip0_22_686">
<rect width="175" height="255" fill="white"/>
</clipPath>
</defs>
</svg>
