<svg width="210" height="378" viewBox="0 0 210 378" fill="none" xmlns="http://www.w3.org/2000/svg">
<g clip-path="url(#clip0_22_837)">
<path d="M107.99 71.9122C94.8154 71.8976 81.7668 74.4725 69.5893 79.49C57.4118 84.5074 46.3439 91.8691 37.0176 101.155C27.6913 110.44 20.2892 121.468 15.2339 133.608C10.1787 145.748 7.56927 158.763 7.55469 171.909C7.55959 190.207 12.5969 208.153 22.1178 223.791C31.6387 239.43 45.2781 252.161 61.5499 260.598L74.7339 305.848C74.9939 306.741 75.5367 307.526 76.281 308.086C77.0254 308.645 77.9313 308.949 78.8632 308.952V314.588C77.4663 314.991 76.2383 315.836 75.3635 316.996C74.4888 318.155 74.0145 319.566 74.0118 321.017C74.0164 322.492 74.509 323.924 75.4131 325.09C76.3173 326.256 77.5822 327.091 79.0113 327.466C77.5822 327.841 76.3173 328.676 75.4131 329.842C74.509 331.008 74.0164 332.44 74.0118 333.914C74.0185 335.39 74.5117 336.823 75.4152 337.992C76.3187 339.16 77.5823 340 79.0113 340.381C77.5822 340.756 76.3173 341.591 75.4131 342.758C74.509 343.924 74.0164 345.355 74.0118 346.83C74.0164 348.304 74.509 349.736 75.4131 350.902C76.3173 352.068 77.5822 352.903 79.0113 353.278C77.5822 353.653 76.3173 354.488 75.4131 355.654C74.509 356.821 74.0164 358.252 74.0118 359.727C74.0167 361.499 74.7245 363.197 75.9805 364.451C77.2365 365.704 78.9386 366.41 80.7149 366.415H97.1394C97.3794 369.141 98.6308 371.678 100.648 373.531C102.666 375.383 105.304 376.417 108.046 376.43C110.786 376.417 113.422 375.382 115.436 373.529C117.451 371.676 118.698 369.139 118.934 366.415H135.303C137.079 366.41 138.781 365.704 140.037 364.451C141.293 363.197 142.001 361.499 142.006 359.727C141.999 358.255 141.508 356.827 140.608 355.662C139.708 354.497 138.449 353.659 137.025 353.278C138.449 352.897 139.708 352.06 140.608 350.894C141.508 349.729 141.999 348.301 142.006 346.83C141.999 345.359 141.508 343.93 140.608 342.765C139.708 341.6 138.449 340.762 137.025 340.381C138.449 339.994 139.707 339.152 140.606 337.984C141.505 336.817 141.997 335.387 142.006 333.914C141.999 332.443 141.508 331.015 140.608 329.85C139.708 328.684 138.449 327.847 137.025 327.466C138.449 327.085 139.708 326.247 140.608 325.082C141.508 323.917 141.999 322.489 142.006 321.017C142.003 319.566 141.529 318.155 140.654 316.996C139.779 315.836 138.551 314.991 137.154 314.588V308.952C138.089 308.95 138.997 308.647 139.745 308.087C140.492 307.528 141.039 306.742 141.302 305.848L154.486 260.598C170.758 252.161 184.397 239.43 193.918 223.791C203.439 208.153 208.477 190.207 208.481 171.909C208.447 145.357 197.845 119.906 179.007 101.154C160.168 82.401 134.637 71.8828 108.027 71.9122" fill="#E2705E"/>
<path d="M107.99 71.2656C84.0947 71.3134 60.9767 79.744 42.6813 95.0823C24.7512 110.234 12.6603 131.137 8.48065 154.208C3.98039 179.575 9.3516 205.698 23.4979 227.247C30.3781 237.648 39.1225 246.693 49.2919 253.928C51.8936 255.793 54.5881 257.526 57.3652 259.12L59.2169 260.192L60.1798 260.728C60.2909 260.728 61.0686 261.06 60.8464 260.857C60.8464 260.857 60.8464 261.134 60.9575 261.226C61.2404 261.951 61.4573 262.699 61.6056 263.462L62.7722 267.435L69.6605 291.067C71.1048 296.074 72.3824 301.173 74.0304 306.107C74.3462 307.126 74.9763 308.019 75.8309 308.659C76.6854 309.299 77.7207 309.654 78.7893 309.673L78.1597 309.045V314.68L78.6226 314.07C77.0932 314.515 75.7484 315.441 74.7877 316.709C73.827 317.977 73.3017 319.52 73.2898 321.11C73.3113 322.732 73.8669 324.301 74.8708 325.577C75.8746 326.852 77.2711 327.763 78.8448 328.168V326.93C77.268 327.336 75.8694 328.25 74.8652 329.529C73.861 330.808 73.3073 332.382 73.2898 334.007C73.3073 335.632 73.861 337.206 74.8652 338.485C75.8694 339.764 77.268 340.677 78.8448 341.083V339.846C77.268 340.252 75.8694 341.165 74.8652 342.444C73.861 343.724 73.3073 345.297 73.2898 346.922C73.3073 348.547 73.861 350.121 74.8652 351.4C75.8694 352.679 77.268 353.593 78.8448 353.999V352.761C77.2163 353.201 75.7872 354.183 74.7939 355.543C73.8006 356.904 73.3026 358.562 73.3824 360.244C73.4885 361.864 74.1263 363.404 75.1973 364.627C76.2683 365.849 77.7128 366.685 79.3077 367.007C80.8363 367.204 82.3803 367.253 83.9184 367.154H97.1395L96.5099 366.508C96.7748 369.392 98.0996 372.077 100.229 374.045C102.359 376.014 105.143 377.126 108.046 377.169C110.951 377.127 113.737 376.015 115.87 374.047C118.003 372.079 119.331 369.394 119.6 366.508L118.952 367.154H131.081C132.488 367.154 133.914 367.154 135.321 367.154C136.956 367.145 138.542 366.596 139.831 365.594C141.121 364.591 142.042 363.191 142.45 361.611C142.904 359.743 142.611 357.772 141.632 356.117C140.654 354.461 139.068 353.251 137.21 352.742V353.98C138.77 353.557 140.148 352.636 141.134 351.359C142.12 350.081 142.66 348.516 142.673 346.904C142.66 345.291 142.12 343.726 141.134 342.449C140.148 341.171 138.77 340.25 137.21 339.827V341.065C138.77 340.642 140.148 339.721 141.134 338.443C142.12 337.166 142.66 335.601 142.673 333.988C142.66 332.376 142.12 330.811 141.134 329.533C140.148 328.256 138.77 327.335 137.21 326.912V328.15C138.767 327.727 140.142 326.809 141.128 325.535C142.114 324.261 142.656 322.701 142.673 321.092C142.661 319.502 142.135 317.958 141.175 316.69C140.214 315.422 138.869 314.497 137.34 314.052L137.821 314.662V309.026L137.173 309.654C140.321 309.507 141.599 307.271 142.358 304.647L144.709 296.536C147.055 288.504 149.4 280.461 151.746 272.405L154.357 263.444C154.503 262.672 154.726 261.917 155.023 261.189C155.023 261.097 155.023 260.894 155.023 260.838C154.746 261.116 155.579 260.838 155.505 260.838C155.915 260.68 156.307 260.475 156.671 260.229L158.949 258.917C169.824 252.584 179.42 244.281 187.243 234.435C203.316 214.128 210.965 188.44 208.611 162.671C206.386 139.298 196.067 117.43 179.429 100.829C162.651 84.13 140.551 73.8097 116.953 71.6536C113.971 71.395 110.99 71.2656 107.99 71.2656C107.84 71.2913 107.703 71.3694 107.604 71.4861C107.506 71.6027 107.451 71.7505 107.451 71.9031C107.451 72.0557 107.506 72.2034 107.604 72.3201C107.703 72.4367 107.84 72.5148 107.99 72.5405C131.684 72.5788 154.601 80.9756 172.688 96.2464C190.284 111.202 202.152 131.773 206.278 154.467C210.694 179.576 205.328 205.42 191.279 226.712C184.367 237.088 175.575 246.086 165.356 253.244C162.887 255.006 160.301 256.644 157.597 258.159C156.468 258.806 154.301 259.434 153.783 260.654C153.134 262.467 152.596 264.318 152.172 266.197C148.468 279.241 144.765 292.378 140.765 305.349C140.568 306.185 140.096 306.932 139.425 307.471C138.755 308.01 137.923 308.31 137.062 308.324C136.893 308.329 136.733 308.399 136.616 308.52C136.498 308.641 136.432 308.802 136.432 308.971V314.606C136.43 314.747 136.475 314.884 136.558 314.998C136.642 315.111 136.76 315.194 136.895 315.234C138.147 315.621 139.239 316.401 140.01 317.459C140.781 318.516 141.188 319.793 141.171 321.101C141.155 322.408 140.715 323.675 139.918 324.712C139.12 325.749 138.008 326.501 136.747 326.856C136.614 326.896 136.497 326.978 136.414 327.09C136.332 327.201 136.287 327.336 136.287 327.475C136.287 327.614 136.332 327.749 136.414 327.861C136.497 327.972 136.614 328.054 136.747 328.094C138.015 328.461 139.129 329.228 139.922 330.281C140.715 331.334 141.144 332.616 141.144 333.933C141.144 335.25 140.715 336.532 139.922 337.584C139.129 338.637 138.015 339.405 136.747 339.772C136.614 339.812 136.497 339.894 136.414 340.005C136.332 340.117 136.287 340.252 136.287 340.391C136.287 340.529 136.332 340.665 136.414 340.776C136.497 340.887 136.614 340.969 136.747 341.01C138.015 341.376 139.129 342.144 139.922 343.197C140.715 344.25 141.144 345.531 141.144 346.848C141.144 348.165 140.715 349.447 139.922 350.5C139.129 351.553 138.015 352.32 136.747 352.687C136.614 352.727 136.497 352.809 136.414 352.921C136.332 353.032 136.287 353.167 136.287 353.306C136.287 353.445 136.332 353.58 136.414 353.691C136.497 353.803 136.614 353.885 136.747 353.925C137.879 354.242 138.894 354.88 139.67 355.76C140.447 356.64 140.952 357.726 141.124 358.886C141.296 360.046 141.129 361.231 140.641 362.298C140.154 363.365 139.367 364.269 138.377 364.9C136.419 365.767 134.259 366.074 132.136 365.787H118.841C118.671 365.792 118.509 365.861 118.388 365.982C118.268 366.102 118.198 366.264 118.193 366.434C117.938 368.981 116.751 371.345 114.858 373.074C112.965 374.802 110.5 375.773 107.935 375.802C105.369 375.773 102.904 374.802 101.012 373.074C99.119 371.345 97.9316 368.981 97.6765 366.434C97.6765 366.349 97.6598 366.265 97.6272 366.186C97.5946 366.108 97.5469 366.037 97.4867 365.976C97.4265 365.916 97.3551 365.869 97.2764 365.836C97.1978 365.804 97.1135 365.787 97.0284 365.787H83.7518C81.6864 366.058 79.5861 365.784 77.6598 364.993C76.6324 364.386 75.8062 363.491 75.284 362.42C74.7618 361.349 74.5665 360.148 74.7223 358.967C74.8781 357.786 75.3783 356.677 76.1606 355.777C76.9429 354.878 77.9728 354.227 79.1226 353.906C79.2557 353.866 79.3724 353.784 79.4553 353.673C79.5382 353.561 79.583 353.426 79.583 353.287C79.583 353.149 79.5382 353.014 79.4553 352.902C79.3724 352.791 79.2557 352.709 79.1226 352.668C77.8548 352.302 76.7406 351.534 75.9477 350.481C75.1548 349.428 74.7261 348.147 74.7261 346.83C74.7261 345.513 75.1548 344.231 75.9477 343.178C76.7406 342.125 77.8548 341.358 79.1226 340.991C79.2557 340.951 79.3724 340.869 79.4553 340.758C79.5382 340.646 79.583 340.511 79.583 340.372C79.583 340.233 79.5382 340.098 79.4553 339.987C79.3724 339.875 79.2557 339.793 79.1226 339.753C77.8548 339.387 76.7406 338.619 75.9477 337.566C75.1548 336.513 74.7261 335.232 74.7261 333.914C74.7261 332.597 75.1548 331.316 75.9477 330.263C76.7406 329.21 77.8548 328.442 79.1226 328.076C79.2557 328.036 79.3724 327.954 79.4553 327.842C79.5382 327.731 79.583 327.596 79.583 327.457C79.583 327.318 79.5382 327.183 79.4553 327.071C79.3724 326.96 79.2557 326.878 79.1226 326.838C77.8715 326.472 76.7711 325.716 75.9829 324.679C75.1948 323.643 74.7605 322.382 74.7439 321.081C74.7273 319.781 75.1293 318.509 75.8908 317.453C76.6523 316.397 77.7331 315.613 78.9744 315.216C79.1115 315.176 79.2322 315.094 79.3189 314.981C79.4055 314.868 79.4536 314.73 79.4559 314.588V308.952C79.4559 308.781 79.3876 308.616 79.266 308.495C79.1445 308.374 78.9797 308.305 78.8078 308.305C75.6785 308.158 75.2155 305.442 74.5304 303.077C73.691 300.17 72.8454 297.269 71.9936 294.374L65.1053 270.705C64.3091 267.97 63.5128 265.162 62.6981 262.483C62.5661 261.854 62.3866 261.237 62.1611 260.635C61.6426 259.453 59.4391 258.787 58.3466 258.159C47.5212 251.971 37.9452 243.826 30.1084 234.139C14.0537 214.144 6.32294 188.752 8.51772 163.225C10.5956 139.966 20.8083 118.179 37.367 101.679C53.9124 85.2099 75.7161 75.0441 98.9912 72.947C101.954 72.6699 104.954 72.559 107.935 72.5405C108.086 72.5148 108.222 72.4367 108.321 72.3201C108.42 72.2034 108.474 72.0557 108.474 71.9031C108.474 71.7505 108.42 71.6027 108.321 71.4861C108.222 71.3694 108.086 71.2913 107.935 71.2656" fill="#231815"/>
<path d="M107.972 378.018C105.096 377.996 102.315 376.989 100.094 375.166C97.8723 373.344 96.3457 370.815 95.7689 368.004H82.8071C81.5696 368.074 80.3281 368.012 79.1037 367.819C77.3101 367.454 75.6861 366.512 74.4817 365.136C73.2773 363.761 72.5591 362.029 72.4376 360.206C72.3685 358.881 72.6222 357.558 73.1768 356.351C73.7314 355.145 74.5706 354.09 75.6226 353.278C74.6304 352.518 73.8258 351.542 73.2705 350.424C72.7152 349.307 72.424 348.077 72.4191 346.829C72.424 345.581 72.7152 344.352 73.2705 343.234C73.8258 342.116 74.6304 341.14 75.6226 340.381C74.6311 339.617 73.8272 338.637 73.2721 337.516C72.717 336.396 72.4253 335.164 72.4191 333.914C72.4254 332.666 72.7173 331.437 73.2725 330.319C73.8277 329.202 74.6315 328.226 75.6226 327.465C74.6346 326.702 73.8329 325.725 73.278 324.608C72.7232 323.492 72.4295 322.263 72.4191 321.017C72.4539 319.453 72.929 317.931 73.7902 316.624C74.6515 315.317 75.864 314.278 77.2891 313.626V310.356C76.3331 310.088 75.4596 309.587 74.748 308.896C74.0364 308.205 73.5094 307.348 73.2153 306.402C72.1043 303.076 71.16 299.639 70.2341 296.332C69.7712 294.65 69.3083 292.987 68.8268 291.325L60.7905 263.683C60.7905 263.443 60.6609 263.166 60.6053 262.907C60.5202 262.492 60.4026 262.084 60.2535 261.688C60.1001 261.639 59.9514 261.578 59.8091 261.503L58.9203 261.022L56.902 259.895C54.1244 258.269 51.3469 256.514 48.7545 254.648C38.4865 247.346 29.6599 238.213 22.7198 227.709C8.48426 205.947 3.06977 179.6 7.57299 154.004C11.7717 130.737 23.9792 109.661 42.0884 94.4164C60.5453 78.9326 83.8769 70.4286 107.99 70.3965C111.064 70.3965 114.101 70.5258 117.008 70.7845C140.836 72.9092 163.164 83.2976 180.113 100.144C196.92 116.887 207.335 138.965 209.555 162.559C211.88 188.558 204.163 214.46 187.983 234.97C180.095 244.91 170.418 253.294 159.448 259.692L157.134 260.985L156.838 261.17C156.539 261.376 156.215 261.544 155.875 261.669H155.708C155.559 262.045 155.448 262.435 155.375 262.833C155.375 263.11 155.245 263.387 155.171 263.628L143.172 304.831C142.958 306.048 142.431 307.188 141.642 308.141C140.853 309.093 139.83 309.824 138.673 310.263V313.571C140.092 314.229 141.298 315.269 142.155 316.575C143.012 317.881 143.487 319.401 143.524 320.961C143.523 322.21 143.235 323.442 142.683 324.563C142.131 325.684 141.329 326.664 140.339 327.428C141.328 328.19 142.129 329.166 142.681 330.284C143.233 331.402 143.521 332.631 143.524 333.877C143.522 335.128 143.232 336.361 142.677 337.482C142.121 338.604 141.315 339.583 140.321 340.344C141.316 341.1 142.123 342.075 142.678 343.194C143.234 344.312 143.523 345.544 143.524 346.792C143.518 348.042 143.226 349.274 142.671 350.395C142.116 351.515 141.312 352.495 140.321 353.259C141.582 354.236 142.532 355.558 143.055 357.063C143.577 358.569 143.65 360.194 143.265 361.74C142.788 363.498 141.752 365.053 140.312 366.173C138.873 367.292 137.109 367.915 135.284 367.948H120.211C119.62 370.759 118.085 373.285 115.859 375.106C113.633 376.928 110.85 377.935 107.972 377.963V378.018ZM83.807 364.881H97.1392C97.538 364.88 97.9224 365.03 98.2146 365.301C98.5068 365.572 98.685 365.944 98.7131 366.341C98.9513 368.644 100.023 370.782 101.727 372.353C103.432 373.924 105.652 374.822 107.972 374.877C110.305 374.836 112.543 373.946 114.265 372.374C115.987 370.802 117.075 368.656 117.323 366.341C117.346 365.945 117.52 365.574 117.81 365.302C118.099 365.031 118.481 364.88 118.878 364.881H133.155C134.789 365.093 136.449 364.823 137.932 364.105C138.768 363.616 139.437 362.888 139.853 362.015C140.269 361.142 140.413 360.164 140.265 359.209C140.144 358.193 139.729 357.235 139.072 356.451C138.414 355.667 137.542 355.09 136.562 354.793C136.238 354.699 135.953 354.502 135.752 354.232C135.552 353.961 135.446 353.633 135.451 353.296C135.449 352.96 135.556 352.633 135.756 352.363C135.956 352.093 136.239 351.895 136.562 351.799C137.637 351.492 138.581 350.841 139.25 349.947C139.919 349.052 140.276 347.964 140.265 346.848C140.276 345.731 139.919 344.643 139.25 343.748C138.581 342.854 137.637 342.203 136.562 341.896C136.238 341.796 135.954 341.595 135.754 341.322C135.554 341.049 135.448 340.719 135.451 340.381C135.452 340.046 135.56 339.72 135.76 339.45C135.96 339.181 136.241 338.983 136.562 338.884C137.637 338.577 138.581 337.926 139.25 337.031C139.919 336.137 140.276 335.048 140.265 333.932C140.273 332.817 139.915 331.73 139.247 330.836C138.578 329.942 137.635 329.29 136.562 328.98C136.239 328.884 135.956 328.687 135.756 328.417C135.556 328.147 135.449 327.82 135.451 327.484C135.446 327.147 135.552 326.818 135.752 326.548C135.953 326.277 136.238 326.08 136.562 325.987C137.629 325.679 138.568 325.033 139.235 324.147C139.903 323.26 140.265 322.181 140.265 321.072C140.295 319.963 139.957 318.875 139.305 317.976C138.652 317.077 137.72 316.419 136.654 316.102C136.333 316.003 136.052 315.805 135.852 315.536C135.652 315.266 135.544 314.94 135.543 314.605V308.97C135.543 308.563 135.701 308.172 135.984 307.879C136.268 307.586 136.654 307.414 137.062 307.399C137.72 307.383 138.354 307.144 138.859 306.721C139.364 306.298 139.709 305.716 139.839 305.071C142.524 296.424 145.061 287.537 147.505 278.945C148.74 274.609 149.974 270.298 151.209 266.011C151.375 265.42 151.523 264.829 151.671 264.163C151.974 262.862 152.37 261.584 152.856 260.339C153.591 259.159 154.729 258.286 156.06 257.881C156.43 257.715 156.782 257.567 157.078 257.401C159.708 255.886 162.3 254.26 164.744 252.523C174.89 245.447 183.609 236.527 190.446 226.23C204.329 205.126 209.626 179.535 205.259 154.67C201.186 132.167 189.404 111.776 171.929 96.9847C154.014 81.841 131.302 73.5207 107.823 73.5006C104.768 73.5006 101.787 73.6484 98.9538 73.8886C75.8769 75.9499 54.2545 86.0186 37.8481 102.343C21.4258 118.678 11.3022 140.269 9.25804 163.317C7.14561 188.59 14.8044 213.711 30.6636 233.529C38.4203 243.139 47.9097 251.217 58.6425 257.346L59.6239 257.826C60.9529 258.223 62.0957 259.082 62.8459 260.246C63.0267 260.702 63.1691 261.172 63.2718 261.651C63.2718 261.854 63.3829 262.039 63.4199 262.223L75.4374 303.464C76.104 305.829 76.604 307.289 78.6964 307.381C79.1041 307.395 79.4903 307.567 79.7735 307.86C80.0568 308.153 80.215 308.544 80.2147 308.951V314.587C80.2138 314.922 80.1054 315.248 79.9055 315.517C79.7057 315.787 79.4247 315.985 79.1037 316.084C78.0205 316.383 77.0682 317.035 76.3975 317.935C75.7268 318.835 75.376 319.932 75.4004 321.054C75.4067 322.161 75.7702 323.237 76.4372 324.123C77.1043 325.008 78.0392 325.655 79.1037 325.969C79.4313 326.059 79.7198 326.254 79.9241 326.525C80.1285 326.796 80.2372 327.126 80.2332 327.465C80.2311 327.803 80.1201 328.131 79.9166 328.4C79.7132 328.67 79.4282 328.867 79.1037 328.962C78.03 329.272 77.0872 329.923 76.4187 330.817C75.7502 331.711 75.3926 332.798 75.4004 333.914C75.3896 335.03 75.746 336.119 76.4149 337.013C77.0839 337.907 78.0285 338.558 79.1037 338.866C79.4266 338.963 79.71 339.161 79.9131 339.43C80.1161 339.699 80.2282 340.025 80.2332 340.362C80.2351 340.703 80.1259 341.035 79.9222 341.308C79.7184 341.581 79.4312 341.781 79.1037 341.877C78.0285 342.185 77.0839 342.835 76.4149 343.73C75.746 344.624 75.3896 345.713 75.4004 346.829C75.3896 347.945 75.746 349.034 76.4149 349.928C77.0839 350.823 78.0285 351.474 79.1037 351.781C79.4313 351.871 79.7198 352.066 79.9241 352.337C80.1285 352.608 80.2372 352.939 80.2332 353.278C80.2372 353.616 80.1285 353.947 79.9241 354.218C79.7198 354.489 79.4313 354.684 79.1037 354.774C78.1126 355.082 77.2337 355.674 76.5755 356.475C75.9174 357.276 75.5088 358.252 75.4004 359.282C75.2715 360.253 75.4394 361.24 75.8822 362.114C76.3249 362.987 77.0219 363.707 77.8816 364.179C79.3343 364.821 80.9342 365.057 82.5108 364.862L83.807 364.881Z" fill="#231815"/>
<path d="M202.464 164.167C202.452 151.018 199.844 138 194.79 125.857C189.736 113.714 182.335 102.683 173.009 93.3938C163.682 84.1048 152.614 76.7398 140.435 71.7192C128.256 66.6986 115.206 64.1207 102.028 64.1329C88.8511 64.1183 75.8 66.6937 63.6202 71.7121C51.4405 76.7304 40.3705 84.0935 31.0425 93.3808C21.7145 102.668 14.3111 113.698 9.25487 125.84C4.19869 137.982 1.5888 150.999 1.57422 164.148C1.57707 182.447 6.61349 200.393 16.1346 216.032C25.6558 231.671 39.2962 244.402 55.5694 252.837L68.7535 298.106C69.0177 298.998 69.5646 299.781 70.3124 300.338C71.0602 300.894 71.9685 301.193 72.9012 301.191V312.019H131.155V301.191C132.085 301.189 132.989 300.888 133.733 300.332C134.477 299.776 135.021 298.995 135.285 298.106L148.469 252.837C164.742 244.402 178.382 231.671 187.903 216.032C197.425 200.393 202.461 182.447 202.464 164.148" fill="#F1BC1A"/>
<path d="M203.112 164.167C203.1 146.979 198.683 130.079 190.279 115.074C182.102 100.553 170.463 88.2667 156.393 79.3028C141.99 70.1654 125.506 64.8076 108.472 63.7268C91.1822 62.6168 73.8954 65.937 58.254 73.3717C43.2198 80.5834 30.1911 91.3696 20.3129 104.782C10.3172 118.483 3.9483 134.479 1.79604 151.289C-0.529111 169.62 2.23136 188.237 9.77682 205.112C17.2327 221.6 28.9702 235.8 43.7738 246.241C45.6255 247.535 47.4772 248.773 49.3289 249.937C50.2917 250.528 51.2732 251.101 52.2545 251.655L53.6618 252.431L54.4395 252.856C54.5321 252.856 55.2543 253.226 54.9395 252.856C55.0376 253.074 55.1061 253.304 55.1432 253.54L55.6431 255.258L59.7539 269.374C62.4944 278.816 65.1978 288.295 68.0124 297.718C68.2734 298.821 68.8925 299.806 69.7733 300.522C70.6541 301.237 71.7472 301.641 72.8823 301.672L72.2342 301.025V311.853C72.2342 311.938 72.251 312.022 72.2836 312.1C72.3161 312.179 72.3639 312.25 72.4241 312.31C72.4843 312.37 72.5557 312.418 72.6343 312.45C72.7129 312.483 72.7972 312.499 72.8823 312.499H131.136C131.305 312.495 131.465 312.424 131.583 312.304C131.7 312.183 131.766 312.021 131.766 311.853V301.025L131.136 301.672C132.224 301.646 133.274 301.273 134.134 300.608C134.994 299.943 135.617 299.021 135.914 297.977C136.136 297.293 136.321 296.591 136.525 295.907L139.469 285.782L147.191 259.286C147.598 257.863 148.024 256.441 148.431 255.018C148.536 254.297 148.742 253.594 149.042 252.93C149.042 252.93 149.153 252.93 149.042 252.93C148.931 252.93 149.394 252.93 149.376 252.93C149.593 252.834 149.803 252.723 150.005 252.597L151.246 251.914C152.801 251.045 154.338 250.066 155.838 249.198C158.801 247.35 161.634 245.336 164.393 243.193C175.535 234.472 184.725 223.52 191.372 211.043C198.155 198.249 202.084 184.143 202.889 169.692C203 167.844 203.056 165.996 203.056 164.019C203.03 163.869 202.952 163.732 202.835 163.634C202.718 163.535 202.57 163.482 202.417 163.482C202.264 163.482 202.116 163.535 201.999 163.634C201.882 163.732 201.804 163.869 201.778 164.019C201.764 178.557 198.566 192.916 192.409 206.091C186.511 218.729 178.027 229.995 167.504 239.165C162.237 243.747 156.495 247.754 150.375 251.119C149.616 251.544 148.246 251.932 147.857 252.727C147.791 252.914 147.735 253.106 147.691 253.3C147.413 254.279 147.135 255.24 146.839 256.219L139.728 280.738C138.062 286.447 136.617 292.304 134.71 297.94C134.484 298.698 134.021 299.364 133.387 299.839C132.754 300.315 131.985 300.575 131.192 300.582C131.023 300.582 130.861 300.647 130.74 300.765C130.619 300.882 130.549 301.042 130.544 301.21V312.038C130.766 311.834 130.97 311.613 131.192 311.391H72.9379L73.5674 312.038V301.21C73.5674 301.043 73.5011 300.884 73.3831 300.766C73.265 300.648 73.1049 300.582 72.9379 300.582C70.6233 300.49 69.6604 298.734 69.1049 296.887L67.7717 292.304L63.161 276.488C61.5685 271.007 59.9699 265.513 58.3651 260.007C57.8281 258.159 57.3097 256.311 56.7727 254.464C56.6737 253.712 56.4351 252.985 56.069 252.32C55.2526 251.723 54.3627 251.232 53.4211 250.861C52.3842 250.288 51.3657 249.697 50.3473 249.013C48.4956 247.849 46.5328 246.629 44.6812 245.318C41.0583 242.775 37.6067 239.997 34.3487 237.003C27.7847 230.957 22.056 224.066 17.3132 216.512C7.5495 200.866 2.33734 182.82 2.25897 164.389C2.19202 147.405 6.48886 130.687 14.7393 115.832C22.7932 101.431 34.2869 89.2388 48.1993 80.3375C62.435 71.2445 78.7529 65.9102 95.6211 64.8354C112.738 63.8084 129.834 67.1668 145.283 74.5912C160.137 81.7429 172.996 92.4358 182.724 105.725C192.605 119.232 198.899 135.015 201.019 151.603C201.543 155.771 201.809 159.967 201.815 164.167C201.841 164.318 201.919 164.454 202.036 164.552C202.153 164.651 202.301 164.705 202.454 164.705C202.607 164.705 202.755 164.651 202.872 164.552C202.989 164.454 203.067 164.318 203.093 164.167" fill="#231815"/>
<path d="M131.155 313.571H72.9012C72.4837 313.571 72.0834 313.405 71.7882 313.111C71.493 312.816 71.3272 312.417 71.3272 312V302.485C70.3129 302.178 69.395 301.616 68.662 300.852C67.9289 300.088 67.4056 299.149 67.1424 298.124C65.2783 291.83 63.4267 285.523 61.5873 279.204C60.6615 276.063 59.7357 272.903 58.8468 269.762L54.2361 253.927L54.0139 253.817L53.2177 253.392L51.7919 252.597L48.8477 250.879C46.9961 249.696 45.0147 248.44 43.163 247.183C28.2109 236.655 16.3621 222.318 8.85125 205.666C1.23692 188.628 -1.53061 169.828 0.851948 151.325C3.02956 134.357 9.46908 118.214 19.5725 104.394C29.5307 90.8145 42.6891 79.8929 57.8839 72.5953C73.6606 65.0611 91.1099 61.6895 108.565 62.8025C125.759 63.8851 142.398 69.2945 156.931 78.5264C171.124 87.5749 182.869 99.9672 191.131 114.612C199.612 129.759 204.073 146.816 204.093 164.167C204.093 166.181 204.093 168.047 203.927 169.876C203.093 184.454 199.127 198.683 192.298 211.597C185.581 224.186 176.304 235.237 165.06 244.042C162.295 246.207 159.421 248.23 156.449 250.103C154.931 251.063 153.376 251.95 151.82 252.856L150.561 253.539C150.344 253.683 150.115 253.807 149.876 253.909H149.728C149.728 254.149 149.598 254.5 149.561 254.685C149.524 254.87 149.45 255.202 149.394 255.387L137.284 296.96C137.155 297.422 137.025 297.902 136.877 298.383C136.586 299.349 136.058 300.227 135.34 300.937C134.622 301.647 133.737 302.166 132.766 302.448V311.945C132.774 312.159 132.738 312.372 132.66 312.572C132.582 312.771 132.463 312.953 132.313 313.105C132.162 313.257 131.981 313.377 131.782 313.457C131.583 313.537 131.37 313.576 131.155 313.571ZM74.4566 310.448H129.581V301.21C129.586 300.803 129.749 300.413 130.036 300.124C130.322 299.834 130.71 299.667 131.118 299.658C131.72 299.651 132.304 299.451 132.784 299.089C133.264 298.726 133.614 298.22 133.785 297.644C135.062 293.948 136.136 290.013 137.173 286.243C137.71 284.396 138.247 282.382 138.803 280.479L146.784 253.041C146.836 252.8 146.91 252.565 147.006 252.338C147.543 251.52 148.348 250.913 149.283 250.62L149.894 250.324C155.954 246.972 161.651 243.003 166.893 238.481C177.292 229.415 185.696 218.299 191.576 205.832C197.658 192.779 200.818 178.561 200.834 164.167C200.82 160.01 200.561 155.858 200.057 151.732C197.955 135.291 191.718 119.649 181.929 106.26C172.302 93.1136 159.584 82.53 144.895 75.4407C129.558 68.1337 112.599 64.8764 95.6399 65.9806C78.9302 67.0457 62.7656 72.3291 48.6626 81.3349C34.8886 90.1384 23.5038 102.197 15.5173 116.441C7.34197 131.134 3.08294 147.675 3.14802 164.481C3.18629 182.778 8.35618 200.699 18.0726 216.216C22.76 223.713 28.4335 230.549 34.9415 236.541C38.1639 239.516 41.5851 242.269 45.1814 244.781C47.0331 246.056 48.8848 247.294 50.7364 248.477C51.7364 249.086 52.7548 249.678 53.7732 250.232C54.0312 250.376 54.2971 250.505 54.5695 250.62C55.3463 250.89 56.0587 251.318 56.6619 251.876C57.0893 252.472 57.3628 253.164 57.4581 253.89C57.4581 254.075 57.4951 254.241 57.5692 254.389L69.9014 296.738C70.5125 298.808 71.3642 299.695 72.8826 299.75C73.2872 299.764 73.6707 299.933 73.9535 300.223C74.2362 300.512 74.3965 300.898 74.401 301.302L74.4566 310.448Z" fill="#231815"/>
<path d="M54.2549 180.297C54.5326 181.461 54.7919 182.644 55.0696 183.808C55.798 187.023 56.5263 190.238 57.2546 193.453C58.3039 198.183 59.3717 202.913 60.458 207.643L64.4022 225.03C65.8465 231.361 67.2785 237.693 68.6981 244.024L73.0495 263.166L77.1047 281.033L80.5118 296.129C81.3451 299.824 82.1598 303.39 82.9931 307.03C83.3819 308.73 83.7152 310.467 84.1596 312.167C84.1596 312.167 84.1596 312.315 84.1596 312.389C84.3448 313.183 85.5855 312.85 85.4003 312.056L84.6041 308.527C83.8819 305.312 83.1412 302.097 82.419 298.882L79.1971 284.692L75.2901 267.379C73.8705 261.035 72.4385 254.71 70.9942 248.403L66.6612 229.243L62.606 211.375C61.4703 206.35 60.3284 201.318 59.1804 196.28C58.3656 192.584 57.5324 189.018 56.7177 185.378C56.3288 183.679 55.9955 181.942 55.5511 180.242V180.02C55.3659 179.226 54.1438 179.558 54.3104 180.371" fill="#231815"/>
<path d="M148.543 179.946C148.284 181.129 148.006 182.293 147.746 183.475C147.024 186.69 146.284 189.887 145.561 193.102L142.34 207.31L138.395 224.697C136.976 231.016 135.544 237.341 134.1 243.673L129.767 262.833L125.711 280.682L122.286 295.778C121.471 299.473 120.638 303.057 119.823 306.679C119.434 308.397 119.008 310.097 118.656 311.815V312.037C118.471 312.85 119.712 313.183 119.897 312.388L120.693 308.859C121.416 305.644 122.156 302.448 122.878 299.233L126.1 285.024L130.044 267.637C131.464 261.318 132.896 254.993 134.34 248.661L138.673 229.501L142.728 211.652C143.876 206.608 145.006 201.582 146.154 196.557C146.969 192.861 147.802 189.277 148.617 185.655C149.006 183.937 149.432 182.237 149.783 180.519V180.297C149.969 179.484 148.728 179.151 148.543 179.946Z" fill="#231815"/>
<path d="M27.2387 194.58C24.6129 188.053 22.8091 181.226 21.8688 174.256L22.0354 175.438C21.0541 167.944 21.0541 160.354 22.0354 152.86C22.0354 153.266 21.9428 153.654 21.8873 154.061C22.8856 146.643 24.8721 139.391 27.7942 132.498C27.6275 132.849 27.4794 133.219 27.3312 133.57C29.0104 129.621 30.9849 125.804 33.2381 122.151C34.3306 120.303 35.4972 118.622 36.7379 116.922L37.6637 115.684C37.7952 115.486 37.9373 115.294 38.0896 115.111C38.7376 114.28 39.4228 113.448 40.1079 112.654C42.8421 109.432 45.813 106.418 48.996 103.637C49.8108 102.935 50.6255 102.251 51.4403 101.586L52.6624 100.607L52.9031 100.422L52.4772 100.755L53.2179 100.182C54.9029 98.9256 56.6435 97.7246 58.4026 96.5975C62.4628 94.0037 66.7372 91.7599 71.1793 89.8904L70.1053 90.3338C71.957 89.5578 73.8087 88.8372 75.8085 88.1721C76.9525 87.8407 77.92 87.0736 78.5021 86.0365C79.0841 84.9994 79.234 83.7754 78.9193 82.629C78.5954 81.4813 77.829 80.5084 76.7879 79.9232C75.7468 79.3379 74.5158 79.1881 73.3643 79.5064C64.9578 82.3342 57.0197 86.3943 49.8108 91.5533C42.4762 96.8994 35.9636 103.286 30.4791 110.511C25.1251 117.542 20.8559 125.333 17.8136 133.625C14.6566 142.158 12.8391 151.127 12.4252 160.213C11.9053 171.409 13.5202 182.601 17.184 193.195C17.6284 194.451 18.0913 195.707 18.5913 196.89C18.9405 197.991 19.6685 198.933 20.6467 199.551C21.6955 200.152 22.9391 200.318 24.1093 200.013C25.232 199.691 26.1871 198.95 26.7758 197.943C27.0864 197.433 27.288 196.865 27.3676 196.273C27.4473 195.682 27.4034 195.08 27.2387 194.506" fill="white"/>
<path d="M61.9575 233.899C59.8007 232.779 57.7053 231.546 55.6802 230.203C54.81 229.649 53.9582 229.058 53.125 228.448L52.4398 227.931C51.5139 227.229 53.0879 228.448 52.4398 227.931L51.2733 226.988C47.8919 224.11 44.7234 220.992 41.7926 217.658C40.9477 216.829 39.8106 216.365 38.6262 216.365C37.4418 216.365 36.3047 216.829 35.4598 217.658C34.6428 218.507 34.1865 219.639 34.1865 220.817C34.1865 221.995 34.6428 223.127 35.4598 223.977C38.4322 227.374 41.6571 230.542 45.1071 233.455C48.902 236.563 53.0101 239.269 57.3653 241.53C58.3951 242.113 59.6126 242.271 60.7578 241.971C61.9029 241.671 62.8851 240.935 63.4944 239.922C64.0757 238.896 64.2345 237.684 63.9374 236.543C63.6403 235.402 62.9105 234.421 61.902 233.806" fill="white"/>
<path d="M29.5719 214.037C30.7574 214.027 31.8916 213.553 32.7298 212.716C33.5681 211.88 34.0433 210.748 34.053 209.565C34.0339 208.385 33.5557 207.259 32.7194 206.424C31.8832 205.59 30.7544 205.113 29.5719 205.094C28.388 205.108 27.2565 205.584 26.4192 206.419C25.582 207.255 25.1052 208.384 25.0908 209.565C25.1145 210.744 25.5942 211.867 26.4295 212.701C27.2648 213.534 28.3909 214.013 29.5719 214.037Z" fill="white"/>
<path d="M102.028 369.297C98.9702 369.292 96.0388 368.078 93.8764 365.92C91.714 363.762 90.4971 360.837 90.4922 357.786V350.247C90.4971 347.196 91.714 344.271 93.8764 342.113C96.0388 339.956 98.9702 338.741 102.028 338.736C105.089 338.736 108.026 339.949 110.192 342.107C112.358 344.265 113.578 347.193 113.583 350.247V357.786C113.578 360.841 112.358 363.768 110.192 365.927C108.026 368.085 105.089 369.297 102.028 369.297ZM102.028 339.937C100.67 339.935 99.3242 340.2 98.0685 340.717C96.8127 341.234 95.6715 341.993 94.7101 342.951C93.7487 343.908 92.9859 345.046 92.4655 346.298C91.9451 347.55 91.6772 348.892 91.6772 350.247V357.786C91.6772 360.52 92.7659 363.143 94.7036 365.076C96.6413 367.01 99.2694 368.096 102.01 368.096C104.752 368.096 107.382 367.01 109.322 365.077C111.263 363.144 112.356 360.522 112.361 357.786V350.247C112.356 347.515 111.266 344.895 109.329 342.962C107.392 341.03 104.767 339.942 102.028 339.937Z" fill="white"/>
<path d="M102.028 368.706C99.1291 368.697 96.3512 367.543 94.301 365.497C92.2508 363.452 91.0947 360.68 91.085 357.787V350.248C91.0947 347.357 92.2514 344.587 94.3021 342.544C96.3528 340.501 99.1308 339.352 102.028 339.347C104.926 339.352 107.704 340.501 109.755 342.544C111.805 344.587 112.962 347.357 112.972 350.248V357.787C112.962 360.68 111.806 363.452 109.756 365.497C107.706 367.543 104.928 368.697 102.028 368.706Z" fill="#231815"/>
<path d="M136.025 313.276C136.02 311.505 135.312 309.808 134.055 308.558C132.799 307.308 131.097 306.605 129.322 306.605H74.7344C72.9615 306.605 71.2613 307.308 70.0077 308.559C68.7541 309.81 68.0498 311.507 68.0498 313.276C68.0554 314.749 68.5459 316.18 69.4458 317.348C70.3457 318.517 71.6053 319.358 73.0309 319.743C71.6068 320.123 70.3477 320.961 69.4476 322.126C68.5475 323.292 68.0564 324.72 68.0498 326.191C68.0564 327.662 68.5475 329.09 69.4476 330.256C70.3477 331.421 71.6068 332.258 73.0309 332.639C71.6037 333.021 70.3424 333.862 69.442 335.031C68.5416 336.2 68.0523 337.632 68.0498 339.106C68.0564 340.578 68.5475 342.006 69.4476 343.171C70.3477 344.336 71.6068 345.174 73.0309 345.555C71.6068 345.936 70.3477 346.773 69.4476 347.939C68.5475 349.104 68.0564 350.532 68.0498 352.003C68.0498 353.774 68.7535 355.472 70.0065 356.726C71.2596 357.98 72.9598 358.687 74.7344 358.692H129.304C131.083 358.692 132.79 357.988 134.05 356.734C135.31 355.48 136.02 353.779 136.025 352.003C136.021 350.529 135.528 349.097 134.624 347.931C133.72 346.765 132.455 345.929 131.026 345.555C132.455 345.18 133.72 344.345 134.624 343.179C135.528 342.012 136.021 340.581 136.025 339.106C136.022 337.63 135.53 336.195 134.626 335.026C133.722 333.857 132.456 333.018 131.026 332.639C132.455 332.265 133.72 331.429 134.624 330.263C135.528 329.097 136.021 327.665 136.025 326.191C136.021 324.717 135.528 323.285 134.624 322.119C133.72 320.953 132.455 320.117 131.026 319.743C132.455 319.361 133.718 318.522 134.622 317.353C135.525 316.184 136.019 314.752 136.025 313.276Z" fill="#E2705E"/>
<path d="M129.303 359.431H74.7342C72.7698 359.431 70.8859 358.652 69.4968 357.266C68.1078 355.88 67.3274 354 67.3274 352.04C67.319 350.735 67.6572 349.45 68.3077 348.318C68.9582 347.185 69.8978 346.244 71.0308 345.592C69.8978 344.939 68.9582 343.998 68.3077 342.866C67.6572 341.733 67.319 340.449 67.3274 339.143C67.3157 337.835 67.6524 336.547 68.3031 335.41C68.9537 334.274 69.895 333.331 71.0308 332.676C69.8978 332.024 68.9582 331.083 68.3077 329.95C67.6572 328.818 67.319 327.533 67.3274 326.228C67.319 324.923 67.6572 323.638 68.3077 322.505C68.9582 321.373 69.8978 320.432 71.0308 319.78C69.9027 319.117 68.9675 318.171 68.318 317.037C67.6684 315.903 67.327 314.619 67.3274 313.313C67.3274 311.352 68.1078 309.473 69.4968 308.087C70.8859 306.701 72.7698 305.922 74.7342 305.922H129.303C131.268 305.922 133.152 306.701 134.541 308.087C135.93 309.473 136.71 311.352 136.71 313.313C136.722 314.621 136.385 315.909 135.735 317.046C135.084 318.182 134.143 319.125 133.007 319.78C134.14 320.432 135.079 321.373 135.73 322.505C136.38 323.638 136.719 324.923 136.71 326.228C136.719 327.533 136.38 328.818 135.73 329.95C135.079 331.083 134.14 332.024 133.007 332.676C134.143 333.331 135.084 334.274 135.735 335.41C136.385 336.547 136.722 337.835 136.71 339.143C136.719 340.449 136.38 341.733 135.73 342.866C135.079 343.998 134.14 344.939 133.007 345.592C134.14 346.244 135.079 347.185 135.73 348.318C136.38 349.45 136.719 350.735 136.71 352.04C136.71 354 135.93 355.88 134.541 357.266C133.152 358.652 131.268 359.431 129.303 359.431ZM74.7342 307.345C73.1578 307.345 71.6459 307.969 70.5312 309.082C69.4165 310.194 68.7903 311.703 68.7903 313.276C68.7919 314.589 69.2286 315.864 70.0324 316.903C70.8362 317.943 71.962 318.688 73.2343 319.022L75.9378 319.743L73.2343 320.463C71.9635 320.794 70.8382 321.535 70.0342 322.571C69.2302 323.608 68.7928 324.881 68.7903 326.191C68.7928 327.502 69.2302 328.774 70.0342 329.811C70.8382 330.847 71.9635 331.588 73.2343 331.919L75.9378 332.639L73.2343 333.36C71.962 333.694 70.8362 334.439 70.0324 335.479C69.2286 336.518 68.7919 337.793 68.7903 339.106C68.7959 340.416 69.2345 341.687 70.038 342.723C70.8415 343.759 71.9651 344.501 73.2343 344.834L75.9378 345.555L73.2343 346.275C71.9635 346.606 70.8382 347.347 70.0342 348.384C69.2302 349.42 68.7928 350.693 68.7903 352.003C68.8 353.572 69.43 355.073 70.5431 356.18C71.6562 357.287 73.1625 357.911 74.7342 357.916H129.303C130.882 357.911 132.393 357.282 133.508 356.167C134.622 355.051 135.247 353.541 135.247 351.966C135.246 350.658 134.811 349.387 134.011 348.351C133.21 347.315 132.089 346.573 130.822 346.238L128.1 345.518L130.822 344.797C132.088 344.46 133.207 343.717 134.007 342.681C134.807 341.646 135.243 340.377 135.247 339.069C135.247 337.759 134.813 336.485 134.013 335.446C133.212 334.407 132.091 333.661 130.822 333.323L128.1 332.602L130.822 331.882C132.089 331.548 133.21 330.805 134.011 329.769C134.811 328.733 135.246 327.462 135.247 326.154C135.246 324.846 134.811 323.575 134.011 322.539C133.21 321.503 132.089 320.76 130.822 320.426L128.1 319.706L130.822 318.985C132.091 318.647 133.212 317.901 134.013 316.862C134.813 315.823 135.247 314.549 135.247 313.239C135.247 311.666 134.621 310.157 133.506 309.045C132.392 307.933 130.88 307.308 129.303 307.308L74.7342 307.345Z" fill="#231815"/>
<path d="M129.303 360.54L74.0118 360.411C73.5207 360.411 73.0497 360.216 72.7025 359.869C72.3552 359.523 72.1602 359.053 72.1602 358.563C72.1602 358.073 72.3552 357.603 72.7025 357.256C73.0497 356.91 73.5207 356.715 74.0118 356.715L129.303 356.844C130.592 356.844 131.828 356.335 132.74 355.428C133.653 354.52 134.168 353.289 134.173 352.004C134.16 350.926 133.79 349.882 133.12 349.036C132.45 348.191 131.518 347.59 130.47 347.329C130.066 347.221 129.711 346.979 129.462 346.644C129.213 346.308 129.085 345.898 129.1 345.481C129.085 345.064 129.213 344.654 129.462 344.319C129.711 343.983 130.066 343.742 130.47 343.633C131.518 343.379 132.451 342.783 133.122 341.939C133.793 341.096 134.163 340.054 134.173 338.977C134.167 337.898 133.799 336.851 133.128 336.004C132.457 335.157 131.521 334.558 130.47 334.303C130.066 334.194 129.711 333.953 129.462 333.617C129.213 333.282 129.085 332.872 129.1 332.455C129.085 332.038 129.213 331.628 129.462 331.293C129.711 330.957 130.066 330.716 130.47 330.607C131.518 330.346 132.45 329.746 133.12 328.9C133.79 328.054 134.16 327.011 134.173 325.933C134.16 324.855 133.79 323.811 133.12 322.965C132.45 322.12 131.518 321.519 130.47 321.258C130.066 321.15 129.711 320.908 129.462 320.573C129.213 320.237 129.085 319.827 129.1 319.41C129.085 318.993 129.213 318.583 129.462 318.248C129.711 317.912 130.066 317.671 130.47 317.563C131.52 317.304 132.453 316.705 133.124 315.858C133.794 315.012 134.164 313.967 134.173 312.888C134.168 311.607 133.655 310.381 132.746 309.477C131.836 308.573 130.605 308.065 129.322 308.065C128.831 308.065 128.36 307.871 128.012 307.524C127.665 307.178 127.47 306.708 127.47 306.218C127.47 305.728 127.665 305.258 128.012 304.911C128.36 304.565 128.831 304.37 129.322 304.37C131.587 304.37 133.761 305.267 135.364 306.864C136.968 308.461 137.872 310.627 137.877 312.888C137.876 314.117 137.61 315.331 137.095 316.447C136.581 317.563 135.83 318.555 134.895 319.355C135.831 320.15 136.582 321.138 137.097 322.252C137.611 323.365 137.878 324.577 137.877 325.803C137.878 327.029 137.611 328.241 137.097 329.355C136.582 330.468 135.831 331.457 134.895 332.252C135.83 333.051 136.581 334.043 137.095 335.16C137.61 336.276 137.876 337.49 137.877 338.719C137.875 339.944 137.608 341.155 137.093 342.268C136.579 343.381 135.829 344.37 134.895 345.167C135.88 346.006 136.661 347.057 137.177 348.242C137.694 349.426 137.933 350.713 137.877 352.004C137.877 353.126 137.655 354.238 137.224 355.275C136.793 356.311 136.161 357.253 135.364 358.046C134.568 358.839 133.623 359.467 132.583 359.895C131.543 360.323 130.428 360.542 129.303 360.54ZM126.822 347.421H77.2338C76.7427 347.421 76.2717 347.227 75.9245 346.88C75.5772 346.534 75.3821 346.064 75.3821 345.574C75.3821 345.084 75.5772 344.614 75.9245 344.267C76.2717 343.921 76.7427 343.726 77.2338 343.726H126.766C127.258 343.726 127.728 343.921 128.076 344.267C128.423 344.614 128.618 345.084 128.618 345.574C128.618 346.064 128.423 346.534 128.076 346.88C127.728 347.227 127.258 347.421 126.766 347.421H126.822ZM126.822 334.487H77.2338C76.7427 334.487 76.2717 334.293 75.9245 333.946C75.5772 333.6 75.3821 333.13 75.3821 332.64C75.3821 332.15 75.5772 331.68 75.9245 331.333C76.2717 330.987 76.7427 330.792 77.2338 330.792H126.766C127.258 330.792 127.728 330.987 128.076 331.333C128.423 331.68 128.618 332.15 128.618 332.64C128.618 333.13 128.423 333.6 128.076 333.946C127.728 334.293 127.258 334.487 126.766 334.487H126.822ZM126.822 321.554H77.2338C76.7427 321.554 76.2717 321.359 75.9245 321.012C75.5772 320.666 75.3821 320.196 75.3821 319.706C75.3821 319.216 75.5772 318.746 75.9245 318.399C76.2717 318.053 76.7427 317.858 77.2338 317.858H126.766C127.258 317.858 127.728 318.053 128.076 318.399C128.423 318.746 128.618 319.216 128.618 319.706C128.621 319.95 128.574 320.192 128.482 320.419C128.391 320.645 128.255 320.851 128.082 321.024C127.91 321.198 127.705 321.336 127.479 321.43C127.253 321.524 127.011 321.572 126.766 321.572L126.822 321.554Z" fill="white"/>
<path d="M31.3861 165.59C33.4652 164.208 35.8655 163.384 38.3561 163.197C40.8467 163.009 43.3438 163.464 45.6071 164.518C49.4587 166.366 52.7361 170.948 50.1438 175.161C49.5696 176.101 48.7836 176.894 47.8482 177.478C46.9128 178.062 45.8537 178.42 44.7553 178.523C43.6864 178.576 42.6209 178.366 41.6523 177.912C40.6837 177.458 39.8417 176.773 39.2003 175.918C38.5315 175.057 38.0467 174.069 37.776 173.014C37.5053 171.959 37.4543 170.859 37.6263 169.784C38.1367 167.624 39.3236 165.682 41.0149 164.241C44.6932 160.95 49.2222 158.755 54.0879 157.903C58.5689 157.194 63.16 157.837 67.2719 159.751C70.4197 161.137 74.0491 163.834 73.438 167.733C73.1495 169.437 72.2715 170.987 70.9567 172.112C70.2068 172.729 69.3105 173.143 68.3539 173.315C67.3973 173.486 66.4125 173.409 65.4943 173.091C61.0872 171.724 60.5502 166.624 62.2353 162.929C63.3198 160.786 64.9057 158.934 66.859 157.532C68.8122 156.13 71.0752 155.218 73.4565 154.873C74.9134 154.639 76.3942 154.589 77.8635 154.725C78.6783 154.725 78.6783 153.506 77.8635 153.45C75.0055 153.159 72.1199 153.585 69.4684 154.688C66.817 155.792 64.4835 157.538 62.6797 159.769C59.9577 163.298 58.6245 169.137 62.1797 172.703C63.0307 173.508 64.057 174.106 65.1783 174.449C66.2995 174.792 67.4851 174.871 68.6421 174.68C69.6546 174.467 70.611 174.044 71.4498 173.44C72.2886 172.835 72.9911 172.062 73.5121 171.17C74.5567 169.571 74.9661 167.64 74.6601 165.756C74.155 163.653 72.8973 161.806 71.1234 160.564C69.3178 159.298 67.316 158.337 65.198 157.718C62.8141 156.893 60.3141 156.45 57.7912 156.407C52.0169 156.591 46.444 158.567 41.8482 162.061C39.7896 163.503 38.1378 165.45 37.0523 167.714C36.5715 168.842 36.3237 170.055 36.3237 171.28C36.3237 172.506 36.5715 173.719 37.0523 174.847C37.4979 175.948 38.1697 176.945 39.0244 177.772C39.879 178.6 40.8977 179.239 42.0149 179.65C43.1929 180.029 44.4446 180.121 45.6654 179.918C46.8863 179.716 48.0408 179.225 49.0327 178.486C50.0049 177.807 50.8146 176.921 51.4036 175.892C51.9926 174.864 52.3464 173.718 52.4398 172.537C52.4584 171.35 52.2331 170.172 51.7777 169.076C51.3222 167.98 50.6464 166.988 49.7919 166.162C47.7972 164.274 45.3201 162.97 42.6321 162.394C39.9441 161.817 37.1489 161.989 34.5526 162.892C33.241 163.34 31.9955 163.962 30.8492 164.74C30.1641 165.202 30.8491 166.31 31.4972 165.848" fill="#231815"/>
<path d="M173.299 164.5C171.023 163.005 168.399 162.122 165.681 161.934C162.963 161.746 160.243 162.261 157.782 163.428C153.579 165.534 150.19 170.32 152.357 175.031C152.837 176.098 153.547 177.046 154.434 177.81C155.322 178.573 156.367 179.133 157.495 179.45C158.623 179.767 159.807 179.834 160.963 179.645C162.12 179.456 163.221 179.016 164.189 178.357C166.043 176.897 167.268 174.784 167.612 172.451C167.957 170.119 167.394 167.743 166.04 165.811C163.189 161.562 158.023 158.827 153.245 157.349C150.42 156.441 147.448 156.077 144.487 156.277C142.114 156.558 139.771 157.053 137.487 157.755C135.589 158.178 133.795 158.976 132.21 160.102C130.626 161.366 129.581 163.181 129.284 165.183C129.053 166.365 129.114 167.585 129.462 168.738C129.811 169.891 130.436 170.941 131.284 171.798C132.114 172.699 133.145 173.393 134.293 173.823C135.442 174.254 136.676 174.408 137.895 174.274C139.14 174.201 140.339 173.779 141.354 173.057C142.369 172.334 143.16 171.341 143.635 170.19C144.451 167.64 144.224 164.871 143.005 162.486C141.849 160.106 140.128 158.044 137.992 156.479C135.856 154.914 133.369 153.894 130.747 153.506C129.229 153.266 127.687 153.21 126.155 153.339C125.34 153.339 125.322 154.688 126.155 154.614C128.649 154.352 131.17 154.674 133.517 155.556C135.864 156.439 137.972 157.856 139.672 159.696C141.146 161.323 142.172 163.302 142.654 165.442C143.009 166.613 143.009 167.862 142.653 169.033C142.297 170.204 141.601 171.243 140.654 172.02C139.701 172.624 138.609 172.976 137.482 173.044C136.355 173.112 135.229 172.893 134.21 172.408C133.233 171.914 132.388 171.196 131.744 170.313C131.1 169.429 130.676 168.406 130.507 167.326C130.334 165.426 130.904 163.532 132.099 162.042C133.218 160.843 134.637 159.963 136.21 159.492C137.913 158.901 139.691 158.55 141.432 158.125C143.851 157.517 146.362 157.36 148.838 157.663C153.669 158.321 158.227 160.282 162.022 163.335C163.726 164.643 165.07 166.359 165.929 168.324C166.315 169.31 166.495 170.364 166.46 171.422C166.425 172.479 166.175 173.519 165.726 174.477C165.311 175.406 164.699 176.235 163.931 176.905C163.164 177.575 162.26 178.07 161.282 178.357C160.232 178.61 159.137 178.602 158.091 178.335C157.045 178.068 156.081 177.549 155.282 176.824C154.501 176.174 153.884 175.351 153.479 174.421C153.074 173.49 152.892 172.478 152.949 171.465C153.236 169.362 154.324 167.45 155.986 166.125C157.86 164.658 160.078 163.692 162.431 163.32C164.784 162.949 167.193 163.183 169.429 164.001C170.561 164.398 171.638 164.938 172.633 165.608C173.318 166.07 173.966 164.961 173.281 164.5" fill="#231815"/>
<path d="M112.491 204.206H91.5479L83.4561 110.066H120.601L112.491 204.206Z" fill="#3A8A5C"/>
<path d="M112.49 205.112H91.5847C91.3613 205.112 91.1457 205.029 90.981 204.878C90.8163 204.728 90.7145 204.521 90.6959 204.299L82.604 110.067C82.5934 109.944 82.6076 109.82 82.6458 109.702C82.6839 109.585 82.7453 109.476 82.8262 109.383C82.9117 109.293 83.0152 109.221 83.13 109.174C83.2449 109.126 83.3685 109.103 83.4928 109.106H120.638C120.759 109.104 120.879 109.128 120.991 109.176C121.103 109.224 121.203 109.294 121.286 109.383C121.373 109.473 121.439 109.58 121.481 109.698C121.523 109.816 121.538 109.942 121.527 110.067L113.416 204.299C113.397 204.527 113.29 204.74 113.117 204.891C112.945 205.043 112.72 205.122 112.49 205.112ZM92.3809 203.264H111.676L119.619 110.88H84.4372L92.3809 203.264Z" fill="#231815"/>
<path d="M112.49 222.831H91.5479V243.691H112.49V222.831Z" fill="#3A8A5C"/>
<path d="M112.49 244.597H91.5841C91.3499 244.592 91.1266 244.497 90.9609 244.332C90.7952 244.167 90.7 243.944 90.6953 243.71V222.831C90.7 222.597 90.7952 222.375 90.9609 222.209C91.1266 222.044 91.3499 221.949 91.5841 221.944H112.527C112.764 221.944 112.992 222.037 113.162 222.203C113.331 222.369 113.429 222.594 113.434 222.831V243.71C113.432 243.831 113.405 243.949 113.356 244.06C113.307 244.17 113.237 244.269 113.149 244.352C113.061 244.434 112.957 244.499 112.844 244.541C112.731 244.583 112.61 244.602 112.49 244.597ZM92.4544 242.749H111.601V223.737H92.4544V242.749Z" fill="#231815"/>
<path d="M109.491 241.604H97.714C97.4783 241.604 97.2522 241.51 97.0855 241.344C96.9188 241.178 96.8252 240.952 96.8252 240.717C96.8252 240.482 96.9188 240.256 97.0855 240.09C97.2522 239.923 97.4783 239.83 97.714 239.83H108.602V225.825C108.602 225.589 108.696 225.364 108.862 225.197C109.029 225.031 109.255 224.938 109.491 224.938C109.609 224.935 109.727 224.956 109.837 225C109.947 225.043 110.047 225.108 110.131 225.191C110.216 225.273 110.283 225.372 110.329 225.481C110.375 225.59 110.398 225.706 110.398 225.825V240.717C110.398 240.835 110.375 240.952 110.329 241.061C110.283 241.169 110.216 241.268 110.131 241.351C110.047 241.433 109.947 241.498 109.837 241.542C109.727 241.585 109.609 241.606 109.491 241.604ZM109.75 202.119H98.0103C97.892 202.121 97.7745 202.1 97.6645 202.057C97.5545 202.013 97.4543 201.948 97.3698 201.866C97.2853 201.783 97.2182 201.684 97.1723 201.576C97.1265 201.467 97.103 201.35 97.103 201.232C97.103 201.114 97.1265 200.997 97.1723 200.888C97.2182 200.779 97.2853 200.681 97.3698 200.598C97.4543 200.515 97.5545 200.451 97.6645 200.407C97.7745 200.364 97.892 200.342 98.0103 200.345H108.917L116.435 112.986C116.445 112.86 116.483 112.737 116.544 112.626C116.605 112.515 116.689 112.418 116.79 112.341C116.892 112.265 117.008 112.21 117.132 112.181C117.255 112.152 117.384 112.149 117.509 112.173C117.744 112.201 117.96 112.318 118.112 112.501C118.264 112.683 118.339 112.916 118.323 113.153L110.731 201.306C110.722 201.424 110.689 201.539 110.635 201.645C110.58 201.75 110.505 201.843 110.413 201.919C110.322 201.995 110.216 202.052 110.102 202.086C109.988 202.12 109.868 202.131 109.75 202.119Z" fill="white"/>
<path d="M26.9975 64.4107C26.7323 64.4124 26.4694 64.3609 26.2245 64.2593C25.9796 64.1578 25.7576 64.0082 25.5717 63.8194L1.61085 40.1136C1.23337 39.7099 1.02344 39.1783 1.02344 38.6262C1.02344 38.0741 1.23337 37.5425 1.61085 37.1388C1.80165 36.9311 2.03328 36.7648 2.29133 36.6503C2.54939 36.5359 2.82833 36.4757 3.11071 36.4736C3.65018 36.4793 4.167 36.6909 4.55503 37.0649L28.5159 60.8077C28.8934 61.2114 29.1033 61.7429 29.1033 62.2951C29.1033 62.8472 28.8934 63.3788 28.5159 63.7825C28.335 63.9878 28.113 64.153 27.8643 64.2676C27.6155 64.3821 27.3455 64.4435 27.0716 64.4476L26.9975 64.4107Z" fill="#F1BC1A"/>
<path d="M52.4032 46.9317H52.1254C51.7949 46.9041 51.4779 46.7883 51.2075 46.5965C50.9371 46.4047 50.7233 46.144 50.5885 45.8416L36.0343 15.4102C35.7957 14.9093 35.7629 14.3351 35.9428 13.8104C36.1227 13.2856 36.501 12.8519 36.9971 12.6017C37.2737 12.4666 37.5779 12.397 37.8859 12.3985C38.2736 12.3965 38.6538 12.5051 38.9818 12.7112C39.3098 12.9174 39.572 13.2128 39.7376 13.5625L54.2549 43.9939C54.4657 44.4445 54.5069 44.9558 54.3709 45.4342C54.2349 45.9126 53.9308 46.3262 53.5142 46.5992C53.1641 46.8337 52.7507 46.9561 52.3291 46.9502" fill="#F1BC1A"/>
<path d="M83.8816 37.6928C83.6968 37.7108 83.5108 37.7108 83.3261 37.6928C82.9484 37.6019 82.6055 37.4032 82.3391 37.121C82.0727 36.8388 81.8945 36.4854 81.8262 36.1037L76.7341 2.84536C76.6539 2.29491 76.7932 1.73502 77.1221 1.28592C77.451 0.836816 77.9432 0.534315 78.4932 0.443367H78.8264C79.3229 0.44205 79.8033 0.618462 80.1805 0.940555C80.5576 1.26265 80.8065 1.70905 80.8818 2.19867L85.974 35.4571C86.0339 35.8986 85.9467 36.3475 85.7259 36.7348C85.5051 37.122 85.1628 37.4262 84.7519 37.6004C84.4761 37.7162 84.1808 37.7789 83.8816 37.7851" fill="#F1BC1A"/>
<path d="M117.656 37.5265C117.37 37.5285 117.086 37.4719 116.823 37.3602C116.41 37.1964 116.062 36.9012 115.835 36.5203C115.607 36.1394 115.512 35.6943 115.564 35.2538L119.804 1.82913C119.862 1.32431 120.104 0.858135 120.482 0.517985C120.86 0.177835 121.35 -0.0129308 121.859 -0.0185547H122.137C122.693 0.0508455 123.199 0.336087 123.546 0.775339C123.892 1.21459 124.052 1.77245 123.989 2.32801L119.748 35.7712C119.695 36.1542 119.53 36.513 119.273 36.8023C119.016 37.0917 118.679 37.2986 118.304 37.3971C118.105 37.4548 117.9 37.4859 117.693 37.4895" fill="#F1BC1A"/>
<path d="M149.746 46.7468C149.339 46.7476 148.941 46.6322 148.598 46.4142C148.177 46.1443 147.867 45.7344 147.721 45.2573C147.575 44.7802 147.603 44.267 147.801 43.809L161.726 13.1004C161.89 12.7465 162.151 12.446 162.478 12.2335C162.806 12.021 163.187 11.9052 163.578 11.8994C163.891 11.9008 164.201 11.9702 164.485 12.1027C164.983 12.3465 165.367 12.7731 165.557 13.2932C165.747 13.8132 165.728 14.3864 165.504 14.8927L151.597 45.6567C151.458 45.9594 151.244 46.2218 150.975 46.419C150.706 46.6162 150.391 46.7418 150.06 46.7838H149.746" fill="#F1BC1A"/>
<path d="M176.54 65.2232C176.264 65.2206 175.993 65.1619 175.741 65.0507C175.49 64.9395 175.263 64.7781 175.077 64.5766C174.699 64.1729 174.489 63.6413 174.489 63.0892C174.489 62.537 174.699 62.0055 175.077 61.6018L198.649 37.434C198.835 37.2397 199.059 37.0853 199.308 36.9805C199.556 36.8756 199.823 36.8225 200.093 36.8243C200.37 36.822 200.644 36.8766 200.899 36.9847C201.154 37.0927 201.384 37.252 201.574 37.4525C201.952 37.8562 202.162 38.3878 202.162 38.9399C202.162 39.492 201.952 40.0236 201.574 40.4273L178.021 64.595C177.833 64.7941 177.606 64.9526 177.355 65.0607C177.103 65.1688 176.832 65.2241 176.558 65.2232H176.54Z" fill="#F1BC1A"/>
</g>
<defs>
<clipPath id="clip0_22_837">
<rect width="210" height="378" fill="white"/>
</clipPath>
</defs>
</svg>
