<svg width="338" height="331" viewBox="0 0 338 331" fill="none" xmlns="http://www.w3.org/2000/svg">
<g clip-path="url(#clip0_22_737)">
<path d="M272.956 331C256.669 330.953 241.062 324.448 229.545 312.907C218.029 301.366 211.538 285.726 211.49 269.405V120.606C211.49 104.27 217.966 88.603 229.493 77.0516C241.02 65.5002 256.654 59.0107 272.956 59.0107C289.257 59.0107 304.891 65.5002 316.418 77.0516C327.945 88.603 334.421 104.27 334.421 120.606V269.405C334.374 285.726 327.883 301.366 316.366 312.907C304.849 324.448 289.243 330.953 272.956 331Z" fill="#231815"/>
<path d="M250.961 308.959C234.674 308.912 219.067 302.407 207.55 290.866C196.033 279.325 189.543 263.685 189.495 247.364V98.5651C189.495 82.229 195.971 66.562 207.498 55.0106C219.025 43.4592 234.659 36.9697 250.961 36.9697C267.262 36.9697 282.896 43.4592 294.423 55.0106C305.95 66.562 312.426 82.229 312.426 98.5651V247.364C312.379 263.685 305.887 279.325 294.371 290.866C282.854 302.407 267.248 308.912 250.961 308.959Z" fill="#E2705E"/>
<path d="M48.9888 236.363C77.682 244.378 119.092 243.897 144.486 239.669C155.784 237.691 167.213 236.56 178.678 236.282H335.841V131.707C302.529 131.707 242.043 131.847 208.731 131.927H165.981C165.501 128.541 164.881 125.375 164.162 122.389C163.502 119.546 162.681 116.743 161.702 113.993C159.966 109.032 157.5 104.358 154.384 100.128C152.392 97.4657 150.178 94.9787 147.765 92.6936C145.362 90.4356 142.839 88.3086 140.207 86.3217C137.568 84.3179 134.909 82.3141 132.209 80.3104C129.366 78.1049 127.487 74.8794 126.97 71.3136C126.417 67.5334 126.23 63.7085 126.411 59.8921C126.411 54.6623 126.411 49.4526 126.411 44.2027C126.522 38.9371 126.962 33.6836 127.73 28.4733C128.65 22.1214 130.69 15.3086 129.01 9.83837C127.75 5.71063 124.031 3.22598 119.192 2.3844C113.948 1.58638 108.586 2.33121 103.756 4.52843C99.3204 6.55228 95.4734 9.67642 92.5786 13.6054C89.8317 17.3699 87.7985 21.608 86.58 26.1088C85.4587 30.4185 84.8281 34.8416 84.7004 39.2936C84.5205 43.822 84.7004 48.4507 84.8204 53.1595C84.9404 57.8683 85.3802 62.6173 85.7401 67.3461C86.1 72.075 86.4399 76.7838 86.6199 81.3724C86.8177 85.8194 86.7844 90.2738 86.52 94.7174L79.3017 96.3605C74.9627 97.3624 69.1841 98.6848 63.4455 100.047C57.7068 101.41 52.0681 102.732 47.7891 103.854C45.2782 104.296 42.8372 105.071 40.5308 106.159C40.0709 107.582 49.0088 236.282 49.0088 236.282" fill="white"/>
<path d="M48.4085 238.447C66.0243 243.296 84.6 244.759 102.816 244.819C111.754 244.819 120.711 244.498 129.629 243.697C138.547 242.895 147.225 241.232 156.063 240.13C174.059 237.906 191.895 238.427 209.91 238.427H335.881C336.448 238.422 336.991 238.195 337.395 237.794C337.798 237.394 338.03 236.852 338.04 236.283V131.707C338.03 131.136 337.799 130.592 337.396 130.188C336.993 129.784 336.45 129.553 335.881 129.543C294.45 129.636 253.013 129.71 211.57 129.763C196.387 129.763 181.204 129.763 166.021 129.763L168.02 131.346C166.94 122.633 164.455 114.154 160.662 106.239C156.51 98.5152 150.764 91.7664 143.806 86.4421C140.227 83.5968 136.248 81.1321 132.829 78.1065C131.463 76.7095 130.387 75.0553 129.663 73.2394C128.939 71.4236 128.581 69.482 128.609 67.5267C128.29 62.7377 128.609 57.8686 128.609 53.0796C128.609 48.2906 128.61 43.2412 128.949 38.352C129.335 33.329 130.003 28.3318 130.949 23.384C131.886 19.4014 132.129 15.2867 131.669 11.2212C130.469 3.88743 123.871 0.460998 116.992 0.00013434C99.2164 -1.18208 86.3395 13.806 83.5402 30.1967C79.901 51.5367 85.8197 73.2975 84.44 94.7377L86.0196 92.7339C74.3623 95.3388 62.7251 98.0038 51.1278 100.869C48.4085 101.55 45.6891 102.232 42.9897 103.013C41.63 103.414 39.5107 103.775 38.7308 105.157C38.4383 105.881 38.3417 106.669 38.4509 107.441C38.6708 115.637 39.3506 123.832 39.8705 132.007C41.6567 159.686 43.5163 187.351 45.4492 215.003C45.9291 222.116 46.429 229.25 46.9088 236.363C47.1088 239.108 51.4078 239.128 51.2079 236.363C49.8749 217.928 48.6151 199.5 47.4287 181.079C45.8291 157.435 44.0495 133.771 42.8698 110.106C42.8698 109.024 42.8699 107.942 42.7299 106.88C42.5899 105.818 42.5299 106.5 42.2699 107.381C42.01 108.263 41.5901 107.762 42.2699 107.762C43.0139 107.621 43.7388 107.392 44.4294 107.081C45.9891 106.64 47.5487 106.219 49.1283 105.818C61.7253 102.572 74.4423 99.8072 87.1193 96.8817C87.5576 96.7533 87.9451 96.4914 88.2282 96.1324C88.5112 95.7733 88.6758 95.3349 88.699 94.8779C89.8387 77.0045 86.3595 59.191 86.8194 41.2975C87.0394 32.481 88.5189 23.8448 93.4778 16.3909C95.6653 13.0413 98.5804 10.2308 102.005 8.16967C105.429 6.10854 109.275 4.85014 113.253 4.48858C116.845 4.02125 120.493 4.68654 123.691 6.39211C126.97 8.39587 127.69 11.9425 127.69 15.5893C127.326 19.7836 126.712 23.9522 125.85 28.0727C125.19 32.501 124.77 36.9694 124.551 41.4378C124.331 45.9062 124.391 50.9155 124.411 55.6644C124.411 59.9324 124.171 64.2605 124.551 68.5285C124.678 72.0648 125.696 75.5112 127.51 78.5473C129.78 81.381 132.528 83.7952 135.628 85.6807C143.386 91.4715 150.784 97.7032 155.723 106.139C160.15 114.393 162.967 123.418 164.021 132.729C164.144 133.171 164.404 133.563 164.763 133.847C165.122 134.132 165.563 134.295 166.021 134.312C211.81 134.312 257.619 134.171 303.408 134.091H335.881C335.161 133.37 334.461 132.649 333.741 131.947V236.523L335.881 234.359H217.908C199.913 234.359 181.917 233.538 164.041 235.201C154.803 236.062 145.705 237.766 136.508 238.888C128.09 239.91 119.612 240.471 111.134 240.671C90.5585 241.172 69.4235 240.03 49.5082 234.52C48.9685 234.403 48.4049 234.498 47.933 234.785C47.4611 235.072 47.1169 235.53 46.971 236.063C46.8251 236.597 46.8886 237.166 47.1485 237.654C47.4084 238.142 47.8449 238.512 48.3685 238.687" fill="#231815"/>
<path d="M14.6163 102.712C16.2759 102.011 17.9756 101.39 19.6952 100.829C21.4148 100.268 23.1543 99.7666 24.8939 99.3659C26.6335 98.9651 28.3532 98.6044 30.0728 98.3038C32.6322 97.843 35.1515 97.5024 37.6109 97.2218C40.0703 96.9413 42.4498 96.761 44.8293 96.6207C46.7288 96.6207 48.6283 96.4805 50.5479 96.4805C52.4674 96.4805 54.307 96.4804 56.1265 96.6808C57.9461 96.8812 59.5657 97.0014 61.1454 97.2218C63.1402 97.4769 65.1078 97.9127 67.024 98.5242C68.8765 99.115 70.6 100.053 72.1027 101.289C73.7183 102.675 74.9914 104.417 75.8219 106.379C76.7668 108.535 77.2111 110.878 77.1216 113.232C76.9683 115.434 76.3696 117.581 75.362 119.544C74.4994 121.328 73.3436 122.953 71.9429 124.353C70.7472 125.544 69.3356 126.496 67.7838 127.158C66.1859 127.785 64.5224 128.228 62.825 128.48C61.9052 128.621 60.6056 128.821 58.9659 129.001C57.3263 129.182 55.2668 129.422 52.9674 129.623L45.3492 130.364L40.6102 130.845L35.8114 131.406L30.9325 131.967C29.2929 132.147 27.6733 132.288 26.0537 132.408C24.4341 132.528 22.8745 132.568 21.3348 132.548C19.8706 132.532 18.4086 132.431 16.9559 132.247C15.0142 131.994 13.1208 131.454 11.3372 130.644C9.73726 129.929 8.29608 128.9 7.09822 127.619C5.93289 126.332 5.05966 124.808 4.53876 123.15C3.96702 121.202 3.76361 119.163 3.93893 117.139C4.07686 115.184 4.52219 113.264 5.25856 111.448C5.99823 109.674 7.09409 108.072 8.47789 106.74C10.283 105.046 12.3753 103.689 14.6564 102.732" fill="white"/>
<path d="M15.1763 104.777C25.8392 100.654 37.1796 98.574 48.6084 98.6452C58.486 98.5049 74.7623 98.8254 74.9623 112.311C74.9608 115.221 74.0659 118.061 72.399 120.445C70.7322 122.829 68.374 124.641 65.6444 125.636C60.9467 126.794 56.1426 127.466 51.3078 127.639C45.6292 128.2 39.9505 128.762 34.2918 129.423C28.6332 130.084 22.2947 131.066 16.5961 130.044C10.2576 128.922 5.81861 124.834 5.97857 118.021C6.13853 111.209 9.97758 107.161 15.6762 104.496C18.1956 103.314 16.0161 99.6069 13.5167 100.769C10.836 101.841 8.43624 103.515 6.50201 105.661C4.56777 107.808 3.15065 110.371 2.35943 113.152C0.879781 118.823 1.67952 125.355 6.03849 129.583C10.3975 133.811 17.1558 134.753 23.1344 134.612C30.5327 134.452 37.931 133.15 45.2892 132.428C51.2878 131.847 57.4064 131.487 63.285 130.425C66.3594 130.023 69.2782 128.833 71.7585 126.969C74.2388 125.105 76.1965 122.63 77.4416 119.785C78.752 117.001 79.3016 113.919 79.0347 110.853C78.7677 107.786 77.6936 104.846 75.922 102.332C72.2429 97.1823 66.2043 95.6194 60.2258 94.838C52.3612 93.9495 44.418 94.0234 36.5713 95.0584C28.812 95.8222 21.1952 97.6563 13.9366 100.509C11.4172 101.551 12.517 105.718 15.0764 104.656" fill="#231815"/>
<path d="M14.2362 138.219C15.8958 137.558 17.6353 136.957 19.4149 136.416C21.1945 135.875 23.034 135.354 24.8736 134.933C26.7131 134.512 28.5728 134.152 30.4523 133.831C33.2717 133.37 36.1309 133.03 39.0103 132.789C41.8896 132.549 44.7689 132.388 47.6883 132.288C50.0077 132.288 52.3472 132.168 54.7066 132.048C57.0661 131.928 59.4055 131.787 61.705 131.647C64.0044 131.507 66.1839 131.407 68.2234 131.366C70.5233 131.297 72.8236 131.486 75.0818 131.928C77.1767 132.362 79.1583 133.228 80.9004 134.472C82.8453 135.946 84.4712 137.8 85.6793 139.923C87.012 142.2 87.7031 144.797 87.6788 147.437C87.4978 149.883 86.7589 152.255 85.5193 154.37C84.3655 156.343 82.8924 158.11 81.1603 159.599C79.6336 160.912 77.887 161.943 76.0015 162.645C73.901 163.4 71.7309 163.944 69.5231 164.268C68.2834 164.489 66.4837 164.769 64.2443 165.11C62.0048 165.45 59.3455 165.831 56.4462 166.212L51.8872 166.813L46.9484 167.494L41.6496 168.296L36.171 169.097C34.3314 169.358 32.4919 169.578 30.6923 169.778C28.8927 169.979 27.0931 170.119 25.3735 170.199C23.6539 170.279 22.1343 170.199 20.6546 170.199C19.2629 170.093 17.88 169.892 16.5156 169.598C14.1861 169.115 11.9462 168.27 9.87713 167.093C8.07699 166.086 6.47193 164.762 5.13826 163.186C3.86327 161.683 2.94702 159.908 2.45897 157.996C1.9338 155.862 1.89281 153.637 2.339 151.484C2.69113 149.638 3.33225 147.86 4.23857 146.214C5.16079 144.584 6.38187 143.143 7.8377 141.966C9.74905 140.429 11.8874 139.198 14.1762 138.32" fill="white"/>
<path d="M14.8168 140.303C27.7338 135.294 41.0506 134.833 54.6874 134.292C60.9259 133.991 67.5244 132.869 73.7229 133.931C76.812 134.432 79.6446 135.955 81.7685 138.257C83.8924 140.56 85.1852 143.51 85.4401 146.635C85.7001 152.927 80.4412 158.938 74.7626 160.922C69.0839 162.905 62.4855 163.346 56.5069 164.148C50.5283 164.949 44.5097 165.811 38.5112 166.693C32.0927 167.654 25.3143 168.696 18.8159 167.795C12.3174 166.893 5.01909 162.946 4.39923 155.772C3.71939 148.098 8.89821 142.988 15.4367 140.223C17.9761 139.141 15.7765 135.434 13.2571 136.496C6.83864 139.221 1.77989 143.87 0.440208 150.943C-0.23089 154.133 0.0610852 157.45 1.279 160.473C2.49691 163.496 4.58555 166.086 7.27856 167.915C12.9972 172.023 20.4154 172.844 27.2738 172.383C34.972 171.862 42.5703 170.38 50.2085 169.358C57.3268 168.396 64.5251 167.614 71.5834 166.252C75.0486 165.758 78.344 164.434 81.191 162.394C84.038 160.354 86.3528 157.656 87.9395 154.53C89.4417 151.506 89.9992 148.099 89.539 144.753C89.0788 141.407 87.6224 138.278 85.3601 135.775C80.5612 130.104 73.5629 129.162 66.5446 129.403C57.9066 129.683 49.1687 130.004 40.5507 130.665C31.3999 131.21 22.3788 133.1 13.777 136.276C11.2176 137.277 12.3174 141.445 14.9168 140.443" fill="#231815"/>
<path d="M21.9347 173.325C23.7244 172.623 25.5537 172.027 27.4134 171.541C29.4129 171.04 31.4124 170.6 33.5319 170.219C35.6514 169.838 37.7509 169.518 39.8904 169.217C41.49 168.977 43.1097 168.756 44.7293 168.556L49.6081 167.915L54.4869 167.334L59.3858 166.853C61.5653 166.652 63.7448 166.512 65.9042 166.432C67.9048 166.363 69.9076 166.41 71.9028 166.572C74.0608 166.719 76.1945 167.115 78.2613 167.754C80.1429 168.353 81.9033 169.283 83.4601 170.499C85.1728 171.919 86.6156 173.636 87.7191 175.569C88.9548 177.648 89.7193 179.974 89.9586 182.382C90.0884 184.553 89.676 186.722 88.7588 188.693C87.1568 192.351 84.1833 195.23 80.4807 196.709C78.4579 197.482 76.3701 198.072 74.2422 198.472L69.1635 199.273C67.164 199.634 64.6045 200.075 61.8852 200.496C59.1658 200.916 56.2466 201.337 53.1873 201.718L46.2889 202.62C43.9494 202.92 41.55 203.221 39.1706 203.461C36.9383 203.688 34.696 203.802 32.4522 203.802C30.4837 203.801 28.5183 203.647 26.5736 203.341C24.8771 203.073 23.2099 202.644 21.5948 202.059C20.1878 201.551 18.8455 200.878 17.5957 200.055C16.2001 199.131 14.9811 197.963 13.9965 196.608C13.0062 195.249 12.3238 193.69 11.997 192.04C11.656 190.131 11.656 188.177 11.997 186.269C12.2834 184.455 12.8149 182.689 13.5767 181.019C14.3054 179.435 15.3226 178.001 16.576 176.791C18.1232 175.321 19.9257 174.146 21.8946 173.325" fill="white"/>
<path d="M22.5142 175.409C28.0239 173.433 33.7389 172.089 39.5502 171.401C46.1286 170.439 52.767 169.558 59.3855 168.976C70.0629 168.035 85.1194 167.774 87.6188 181.34C88.6985 187.231 84.4996 192.761 79.1808 194.805C74.2481 196.382 69.1709 197.462 64.0244 198.031C58.3057 198.973 52.5671 199.694 46.8085 200.435C41.2209 201.372 35.5554 201.762 29.8924 201.598C23.8939 201.177 16.1157 198.913 14.2962 192.28C13.4873 188.853 13.9223 185.248 15.5233 182.113C17.1243 178.978 19.7869 176.516 23.0341 175.168C25.5335 174.026 23.3541 170.299 20.8547 171.441C17.7612 172.81 15.0957 174.994 13.1417 177.76C11.1876 180.527 10.018 183.772 9.7572 187.151C9.3616 190.246 9.91478 193.39 11.3432 196.163C12.7717 198.937 15.008 201.209 17.7553 202.68C23.434 205.846 30.2723 206.266 36.6308 205.866C43.5692 205.425 50.6276 204.323 57.426 203.361C64.1039 202.569 70.7326 201.405 77.2813 199.874C80.241 199.279 83.0165 197.985 85.3776 196.099C87.7387 194.214 89.6174 191.792 90.858 189.034C91.9322 186.156 92.2094 183.04 91.6603 180.017C91.1112 176.994 89.7561 174.176 87.7387 171.862C83.5797 166.632 77.4812 164.769 71.0427 164.328C62.6247 163.767 54.0268 165.169 45.6888 166.332C37.3507 167.494 29.1127 168.335 21.3546 171.301C18.7952 172.303 19.9148 176.471 22.4942 175.469" fill="#231815"/>
<path d="M37.6913 206.948C39.644 206.256 41.6504 205.727 43.6899 205.365C45.6895 204.964 47.9289 204.664 50.1283 204.403C52.3278 204.143 54.5073 203.922 56.7468 203.682L63.4453 202.88C65.6847 202.6 67.9441 202.339 70.1236 202.119C72.3031 201.899 74.3426 201.758 76.2422 201.758C77.9721 201.722 79.6995 201.91 81.381 202.319C83.049 202.753 84.5995 203.554 85.9199 204.664C87.5803 206.108 88.9334 207.872 89.8987 209.852C90.864 211.831 91.4218 213.985 91.5386 216.185C91.6236 218.317 91.2767 220.444 90.5188 222.437C89.8446 224.257 88.849 225.94 87.5796 227.406C86.4495 228.686 85.0938 229.745 83.5805 230.532C81.9877 231.3 80.3189 231.897 78.6016 232.316C77.4619 232.616 75.8223 233.037 73.7427 233.478C71.6632 233.919 69.1239 234.379 66.3246 234.8C63.5252 235.221 60.5259 235.622 57.4866 235.862C49.8684 236.503 41.9504 236.323 36.2317 234.099C34.4203 233.439 32.7509 232.439 31.3128 231.153C29.9562 229.872 28.9745 228.244 28.4736 226.445C27.9567 224.224 27.9567 221.913 28.4736 219.692C28.8288 217.811 29.413 215.98 30.2131 214.242C30.9298 212.664 31.9102 211.221 33.1124 209.974C34.4572 208.646 36.0648 207.615 37.8313 206.948" fill="white"/>
<path d="M38.2705 209.031C43.1952 207.524 48.2719 206.57 53.4069 206.186C58.5257 205.645 63.6046 204.964 68.7234 204.423C73.3623 203.922 79.1408 202.94 83.3798 205.485C85.4072 206.852 87.0327 208.738 88.0875 210.947C89.1422 213.157 89.5879 215.608 89.3784 218.048C89.1721 220.525 88.2754 222.894 86.7905 224.885C85.3057 226.876 83.2925 228.409 80.9804 229.309C77.0356 230.661 72.9717 231.633 68.8434 232.215C59.5056 233.858 49.008 235.321 39.6702 232.936C34.3515 231.594 29.9125 228.468 30.1725 222.477C30.1529 219.611 30.9546 216.8 32.4822 214.377C34.0099 211.955 36.1993 210.023 38.7904 208.811C41.3298 207.709 39.1503 204.002 36.6309 205.084C27.1731 209.091 21.3945 224.821 29.7525 232.676C33.7516 236.342 39.2103 237.545 44.369 238.066C50.5312 238.56 56.7296 238.352 62.8448 237.445C68.3381 236.792 73.782 235.774 79.1409 234.399C81.7839 233.868 84.2785 232.761 86.4482 231.158C88.618 229.555 90.41 227.495 91.6979 225.121C96.6768 215.103 91.458 201.377 79.7008 199.834C72.7624 198.912 65.4841 200.515 58.5858 201.317C51.6874 202.118 43.9692 202.519 37.0508 204.863C34.4514 205.765 35.5712 209.913 38.2106 209.031" fill="#231815"/>
<path d="M86.4992 94.7979C83.4999 119.284 108.494 160.341 134.588 166.733Z" fill="white"/>
<path d="M84.3599 94.7974C83.0202 106.559 87.1592 118.702 92.358 129.082C98.1047 140.98 106.392 151.467 116.632 159.799C121.753 163.979 127.683 167.049 134.048 168.816C134.32 168.891 134.604 168.912 134.884 168.877C135.163 168.842 135.433 168.752 135.678 168.612C135.924 168.473 136.139 168.286 136.312 168.063C136.485 167.841 136.613 167.586 136.688 167.313C136.762 167.041 136.783 166.756 136.748 166.476C136.713 166.196 136.624 165.925 136.484 165.68C136.345 165.434 136.159 165.218 135.937 165.045C135.714 164.871 135.46 164.743 135.188 164.668C124.011 161.823 114.853 153.628 107.674 144.911C99.6769 135.337 93.7834 124.181 90.3785 112.17C88.7084 106.541 88.1315 100.644 88.6789 94.7974C88.9989 92.0523 84.6798 92.0723 84.3799 94.7974" fill="#231815"/>
<path d="M60.4059 108.484C60.9659 108.362 61.5455 108.362 62.1054 108.484C62.6092 108.608 63.0799 108.84 63.4851 109.165C63.6482 109.308 63.8019 109.462 63.9451 109.626C63.9451 109.626 64.2449 110.026 64.105 109.806C64.2729 110.058 64.4265 110.318 64.5649 110.587C64.764 111.109 64.8918 111.655 64.9449 112.211C64.9649 112.397 64.9649 112.585 64.9449 112.772C64.9449 112.772 64.9449 113.252 64.9449 112.992C64.8912 113.284 64.8177 113.572 64.7249 113.854C64.5357 114.316 64.2331 114.722 63.8451 115.036C63.4575 115.332 63.016 115.55 62.5454 115.677L61.6456 115.897H61.4856H60.9458C60.5481 115.897 60.1666 116.056 59.8854 116.338C59.6042 116.619 59.4462 117.002 59.4462 117.4C59.4462 117.799 59.6042 118.181 59.8854 118.463C60.1666 118.745 60.5481 118.903 60.9458 118.903C62.3551 118.932 63.7409 118.539 64.9267 117.775C66.1125 117.012 67.0446 115.912 67.6041 114.615C68.071 113.155 68.0695 111.585 67.5996 110.125C67.1298 108.666 66.2152 107.391 64.9848 106.48C63.6495 105.548 62.0243 105.128 60.4059 105.298C60.0082 105.298 59.6267 105.456 59.3455 105.738C59.0642 106.02 58.9062 106.402 58.9062 106.8C58.9062 107.199 59.0642 107.581 59.3455 107.863C59.6267 108.145 60.0082 108.303 60.4059 108.303" fill="#231815"/>
<path d="M69.8435 143.309H70.1634C70.0234 143.309 70.0434 143.309 70.1634 143.309H70.8032C71.2293 143.279 71.6569 143.279 72.083 143.309H72.4028L73.0027 143.449L73.3826 143.569C73.5298 143.619 73.6708 143.687 73.8025 143.77C74.3398 144.04 74.7697 144.485 75.0222 145.032L75.1422 145.272C75.1422 145.112 75.1422 145.132 75.1422 145.272C75.1864 145.442 75.2398 145.609 75.3022 145.773C75.3117 145.954 75.3117 146.134 75.3022 146.314C75.3022 145.994 75.3022 146.455 75.3022 146.535C75.3222 146.875 75.3222 147.216 75.3022 147.557C75.3022 147.216 75.3022 147.777 75.3022 147.837C75.2649 148.013 75.2181 148.187 75.1622 148.358C75.1622 148.358 75.1622 148.518 75.0622 148.619C74.9876 148.779 74.9007 148.933 74.8023 149.08C74.7677 149.16 74.7204 149.234 74.6623 149.3V149.3L74.3224 149.641C74.0762 149.864 73.8002 150.053 73.5025 150.202V150.202L73.2027 150.322L72.5828 150.502L71.963 150.642H71.543C71.1231 150.642 70.6832 150.642 70.2633 150.763C69.8688 150.773 69.4932 150.934 69.2141 151.214C68.9351 151.494 68.7738 151.87 68.7637 152.265C68.7689 152.662 68.9285 153.042 69.2086 153.322C69.4888 153.603 69.8672 153.763 70.2633 153.768C72.0102 153.74 73.73 153.33 75.3022 152.566C76.0122 152.164 76.6346 151.624 77.1325 150.977C77.6305 150.33 77.9941 149.589 78.2015 148.799C78.6829 147.283 78.6113 145.645 77.9998 144.177C77.3882 142.709 76.2762 141.507 74.8622 140.784C72.9781 140.075 70.9291 139.928 68.9637 140.363C68.6117 140.494 68.3217 140.753 68.151 141.089C67.9804 141.424 67.9415 141.811 68.042 142.174C68.1426 142.536 68.3751 142.848 68.6939 143.047C69.0126 143.246 69.3943 143.318 69.7634 143.249" fill="#231815"/>
<path d="M73.7429 178.715C74.8999 178.924 75.9982 179.382 76.9622 180.057C77.3994 180.386 77.755 180.811 78.0019 181.3C78.2192 181.705 78.3615 182.146 78.4218 182.602C78.4428 183.13 78.3521 183.656 78.1556 184.147C77.9592 184.637 77.6615 185.08 77.2821 185.447C77.1024 185.631 76.901 185.793 76.6822 185.928L76.3223 186.109H76.1623C75.8744 186.228 75.5718 186.309 75.2625 186.349H74.5627C74.1666 186.354 73.7882 186.514 73.5081 186.795C73.2279 187.076 73.0683 187.455 73.0631 187.852C73.0732 188.247 73.2345 188.624 73.5135 188.903C73.7926 189.183 74.1682 189.344 74.5627 189.355C75.9052 189.434 77.2389 189.093 78.3791 188.378C79.5193 187.664 80.4094 186.611 80.9259 185.367C81.4423 184.123 81.5595 182.748 81.2613 181.434C80.9631 180.12 80.2642 178.932 79.2616 178.033C77.9026 176.895 76.2801 176.116 74.5427 175.769C74.1609 175.664 73.7533 175.715 73.4087 175.91C73.0641 176.106 72.8105 176.429 72.7032 176.811C72.604 177.193 72.657 177.6 72.851 177.944C73.045 178.288 73.3648 178.543 73.7429 178.655" fill="#231815"/>
<path d="M75.7823 213.921C75.5224 214.041 75.9423 213.921 76.0023 213.921H76.2023H76.6221C76.6221 213.921 77.082 213.921 76.7821 213.921C76.9396 213.943 77.094 213.983 77.2419 214.041H77.442C77.302 214.041 77.302 214.041 77.442 214.041L77.8219 214.242C77.8219 214.242 78.1817 214.522 77.9818 214.242C78.1961 214.42 78.3905 214.622 78.5617 214.843C78.7358 215.08 78.8832 215.335 79.0015 215.604C79.0015 215.384 79.0015 215.764 79.0015 215.825C79.0598 215.995 79.1066 216.169 79.1415 216.346C79.1415 216.346 79.1415 216.887 79.1415 216.646C79.1503 216.8 79.1503 216.954 79.1415 217.107C79.1877 217.713 79.0989 218.322 78.8816 218.89C78.8816 218.89 78.7016 219.331 78.8816 219.111C78.8162 219.255 78.7427 219.395 78.6617 219.532C78.5284 219.793 78.3526 220.03 78.1418 220.233L77.8219 220.553C77.522 220.834 77.9818 220.553 77.6419 220.694L77.262 220.934C77.262 220.934 76.7222 221.195 76.9621 221.094C76.6908 221.202 76.4094 221.283 76.1222 221.335C75.7823 221.335 76.2423 221.335 75.9423 221.335H75.3624C74.9647 221.335 74.5832 221.493 74.302 221.775C74.0207 222.057 73.8627 222.439 73.8627 222.838C73.8729 223.233 74.0341 223.609 74.3132 223.889C74.5923 224.169 74.9678 224.33 75.3624 224.341C76.8712 224.376 78.3471 223.895 79.5466 222.977C80.7461 222.059 81.5977 220.759 81.9609 219.291C82.3965 217.841 82.349 216.288 81.8259 214.868C81.3029 213.447 80.3326 212.235 79.0616 211.416C78.3182 210.999 77.4872 210.764 76.636 210.729C75.7848 210.694 74.9375 210.861 74.1627 211.216C73.8402 211.423 73.6062 211.743 73.5064 212.113C73.4066 212.484 73.448 212.878 73.6228 213.22C73.8323 213.54 74.1516 213.771 74.5201 213.871C74.8886 213.971 75.2807 213.931 75.6223 213.761" fill="#231815"/>
<path d="M126.07 13.605C122.071 12.543 118.772 15.6087 116.992 18.7947C115.12 22.5778 114.181 26.7556 114.253 30.9776C114.253 31.3761 114.411 31.7584 114.692 32.0402C114.973 32.3221 115.355 32.4804 115.753 32.4804C116.15 32.4804 116.532 32.3221 116.813 32.0402C117.094 31.7584 117.252 31.3761 117.252 30.9776C117.19 27.5326 117.872 24.115 119.252 20.9588C120.311 18.7547 122.431 15.6689 125.25 16.4504C125.635 16.5566 126.046 16.5055 126.392 16.3082C126.739 16.111 126.994 15.7836 127.1 15.3983C127.206 15.013 127.155 14.6013 126.958 14.2537C126.761 13.9061 126.435 13.6512 126.05 13.5449" fill="#231815"/>
</g>
<defs>
<clipPath id="clip0_22_737">
<rect width="338" height="331" fill="white"/>
</clipPath>
</defs>
</svg>
