<svg width="1400" height="1139" viewBox="0 0 1400 1139" fill="none" xmlns="http://www.w3.org/2000/svg">
<g clip-path="url(#clip0_19_88)">
<path d="M8.62727 347.231C10.5943 348.542 28.3667 359.758 42.4464 352.269C53.7309 346.265 59.4246 329.942 59.4246 303.957C59.4246 279.214 64.0148 217.684 106.495 180.414C133.344 156.879 170.406 147.768 216.545 153.324L219.478 153.669L220.858 151.081C229.658 134.724 280.697 54.4558 421.253 83.1329L424.979 83.8575L426.188 80.4066C428.638 73.0907 438.507 54.3523 477.019 37.9259C525.332 17.2205 600.251 7.59244 699.672 9.04182C798.955 9.04182 873.909 19.3945 922.394 39.4443C961.113 55.5601 971.155 73.5393 973.674 80.5102L974.917 83.9611L978.575 83.2364C1119.13 54.6974 1170.2 134.828 1179.04 151.185L1180.42 153.773L1183.35 153.428C1229.49 147.872 1266.52 156.879 1293.37 180.518C1335.85 217.753 1340.44 279.317 1340.44 304.06C1340.44 330.218 1346.17 346.541 1357.45 352.373C1371.94 360.103 1390.51 347.852 1391.3 347.3V1138.11H1399.93V331.046L1386.51 340.088C1382.33 342.848 1369.74 349.06 1361.49 344.677C1353.24 340.295 1349.06 325.904 1349.06 303.819C1349.06 277.902 1344.2 213.336 1299.06 173.788C1270.87 149.08 1232.53 139.279 1185.18 144.283C1172.65 122.715 1118.1 47.3124 980.335 73.8499C975.331 63.2556 961.838 46.2426 925.707 31.1966C876.152 10.4911 800.094 0.138412 699.741 0.138412C599.147 -1.31097 523.089 8.62768 473.638 29.7127C437.61 45.1038 424.29 62.807 419.389 73.8154C281.767 47.3469 227.242 122.715 214.716 144.283C167.3 139.141 129.029 149.08 100.836 173.788C55.7321 213.336 50.8318 277.902 50.8318 303.819C50.8318 325.904 46.4143 340.433 38.4082 344.677C28.5731 349.923 13.5617 340.157 13.4237 340.088L-0.0345459 331.046V1138.11H8.59273L8.62727 347.231Z" fill="#E2705E"/>
<path d="M17.2545 360.862C21.9399 362.702 26.9512 363.568 31.9824 363.408C37.0136 363.248 41.9593 362.065 46.5182 359.93C60.874 352.338 68.1209 333.462 68.1209 303.818C68.1209 280.249 72.4347 221.652 112.258 186.763C137.726 164.436 173.477 156.154 218.477 162.089L224.93 162.952L227.518 156.982C237.007 138.936 250.908 123.586 267.928 112.362C306.889 85.6863 360.724 78.7499 423.53 92.243L433.124 94.3135L433.952 84.651C433.952 83.9608 448.687 13.7347 699.672 17.3927C951.589 17.3927 966.048 84.2024 966.186 84.8581L967.498 93.9684L976.539 92.243C1039.38 78.7499 1093.18 85.6863 1132.18 112.362C1149.11 123.648 1162.95 139.001 1172.41 157.017L1175.04 162.918L1181.45 162.089C1226.32 156.154 1262.17 164.436 1287.67 186.763C1327.5 221.652 1331.78 280.249 1331.78 303.818C1331.78 333.462 1339.06 352.338 1353.41 359.93C1357.97 362.064 1362.91 363.247 1367.93 363.407C1372.96 363.567 1377.96 362.701 1382.64 360.862V1138.11H1385.54V356.755L1383.57 357.48C1375.95 360.379 1364.77 362.691 1354.76 357.48C1341.44 350.578 1334.67 332.392 1334.67 303.922C1334.67 279.973 1330.26 220.375 1289.57 184.693C1263.41 161.813 1226.9 153.29 1181.07 159.363L1176.8 159.915L1175.04 155.947C1165.29 137.43 1151.05 121.659 1133.62 110.084C1093.97 82.9601 1039.38 75.8511 975.814 89.5513L969.741 90.6901L968.843 84.5475C968.843 83.8573 955.626 14.632 699.499 14.632C595.109 13.1136 515.738 24.4326 469.876 47.4157C434.09 65.3604 431.018 84.1679 430.984 84.4094L430.432 90.9316L424.048 89.5513C360.413 75.7476 305.819 82.9601 266.168 110.084C248.702 121.616 234.452 137.397 224.757 155.947L223.032 159.915L218.753 159.363C172.89 153.29 136.38 161.813 110.256 184.693C69.5357 220.375 65.1528 279.973 65.1528 303.922C65.1528 332.392 58.2516 350.44 45.0691 357.48C35.0959 362.794 23.8801 360.482 16.2191 357.48L14.2864 356.755V1138.11H17.1509L17.2545 360.862Z" fill="#E2705E"/>
</g>
<defs>
<clipPath id="clip0_19_88">
<rect width="1400" height="1138.11" fill="white"/>
</clipPath>
</defs>
</svg>
