<?xml version="1.0" encoding="utf-8"?>
<!-- Generator: Adobe Illustrator 25.3.1, SVG Export Plug-In . SVG Version: 6.00 Build 0)  -->
<svg version="1.1" id="레이어_1" xmlns="http://www.w3.org/2000/svg" xmlns:xlink="http://www.w3.org/1999/xlink" x="0px"
	 y="0px" viewBox="0 0 24 24" style="enable-background:new 0 0 24 24;" xml:space="preserve">
<style type="text/css">
	.st0{fill:#FFFFFF;}
	.st1{fill:#E2705E;}
	.st2{fill:none;}
</style>
<path class="st0" d="M7,7.5L6.8,8.7l-1,0.1c0,0-1.9,0.4-2.1,0.6l-1.2,1.3c0,0-0.3,0.9-0.3,1.1v1.3l0.3,1c0,0,0.6,1.1,0.7,1.1
	c0.1,0,1.2,0.7,1.2,0.7l0.3,0.9l0.8,0.9l1.2,0.9h1.6h2.5c0.2,0,1.2-0.2,1.2-0.2l0.4-0.4l1,0.1l0.7,0.3l3.5,0l1.9,0.2l0.4-0.6v-0.8
	l-0.5-0.6l-0.7-0.1l-0.9-0.3l-0.5-0.1l0-1l-0.1-2.5l0.4-0.4l1.2-1l0.4-0.9l0.1-0.9l-0.6-1.9l-0.4-0.4l0.1-0.6l-0.3-0.7l-0.8-0.5
	L16.3,5l-0.3,0.2l-0.4,0.5L15,5.9l-1,0l-0.4-0.4l-0.7-0.3l-0.7,0.1l-0.4,0.4l-0.2,0.5l-0.4,0.7L11.4,8l-0.1,0.8L10.2,10l-0.9,0.6
	l-0.8-0.2l0.2-0.5c0,0,0.3-1,0.4-1.1c0-0.1-0.1-1-0.1-1L7.7,7.1L7,7.5z"/>
<path class="st1" d="M6.6,11.3c-0.4,0-0.8,0.1-1.2,0.1c-0.4,0-0.7,0.2-0.8,0.6c-0.1,0.2,0,0.5,0.1,0.7c0.1-0.1,0.2-0.2,0.3-0.3
	C5.5,11.9,6.1,11.5,6.6,11.3 M4.1,15.5c0.2,0.1,0.3,0.2,0.5,0.3c0,0.2,0.1,0.4,0.2,0.6c0.2,0.5,0.5,1,0.9,1.3
	c0.6,0.6,1.3,0.8,1.6,0.8c0.6,0,3.3,0,3.6,0c0.3,0,0.9,0.1,1.1-0.3c0,0,0-0.1,0-0.1h1.4c0.3,0.2,0.6,0.4,0.9,0.4h5
	c0.6,0,0.4-1.2-0.1-1.4c-0.6-0.2-0.7-0.1-1.1-0.2c-0.4-0.1-0.7-0.3-1-0.6c0.3-0.9,0-2.2-0.1-3.4c0-0.3,0-0.4,0.2-0.5
	c1.3-0.5,2.1-1.6,1.8-3c-0.2-0.8-0.6-1.5-1.1-2c0.1-0.1,0.2-0.2,0.2-0.3c0.3-0.6-0.6-1.3-1-1.4c-0.6-0.3-1.2,0-1.2,0.9
	c-0.4-0.1-0.8-0.1-1.3,0c-0.3,0-0.5,0.1-0.7,0.2c-0.2-0.6-0.7-1-1.2-0.9c-0.7,0.2-1,1.2-1,1.5c0,0.3,0,0.5,0.5,0.7
	c-0.2,0.3-0.4,0.7-0.5,1.1c-0.4,0.6-0.9,1.1-1.5,1.4c-1.4,0.9-3,1.1-4.6,2.5c-0.3,0.2-0.5,0.5-0.6,0.8c-1.5-1-0.7-2.8,0.6-2.8
	c1.9,0,3-0.4,3.5-1.6c0.4-0.9-0.3-1.8-1.2-1.9C6.4,7,6,8.3,6.8,8.5c0.4,0.1,0.4,0.7-0.5,0.6c-0.7,0-2.1-0.1-3.1,1
	C2.3,11,1.3,13.5,4.1,15.5 M2.8,9.7c0.8-0.8,1.8-1.2,3.1-1.2c0,0,0.1,0,0.1,0C5.8,8.3,5.8,8.1,5.8,7.8c0.1-0.6,0.6-1.2,1.5-1.2
	c0.1,0,0.3,0,0.4,0C8.4,6.8,9,7.2,9.3,7.8c0.3,0.5,0.3,1.1,0.1,1.6c-0.1,0.3-0.3,0.6-0.5,0.8C9.2,10,9.4,9.9,9.6,9.8
	c0.5-0.3,1-0.7,1.3-1.2c0.1-0.3,0.2-0.5,0.3-0.7C11,7.5,10.9,7.2,10.9,7c0-0.6,0.4-1.8,1.4-2.1c0.1,0,0.3-0.1,0.4-0.1
	c0.4,0,0.7,0.1,1,0.4c0.1,0.1,0.2,0.2,0.3,0.4c0.1,0,0.2,0,0.4-0.1c0.2,0,0.4,0,0.6,0c0.1,0,0.2,0,0.2,0c0.1-0.2,0.2-0.3,0.3-0.5
	c0.2-0.3,0.6-0.4,1-0.4c0.2,0,0.4,0,0.7,0.1c0.4,0.2,1.1,0.7,1.3,1.3c0.1,0.3,0.1,0.6-0.1,0.9c0,0,0,0,0,0c0.5,0.5,0.8,1.2,1,1.9
	c0.2,0.8,0,1.7-0.4,2.3c-0.4,0.6-0.9,1-1.6,1.3c0,0,0,0,0,0.1c0,0.4,0.1,0.7,0.1,1.1c0.1,0.7,0.2,1.4,0.1,2.1
	c0.2,0.1,0.3,0.2,0.5,0.3c0.2,0.1,0.2,0.1,0.4,0.1c0.2,0,0.4,0,0.7,0.1c0.3,0.1,0.6,0.3,0.8,0.7c0.1,0.3,0.2,0.6,0.1,0.9
	c-0.1,0.5-0.4,0.9-0.9,0.9h-5c-0.4,0-0.8-0.1-1.1-0.4h-0.8c-0.2,0.3-0.6,0.5-1.1,0.5c-0.1,0-0.2,0-0.3,0c-0.1,0-0.1,0-0.1,0
	c-0.1,0-0.6,0-1.2,0l-0.1,0c-0.8,0-1.9,0-2.2,0c-0.1,0-0.4,0-0.8-0.2c-0.4-0.2-0.8-0.4-1.1-0.7c-0.5-0.3-0.8-0.8-1.1-1.5
	c0-0.1-0.1-0.3-0.1-0.4C4,16.1,3.9,16,3.8,16c-0.9-0.6-1.9-1.7-2.1-3.2C1.6,11.5,2.2,10.3,2.8,9.7"/>
<path class="st1" d="M12.3,7.3c0-0.1-0.1-0.1-0.2-0.2c-0.2-0.2,0-0.7,0.3-1c0.3-0.2,0.5,0.1,0.7,0.5C12.8,6.8,12.6,7,12.3,7.3"/>
<path class="st1" d="M17.3,6.8c-0.3-0.2-0.7-0.4-1.1-0.5c0-0.5,0.3-0.6,0.6-0.4c0.2,0.1,0.7,0.5,0.5,0.8C17.4,6.7,17.4,6.8,17.3,6.8
	"/>
<path class="st1" d="M15.9,9.6c-0.3,0-0.7,0-0.9,0c-0.1,0-0.2,0.1-0.1,0.2c0.1,0.1,0.2,0.2,0.4,0.3c0.1,0,0.2,0.1,0.3,0
	c0.1,0,0.2-0.1,0.3-0.3C16,9.7,16,9.6,15.9,9.6"/>
<path class="st1" d="M13.1,9.1c0,0.2,0.2,0.4,0.4,0.4c0.2,0,0.4-0.2,0.4-0.4c0-0.2-0.2-0.4-0.4-0.4C13.3,8.7,13.1,8.9,13.1,9.1"/>
<path class="st1" d="M16.3,8.8c0,0.2,0.2,0.4,0.4,0.4c0.2,0,0.4-0.2,0.4-0.4s-0.2-0.4-0.4-0.4C16.5,8.4,16.3,8.6,16.3,8.8"/>
<path class="st1" d="M9.1,8.3C8.6,8.1,7.4,8.4,6.8,8.8C5.1,7.7,6.9,6.4,8.2,7.2C8.9,7.6,9.1,8.3,9.1,8.3"/>
<path class="st1" d="M4.9,8.7C5.1,8.8,5.4,9,5.5,9.3c0.2,0.3,0.2,0.6,0.2,0.9c0,0.1,0.2,0.2,0.3,0c0.4-0.8-0.2-1.6-1-1.8
	C4.8,8.4,4.7,8.6,4.9,8.7"/>
<path class="st1" d="M3.2,9.3C3.5,9.3,3.8,9.4,4,9.7c0.2,0.2,0.3,0.4,0.4,0.6c0,0.1,0.1,0.2,0.1,0.2c0.1,0.1,0.3,0.1,0.3-0.1
	c0-0.6-0.4-1.2-1-1.3C3.6,9,3.4,9,3.2,9C3.1,9,3,9.1,3.1,9.2C3.1,9.2,3.1,9.3,3.2,9.3"/>
<path class="st1" d="M1.9,10.7c0.3-0.1,0.6-0.1,0.9,0c0.3,0.1,0.5,0.3,0.8,0.5c0.1,0,0.1,0,0.2,0c0,0,0-0.1,0-0.1
	c0-0.1-0.1-0.2-0.2-0.2c-0.5-0.6-1.3-0.6-1.9-0.2C1.7,10.6,1.8,10.8,1.9,10.7"/>
<path class="st1" d="M1.3,12.5c0.3-0.2,0.6-0.4,0.9-0.4c0.3,0,0.7,0.1,1,0.2c0.1,0,0.1,0,0.2-0.1c0-0.1,0-0.1,0-0.1
	c-0.1-0.1-0.2-0.1-0.3-0.2c-0.7-0.4-1.6-0.2-2,0.5C1,12.4,1.2,12.6,1.3,12.5"/>
<path class="st1" d="M1.9,14.4c0.2-0.3,0.4-0.6,0.7-0.7c0.3-0.2,0.6-0.2,0.9-0.2c0.1,0,0.1-0.1,0.1-0.1c0-0.1,0-0.1-0.1-0.1
	c-0.1,0-0.2-0.1-0.3-0.1c-0.8-0.1-1.4,0.5-1.6,1.2C1.6,14.4,1.8,14.5,1.9,14.4"/>
<path class="st2" d="M6.8,8.5c0.4,0.1,0.4,0.7-0.5,0.6c-0.7,0-2.1-0.1-3.1,1c-0.9,1-1.9,3.4,0.9,5.4c1.6,1.1,2.8-0.5,1.4-1.5
	c-2.4-0.9-1.7-3.2-0.1-3.2c1.9,0,3-0.4,3.5-1.6c0.4-0.9-0.3-1.8-1.2-1.9c-0.1,0-0.2,0-0.3,0C6.3,7.2,6.1,8.3,6.8,8.5"/>
<path class="st1" d="M18.8,17.3c0.1,0.1,0.1,0.2,0.2,0.4c0,0.1,0.1,0.3,0.1,0.4c0,0,0,0,0,0c0,0,0,0,0,0c0-0.1,0.1-0.1,0.1-0.2
	C19.3,17.6,19.1,17.3,18.8,17.3C18.8,17.2,18.8,17.2,18.8,17.3"/>
<path class="st1" d="M18.2,17.2c0,0.1,0.1,0.3,0.1,0.4c0,0.1,0,0.3,0.1,0.4c0,0,0,0,0,0c0,0,0,0,0,0c0-0.1,0.1-0.1,0.1-0.2
	c0-0.1,0-0.2,0-0.2c0-0.1-0.1-0.2-0.1-0.2C18.4,17.3,18.3,17.2,18.2,17.2C18.2,17.2,18.2,17.2,18.2,17.2"/>
<path class="st1" d="M17.5,17.2c0,0.2,0.1,0.4,0.1,0.6c0,0.1,0,0.1,0.1,0.2c0,0,0,0,0,0c0,0,0,0,0,0c0-0.1,0.1-0.1,0.1-0.2
	c0-0.2,0-0.3-0.1-0.4C17.7,17.3,17.7,17.3,17.5,17.2C17.6,17.2,17.5,17.2,17.5,17.2"/>
<path class="st1" d="M11.1,17.3c0.1,0.1,0.1,0.2,0.2,0.4c0,0.1,0.1,0.3,0.1,0.4c0,0,0,0,0,0c0,0,0,0,0,0c0-0.1,0.1-0.1,0.1-0.2
	C11.6,17.6,11.4,17.3,11.1,17.3C11.1,17.2,11.1,17.2,11.1,17.3"/>
<path class="st1" d="M10.5,17.2c0,0.1,0.1,0.3,0.1,0.4c0,0.1,0,0.3,0.1,0.4c0,0,0,0,0,0c0,0,0,0,0,0c0-0.1,0.1-0.1,0.1-0.2
	c0-0.1,0-0.2,0-0.2c0-0.1-0.1-0.2-0.1-0.2C10.7,17.3,10.6,17.2,10.5,17.2C10.5,17.2,10.5,17.2,10.5,17.2"/>
<path class="st1" d="M9.8,17.2c0,0.2,0.1,0.4,0.1,0.6c0,0.1,0,0.1,0.1,0.2c0,0,0,0,0,0c0,0,0,0,0,0c0-0.1,0.1-0.1,0.1-0.2
	c0-0.2,0-0.3-0.1-0.4C10,17.3,10,17.3,9.8,17.2C9.9,17.2,9.8,17.2,9.8,17.2"/>
<path class="st1" d="M11.8,17.1c-0.1-0.4-0.4-0.7-0.8-0.8c-0.1,0-0.1-0.1-0.2-0.1c-0.1,0-0.1-0.1-0.2-0.2c0,0,0-0.1,0-0.1
	c-0.3-0.6-0.7-1.1-1.3-1.2c0,0-0.1,0-0.1,0c0,0,0,0,0,0.1c0.1,0.1,0.2,0.2,0.3,0.3c0.2,0.2,0.4,0.4,0.5,0.6c0.1,0.1,0.1,0.3,0.2,0.4
	c0,0,0,0.1,0,0.1c0.1,0.1,0.1,0.2,0.2,0.2c0.2,0.1,0.4,0.1,0.5,0.2c0.1,0,0.2,0.1,0.3,0.2C11.5,17,11.6,17.1,11.8,17.1
	C11.7,17.2,11.8,17.2,11.8,17.1"/>
<path class="st1" d="M17.1,10.1c0.4,0,0.8-0.2,0.9-0.5C18.1,9.4,18,9,17.9,8.8c0,0-0.1,0-0.1,0c0,0,0,0,0,0.1c0,0.2,0,0.5-0.1,0.7
	c-0.1,0.1-0.1,0.2-0.3,0.3C17.3,9.9,17.2,9.9,17,10C17,10.1,17,10.1,17.1,10.1"/>
<path class="st1" d="M13.5,10.1c-0.3,0-0.6-0.1-0.9-0.2c-0.1-0.1-0.2-0.1-0.3-0.2c-0.1-0.1-0.2-0.2-0.2-0.4c0-0.1-0.1,0-0.1,0
	c-0.1,0.4,0.2,0.8,0.6,0.9c0.4,0.1,0.7,0.1,1.1-0.1C13.5,10.2,13.5,10.1,13.5,10.1"/>
<path class="st1" d="M15.4,10.5c-0.1,0.2-0.3,0.3-0.5,0.3c-0.2,0-0.4,0-0.6-0.1c0,0-0.1,0-0.1,0.1c0.2,0.4,0.8,0.5,1.2,0.2
	C15.4,10.8,15.5,10.7,15.4,10.5C15.5,10.5,15.4,10.5,15.4,10.5"/>
<path class="st1" d="M16.5,10.6c-0.2,0.2-0.5,0.2-0.8,0.1c-0.1,0-0.2-0.1-0.2-0.2c0,0-0.1,0-0.1,0c0,0.4,0.6,0.7,1,0.4
	c0.1,0,0.1-0.1,0.2-0.2C16.6,10.8,16.6,10.6,16.5,10.6C16.5,10.6,16.5,10.6,16.5,10.6"/>
<path class="st1" d="M13.4,10.9c-0.5-0.1-1,0-1.3-0.3c-0.1-0.1-0.2-0.2-0.3-0.4c0,0-0.1,0-0.1,0c0,0,0,0,0,0.1
	c0,0.4,0.3,0.8,0.7,0.9c0.4,0.1,0.7,0.1,1.1-0.1C13.5,11,13.5,10.9,13.4,10.9"/>
<path class="st1" d="M17.2,10.9c0.4,0.1,1-0.1,1.1-0.6c0,0,0-0.1,0-0.1c0-0.2,0-0.3-0.1-0.5c0,0-0.1,0-0.1,0c0,0,0,0,0,0
	c-0.1,0.3-0.1,0.5-0.3,0.7c-0.1,0.1-0.2,0.1-0.3,0.2c-0.1,0.1-0.2,0.1-0.4,0.2C17.2,10.8,17.2,10.9,17.2,10.9"/>
<path class="st1" d="M16.6,7.2c-0.2-0.2-0.5-0.4-0.8-0.5c-0.9-0.3-2.1,0.1-2.5,0.9c0,0.1,0,0.1,0.1,0.1c0.2-0.2,0.5-0.3,0.7-0.4
	c0.5-0.2,1.1-0.3,1.6-0.2c0.3,0,0.6,0.1,0.8,0.2C16.6,7.3,16.7,7.2,16.6,7.2"/>
<path class="st1" d="M14.4,6.1c0.3,0.5,0.6,1.1,0.8,1.7c0,0.1,0.1,0.2,0.1,0.3c0,0.1,0.1,0.2,0.1,0.3c0,0,0.1,0.1,0.1,0c0,0,0,0,0,0
	c0.1-0.2,0.1-0.5,0-0.7c-0.1-0.6-0.3-1.2-0.8-1.5C14.7,6.1,14.6,6,14.4,6.1C14.4,5.9,14.4,6,14.4,6.1C14.4,6,14.4,6,14.4,6.1"/>
<path class="st1" d="M16.3,7.8c-0.4-0.5-1.3-0.6-1.8-0.2c-0.2,0.1-0.3,0.3-0.4,0.5c0,0,0,0.1,0,0.1c0,0,0,0,0.1,0
	C14.3,8.1,14.4,8,14.4,8c0.2-0.1,0.5-0.2,0.7-0.2c0.3,0,0.5,0,0.8,0C16.1,7.8,16.2,7.9,16.3,7.8C16.3,7.9,16.4,7.8,16.3,7.8"/>
<path class="st2" d="M14.5,6.2c-2.1,0.3-3.4,2.4-3.2,4.1c0.2,1.9,2.3,2.2,4.4,2.1c2.1-0.1,3.5-1.4,3.1-3.3c-0.4-1.9-2-3-3.8-3
	C14.8,6.1,14.6,6.2,14.5,6.2"/>
<path class="st1" d="M16.5,15c0.1,0.3,0.3,0.6,0.5,0.7c0,0.1-0.1,0.3-0.1,0.4c0,0,0,0,0,0c-0.3-0.3-0.6-0.7-0.5-1.1
	C16.4,14.9,16.5,14.9,16.5,15"/>
<path class="st1" d="M10,9.1c-0.5,1.9,0,3.9,1.5,5.2c0.1,0.1,0.2,0,0.1-0.1c0,0-0.1-0.1-0.1-0.1c-0.1-0.2-0.2-0.4-0.4-0.6
	c-0.5-0.9-0.8-1.9-0.8-2.9c0-0.4,0-0.9,0.1-1.3C10.4,8.9,10,8.8,10,9.1"/>
<path class="st1" d="M8.1,9.4c-0.1,1.8,0.3,4.1,2,5.2c0.1,0.1,0.2-0.1,0.1-0.1c-0.3-0.3-0.6-0.7-0.8-1.1c-0.4-0.8-0.6-1.7-0.7-2.6
	c-0.1-0.4-0.1-0.9-0.1-1.4c0-0.1-0.1-0.2-0.2-0.2C8.2,9.2,8.1,9.3,8.1,9.4"/>
<path class="st1" d="M6.6,9.9c-0.3,1.8,0.1,4.4,1.8,5.4c0.1,0.1,0.2-0.1,0.1-0.2c-0.2-0.2-0.3-0.3-0.4-0.5c-0.6-0.9-0.9-2.1-1-3.2
	c0-0.5,0-0.9,0-1.4C7.1,9.6,6.6,9.6,6.6,9.9"/>
<path class="st1" d="M5.5,10.6c-0.4,1.7-0.3,4.1,1.4,5c0.1,0,0.2-0.1,0.1-0.2c-0.3-0.3-0.6-0.6-0.8-1c-0.4-0.8-0.5-1.6-0.4-2.4
	c0-0.4,0.1-0.9,0.1-1.3c0-0.1-0.1-0.2-0.2-0.3C5.6,10.4,5.5,10.5,5.5,10.6"/>
<path class="st1" d="M15.1,13.4c-0.8-0.1-1.6-0.4-2.2-0.9c-0.2-0.2-0.4-0.4-0.6-0.6c0-0.1-0.1-0.1-0.2,0c0,0-0.1,0.1,0,0.2
	c0.1,0.1,0.1,0.3,0.2,0.4c0.6,0.9,1.7,1.4,2.7,1.3C15.3,13.7,15.3,13.5,15.1,13.4"/>
<path class="st1" d="M14.9,14.8c-0.9-0.1-1.8-0.4-2.4-1c-0.1-0.1-0.2-0.2-0.3-0.3c-0.1-0.1-0.2-0.2-0.2-0.4c0-0.1-0.1-0.1-0.2,0
	c-0.1,0-0.1,0.1-0.1,0.1c0,0.2,0.1,0.3,0.2,0.5c0.4,0.7,1.2,1.2,2,1.3c0.3,0.1,0.6,0.1,1,0.1c0.1,0,0.1-0.1,0.1-0.1
	C15,14.9,14.9,14.8,14.9,14.8"/>
<path class="st2" d="M11.6,8.5c-0.4,0.8-1,1.3-1.7,1.8c-1.4,0.9-3,1.1-4.6,2.5c-1.1,1-0.9,2.6-0.6,3.5c0.3,0.9,0.9,1.6,2.1,1.6h7.4
	c1.4,0,2.1-0.7,2.6-1.6c0.5-0.9,0.1-2.3,0-3.6c0-0.7,0.3-0.5,0.8-1.4c0.9-1.7-2.8-3.2-4.8-3.2C12.2,8.1,11.8,8.2,11.6,8.5"/>
<path class="st1" d="M14.4,17.1c0.2-0.3,0.4-0.5,0.7-0.6c0.3-0.2,0.6-0.3,0.9-0.4c0.1,0,0.1-0.1,0.1-0.1c0,0-0.1-0.1-0.1-0.1
	c-0.2,0-0.4,0-0.6,0.1c-0.4,0.1-0.7,0.4-1,0.7c-0.1,0.1-0.2,0.2-0.2,0.4c0,0,0,0.1,0,0.1c0,0.1,0,0.1,0.1,0.1
	C14.3,17.2,14.3,17.2,14.4,17.1"/>
<path class="st1" d="M15,17.6c0.2-0.2,0.4-0.4,0.6-0.6c0.1-0.1,0.2-0.2,0.4-0.2c0.1-0.1,0.2-0.1,0.4-0.2c0.1,0,0.1-0.1,0.1-0.1
	c0-0.1-0.3-0.1-0.4-0.1c-0.2,0.1-0.5,0.2-0.7,0.3c-0.3,0.2-0.5,0.4-0.6,0.8C14.8,17.7,15,17.8,15,17.6"/>
<path class="st1" d="M7.1,16.8c0.4-0.2,0.7-0.4,1.1-0.5c0.2-0.1,0.4-0.1,0.6-0.1C9,16,9.2,16,9.5,16c0.1,0,0.1-0.1,0.1-0.1
	c0,0,0-0.1-0.1-0.1c-0.4-0.1-0.9,0-1.3,0.1C7.7,16,7.3,16.3,7,16.6C6.9,16.7,7,16.8,7.1,16.8"/>
<path class="st1" d="M7.7,17.5c0.5-0.2,1-0.5,1.6-0.6c0.2,0,0.4-0.1,0.5-0.1c0.1,0,0.1-0.1,0.1-0.1c0,0,0-0.1-0.1-0.1
	c-0.4-0.1-0.8,0-1.2,0.2c-0.4,0.2-0.7,0.4-1,0.6C7.5,17.4,7.5,17.5,7.7,17.5"/>
<path class="st1" d="M13.3,17.9h-0.4c0-0.1-0.1-0.1-0.1-0.2c-0.2-0.3-0.3-0.6-0.3-0.9c0-0.3-0.1-0.5,0-0.8c0,0,0,0,0,0
	c0,0,0.1,0,0.1,0c0.1,0.2,0.2,0.5,0.2,0.7c0.1,0.2,0.2,0.4,0.3,0.7C13.1,17.6,13.2,17.7,13.3,17.9"/>
<path class="st0" d="M8.7,7.8L8.5,9L7.5,9c0,0-1.9,0.4-2.1,0.6L4.1,11c0,0-0.3,0.9-0.3,1.1v1.3l0.3,1c0,0,0.6,1.1,0.7,1.1
	c0.1,0,1.2,0.7,1.2,0.7l0.3,0.9L7.1,18l1.2,0.9h1.6h2.5c0.2,0,1.2-0.2,1.2-0.2l0.4-0.4l1,0.1l0.7,0.3l3.5,0l1.9,0.2l0.4-0.6v-0.8
	L21,16.9l-0.7-0.1l-0.9-0.3L19,16.5l0-1L18.8,13l0.4-0.4l1.2-1l0.4-0.9l0.1-0.9l-0.6-1.9l-0.4-0.4L20,6.7L19.6,6l-0.8-0.5L18,5.3
	l-0.3,0.2L17.2,6l-0.5,0.1l-1,0l-0.4-0.4l-0.7-0.3l-0.7,0.1L13.5,6l-0.2,0.5l-0.4,0.7l0.3,1.1L13,9.1l-1.1,1.2l-0.9,0.6l-0.8-0.2
	l0.2-0.5c0,0,0.3-1,0.4-1.1c0-0.1-0.1-1-0.1-1L9.4,7.4L8.7,7.8z"/>
<path class="st1" d="M8.3,11.5c-0.4,0-0.8,0.1-1.2,0.1c-0.4,0-0.7,0.2-0.8,0.6c-0.1,0.2,0,0.5,0.1,0.7c0.1-0.1,0.2-0.2,0.3-0.3
	C7.2,12.1,7.8,11.8,8.3,11.5 M5.8,15.7C6,15.9,6.1,15.9,6.3,16c0,0.2,0.1,0.4,0.2,0.6c0.2,0.5,0.5,1,0.9,1.3C8,18.4,8.7,18.6,9,18.6
	c0.6,0,3.3,0,3.6,0c0.3,0,0.9,0.1,1.1-0.3c0,0,0-0.1,0-0.1H15c0.3,0.2,0.6,0.4,0.9,0.4h5c0.6,0,0.4-1.2-0.1-1.4
	c-0.6-0.2-0.7-0.1-1.1-0.2c-0.4-0.1-0.7-0.3-1-0.6c0.3-0.9,0-2.2-0.1-3.4c0-0.3,0-0.4,0.2-0.5c1.3-0.5,2.1-1.6,1.8-3
	c-0.2-0.8-0.6-1.5-1.1-2c0.1-0.1,0.2-0.2,0.2-0.3c0.3-0.6-0.6-1.3-1-1.4c-0.6-0.3-1.2,0-1.2,0.9c-0.4-0.1-0.8-0.1-1.3,0
	c-0.3,0-0.5,0.1-0.7,0.2c-0.2-0.6-0.7-1-1.2-0.9c-0.7,0.2-1,1.2-1,1.5c0,0.3,0,0.5,0.5,0.7c-0.2,0.3-0.4,0.7-0.5,1.1
	c-0.4,0.6-0.9,1.1-1.5,1.4c-1.4,0.9-3,1.1-4.6,2.5c-0.3,0.2-0.5,0.5-0.6,0.8C5,12.8,5.7,11,7,11c1.9,0,3-0.4,3.5-1.6
	c0.4-0.9-0.3-1.8-1.2-1.9C8.1,7.2,7.7,8.6,8.5,8.8C8.9,8.9,8.9,9.4,8,9.4c-0.7,0-2.1-0.1-3.1,1C4,11.3,3,13.8,5.8,15.7 M4.5,10
	c0.8-0.8,1.8-1.2,3.1-1.2c0,0,0.1,0,0.1,0C7.5,8.6,7.5,8.3,7.5,8.1C7.6,7.5,8.1,6.9,9,6.9c0.1,0,0.3,0,0.4,0C10.1,7,10.7,7.5,11,8
	c0.3,0.5,0.3,1.1,0.1,1.6c-0.1,0.3-0.3,0.6-0.5,0.8c0.3-0.1,0.5-0.2,0.7-0.4c0.5-0.3,1-0.7,1.3-1.2c0.1-0.3,0.2-0.5,0.3-0.7
	c-0.2-0.3-0.3-0.6-0.3-0.8c0-0.6,0.4-1.8,1.4-2.1c0.1,0,0.3-0.1,0.4-0.1c0.4,0,0.7,0.1,1,0.4c0.1,0.1,0.2,0.2,0.3,0.4
	c0.1,0,0.2,0,0.4-0.1c0.2,0,0.4,0,0.6,0c0.1,0,0.2,0,0.2,0c0.1-0.2,0.2-0.3,0.3-0.5c0.2-0.3,0.6-0.4,1-0.4c0.2,0,0.4,0,0.7,0.1
	c0.4,0.2,1.1,0.7,1.3,1.3c0.1,0.3,0.1,0.6-0.1,0.9c0,0,0,0,0,0c0.5,0.5,0.8,1.2,1,1.9c0.2,0.8,0,1.7-0.4,2.3c-0.4,0.6-0.9,1-1.6,1.3
	c0,0,0,0,0,0.1c0,0.4,0.1,0.7,0.1,1.1c0.1,0.7,0.2,1.4,0.1,2.1c0.2,0.1,0.3,0.2,0.5,0.3c0.2,0.1,0.2,0.1,0.4,0.1
	c0.2,0,0.4,0,0.7,0.1c0.3,0.1,0.6,0.3,0.8,0.7c0.1,0.3,0.2,0.6,0.1,0.9c-0.1,0.5-0.4,0.9-0.9,0.9h-5c-0.4,0-0.8-0.1-1.1-0.4H14
	c-0.2,0.3-0.6,0.5-1.1,0.5c-0.1,0-0.2,0-0.3,0c-0.1,0-0.1,0-0.1,0c-0.1,0-0.6,0-1.2,0l-0.1,0c-0.8,0-1.9,0-2.2,0
	c-0.1,0-0.4,0-0.8-0.2c-0.4-0.2-0.8-0.4-1.1-0.7c-0.5-0.3-0.8-0.8-1.1-1.5c0-0.1-0.1-0.3-0.1-0.4c-0.1-0.1-0.2-0.1-0.3-0.2
	c-0.9-0.6-1.9-1.7-2.1-3.2C3.3,11.7,3.9,10.6,4.5,10"/>
<path class="st1" d="M14,7.5c0-0.1-0.1-0.1-0.2-0.2c-0.2-0.2,0-0.7,0.3-1c0.3-0.2,0.5,0.1,0.7,0.5C14.6,7.1,14.3,7.3,14,7.5"/>
<path class="st1" d="M19.1,7.1c-0.3-0.2-0.7-0.4-1.1-0.5c0-0.5,0.3-0.6,0.6-0.4c0.2,0.1,0.7,0.5,0.5,0.8C19.1,7,19.1,7.1,19.1,7.1"
	/>
<path class="st1" d="M17.6,9.9c-0.3,0-0.7,0-0.9,0c-0.1,0-0.2,0.1-0.1,0.2c0.1,0.1,0.2,0.2,0.4,0.3c0.1,0,0.2,0.1,0.3,0
	c0.1,0,0.2-0.1,0.3-0.3C17.7,10,17.7,9.9,17.6,9.9"/>
<path class="st1" d="M14.9,9.3c0,0.2,0.2,0.4,0.4,0.4c0.2,0,0.4-0.2,0.4-0.4c0-0.2-0.2-0.4-0.4-0.4C15,9,14.9,9.1,14.9,9.3"/>
<path class="st1" d="M18,9c0,0.2,0.2,0.4,0.4,0.4c0.2,0,0.4-0.2,0.4-0.4s-0.2-0.4-0.4-0.4C18.2,8.7,18,8.8,18,9"/>
<path class="st1" d="M10.8,8.6c-0.5-0.2-1.7,0.1-2.3,0.5C6.9,8,8.6,6.6,9.9,7.4C10.6,7.9,10.8,8.6,10.8,8.6"/>
<path class="st1" d="M6.6,8.9c0.3,0.2,0.5,0.4,0.7,0.7c0.2,0.3,0.2,0.6,0.2,0.9c0,0.1,0.2,0.2,0.3,0c0.4-0.8-0.2-1.6-1-1.8
	C6.6,8.6,6.5,8.8,6.6,8.9"/>
<path class="st1" d="M4.9,9.5c0.3,0.1,0.6,0.2,0.8,0.4c0.2,0.2,0.3,0.4,0.4,0.6c0,0.1,0.1,0.2,0.1,0.2c0.1,0.1,0.3,0.1,0.3-0.1
	c0-0.6-0.4-1.2-1-1.3c-0.2-0.1-0.4-0.1-0.6,0c-0.1,0-0.1,0.1-0.1,0.2C4.8,9.5,4.8,9.5,4.9,9.5"/>
<path class="st1" d="M3.7,11c0.3-0.1,0.6-0.1,0.9,0c0.3,0.1,0.5,0.3,0.8,0.5c0.1,0,0.1,0,0.2,0c0,0,0-0.1,0-0.1
	c0-0.1-0.1-0.2-0.2-0.2c-0.5-0.6-1.3-0.6-1.9-0.2C3.4,10.8,3.5,11,3.7,11"/>
<path class="st1" d="M3,12.7c0.3-0.2,0.6-0.4,0.9-0.4c0.3,0,0.7,0.1,1,0.2c0.1,0,0.1,0,0.2-0.1c0-0.1,0-0.1,0-0.1
	C5,12.1,4.9,12.1,4.8,12c-0.7-0.4-1.6-0.2-2,0.5C2.7,12.7,2.9,12.8,3,12.7"/>
<path class="st1" d="M3.6,14.6C3.8,14.3,4,14,4.3,13.9c0.3-0.2,0.6-0.2,0.9-0.2c0.1,0,0.1-0.1,0.1-0.1c0-0.1,0-0.1-0.1-0.1
	c-0.1,0-0.2-0.1-0.3-0.1c-0.8-0.1-1.4,0.5-1.6,1.2C3.4,14.7,3.6,14.7,3.6,14.6"/>
<path class="st2" d="M8.5,8.8C8.9,8.9,8.9,9.4,8,9.4c-0.7,0-2.1-0.1-3.1,1c-0.9,1-1.9,3.4,0.9,5.4c1.6,1.1,2.8-0.6,1.4-1.5
	C4.8,13.3,5.5,11,7,11c1.9,0,3-0.4,3.5-1.6c0.4-0.9-0.3-1.8-1.2-1.9c-0.1,0-0.2,0-0.3,0C8,7.4,7.8,8.6,8.5,8.8"/>
<path class="st1" d="M20.5,17.5c0.1,0.1,0.1,0.2,0.2,0.4c0,0.1,0.1,0.3,0.1,0.4c0,0,0,0,0,0c0,0,0,0,0,0c0-0.1,0.1-0.1,0.1-0.2
	C21,17.8,20.8,17.5,20.5,17.5C20.6,17.5,20.5,17.5,20.5,17.5"/>
<path class="st1" d="M19.9,17.5c0,0.1,0.1,0.3,0.1,0.4c0,0.1,0,0.3,0.1,0.4c0,0,0,0,0,0c0,0,0,0,0,0c0-0.1,0.1-0.1,0.1-0.2
	c0-0.1,0-0.2,0-0.2c0-0.1-0.1-0.2-0.1-0.2C20.1,17.5,20,17.5,19.9,17.5C19.9,17.4,19.9,17.5,19.9,17.5"/>
<path class="st1" d="M19.3,17.5c0,0.2,0.1,0.4,0.1,0.6c0,0.1,0,0.1,0.1,0.2c0,0,0,0,0,0c0,0,0,0,0,0c0-0.1,0.1-0.1,0.1-0.2
	c0-0.2,0-0.3-0.1-0.4C19.4,17.6,19.4,17.5,19.3,17.5C19.3,17.5,19.3,17.5,19.3,17.5"/>
<path class="st1" d="M12.8,17.5c0.1,0.1,0.1,0.2,0.2,0.4c0,0.1,0.1,0.3,0.1,0.4c0,0,0,0,0,0c0,0,0,0,0,0c0-0.1,0.1-0.1,0.1-0.2
	C13.3,17.8,13.1,17.5,12.8,17.5C12.8,17.5,12.8,17.5,12.8,17.5"/>
<path class="st1" d="M12.2,17.5c0,0.1,0.1,0.3,0.1,0.4c0,0.1,0,0.3,0.1,0.4c0,0,0,0,0,0c0,0,0,0,0,0c0-0.1,0.1-0.1,0.1-0.2
	c0-0.1,0-0.2,0-0.2c0-0.1-0.1-0.2-0.1-0.2C12.4,17.5,12.3,17.5,12.2,17.5C12.2,17.4,12.2,17.5,12.2,17.5"/>
<path class="st1" d="M11.5,17.5c0,0.2,0.1,0.4,0.1,0.6c0,0.1,0,0.1,0.1,0.2c0,0,0,0,0,0c0,0,0,0,0,0c0-0.1,0.1-0.1,0.1-0.2
	c0-0.2,0-0.3-0.1-0.4C11.7,17.6,11.7,17.5,11.5,17.5C11.6,17.5,11.5,17.5,11.5,17.5"/>
<path class="st1" d="M13.5,17.4c-0.1-0.4-0.4-0.7-0.8-0.8c-0.1,0-0.1-0.1-0.2-0.1c-0.1,0-0.1-0.1-0.2-0.2c0,0,0-0.1,0-0.1
	c-0.3-0.6-0.7-1.1-1.3-1.2c0,0-0.1,0-0.1,0c0,0,0,0,0,0.1c0.1,0.1,0.2,0.2,0.3,0.3c0.2,0.2,0.4,0.4,0.5,0.6c0.1,0.1,0.1,0.3,0.2,0.4
	c0,0,0,0.1,0,0.1c0.1,0.1,0.1,0.2,0.2,0.2c0.2,0.1,0.4,0.1,0.5,0.2c0.1,0,0.2,0.1,0.3,0.2C13.3,17.2,13.3,17.3,13.5,17.4
	C13.5,17.5,13.5,17.5,13.5,17.4"/>
<path class="st1" d="M18.8,10.4c0.4,0,0.8-0.2,0.9-0.5c0.1-0.3,0.1-0.6-0.1-0.8c0,0-0.1,0-0.1,0c0,0,0,0,0,0.1c0,0.2,0,0.5-0.1,0.7
	c-0.1,0.1-0.1,0.2-0.3,0.3c-0.1,0.1-0.2,0.1-0.3,0.2C18.7,10.3,18.7,10.4,18.8,10.4"/>
<path class="st1" d="M15.2,10.4c-0.3,0-0.6-0.1-0.9-0.2c-0.1-0.1-0.2-0.1-0.3-0.2c-0.1-0.1-0.2-0.2-0.2-0.4c0-0.1-0.1,0-0.1,0
	c-0.1,0.4,0.2,0.8,0.6,0.9c0.4,0.1,0.7,0.1,1.1-0.1C15.2,10.5,15.2,10.4,15.2,10.4"/>
<path class="st1" d="M17.1,10.8c-0.1,0.2-0.3,0.3-0.5,0.3c-0.2,0-0.4,0-0.6-0.1c0,0-0.1,0-0.1,0.1c0.2,0.4,0.8,0.5,1.2,0.2
	C17.1,11.1,17.2,10.9,17.1,10.8C17.2,10.8,17.1,10.7,17.1,10.8"/>
<path class="st1" d="M18.2,10.9c-0.2,0.2-0.5,0.2-0.8,0.1c-0.1,0-0.2-0.1-0.2-0.2c0,0-0.1,0-0.1,0c0,0.4,0.6,0.7,1,0.4
	c0.1,0,0.1-0.1,0.2-0.2C18.3,11,18.3,10.8,18.2,10.9C18.2,10.8,18.2,10.9,18.2,10.9"/>
<path class="st1" d="M15.1,11.2c-0.5-0.1-1,0-1.3-0.3c-0.1-0.1-0.2-0.2-0.3-0.4c0,0-0.1,0-0.1,0c0,0,0,0,0,0.1
	c0,0.4,0.3,0.8,0.7,0.9c0.4,0.1,0.7,0.1,1.1-0.1C15.2,11.3,15.2,11.2,15.1,11.2"/>
<path class="st1" d="M19,11.1c0.4,0.1,1-0.1,1.1-0.6c0,0,0-0.1,0-0.1c0-0.2,0-0.3-0.1-0.5c0,0-0.1,0-0.1,0c0,0,0,0,0,0
	c-0.1,0.3-0.1,0.5-0.3,0.7c-0.1,0.1-0.2,0.1-0.3,0.2C19.2,10.9,19.1,11,19,11C18.9,11,18.9,11.1,19,11.1"/>
<path class="st1" d="M18.3,7.5c-0.2-0.2-0.5-0.4-0.8-0.5C16.6,6.7,15.5,7,15,7.9c0,0.1,0,0.1,0.1,0.1c0.2-0.2,0.5-0.3,0.7-0.4
	c0.5-0.2,1.1-0.3,1.6-0.2c0.3,0,0.6,0.1,0.8,0.2C18.3,7.6,18.4,7.5,18.3,7.5"/>
<path class="st1" d="M16.1,6.3c0.3,0.5,0.6,1.1,0.8,1.7C17,8.1,17,8.2,17,8.3c0,0.1,0.1,0.2,0.1,0.3c0,0,0.1,0.1,0.1,0c0,0,0,0,0,0
	c0.1-0.2,0.1-0.5,0-0.7c-0.1-0.6-0.3-1.2-0.8-1.5C16.4,6.3,16.3,6.3,16.1,6.3C16.1,6.2,16.1,6.2,16.1,6.3
	C16.1,6.3,16.1,6.3,16.1,6.3"/>
<path class="st1" d="M18,8c-0.4-0.5-1.3-0.6-1.8-0.2c-0.2,0.1-0.3,0.3-0.4,0.5c0,0,0,0.1,0,0.1c0,0,0,0,0.1,0
	c0.1-0.1,0.2-0.1,0.2-0.1c0.2-0.1,0.5-0.2,0.7-0.2c0.3,0,0.5,0,0.8,0C17.8,8.1,17.9,8.1,18,8C18,8.2,18.1,8.1,18,8"/>
<path class="st2" d="M16.2,6.4c-2.1,0.3-3.4,2.4-3.2,4.1c0.2,1.9,2.3,2.2,4.4,2.1c2.1-0.1,3.5-1.4,3.1-3.3c-0.4-1.9-2-3-3.8-3
	C16.6,6.4,16.4,6.4,16.2,6.4"/>
<path class="st1" d="M18.2,15.2c0.1,0.3,0.3,0.6,0.5,0.7c0,0.1-0.1,0.3-0.1,0.4c0,0,0,0,0,0c-0.3-0.3-0.6-0.7-0.5-1.1
	C18.1,15.2,18.2,15.2,18.2,15.2"/>
<path class="st1" d="M11.7,9.4c-0.5,1.9,0,3.9,1.5,5.2c0.1,0.1,0.2,0,0.1-0.1c0,0-0.1-0.1-0.1-0.1c-0.1-0.2-0.2-0.4-0.4-0.6
	c-0.5-0.9-0.8-1.9-0.8-2.9c0-0.4,0-0.9,0.1-1.3C12.2,9.2,11.8,9.1,11.7,9.4"/>
<path class="st1" d="M9.8,9.7c-0.1,1.8,0.3,4.1,2,5.2c0.1,0.1,0.2-0.1,0.1-0.1c-0.3-0.3-0.6-0.7-0.8-1.1c-0.4-0.8-0.6-1.7-0.7-2.6
	c-0.1-0.4-0.1-0.9-0.1-1.4c0-0.1-0.1-0.2-0.2-0.2C9.9,9.5,9.8,9.5,9.8,9.7"/>
<path class="st1" d="M8.3,10.1c-0.3,1.8,0.1,4.4,1.8,5.4c0.1,0.1,0.2-0.1,0.1-0.2C10,15.2,9.9,15,9.7,14.8c-0.6-0.9-0.9-2.1-1-3.2
	c0-0.5,0-0.9,0-1.4C8.8,9.9,8.4,9.8,8.3,10.1"/>
<path class="st1" d="M7.2,10.9c-0.4,1.7-0.3,4.1,1.4,5c0.1,0,0.2-0.1,0.1-0.2c-0.3-0.3-0.6-0.6-0.8-1c-0.4-0.8-0.5-1.6-0.4-2.4
	c0-0.4,0.1-0.9,0.1-1.3c0-0.1-0.1-0.2-0.2-0.3C7.3,10.7,7.2,10.8,7.2,10.9"/>
<path class="st1" d="M16.8,13.7c-0.8-0.1-1.6-0.4-2.2-0.9c-0.2-0.2-0.4-0.4-0.6-0.6c0-0.1-0.1-0.1-0.2,0c0,0-0.1,0.1,0,0.2
	c0.1,0.1,0.1,0.3,0.2,0.4c0.6,0.9,1.7,1.4,2.7,1.3C17,13.9,17,13.7,16.8,13.7"/>
<path class="st1" d="M16.6,15.1c-0.9-0.1-1.8-0.4-2.4-1c-0.1-0.1-0.2-0.2-0.3-0.3c-0.1-0.1-0.2-0.2-0.2-0.4c0-0.1-0.1-0.1-0.2,0
	c-0.1,0-0.1,0.1-0.1,0.1c0,0.2,0.1,0.3,0.2,0.5c0.4,0.7,1.2,1.2,2,1.3c0.3,0.1,0.6,0.1,1,0.1c0.1,0,0.1-0.1,0.1-0.1
	C16.7,15.1,16.6,15.1,16.6,15.1"/>
<path class="st2" d="M13.3,8.8c-0.4,0.8-1,1.3-1.7,1.8c-1.4,0.9-3,1.1-4.6,2.5c-1.1,1-0.9,2.6-0.6,3.5c0.3,0.9,0.9,1.6,2.1,1.6H16
	c1.4,0,2.1-0.7,2.6-1.6c0.5-0.9,0.1-2.3,0-3.6c0-0.7,0.3-0.5,0.8-1.4c0.9-1.7-2.8-3.2-4.8-3.2C14,8.3,13.5,8.5,13.3,8.8"/>
<path class="st1" d="M16.1,17.4c0.2-0.3,0.4-0.5,0.7-0.6c0.3-0.2,0.6-0.3,0.9-0.4c0.1,0,0.1-0.1,0.1-0.1c0,0-0.1-0.1-0.1-0.1
	c-0.2,0-0.4,0-0.6,0.1c-0.4,0.1-0.7,0.4-1,0.7c-0.1,0.1-0.2,0.2-0.2,0.4c0,0,0,0.1,0,0.1c0,0.1,0,0.1,0.1,0.1
	C16,17.4,16.1,17.4,16.1,17.4"/>
<path class="st1" d="M16.8,17.9c0.2-0.2,0.4-0.4,0.6-0.6c0.1-0.1,0.2-0.2,0.4-0.2c0.1-0.1,0.2-0.1,0.4-0.2c0.1,0,0.1-0.1,0.1-0.1
	c0-0.1-0.3-0.1-0.4-0.1c-0.2,0.1-0.5,0.2-0.7,0.3c-0.3,0.2-0.5,0.4-0.6,0.8C16.5,17.9,16.7,18,16.8,17.9"/>
<path class="st1" d="M8.8,17c0.4-0.2,0.7-0.4,1.1-0.5c0.2-0.1,0.4-0.1,0.6-0.1c0.2,0,0.4-0.1,0.6-0.1c0.1,0,0.1-0.1,0.1-0.1
	c0,0,0-0.1-0.1-0.1c-0.4-0.1-0.9,0-1.3,0.1c-0.4,0.2-0.8,0.4-1.1,0.7C8.6,16.9,8.7,17.1,8.8,17"/>
<path class="st1" d="M9.4,17.7c0.5-0.2,1-0.5,1.6-0.6c0.2,0,0.4-0.1,0.5-0.1c0.1,0,0.1-0.1,0.1-0.1c0,0,0-0.1-0.1-0.1
	c-0.4-0.1-0.8,0-1.2,0.2c-0.4,0.2-0.7,0.4-1,0.6C9.2,17.6,9.3,17.8,9.4,17.7"/>
<path class="st1" d="M15,18.2h-0.4c0-0.1-0.1-0.1-0.1-0.2c-0.2-0.3-0.3-0.6-0.3-0.9c0-0.3-0.1-0.5,0-0.8c0,0,0,0,0,0
	c0,0,0.1,0,0.1,0c0.1,0.2,0.2,0.5,0.2,0.7c0.1,0.2,0.2,0.4,0.3,0.7C14.8,17.8,14.9,18,15,18.2"/>
<path class="st0" d="M10.3,8.9L10,10.1l-1,0.1c0,0-1.9,0.4-2.1,0.6l-1.2,1.3c0,0-0.3,0.9-0.3,1.1v1.3l0.3,1c0,0,0.6,1.1,0.7,1.1
	c0.1,0,1.2,0.7,1.2,0.7l0.3,0.9l0.8,0.9l1.2,0.9h1.6H14c0.2,0,1.2-0.2,1.2-0.2l0.4-0.4l1,0.1l0.7,0.3l3.5,0l1.9,0.2l0.4-0.6v-0.8
	L22.6,18L21.9,18L21,17.7l-0.5-0.1l0-1l-0.1-2.5l0.4-0.4l1.2-1l0.4-0.9l0.1-0.9l-0.6-1.9l-0.4-0.4l0.1-0.6l-0.3-0.7l-0.8-0.5
	l-0.8-0.3l-0.3,0.2l-0.4,0.5l-0.5,0.1l-1,0l-0.4-0.4l-0.7-0.3l-0.7,0.1L15,7.1l-0.2,0.5l-0.4,0.7l0.3,1.1l-0.1,0.8l-1.1,1.2L12.6,12
	l-0.8-0.2l0.2-0.5c0,0,0.3-1,0.4-1.1c0-0.1-0.1-1-0.1-1L11,8.5L10.3,8.9z"/>
<path class="st1" d="M9.8,12.7c-0.4,0-0.8,0.1-1.2,0.1c-0.4,0-0.7,0.2-0.8,0.6c-0.1,0.2,0,0.5,0.1,0.7C8,14,8.1,13.9,8.2,13.8
	C8.8,13.3,9.3,12.9,9.8,12.7 M7.4,16.9c0.2,0.1,0.3,0.2,0.5,0.3c0,0.2,0.1,0.4,0.2,0.6c0.2,0.5,0.5,1,0.9,1.3
	c0.6,0.6,1.3,0.8,1.6,0.8c0.6,0,3.3,0,3.6,0c0.3,0,0.9,0.1,1.1-0.3c0,0,0-0.1,0-0.1h1.4c0.3,0.2,0.6,0.4,0.9,0.4h5
	c0.6,0,0.4-1.2-0.1-1.4c-0.6-0.2-0.7-0.1-1.1-0.2c-0.4-0.1-0.7-0.3-1-0.6c0.3-0.9,0-2.2-0.1-3.4c0-0.3,0-0.4,0.2-0.5
	c1.3-0.5,2.1-1.6,1.8-3c-0.2-0.8-0.6-1.5-1.1-2c0.1-0.1,0.2-0.2,0.2-0.3c0.3-0.6-0.6-1.3-1-1.4c-0.6-0.3-1.2,0-1.2,0.9
	c-0.4-0.1-0.8-0.1-1.3,0c-0.3,0-0.5,0.1-0.7,0.2c-0.2-0.6-0.7-1-1.2-0.9c-0.7,0.2-1,1.2-1,1.5c0,0.3,0,0.5,0.5,0.7
	c-0.2,0.3-0.4,0.7-0.5,1.1c-0.4,0.6-0.9,1.1-1.5,1.4c-1.4,0.9-3,1.1-4.6,2.5C8.3,14.4,8.1,14.7,8,15c-1.5-1-0.7-2.8,0.6-2.8
	c1.9,0,3-0.4,3.5-1.6c0.4-0.9-0.3-1.8-1.2-1.9c-1.3-0.3-1.6,1.1-0.8,1.3c0.4,0.1,0.4,0.7-0.5,0.6c-0.7,0-2.1-0.1-3.1,1
	C5.6,12.5,4.6,14.9,7.4,16.9 M6.1,11.1c0.8-0.8,1.8-1.2,3.1-1.2c0,0,0.1,0,0.1,0C9.1,9.7,9.1,9.5,9.1,9.2C9.2,8.6,9.7,8,10.6,8
	c0.1,0,0.3,0,0.4,0c0.7,0.1,1.2,0.6,1.5,1.1c0.3,0.5,0.3,1.1,0.1,1.6c-0.1,0.3-0.3,0.6-0.5,0.8c0.3-0.1,0.5-0.2,0.7-0.4
	c0.5-0.3,1-0.7,1.3-1.2c0.1-0.3,0.2-0.5,0.3-0.7c-0.2-0.3-0.3-0.6-0.3-0.8c0-0.6,0.4-1.8,1.4-2.1c0.1,0,0.3-0.1,0.4-0.1
	c0.4,0,0.7,0.1,1,0.4c0.1,0.1,0.2,0.2,0.3,0.4c0.1,0,0.2,0,0.4-0.1c0.2,0,0.4,0,0.6,0c0.1,0,0.2,0,0.2,0c0.1-0.2,0.2-0.3,0.3-0.5
	c0.2-0.3,0.6-0.4,1-0.4c0.2,0,0.4,0,0.7,0.1c0.4,0.2,1.1,0.7,1.3,1.3c0.1,0.3,0.1,0.6-0.1,0.9c0,0,0,0,0,0c0.5,0.5,0.8,1.2,1,1.9
	c0.2,0.8,0,1.7-0.4,2.3c-0.4,0.6-0.9,1-1.6,1.3c0,0,0,0,0,0.1c0,0.4,0.1,0.7,0.1,1.1c0.1,0.7,0.2,1.4,0.1,2.1
	c0.2,0.1,0.3,0.2,0.5,0.3c0.2,0.1,0.2,0.1,0.4,0.1c0.2,0,0.4,0,0.7,0.1c0.3,0.1,0.6,0.3,0.8,0.7c0.1,0.3,0.2,0.6,0.1,0.9
	c-0.1,0.5-0.4,0.9-0.9,0.9h-5c-0.4,0-0.8-0.1-1.1-0.4h-0.8c-0.2,0.3-0.6,0.5-1.1,0.5c-0.1,0-0.2,0-0.3,0c-0.1,0-0.1,0-0.1,0
	c-0.1,0-0.6,0-1.2,0l-0.1,0c-0.8,0-1.9,0-2.2,0c-0.1,0-0.4,0-0.8-0.2c-0.4-0.2-0.8-0.4-1.1-0.7c-0.5-0.3-0.8-0.8-1.1-1.5
	c0-0.1-0.1-0.3-0.1-0.4c-0.1-0.1-0.2-0.1-0.3-0.2c-0.9-0.6-1.9-1.7-2.1-3.2C4.9,12.9,5.5,11.7,6.1,11.1"/>
<path class="st1" d="M15.6,8.7c0-0.1-0.1-0.1-0.2-0.2c-0.2-0.2,0-0.7,0.3-1C16,7.3,16.3,7.6,16.4,8C16.1,8.2,15.9,8.4,15.6,8.7"/>
<path class="st1" d="M20.6,8.2c-0.3-0.2-0.7-0.4-1.1-0.5c0-0.5,0.3-0.6,0.6-0.4c0.2,0.1,0.7,0.5,0.5,0.8C20.7,8.1,20.7,8.2,20.6,8.2
	"/>
<path class="st1" d="M19.1,11c-0.3,0-0.7,0-0.9,0c-0.1,0-0.2,0.1-0.1,0.2c0.1,0.1,0.2,0.2,0.4,0.3c0.1,0,0.2,0.1,0.3,0
	c0.1,0,0.2-0.1,0.3-0.3C19.2,11.1,19.2,11,19.1,11"/>
<path class="st1" d="M16.4,10.5c0,0.2,0.2,0.4,0.4,0.4c0.2,0,0.4-0.2,0.4-0.4s-0.2-0.4-0.4-0.4C16.6,10.1,16.4,10.3,16.4,10.5"/>
<path class="st1" d="M19.6,10.2c0,0.2,0.2,0.4,0.4,0.4c0.2,0,0.4-0.2,0.4-0.4c0-0.2-0.2-0.4-0.4-0.4C19.8,9.8,19.6,10,19.6,10.2"/>
<path class="st1" d="M12.4,9.7c-0.5-0.2-1.7,0.1-2.3,0.5c-1.7-1.1,0.1-2.5,1.4-1.6C12.2,9,12.4,9.7,12.4,9.7"/>
<path class="st1" d="M8.1,10.1c0.3,0.2,0.5,0.4,0.7,0.7C9,11,9,11.3,9,11.6c0,0.1,0.2,0.2,0.3,0c0.4-0.8-0.2-1.6-1-1.8
	C8.1,9.8,8,10,8.1,10.1"/>
<path class="st1" d="M6.5,10.7c0.3,0.1,0.6,0.2,0.8,0.4c0.2,0.2,0.3,0.4,0.4,0.6c0,0.1,0.1,0.2,0.1,0.2c0.1,0.1,0.3,0.1,0.3-0.1
	c0-0.6-0.4-1.2-1-1.3c-0.2-0.1-0.4-0.1-0.6,0c-0.1,0-0.1,0.1-0.1,0.2C6.4,10.6,6.4,10.7,6.5,10.7"/>
<path class="st1" d="M5.2,12.1c0.3-0.1,0.6-0.1,0.9,0c0.3,0.1,0.5,0.3,0.8,0.5c0.1,0,0.1,0,0.2,0c0,0,0-0.1,0-0.1
	c0-0.1-0.1-0.2-0.2-0.2c-0.5-0.6-1.3-0.6-1.9-0.2C5,12,5.1,12.2,5.2,12.1"/>
<path class="st1" d="M4.6,13.9c0.3-0.2,0.6-0.4,0.9-0.4c0.3,0,0.7,0.1,1,0.2c0.1,0,0.1,0,0.2-0.1c0-0.1,0-0.1,0-0.1
	c-0.1-0.1-0.2-0.1-0.3-0.2c-0.7-0.4-1.6-0.2-2,0.5C4.3,13.8,4.4,14,4.6,13.9"/>
<path class="st1" d="M5.2,15.8c0.2-0.3,0.4-0.6,0.7-0.7c0.3-0.2,0.6-0.2,0.9-0.2c0.1,0,0.1-0.1,0.1-0.1c0-0.1,0-0.1-0.1-0.1
	c-0.1,0-0.2-0.1-0.3-0.1c-0.8-0.1-1.4,0.5-1.6,1.2C4.9,15.8,5.1,15.9,5.2,15.8"/>
<path class="st2" d="M10.1,9.9c0.4,0.1,0.4,0.7-0.5,0.6c-0.7,0-2.1-0.1-3.1,1c-0.9,1-1.9,3.4,0.9,5.4c1.6,1.1,2.8-0.5,1.4-1.5
	c-2.4-0.9-1.7-3.2-0.1-3.2c1.9,0,3-0.4,3.5-1.6c0.4-0.9-0.3-1.8-1.2-1.9c-0.1,0-0.2,0-0.3,0C9.6,8.6,9.3,9.7,10.1,9.9"/>
<path class="st1" d="M22.1,18.7c0.1,0.1,0.1,0.2,0.2,0.4c0,0.1,0.1,0.3,0.1,0.4c0,0,0,0,0,0c0,0,0,0,0,0c0-0.1,0.1-0.1,0.1-0.2
	C22.6,19,22.4,18.7,22.1,18.7C22.1,18.6,22.1,18.6,22.1,18.7"/>
<path class="st1" d="M21.5,18.6c0,0.1,0.1,0.3,0.1,0.4c0,0.1,0,0.3,0.1,0.4c0,0,0,0,0,0c0,0,0,0,0,0c0-0.1,0.1-0.1,0.1-0.2
	c0-0.1,0-0.2,0-0.2c0-0.1-0.1-0.2-0.1-0.2C21.7,18.7,21.6,18.6,21.5,18.6C21.5,18.6,21.5,18.6,21.5,18.6"/>
<path class="st1" d="M20.8,18.7c0,0.2,0.1,0.4,0.1,0.6c0,0.1,0,0.1,0.1,0.2c0,0,0,0,0,0c0,0,0,0,0,0c0-0.1,0.1-0.1,0.1-0.2
	c0-0.2,0-0.3-0.1-0.4C21,18.7,20.9,18.7,20.8,18.7C20.9,18.6,20.8,18.6,20.8,18.7"/>
<path class="st1" d="M14.4,18.7c0.1,0.1,0.1,0.2,0.2,0.4c0,0.1,0.1,0.3,0.1,0.4c0,0,0,0,0,0c0,0,0,0,0,0c0-0.1,0.1-0.1,0.1-0.2
	C14.8,19,14.7,18.7,14.4,18.7C14.4,18.6,14.4,18.6,14.4,18.7"/>
<path class="st1" d="M13.8,18.6c0,0.1,0.1,0.3,0.1,0.4c0,0.1,0,0.3,0.1,0.4c0,0,0,0,0,0c0,0,0,0,0,0c0-0.1,0.1-0.1,0.1-0.2
	c0-0.1,0-0.2,0-0.2c0-0.1-0.1-0.2-0.1-0.2C13.9,18.7,13.9,18.6,13.8,18.6C13.8,18.6,13.7,18.6,13.8,18.6"/>
<path class="st1" d="M13.1,18.7c0,0.2,0.1,0.4,0.1,0.6c0,0.1,0,0.1,0.1,0.2c0,0,0,0,0,0c0,0,0,0,0,0c0-0.1,0.1-0.1,0.1-0.2
	c0-0.2,0-0.3-0.1-0.4C13.3,18.7,13.2,18.7,13.1,18.7C13.1,18.6,13.1,18.6,13.1,18.7"/>
<path class="st1" d="M15.1,18.6c-0.1-0.4-0.4-0.7-0.8-0.8c-0.1,0-0.1-0.1-0.2-0.1c-0.1,0-0.1-0.1-0.2-0.2c0,0,0-0.1,0-0.1
	c-0.3-0.6-0.7-1.1-1.3-1.2c0,0-0.1,0-0.1,0c0,0,0,0,0,0.1c0.1,0.1,0.2,0.2,0.3,0.3c0.2,0.2,0.4,0.4,0.5,0.6c0.1,0.1,0.1,0.3,0.2,0.4
	c0,0,0,0.1,0,0.1c0.1,0.1,0.1,0.2,0.2,0.2c0.2,0.1,0.4,0.1,0.5,0.2c0.1,0,0.2,0.1,0.3,0.2C14.8,18.4,14.9,18.5,15.1,18.6
	C15,18.6,15.1,18.6,15.1,18.6"/>
<path class="st1" d="M20.4,11.5c0.4,0,0.8-0.2,0.9-0.5c0.1-0.3,0.1-0.6-0.1-0.8c0,0-0.1,0-0.1,0c0,0,0,0,0,0.1c0,0.2,0,0.5-0.1,0.7
	c-0.1,0.1-0.1,0.2-0.3,0.3c-0.1,0.1-0.2,0.1-0.3,0.2C20.3,11.5,20.3,11.5,20.4,11.5"/>
<path class="st1" d="M16.7,11.5c-0.3,0-0.6-0.1-0.9-0.2c-0.1-0.1-0.2-0.1-0.3-0.2c-0.1-0.1-0.2-0.2-0.2-0.4c0-0.1-0.1,0-0.1,0
	c-0.1,0.4,0.2,0.8,0.6,0.9c0.4,0.1,0.7,0.1,1.1-0.1C16.8,11.6,16.8,11.5,16.7,11.5"/>
<path class="st1" d="M18.7,11.9c-0.1,0.2-0.3,0.3-0.5,0.3c-0.2,0-0.4,0-0.6-0.1c0,0-0.1,0-0.1,0.1c0.2,0.4,0.8,0.5,1.2,0.2
	C18.7,12.2,18.8,12.1,18.7,11.9C18.8,11.9,18.7,11.9,18.7,11.9"/>
<path class="st1" d="M19.8,12c-0.2,0.2-0.5,0.2-0.8,0.1c-0.1,0-0.2-0.1-0.2-0.2c0,0-0.1,0-0.1,0c0,0.4,0.6,0.7,1,0.4
	c0.1,0,0.1-0.1,0.2-0.2C19.8,12.2,19.9,12,19.8,12C19.8,12,19.8,12,19.8,12"/>
<path class="st1" d="M16.7,12.3c-0.5-0.1-1,0-1.3-0.3c-0.1-0.1-0.2-0.2-0.3-0.4c0,0-0.1,0-0.1,0c0,0,0,0,0,0.1
	c0,0.4,0.3,0.8,0.7,0.9c0.4,0.1,0.7,0.1,1.1-0.1C16.8,12.4,16.7,12.3,16.7,12.3"/>
<path class="st1" d="M20.5,12.3c0.4,0.1,1-0.1,1.1-0.6c0,0,0-0.1,0-0.1c0-0.2,0-0.3-0.1-0.5c0,0-0.1,0-0.1,0c0,0,0,0,0,0
	c-0.1,0.3-0.1,0.5-0.3,0.7c-0.1,0.1-0.2,0.1-0.3,0.2c-0.1,0.1-0.2,0.1-0.4,0.2C20.5,12.2,20.5,12.3,20.5,12.3"/>
<path class="st1" d="M19.9,8.6c-0.2-0.2-0.5-0.4-0.8-0.5C18.2,7.8,17,8.2,16.6,9c0,0.1,0,0.1,0.1,0.1c0.2-0.2,0.5-0.3,0.7-0.4
	c0.5-0.2,1.1-0.3,1.6-0.2c0.3,0,0.6,0.1,0.8,0.2C19.9,8.7,19.9,8.6,19.9,8.6"/>
<path class="st1" d="M17.7,7.5C18,8,18.3,8.6,18.5,9.2c0,0.1,0.1,0.2,0.1,0.3c0,0.1,0.1,0.2,0.1,0.3c0,0,0.1,0.1,0.1,0c0,0,0,0,0,0
	c0.1-0.2,0.1-0.5,0-0.7c-0.1-0.6-0.3-1.2-0.8-1.5C18,7.5,17.9,7.4,17.7,7.5C17.7,7.4,17.7,7.4,17.7,7.5C17.6,7.4,17.6,7.4,17.7,7.5"
	/>
<path class="st1" d="M19.6,9.2c-0.4-0.5-1.3-0.6-1.8-0.2c-0.2,0.1-0.3,0.3-0.4,0.5c0,0,0,0.1,0,0.1c0,0,0,0,0.1,0
	c0.1-0.1,0.2-0.1,0.2-0.1c0.2-0.1,0.5-0.2,0.7-0.2c0.3,0,0.5,0,0.8,0C19.3,9.2,19.4,9.3,19.6,9.2C19.6,9.3,19.6,9.2,19.6,9.2"/>
<path class="st2" d="M17.7,7.6c-2.1,0.3-3.4,2.4-3.2,4.1c0.2,1.9,2.3,2.2,4.4,2.1c2.1-0.1,3.5-1.4,3.1-3.3c-0.4-1.9-2-3-3.8-3
	C18.1,7.6,17.9,7.6,17.7,7.6"/>
<path class="st1" d="M19.8,16.4c0.1,0.3,0.3,0.6,0.5,0.7c0,0.1-0.1,0.3-0.1,0.4c0,0,0,0,0,0c-0.3-0.3-0.6-0.7-0.5-1.1
	C19.7,16.3,19.8,16.3,19.8,16.4"/>
<path class="st1" d="M13.2,10.5c-0.5,1.9,0,3.9,1.5,5.2c0.1,0.1,0.2,0,0.1-0.1c0,0-0.1-0.1-0.1-0.1c-0.1-0.2-0.2-0.4-0.4-0.6
	c-0.5-0.9-0.8-1.9-0.8-2.9c0-0.4,0-0.9,0.1-1.3C13.7,10.3,13.3,10.3,13.2,10.5"/>
<path class="st1" d="M11.4,10.8c-0.1,1.8,0.3,4.1,2,5.2c0.1,0.1,0.2-0.1,0.1-0.1c-0.3-0.3-0.6-0.7-0.8-1.1c-0.4-0.8-0.6-1.7-0.7-2.6
	c-0.1-0.4-0.1-0.9-0.1-1.4c0-0.1-0.1-0.2-0.2-0.2C11.5,10.6,11.4,10.7,11.4,10.8"/>
<path class="st1" d="M9.9,11.3c-0.3,1.8,0.1,4.4,1.8,5.4c0.1,0.1,0.2-0.1,0.1-0.2c-0.2-0.2-0.3-0.3-0.4-0.5c-0.6-0.9-0.9-2.1-1-3.2
	c0-0.5,0-0.9,0-1.4C10.3,11,9.9,11,9.9,11.3"/>
<path class="st1" d="M8.7,12c-0.4,1.7-0.3,4.1,1.4,5c0.1,0,0.2-0.1,0.1-0.2c-0.3-0.3-0.6-0.6-0.8-1c-0.4-0.8-0.5-1.6-0.4-2.4
	c0-0.4,0.1-0.9,0.1-1.3c0-0.1-0.1-0.2-0.2-0.3C8.9,11.8,8.8,11.9,8.7,12"/>
<path class="st1" d="M18.4,14.8c-0.8-0.1-1.6-0.4-2.2-0.9c-0.2-0.2-0.4-0.4-0.6-0.6c0-0.1-0.1-0.1-0.2,0c0,0-0.1,0.1,0,0.2
	c0.1,0.1,0.1,0.3,0.2,0.4c0.6,0.9,1.7,1.4,2.7,1.3C18.6,15.1,18.6,14.9,18.4,14.8"/>
<path class="st1" d="M18.1,16.2c-0.9-0.1-1.8-0.4-2.4-1c-0.1-0.1-0.2-0.2-0.3-0.3c-0.1-0.1-0.2-0.2-0.2-0.4c0-0.1-0.1-0.1-0.2,0
	c-0.1,0-0.1,0.1-0.1,0.1c0,0.2,0.1,0.3,0.2,0.5c0.4,0.7,1.2,1.2,2,1.3c0.3,0.1,0.6,0.1,1,0.1c0.1,0,0.1-0.1,0.1-0.1
	C18.3,16.3,18.2,16.2,18.1,16.2"/>
<path class="st2" d="M14.9,9.9c-0.4,0.8-1,1.3-1.7,1.8c-1.4,0.9-3,1.1-4.6,2.5c-1.1,1-0.9,2.6-0.6,3.5c0.3,0.9,0.9,1.6,2.1,1.6h7.4
	c1.4,0,2.1-0.7,2.6-1.6c0.5-0.9,0.1-2.3,0-3.6c0-0.7,0.3-0.5,0.8-1.4c0.9-1.7-2.8-3.2-4.8-3.2C15.5,9.5,15.1,9.6,14.9,9.9"/>
<path class="st1" d="M17.6,18.5c0.2-0.3,0.4-0.5,0.7-0.6c0.3-0.2,0.6-0.3,0.9-0.4c0.1,0,0.1-0.1,0.1-0.1c0,0-0.1-0.1-0.1-0.1
	c-0.2,0-0.4,0-0.6,0.1c-0.4,0.1-0.7,0.4-1,0.7c-0.1,0.1-0.2,0.2-0.2,0.4c0,0,0,0.1,0,0.1c0,0.1,0,0.1,0.1,0.1
	C17.6,18.6,17.6,18.6,17.6,18.5"/>
<path class="st1" d="M18.3,19.1c0.2-0.2,0.4-0.4,0.6-0.6c0.1-0.1,0.2-0.2,0.4-0.2c0.1-0.1,0.2-0.1,0.4-0.2c0.1,0,0.1-0.1,0.1-0.1
	c0-0.1-0.3-0.1-0.4-0.1c-0.2,0.1-0.5,0.2-0.7,0.3c-0.3,0.2-0.5,0.4-0.6,0.8C18.1,19.1,18.3,19.2,18.3,19.1"/>
<path class="st1" d="M10.4,18.2c0.4-0.2,0.7-0.4,1.1-0.5c0.2-0.1,0.4-0.1,0.6-0.1c0.2,0,0.4-0.1,0.6-0.1c0.1,0,0.1-0.1,0.1-0.1
	c0,0,0-0.1-0.1-0.1c-0.4-0.1-0.9,0-1.3,0.1c-0.4,0.2-0.8,0.4-1.1,0.7C10.2,18.1,10.3,18.2,10.4,18.2"/>
<path class="st1" d="M10.9,18.9c0.5-0.2,1-0.5,1.6-0.6c0.2,0,0.4-0.1,0.5-0.1c0.1,0,0.1-0.1,0.1-0.1c0,0,0-0.1-0.1-0.1
	c-0.4-0.1-0.8,0-1.2,0.2c-0.4,0.2-0.7,0.4-1,0.6C10.7,18.8,10.8,18.9,10.9,18.9"/>
<path class="st1" d="M16.6,19.3h-0.4c0-0.1-0.1-0.1-0.1-0.2c-0.2-0.3-0.3-0.6-0.3-0.9c0-0.3-0.1-0.5,0-0.8c0,0,0,0,0,0
	c0,0,0.1,0,0.1,0c0.1,0.2,0.2,0.5,0.2,0.7c0.1,0.2,0.2,0.4,0.3,0.7C16.4,19,16.5,19.2,16.6,19.3"/>
</svg>
