<?xml version="1.0" encoding="utf-8"?>
<!-- Generator: Adobe Illustrator 25.3.1, SVG Export Plug-In . SVG Version: 6.00 Build 0)  -->
<svg version="1.1" id="레이어_1" xmlns="http://www.w3.org/2000/svg" xmlns:xlink="http://www.w3.org/1999/xlink" x="0px"
	 y="0px" viewBox="0 0 24 24" style="enable-background:new 0 0 24 24;" xml:space="preserve">
<style type="text/css">
	.st0{fill:#E2705E;}
</style>
<path class="st0" d="M19.1,12.1v-1.2c0-0.9-0.7-1.6-1.6-1.6c-0.9,0-1.6,0.7-1.6,1.6v1.2h-4v4h1.2c0.9,0,1.6,0.7,1.6,1.6
	c0,0.9-0.7,1.6-1.6,1.6h-1.2V23h8.3c1.5,0,2.7-1.2,2.7-2.7v-8.3H19.1z"/>
<path class="st0" d="M12.5,22.4h7.7c1.2,0,2.1-0.9,2.1-2.1v-7.7h-3.2c-0.3,0-0.6-0.2-0.6-0.6v-1.2c0-0.6-0.5-1.1-1.1-1.1
	c-0.6,0-1.1,0.5-1.1,1.1v1.2c0,0.3-0.2,0.6-0.6,0.6h-3.4v2.9h0.6c1.2,0,2.2,1,2.2,2.2c0,1.2-1,2.2-2.2,2.2h-0.6V22.4z M20.2,23.5
	h-8.3c-0.3,0-0.6-0.2-0.6-0.6v-3.7c0-0.3,0.2-0.6,0.6-0.6h1.2c0.6,0,1.1-0.5,1.1-1.1c0-0.6-0.5-1.1-1.1-1.1h-1.2
	c-0.3,0-0.6-0.2-0.6-0.6v-4c0-0.3,0.2-0.6,0.6-0.6h3.4v-0.6c0-1.2,1-2.2,2.2-2.2c1.2,0,2.2,1,2.2,2.2v0.6h3.2c0.3,0,0.6,0.2,0.6,0.6
	v8.3C23.4,22.1,22,23.5,20.2,23.5"/>
<path class="st0" d="M19.7,11.5h2.6V3.8c0-1.2-0.9-2.1-2.1-2.1h-7.7v3.2c0,0.3-0.2,0.6-0.6,0.6h-1.2c-0.6,0-1.1,0.5-1.1,1.1
	c0,0.6,0.5,1.1,1.1,1.1h1.2c0.3,0,0.6,0.2,0.6,0.6v3.4h2.9v-0.6c0-1.2,1-2.2,2.2-2.2c1.2,0,2.2,1,2.2,2.2V11.5z M22.9,12.6h-3.7
	c-0.3,0-0.6-0.2-0.6-0.6v-1.2c0-0.6-0.5-1.1-1.1-1.1c-0.6,0-1.1,0.5-1.1,1.1v1.2c0,0.3-0.2,0.6-0.6,0.6h-4c-0.3,0-0.6-0.2-0.6-0.6
	V8.6h-0.6c-1.2,0-2.2-1-2.2-2.2c0-1.2,1-2.2,2.2-2.2h0.6V1.1c0-0.3,0.2-0.6,0.6-0.6h8.3c1.8,0,3.2,1.4,3.2,3.2v8.3
	C23.4,12.4,23.2,12.6,22.9,12.6"/>
<path class="st0" d="M1.6,11.5h3.2c0.3,0,0.6,0.2,0.6,0.6v1.2c0,0.6,0.5,1.1,1.1,1.1s1.1-0.5,1.1-1.1v-1.2c0-0.3,0.2-0.6,0.6-0.6
	h3.4V8.6h-0.6c-1.2,0-2.2-1-2.2-2.2c0-1.2,1-2.2,2.2-2.2h0.6V1.7H3.7c-1.2,0-2.1,0.9-2.1,2.1V11.5z M6.4,15.4c-1.2,0-2.2-1-2.2-2.2
	v-0.6H1c-0.3,0-0.6-0.2-0.6-0.6V3.8c0-1.8,1.4-3.2,3.2-3.2h8.3c0.3,0,0.6,0.2,0.6,0.6v3.7c0,0.3-0.2,0.6-0.6,0.6h-1.2
	c-0.6,0-1.1,0.5-1.1,1.1c0,0.6,0.5,1.1,1.1,1.1h1.2c0.3,0,0.6,0.2,0.6,0.6v4c0,0.3-0.2,0.6-0.6,0.6H8.5v0.6
	C8.5,14.4,7.5,15.4,6.4,15.4"/>
<path class="st0" d="M1.6,12.6v7.7c0,1.2,0.9,2.1,2.1,2.1h7.7v-3.2c0-0.3,0.2-0.6,0.6-0.6h1.2c0.6,0,1.1-0.5,1.1-1.1
	c0-0.6-0.5-1.1-1.1-1.1h-1.2c-0.3,0-0.6-0.2-0.6-0.6v-3.4H8.5v0.6c0,1.2-1,2.2-2.2,2.2s-2.2-1-2.2-2.2v-0.6H1.6z M11.9,23.5H3.7
	c-1.8,0-3.2-1.4-3.2-3.2v-8.3c0-0.3,0.2-0.6,0.6-0.6h3.7c0.3,0,0.6,0.2,0.6,0.6v1.2c0,0.6,0.5,1.1,1.1,1.1s1.1-0.5,1.1-1.1v-1.2
	c0-0.3,0.2-0.6,0.6-0.6h4c0.3,0,0.6,0.2,0.6,0.6v3.4h0.6c1.2,0,2.2,1,2.2,2.2c0,1.2-1,2.2-2.2,2.2h-0.6V23
	C12.5,23.3,12.2,23.5,11.9,23.5"/>
</svg>
