<svg width="1400" height="1457" viewBox="0 0 1400 1457" fill="none" xmlns="http://www.w3.org/2000/svg">
<g clip-path="url(#clip0_19_108)">
<path d="M7.33091 371.719C50.9131 371.628 92.6844 354.275 123.502 323.458C154.319 292.641 171.672 250.869 171.763 207.287H285.769L286.865 205.951C336.318 143.862 399.161 93.749 470.7 59.3559C542.238 24.9627 620.623 7.17829 700 7.33112C779.347 7.18237 857.704 24.9552 929.222 59.3233C1000.74 93.6913 1063.57 143.767 1113.03 205.814L1114.13 207.15H1228.13C1228.22 250.735 1245.57 292.512 1276.39 323.331C1307.2 354.15 1348.98 371.5 1392.57 371.582V1456.28H1399.86V364.422H1392.57C1350.88 364.341 1310.92 347.745 1281.45 318.268C1251.97 288.792 1235.38 248.836 1235.29 207.15V199.853H1117.62C1067.45 137.359 1003.87 86.948 931.578 52.3535C859.287 17.7589 780.142 -0.13364 700 0.000257718C619.858 -0.13364 540.713 17.7589 468.423 52.3535C396.132 86.948 332.548 137.359 282.377 199.853H164.466V207.15C164.385 248.83 147.793 288.781 118.324 318.256C88.855 347.732 48.9084 364.332 7.22814 364.422H0.034256V1456.28H7.36517L7.33091 371.719Z" fill="#E2705E"/>
<path d="M14.6276 378.878C57.6134 376.938 98.3194 358.991 128.746 328.565C159.172 298.138 177.119 257.432 179.059 214.447H289.434L291.627 211.672C340.374 150.088 402.446 100.355 473.177 66.2087C543.908 32.0625 621.458 14.3919 700 14.5249C778.543 14.3735 856.098 32.0288 926.836 66.1635C997.573 100.298 1059.65 150.024 1108.41 211.603L1110.6 214.378H1221.01C1222.95 257.364 1240.9 298.07 1271.32 328.496C1301.75 358.923 1342.46 376.87 1385.44 378.81V1456.28H1387.87V376.515H1386.71C1343.91 374.888 1303.31 357.162 1273.03 326.884C1242.74 296.605 1225.01 256.007 1223.37 213.213V212.014H1111.76L1110.33 210.199C1061.35 148.32 998.981 98.351 927.91 64.0497C856.839 29.7483 778.915 12.0074 700 12.1611C621.09 12.0101 543.173 29.7524 472.107 64.0538C401.042 98.3551 338.679 148.323 289.708 210.199L288.235 212.014H176.696V213.213C175.061 255.992 157.335 296.577 127.063 326.848C96.792 357.119 56.2075 374.846 13.4286 376.48H12.2639V1456.28H14.6961L14.6276 378.878Z" fill="#E2705E"/>
</g>
<defs>
<clipPath id="clip0_19_108">
<rect width="1400" height="1456.28" fill="white"/>
</clipPath>
</defs>
</svg>
