<?xml version="1.0" encoding="utf-8"?>
<!-- Generator: Adobe Illustrator 25.3.1, SVG Export Plug-In . SVG Version: 6.00 Build 0)  -->
<svg version="1.1" id="레이어_1" xmlns="http://www.w3.org/2000/svg" xmlns:xlink="http://www.w3.org/1999/xlink" x="0px"
	 y="0px" viewBox="0 0 24 24" style="enable-background:new 0 0 24 24;" xml:space="preserve">
<style type="text/css">
	.st0{fill:#D86D5C;}
	.st1{fill:#FFFFFF;}
</style>
<g>
	<path class="st0" d="M19.1,12v-1.2c0-0.9-0.7-1.6-1.6-1.6c-0.9,0-1.6,0.7-1.6,1.6V12H12V16h1.2c0.9,0,1.6,0.7,1.6,1.6
		c0,0.9-0.7,1.6-1.6,1.6H12v3.7h8.2c1.5,0,2.6-1.2,2.6-2.6V12H19.1z"/>
	<path class="st0" d="M12.5,22.3h7.7c1.2,0,2.1-0.9,2.1-2.1v-7.7h-3.2c-0.3,0-0.5-0.2-0.5-0.5v-1.2c0-0.6-0.5-1.1-1.1-1.1
		c-0.6,0-1.1,0.5-1.1,1.1V12c0,0.3-0.2,0.5-0.5,0.5h-3.4v2.8h0.6c1.2,0,2.2,1,2.2,2.2c0,1.2-1,2.2-2.2,2.2h-0.6V22.3z M20.2,23.4H12
		c-0.3,0-0.5-0.2-0.5-0.5v-3.7c0-0.3,0.2-0.5,0.5-0.5h1.2c0.6,0,1.1-0.5,1.1-1.1c0-0.6-0.5-1.1-1.1-1.1H12c-0.3,0-0.5-0.2-0.5-0.5
		V12c0-0.3,0.2-0.5,0.5-0.5h3.4v-0.6c0-1.2,1-2.2,2.2-2.2c1.2,0,2.2,1,2.2,2.2v0.6h3.2c0.3,0,0.5,0.2,0.5,0.5v8.2
		C23.4,22,22,23.4,20.2,23.4"/>
	<path class="st0" d="M19.7,11.5h2.6V3.8c0-1.2-0.9-2.1-2.1-2.1h-7.7v3.2c0,0.3-0.2,0.5-0.5,0.5h-1.2c-0.6,0-1.1,0.5-1.1,1.1
		c0,0.6,0.5,1.1,1.1,1.1H12c0.3,0,0.5,0.2,0.5,0.5v3.4h2.8v-0.6c0-1.2,1-2.2,2.2-2.2c1.2,0,2.2,1,2.2,2.2V11.5z M22.8,12.6h-3.7
		c-0.3,0-0.5-0.2-0.5-0.5v-1.2c0-0.6-0.5-1.1-1.1-1.1c-0.6,0-1.1,0.5-1.1,1.1V12c0,0.3-0.2,0.5-0.5,0.5H12c-0.3,0-0.5-0.2-0.5-0.5
		V8.6h-0.6c-1.2,0-2.2-1-2.2-2.2c0-1.2,1-2.2,2.2-2.2h0.6V1.2c0-0.3,0.2-0.5,0.5-0.5h8.2c1.8,0,3.2,1.4,3.2,3.2V12
		C23.4,12.3,23.1,12.6,22.8,12.6"/>
	<path class="st0" d="M1.7,11.5h3.2c0.3,0,0.5,0.2,0.5,0.5v1.2c0,0.6,0.5,1.1,1.1,1.1s1.1-0.5,1.1-1.1V12c0-0.3,0.2-0.5,0.5-0.5h3.4
		V8.6h-0.6c-1.2,0-2.2-1-2.2-2.2c0-1.2,1-2.2,2.2-2.2h0.6V1.7H3.8c-1.2,0-2.1,0.9-2.1,2.1V11.5z M6.5,15.3c-1.2,0-2.2-1-2.2-2.2
		v-0.6H1.2c-0.3,0-0.5-0.2-0.5-0.5V3.8c0-1.8,1.4-3.2,3.2-3.2H12c0.3,0,0.5,0.2,0.5,0.5v3.7c0,0.3-0.2,0.5-0.5,0.5h-1.2
		c-0.6,0-1.1,0.5-1.1,1.1c0,0.6,0.5,1.1,1.1,1.1H12c0.3,0,0.5,0.2,0.5,0.5V12c0,0.3-0.2,0.5-0.5,0.5H8.6v0.6
		C8.6,14.4,7.6,15.3,6.5,15.3"/>
	<path class="st0" d="M1.7,12.6v7.7c0,1.2,0.9,2.1,2.1,2.1h7.7v-3.2c0-0.3,0.2-0.5,0.5-0.5h1.2c0.6,0,1.1-0.5,1.1-1.1
		c0-0.6-0.5-1.1-1.1-1.1H12c-0.3,0-0.5-0.2-0.5-0.5v-3.4H8.6v0.6c0,1.2-1,2.2-2.2,2.2s-2.2-1-2.2-2.2v-0.6H1.7z M12,23.4H3.8
		c-1.8,0-3.2-1.4-3.2-3.2V12c0-0.3,0.2-0.5,0.5-0.5h3.7c0.3,0,0.5,0.2,0.5,0.5v1.2c0,0.6,0.5,1.1,1.1,1.1s1.1-0.5,1.1-1.1V12
		c0-0.3,0.2-0.5,0.5-0.5H12c0.3,0,0.5,0.2,0.5,0.5v3.4h0.6c1.2,0,2.2,1,2.2,2.2c0,1.2-1,2.2-2.2,2.2h-0.6v3.2
		C12.5,23.2,12.3,23.4,12,23.4"/>
	<path class="st1" d="M18.2,18.5c-0.3,0-0.5-0.2-0.5-0.5v-3c0-0.3,0.2-0.5,0.5-0.5c0.3,0,0.5,0.2,0.5,0.5v3
		C18.7,18.3,18.5,18.5,18.2,18.5"/>
	<path class="st1" d="M18.9,20.1c0-0.4-0.3-0.7-0.7-0.7c-0.4,0-0.7,0.3-0.7,0.7s0.3,0.7,0.7,0.7C18.6,20.8,18.9,20.5,18.9,20.1"/>
</g>
</svg>
