<svg width="1400" height="1399" viewBox="0 0 1400 1399" fill="none" xmlns="http://www.w3.org/2000/svg">
<g clip-path="url(#clip0_19_111)">
<path d="M6.86701 376.321C6.85761 347.748 16.8714 320.076 35.1642 298.126C53.4569 276.176 78.8695 261.338 106.976 256.196L109.808 255.676V180.594H196.541L197.485 178.739C207.39 159.355 222.464 143.088 241.04 131.739C259.615 120.389 280.968 114.398 302.736 114.429H502.564L699.854 7.84342L897.11 114.429H1096.97C1118.74 114.396 1140.09 120.39 1158.66 131.746C1177.23 143.103 1192.3 159.379 1202.19 178.771L1203.17 180.626H1290.06V255.708L1292.89 256.229C1321 261.371 1346.41 276.209 1364.71 298.159C1383 320.109 1393.01 347.78 1393 376.354V1398.8H1399.87V376.321C1399.88 346.627 1389.64 317.841 1370.88 294.818C1352.13 271.796 1326.01 255.948 1296.93 249.948V173.727H1207.36C1196.72 153.713 1180.81 136.979 1161.37 125.321C1141.93 113.664 1119.67 107.525 1097 107.562H898.998L699.984 0L500.969 107.562H302.866C280.192 107.529 257.937 113.671 238.489 125.327C219.041 136.983 203.133 153.715 192.473 173.727H102.908V249.948C73.833 255.954 47.7195 271.806 28.9725 294.827C10.2256 317.849 -0.0073235 346.632 3.93245e-06 376.321V1398.8H6.86701V376.321Z" fill="#E2705E"/>
<path d="M13.7668 376.321C13.6497 348.856 23.3839 322.26 41.2029 301.359C59.0218 280.459 83.7441 266.641 110.882 262.413L116.675 261.469V187.396H200.967L202.855 183.556C211.988 164.822 226.214 149.04 243.902 138.018C261.59 126.995 282.025 121.178 302.866 121.231H504.452L699.984 15.5569L893.986 120.385L895.516 121.231H1097.1C1117.94 121.178 1138.38 126.995 1156.07 138.018C1173.75 149.04 1187.98 164.822 1197.11 183.556L1199 187.396H1283.29V261.469L1289.05 262.413C1316.2 266.628 1340.93 280.441 1358.76 301.343C1376.59 322.246 1386.32 348.85 1386.2 376.321V1398.8H1388.51V376.321C1388.61 348.31 1378.68 321.189 1360.5 299.874C1342.33 278.559 1317.12 264.461 1289.44 260.135L1285.57 259.516V185.28H1200.43L1199.16 182.742C1189.85 163.618 1175.33 147.506 1157.28 136.252C1139.23 124.999 1118.37 119.06 1097.1 119.116H896.264L700.146 13.1484L504.029 119.116H302.866C281.594 119.06 260.737 124.999 242.686 136.252C224.634 147.506 210.119 163.618 200.804 182.742L199.535 185.28H114.397V259.711L110.524 260.33C82.8651 264.653 57.6685 278.737 39.4961 300.032C21.3237 321.327 11.3768 348.424 11.456 376.419V1398.8H13.7668V376.321Z" fill="#E2705E"/>
</g>
<defs>
<clipPath id="clip0_19_111">
<rect width="1400" height="1398.8" fill="white"/>
</clipPath>
</defs>
</svg>
