<?xml version="1.0" encoding="utf-8"?>
<!-- Generator: Adobe Illustrator 25.3.1, SVG Export Plug-In . SVG Version: 6.00 Build 0)  -->
<svg version="1.1" id="레이어_1" xmlns="http://www.w3.org/2000/svg" xmlns:xlink="http://www.w3.org/1999/xlink" x="0px"
	 y="0px" viewBox="0 0 24 24" style="enable-background:new 0 0 24 24;" xml:space="preserve">
<style type="text/css">
	.st0{fill:#FFFFFF;}
	.st1{fill:#E2705E;}
</style>
<g>
	<path class="st0" d="M12.6,18.9c0-0.4-0.3-0.7-0.7-0.7c-0.4,0-0.7,0.3-0.7,0.7c0,0.4,0.3,0.7,0.7,0.7
		C12.3,19.5,12.6,19.2,12.6,18.9"/>
</g>
<g>
	<path class="st1" d="M11.9,23.3C11.9,23.3,11.9,23.3,11.9,23.3c-0.4,0-0.7-0.1-1-0.2l-8.6-4.4c-0.8-0.4-1.2-1.2-1.2-2V8.3
		c0-0.4,0.1-0.8,0.3-1.1c0,0,0,0,0,0c0,0,0-0.1,0.1-0.1c0.2-0.3,0.5-0.6,0.8-0.7L4.8,5V4.7c0-0.9,1-1.6,2.4-1.6c0.3,0,0.7,0,0.9,0.1
		l1.4-0.7V2.3c0-0.9,1-1.6,2.4-1.6c1.3,0,2.4,0.7,2.4,1.6v0.2l1.4,0.8c0.3-0.1,0.6-0.1,0.9-0.1C18,3.2,19,3.9,19,4.7V5l2.6,1.3
		c0.8,0.4,1.2,1.2,1.2,2v8.4c0,0.9-0.5,1.6-1.2,2L13,23.1C12.7,23.3,12.3,23.3,11.9,23.3C12,23.3,11.9,23.3,11.9,23.3z M2,7.9
		c0,0.1-0.1,0.3-0.1,0.4v8.4c0,0.5,0.3,1,0.8,1.3l8.6,4.4c0.1,0,0.1,0.1,0.2,0.1v-9.8c-0.2,0-0.4-0.1-0.6-0.2L2,7.9z M12.4,12.7v9.8
		c0.1,0,0.1-0.1,0.2-0.1l8.6-4.4c0.5-0.2,0.8-0.7,0.8-1.3V8.3c0-0.1,0-0.3-0.1-0.4L13,12.4C12.8,12.5,12.6,12.6,12.4,12.7z
		 M11.3,11.7L11.3,11.7c0.4,0.2,0.9,0.2,1.3,0l8.8-4.5c-0.1-0.1-0.1-0.1-0.2-0.1L19,5.9v0.6c0,0.1,0,0.2-0.1,0.2
		c-0.3,0.7-1.2,1.1-2.3,1.1c-1.1,0-2-0.5-2.3-1.1c0-0.1-0.1-0.2-0.1-0.2V4.7c0-0.4,0.2-0.7,0.5-1l-0.5-0.3v0.6c0,0.1,0,0.2-0.1,0.2
		C14,5,13.1,5.5,11.9,5.5c-1.1,0-2-0.5-2.3-1.1c0-0.1-0.1-0.2-0.1-0.2V3.5L9.1,3.8c0.3,0.3,0.5,0.6,0.5,1v1.8c0,0.1,0,0.2-0.1,0.2
		C9.2,7.4,8.3,7.9,7.2,7.9c-1.1,0-2-0.5-2.3-1.1c0-0.1-0.1-0.2-0.1-0.2V6L2.7,7c-0.1,0-0.2,0.1-0.2,0.1L11.3,11.7z M15.1,6.3
		c0,0.3,0.6,0.7,1.5,0.7c0.9,0,1.5-0.4,1.5-0.7V5.9C18.1,6,18,6,17.8,6.1c-0.2,0.1-0.5,0-0.5-0.3c-0.1-0.2,0-0.5,0.3-0.5
		c0.4-0.1,0.6-0.4,0.6-0.5c0-0.3-0.6-0.7-1.5-0.7c-0.9,0-1.5,0.4-1.5,0.7V6.3z M5.7,6.3C5.7,6.6,6.3,7,7.2,7c0.9,0,1.5-0.4,1.5-0.7
		V5.9C8.5,6.1,8.2,6.2,7.8,6.2c-0.2,0-0.5-0.1-0.5-0.3c0-0.2,0.1-0.5,0.3-0.5c0.7-0.1,1-0.4,1-0.7c0-0.2-0.2-0.4-0.7-0.6
		c0,0,0,0-0.1,0C7.8,4.1,7.5,4,7.2,4C6.3,4,5.7,4.4,5.7,4.7V6.3z M10.4,3.9c0,0.3,0.6,0.7,1.5,0.7c0.9,0,1.5-0.4,1.5-0.7V3.5
		c-0.2,0.1-0.5,0.2-0.8,0.3c-0.2,0-0.5-0.1-0.5-0.3c0-0.2,0.1-0.5,0.3-0.5c0.6-0.1,1-0.4,1-0.7c0-0.3-0.6-0.7-1.5-0.7
		c-0.9,0-1.5,0.4-1.5,0.7V3.9z M11.9,10.3c-1.1,0-2-0.5-2.3-1.1c0-0.1-0.1-0.2-0.1-0.2V7.1c0-0.9,1-1.6,2.4-1.6
		c1.3,0,2.4,0.7,2.4,1.6v1.8c0,0.1,0,0.2-0.1,0.2C14,9.8,13.1,10.3,11.9,10.3z M10.4,8.7c0,0.3,0.6,0.7,1.5,0.7
		c0.9,0,1.5-0.4,1.5-0.7V8.3c-0.3,0.1-0.6,0.2-0.9,0.3c-0.2,0-0.5-0.1-0.5-0.3c0-0.2,0.1-0.5,0.3-0.5c0.7-0.1,1-0.4,1-0.7
		c0-0.3-0.6-0.7-1.5-0.7c-0.9,0-1.5,0.4-1.5,0.7V8.7z"/>
</g>
</svg>
