<svg width="188" height="183" viewBox="0 0 188 183" fill="none" xmlns="http://www.w3.org/2000/svg">
<g clip-path="url(#clip0_25_933)">
<path d="M29.8399 58.8999H1.41992V65.2799H29.8399V58.8999Z" fill="white"/>
<path d="M51.0209 75.6899H2.71094V82.0699H51.0209V75.6899Z" fill="white"/>
<path d="M9.09094 69.1499H2.71094V82.0699H9.09094V69.1499Z" fill="white"/>
<path d="M135.67 51.7402H97.2598V58.1202H135.67V51.7402Z" fill="white"/>
<path d="M103.64 43.1401H97.2598V58.1201H103.64V43.1401Z" fill="white"/>
<path d="M18.8195 58.8999H12.4395V71.8199H18.8195V58.8999Z" fill="white"/>
<path d="M39.3995 36.9399H33.0195V71.0399H39.3995V36.9399Z" fill="white"/>
<path d="M39.4005 49.5098H26.4805V55.8898H39.4005V49.5098Z" fill="white"/>
<path d="M61.7403 40.0402C59.185 40.0402 56.687 39.2825 54.5623 37.8628C52.4377 36.4431 50.7817 34.4253 49.8038 32.0645C48.8259 29.7036 48.57 27.1059 49.0686 24.5996C49.5671 22.0934 50.7976 19.7913 52.6045 17.9844C54.4114 16.1775 56.7135 14.947 59.2198 14.4485C61.726 13.9499 64.3237 14.2058 66.6846 15.1837C69.0454 16.1616 71.0632 17.8175 72.4829 19.9422C73.9026 22.0669 74.6603 24.5649 74.6603 27.1202C74.6603 30.5468 73.2991 33.833 70.8761 36.256C68.4532 38.679 65.1669 40.0402 61.7403 40.0402V40.0402ZM61.7403 20.5902C60.4464 20.5902 59.1815 20.974 58.1058 21.6931C57.0301 22.4122 56.1919 23.4341 55.6972 24.6298C55.2025 25.8254 55.0736 27.1409 55.3267 28.4098C55.5799 29.6787 56.2037 30.844 57.1194 31.7582C58.035 32.6725 59.2013 33.2945 60.4705 33.5458C61.7398 33.797 63.0551 33.666 64.25 33.1695C65.4449 32.673 66.4656 31.8332 67.183 30.7563C67.9004 29.6795 68.2823 28.4141 68.2803 27.1202C68.275 25.3882 67.584 23.7289 66.3583 22.5051C65.1327 21.2813 63.4723 20.5928 61.7403 20.5902V20.5902Z" fill="white"/>
<path d="M88.7902 0H82.4102V40.3H88.7902V0Z" fill="white"/>
<path d="M135.669 0H129.289V40.3H135.669V0Z" fill="white"/>
<path d="M187.079 51.9199H180.699V92.2199H187.079V51.9199Z" fill="white"/>
<path d="M108.629 40.3C106.073 40.3019 103.575 39.5459 101.449 38.1274C99.3225 36.7089 97.665 34.6918 96.6856 32.3312C95.7061 29.9705 95.4489 27.3724 95.9463 24.8655C96.4437 22.3586 97.6734 20.0556 99.4799 18.2477C101.286 16.4398 103.588 15.2083 106.095 14.709C108.601 14.2096 111.2 14.4649 113.561 15.4425C115.923 16.4201 117.941 18.0761 119.361 20.201C120.781 22.3259 121.539 24.8242 121.539 27.38C121.534 30.8032 120.172 34.0849 117.753 36.5064C115.333 38.928 112.052 40.292 108.629 40.3V40.3ZM108.629 20.84C107.336 20.84 106.071 21.2235 104.996 21.9422C103.92 22.6608 103.082 23.6822 102.587 24.8772C102.092 26.0722 101.963 27.3872 102.215 28.6559C102.467 29.9245 103.09 31.0898 104.005 32.0044C104.919 32.9191 106.085 33.5419 107.353 33.7943C108.622 34.0466 109.937 33.9171 111.132 33.4221C112.327 32.9271 113.348 32.0889 114.067 31.0134C114.786 29.9379 115.169 28.6734 115.169 27.38C115.167 25.6463 114.477 23.9843 113.251 22.7584C112.025 21.5325 110.363 20.8426 108.629 20.84Z" fill="white"/>
<path d="M160.039 92.2199C157.483 92.2219 154.984 91.4656 152.858 90.0466C150.731 88.6277 149.074 86.61 148.095 84.2488C147.116 81.8876 146.859 79.2889 147.357 76.7818C147.855 74.2746 149.086 71.9716 150.894 70.1641C152.701 68.3566 155.004 67.1259 157.511 66.6277C160.018 66.1295 162.617 66.3862 164.978 67.3653C167.34 68.3444 169.357 70.0019 170.776 72.1282C172.195 74.2544 172.951 76.7537 172.949 79.3099C172.947 82.733 171.586 86.0152 169.165 88.4357C166.745 90.8562 163.463 92.2172 160.039 92.2199V92.2199ZM160.039 72.7699C158.745 72.7679 157.48 73.1498 156.403 73.8672C155.326 74.5846 154.487 75.6053 153.99 76.8002C153.494 77.9951 153.363 79.3103 153.614 80.5796C153.865 81.8489 154.487 83.0152 155.401 83.9308C156.316 84.8465 157.481 85.4703 158.75 85.7235C160.019 85.9766 161.334 85.8477 162.53 85.353C163.725 84.8583 164.747 84.0201 165.466 82.9444C166.186 81.8686 166.569 80.6038 166.569 79.3099C166.569 77.5771 165.882 75.9151 164.657 74.6889C163.433 73.4627 161.772 72.7725 160.039 72.7699V72.7699Z" fill="white"/>
<path d="M140.319 68.46H133.939V115.73H140.319V68.46Z" fill="white"/>
<path d="M101.649 107.72L96.0293 104.71L110.109 78.4498H98.0393V72.0698H120.769L101.649 107.72Z" fill="white"/>
<path d="M131.28 86.2798H109.32V92.6598H131.28V86.2798Z" fill="white"/>
<path d="M131.28 68.46H124.9V104.88H131.28V68.46Z" fill="white"/>
<path d="M14.21 54.38C11.3995 54.38 8.65216 53.5466 6.31534 51.9852C3.97852 50.4237 2.15721 48.2044 1.08168 45.6079C0.0061636 43.0114 -0.275251 40.1542 0.273045 37.3977C0.821341 34.6413 2.17472 32.1093 4.16202 30.122C6.14933 28.1347 8.68131 26.7813 11.4378 26.233C14.1942 25.6847 17.0514 25.9661 19.648 27.0416C22.2445 28.1172 24.4638 29.9385 26.0252 32.2753C27.5866 34.6121 28.42 37.3595 28.42 40.17C28.4147 43.9371 26.9159 47.5484 24.2521 50.2121C21.5884 52.8759 17.9771 54.3747 14.21 54.38V54.38ZM14.21 34.16C13.0233 34.16 11.8633 34.5119 10.8766 35.1711C9.8899 35.8304 9.12085 36.7675 8.66672 37.8639C8.2126 38.9602 8.09378 40.1666 8.32529 41.3305C8.5568 42.4944 9.12827 43.5635 9.96738 44.4026C10.8065 45.2417 11.8756 45.8132 13.0395 46.0447C14.2034 46.2762 15.4098 46.1574 16.5061 45.7032C17.6025 45.2491 18.5395 44.4801 19.1988 43.4934C19.8581 42.5067 20.21 41.3467 20.21 40.16C20.21 38.5687 19.5779 37.0425 18.4526 35.9173C17.3274 34.7921 15.8013 34.16 14.21 34.16Z" fill="#E8447E"/>
<path d="M68.4996 77.4398L49.5996 43.3398H88.0096L68.4996 77.4398ZM63.4996 51.5398L68.5896 60.7198L73.8496 51.5398H63.4996Z" fill="#E8447E"/>
<path d="M187.08 129.68H156.35V98.9399H187.09L187.08 129.68ZM164.54 121.48H178.88V107.14H164.54V121.48Z" fill="#E8447E"/>
<path d="M171 151.82L176.08 161.74L187.08 163.5L179.22 171.4L180.94 182.4L171 177.36L161.07 182.4L162.79 171.4L154.92 163.5L165.93 161.74L171 151.82Z" fill="#E8447E"/>
<path d="M97.4191 166.68C96.0191 156.97 87.7491 150.16 77.6191 149.78V147.65C77.6164 147.453 77.5509 147.263 77.4321 147.106C77.3133 146.95 77.1476 146.835 76.9591 146.78C76.8834 146.747 76.8017 146.73 76.7191 146.73V146.73C76.4741 146.73 76.2391 146.827 76.065 146.999C75.8909 147.171 75.7917 147.405 75.7891 147.65V149.79C65.4891 150.2 57.1291 157.24 55.9691 167.22C55.8791 168 56.0991 167.86 56.5491 167.22C57.1081 166.588 57.8069 166.095 58.5899 165.781C59.3728 165.467 60.2183 165.34 61.0591 165.41C62.112 165.409 63.1405 165.727 64.0096 166.321C64.8788 166.915 65.5478 167.759 65.9291 168.74C65.9598 168.818 66.0161 168.883 66.0888 168.925C66.1615 168.967 66.2462 168.983 66.3291 168.97C66.3976 168.966 66.4635 168.942 66.5187 168.902C66.5738 168.861 66.6157 168.804 66.6391 168.74C66.9862 167.847 67.5718 167.067 68.332 166.484C69.0923 165.902 69.9979 165.539 70.9502 165.436C71.9025 165.333 72.8649 165.493 73.7323 165.899C74.5997 166.306 75.3388 166.942 75.8691 167.74V178.74C75.8532 179.089 75.7611 179.43 75.5991 179.74C75.4206 180.057 75.1528 180.314 74.8291 180.479C74.5055 180.645 74.1402 180.711 73.7791 180.67C72.3591 180.67 71.8491 178.58 71.8391 178.56C71.7865 178.344 71.6542 178.156 71.4687 178.034C71.2832 177.911 71.0583 177.863 70.8391 177.9C70.6243 177.955 70.4377 178.087 70.3156 178.272C70.1935 178.457 70.1448 178.681 70.1791 178.9C70.1791 179.04 71.0091 182.36 73.8191 182.36C74.4966 182.4 75.1715 182.247 75.766 181.92C76.3605 181.592 76.8503 181.104 77.1791 180.51C77.4717 179.95 77.6325 179.331 77.6491 178.7V167.68C78.1793 166.882 78.9185 166.246 79.7859 165.839C80.6533 165.433 81.6156 165.272 82.5679 165.376C83.5202 165.479 84.4258 165.842 85.1861 166.424C85.9463 167.007 86.532 167.787 86.8791 168.68C86.9101 168.748 86.96 168.806 87.023 168.846C87.0859 168.887 87.1592 168.908 87.2341 168.908C87.3089 168.908 87.3822 168.887 87.4452 168.846C87.5081 168.806 87.5581 168.748 87.5891 168.68C87.9703 167.699 88.6394 166.855 89.5085 166.261C90.3777 165.667 91.4062 165.349 92.4591 165.35C93.2857 165.284 94.1166 165.406 94.8891 165.707C95.6617 166.009 96.3558 166.481 96.9191 167.09C97.4091 167.72 97.6191 167.55 97.4791 166.6" fill="#E8447E"/>
<path d="M109.55 156.93C109.26 156.42 108.81 156.42 108.55 156.93L94.9403 181.48C94.6603 181.99 94.9403 182.4 95.4803 182.4H122.59C123.17 182.4 123.41 181.99 123.13 181.48L109.55 156.93Z" fill="#E8447E"/>
<path d="M139.09 182.4C141.875 182.4 144.598 181.574 146.913 180.027C149.229 178.479 151.034 176.279 152.099 173.706C153.164 171.133 153.443 168.301 152.898 165.57C152.354 162.838 151.012 160.329 149.042 158.361C147.072 156.392 144.562 155.052 141.831 154.51C139.099 153.967 136.267 154.248 133.695 155.315C131.122 156.382 128.924 158.188 127.378 160.505C125.832 162.822 125.008 165.545 125.01 168.33C125.01 170.179 125.374 172.009 126.082 173.717C126.789 175.425 127.827 176.976 129.134 178.283C130.442 179.589 131.994 180.626 133.702 181.332C135.411 182.039 137.241 182.402 139.09 182.4" fill="#E8447E"/>
</g>
<defs>
<clipPath id="clip0_25_933">
<rect width="187.08" height="182.4" fill="white"/>
</clipPath>
</defs>
</svg>
