<svg width="164" height="657" viewBox="0 0 164 657" fill="none" xmlns="http://www.w3.org/2000/svg">
<g clip-path="url(#clip0_25_907)">
<path d="M54.4405 11.9073H0V0.103516H54.4405V11.9073Z" fill="#739FBD"/>
<path d="M54.4405 50.6087V60.5977L21.7113 87.1562H55.119V99.0781H0.678511V89.1186L33.4077 62.4715H0V50.5645L54.4405 50.6087Z" fill="#739FBD"/>
<path d="M43.6881 181.292V163.881H0V152.078H43.6881V134.682H54.4405V181.292H43.6881Z" fill="#739FBD"/>
<path d="M54.4408 216.998V256.674H43.895V228.802H32.8033V254.269H22.3017V228.802H10.502V257.161H-0.0585938V216.998H54.4408Z" fill="#739FBD"/>
<path d="M0 326.066L17.1685 315.737V306.25H0V294.313H54.4405V315.855C54.4405 329.4 47.0657 337.324 35.8118 337.324C28.3338 337.324 22.5372 333.856 19.5873 327.571L0.0147639 339.935L0 326.066ZM27.9356 306.235V315.265C27.9356 321.551 30.6642 325.343 35.8118 325.343C40.9594 325.343 43.6881 321.551 43.6881 315.265V306.235H27.9356Z" fill="#739FBD"/>
<path d="M54.4405 424.288L0 403.203V390.367L54.4405 369.282V382.768L14.366 397.316L54.4405 411.776V424.288Z" fill="#739FBD"/>
<path d="M54.4405 470.78H0V458.858H54.4405V470.78Z" fill="#739FBD"/>
<path d="M54.4408 509.408V549.084H43.895V521.33H32.8033V546.797H22.3017V521.33H10.502V549.674H-0.0585938V509.408H54.4408Z" fill="#739FBD"/>
<path d="M54.4398 657L-0.000630083 641.611V629.556L34.1003 620.01L-0.0449219 610.449V598.394L54.3956 583.005V595.782L18.805 604.945L54.3956 614.108V626.487L18.9968 635.591L54.3956 644.813L54.4398 657Z" fill="#739FBD"/>
<path d="M82.3474 0V3.68869L70.5478 10.8595L82.3474 18.0156V21.7043H61.1523V17.0713H72.7749L64.6332 12.2612V9.45781L72.7749 4.63302H61.1523V0H82.3474Z" fill="#739FBD"/>
<path d="M61.1074 34.5557V30.0259H76.3879V34.5557H61.1074ZM80.916 35.0721C80.3666 35.0633 79.8321 34.8924 79.3795 34.5807C78.9269 34.2691 78.5765 33.8305 78.3723 33.3203C78.1681 32.81 78.1192 32.2507 78.2317 31.7127C78.3442 31.1748 78.6132 30.682 79.0047 30.2964C79.3963 29.9108 79.893 29.6496 80.4325 29.5456C80.972 29.4415 81.5303 29.4992 82.0371 29.7115C82.5439 29.9239 82.9766 30.2812 83.281 30.7388C83.5854 31.1964 83.7478 31.7338 83.7479 32.2834C83.7562 32.6557 83.6884 33.0257 83.5484 33.3707C83.4085 33.7157 83.1994 34.0285 82.9342 34.2897C82.6689 34.5509 82.353 34.7551 82.0059 34.8896C81.6589 35.0241 81.288 35.0862 80.916 35.0721V35.0721Z" fill="#739FBD"/>
<path d="M76.3868 42.7148V47.3183H74.8234C75.4658 47.8034 75.9783 48.4397 76.3154 49.1708C76.6525 49.9019 76.8037 50.705 76.7556 51.5087C76.7556 54.976 74.1744 57.3368 69.9708 57.3368H61.1211V52.8071H69.1596C71.4753 52.8071 72.7437 51.8923 72.7437 50.1808C72.7437 48.4692 71.2688 47.3183 68.9531 47.3183H61.1211V42.7886L76.3868 42.7148Z" fill="#739FBD"/>
<path d="M61.1074 69.5986V65.0246H76.3879V69.5544L61.1074 69.5986ZM80.916 70.1151C80.366 70.1063 79.8309 69.935 79.3781 69.6226C78.9252 69.3103 78.5747 68.8709 78.371 68.3598C78.1672 67.8487 78.1192 67.2887 78.2329 66.7503C78.3466 66.2119 78.617 65.7192 79.01 65.3342C79.4031 64.9492 79.9011 64.6892 80.4416 64.5868C80.9821 64.4844 81.5407 64.5442 82.0473 64.7588C82.5538 64.9734 82.9856 65.333 83.2882 65.7926C83.5909 66.2521 83.7507 66.7909 83.7479 67.3412C83.7563 67.7128 83.6884 68.0821 83.5483 68.4264C83.4082 68.7707 83.199 69.0825 82.9335 69.3426C82.668 69.6026 82.3519 69.8054 82.0049 69.9382C81.6578 70.0711 81.2872 70.1313 80.916 70.1151V70.1151Z" fill="#739FBD"/>
<path d="M104.975 46.5631L104.461 47.3193L163.476 87.5007L163.991 86.7444L104.975 46.5631Z" fill="#739FBD"/>
<path d="M163.49 46.5772L104.439 86.707L104.953 87.4638L164.004 47.334L163.49 46.5772Z" fill="#739FBD"/>
<path d="M153.935 37.2771L113.768 96.3135L114.524 96.8282L154.691 37.7919L153.935 37.2771Z" fill="#739FBD"/>
<path d="M114.537 37.2988L113.781 37.8135L153.948 96.8498L154.704 96.3351L114.537 37.2988Z" fill="#739FBD"/>
<path d="M163.986 66.5879H79.6035V67.5027H163.986V66.5879Z" fill="#739FBD"/>
<path d="M134.692 37.2705H133.777V96.8207H134.692V37.2705Z" fill="#739FBD"/>
</g>
<defs>
<clipPath id="clip0_25_907">
<rect width="164" height="657" fill="white"/>
</clipPath>
</defs>
</svg>
