<?xml version="1.0" encoding="utf-8"?>
<!-- Generator: Adobe Illustrator 25.3.1, SVG Export Plug-In . SVG Version: 6.00 Build 0)  -->
<svg version="1.1" id="레이어_1" xmlns="http://www.w3.org/2000/svg" xmlns:xlink="http://www.w3.org/1999/xlink" x="0px"
	 y="0px" viewBox="0 0 50 50" style="enable-background:new 0 0 50 50;" xml:space="preserve">
<style type="text/css">
	.st0{fill:#F2E6DB;}
	.st1{fill:#FFFFFF;}
	.st2{fill:#D2AA89;}
	.st3{fill:#B87C51;}
</style>
<g>
	<g>
		<path class="st0" d="M42.5,18.6c0,6.3-5.1,11.4-11.4,11.4c-6.3,0-11.4-5.1-11.4-11.4c0-6.3,5.1-11.4,11.4-11.4
			C37.4,7.2,42.5,12.3,42.5,18.6"/>
	</g>
</g>
<g>
	<polygon class="st1" points="29.6,20.1 29.6,18.3 29.6,11.1 13.4,11.1 13.4,18.3 13.4,20.1 6.8,20.1 6.8,32.1 13.4,32.1 29.6,32.1 
		43.4,32.1 43.4,20.1 	"/>
</g>
<g>
	<g>
		<path class="st2" d="M40.4,42.9H20V26.7h20.4V42.9z M21.2,41.7h18V27.9h-18V41.7z M44,32.7h-2.4v-1.2h1.2V20.7h-2.4v1.8h-1.2v-5.4
			c0-1-0.8-1.8-1.8-1.8H34l1.4,1.4l-0.8,0.8l-2.8-2.8l2.8-2.8l0.8,0.8L34,14.1h3.4c1.7,0,3,1.3,3,3v2.4H44V32.7z M18.8,32.7h-6.6
			v-1.2h6.6V32.7z M10.4,32.7H6.2V19.5h17.4v3h1.8v1.2h-1.8v1.8h-1.2v-1.8h-0.6v-1.2h0.6v-1.8h-15v10.8h3V32.7z M27.8,25.5h-1.2v-6
			H38v1.2H27.8V25.5z M30.2,18.3H29v-6.6H14v6.6h-1.2v-7.8h17.4V18.3z"/>
	</g>
	<g>
		<path class="st3" d="M36.2,31.5c0,1-0.8,1.8-1.8,1.8c-1,0-1.8-0.8-1.8-1.8c0-1,0.8-1.8,1.8-1.8C35.3,29.7,36.2,30.5,36.2,31.5"/>
	</g>
	<g>
		<path class="st2" d="M34.4,33.9c-1.3,0-2.4-1.1-2.4-2.4c0-1.3,1.1-2.4,2.4-2.4s2.4,1.1,2.4,2.4C36.8,32.8,35.7,33.9,34.4,33.9z
			 M34.4,30.3c-0.7,0-1.2,0.5-1.2,1.2c0,0.7,0.5,1.2,1.2,1.2s1.2-0.5,1.2-1.2C35.6,30.8,35,30.3,34.4,30.3z"/>
	</g>
</g>
<g>
	<polygon class="st3" points="33.8,35.7 31.7,37.8 27.2,33.3 20.6,39.9 20.6,42.3 39.8,42.3 39.8,41.1 	"/>
</g>
<g>
	<g>
		<path class="st2" d="M40.4,42.9H20v-3.2l7.2-7.2l4.5,4.5l2.1-2.1l6.6,6V42.9z M21.2,41.7h18v-0.3l-5.4-4.8l-1.3,1.3l1.7,1.7
			l-0.8,0.8l-6.2-6.2l-6,6V41.7z M15.6,40.9l-0.8-0.8l1.4-1.4h-3.4c-1.7,0-3-1.3-3-3v-6H11v6c0,1,0.8,1.8,1.8,1.8h3.4l-1.4-1.4
			l0.8-0.8l2.8,2.8L15.6,40.9z M11,28.5H9.8v-1.2H11V28.5z M11,26.1H9.8v-1.2H11V26.1z M40.4,24.9h-1.2v-1.2h1.2V24.9z M11,23.7H9.8
			v-1.2H11V23.7z"/>
	</g>
</g>
</svg>
