<?xml version="1.0" encoding="utf-8"?>
<!-- Generator: Adobe Illustrator 25.3.1, SVG Export Plug-In . SVG Version: 6.00 Build 0)  -->
<svg version="1.1" id="레이어_1" xmlns="http://www.w3.org/2000/svg" xmlns:xlink="http://www.w3.org/1999/xlink" x="0px"
	 y="0px" viewBox="0 0 50 50" style="enable-background:new 0 0 50 50;" xml:space="preserve">
<style type="text/css">
	.st0{fill:#F2E6DB;}
	.st1{fill:#FFFFFF;}
	.st2{fill:#D2AA89;}
	.st3{fill:#B87C51;}
</style>
<g>
	<g>
		<path class="st0" d="M33.5,23.3c0,7.3-5.9,13.2-13.2,13.2c-7.3,0-13.2-5.9-13.2-13.2S13,10.1,20.3,10.1
			C27.5,10.1,33.5,16,33.5,23.3"/>
	</g>
</g>
<g>
	<rect x="19.1" y="25.1" class="st0" width="18" height="17.4"/>
</g>
<g>
	<polygon class="st1" points="22.1,25.1 32.3,8.3 42.5,25.1 	"/>
</g>
<g>
	<path class="st2" d="M42.5,25.7H22.1c-0.2,0-0.4-0.1-0.5-0.3c-0.1-0.2-0.1-0.4,0-0.6L31.7,7.9c0.2-0.4,0.8-0.4,1,0L43,24.7
		c0.1,0.2,0.1,0.4,0,0.6C42.9,25.5,42.7,25.7,42.5,25.7z M23.1,24.5h18.3l-9.1-15L23.1,24.5z"/>
</g>
<g>
	<g>
		<path class="st3" d="M29.9,28.7c0,4-3.2,7.2-7.2,7.2c-4,0-7.2-3.2-7.2-7.2c0-4,3.2-7.2,7.2-7.2C26.6,21.5,29.9,24.7,29.9,28.7"/>
	</g>
	<g>
		<path class="st2" d="M22.7,36.5c-4.3,0-7.8-3.5-7.8-7.8s3.5-7.8,7.8-7.8c4.3,0,7.8,3.5,7.8,7.8S27,36.5,22.7,36.5z M22.7,22.1
			c-3.6,0-6.6,3-6.6,6.6c0,3.6,3,6.6,6.6,6.6s6.6-3,6.6-6.6C29.3,25,26.3,22.1,22.7,22.1z"/>
	</g>
</g>
<g>
	<rect x="11.3" y="17.3" class="st1" width="3.6" height="3.6"/>
</g>
<g>
	<path class="st2" d="M15.5,21.5h-4.8v-4.8h4.8V21.5z M11.9,20.3h2.4v-2.4h-2.4V20.3z"/>
</g>
<g>
	<path class="st2" d="M32.9,37.1h-1.2v-2.4h1.2V37.1z M13.7,37.1h-1.2v-2.4h1.2V37.1z M32.9,33.5h-1.2v-2.4h1.2V33.5z M13.7,33.5
		h-1.2v-2.4h1.2V33.5z M32.9,29.9h-1.2v-2.4h1.2V29.9z M13.7,29.9h-1.2v-2.4h1.2V29.9z M32.9,26.3h-1.2v-2.4h1.2V26.3z M13.7,26.3
		h-1.2v-2.4h1.2V26.3z M32.9,22.7h-1.2v-2.4h1.2V22.7z M13.7,22.7h-1.2v-2.4h1.2V22.7z"/>
</g>
<g>
	<rect x="30.5" y="16.7" class="st1" width="3.6" height="3.6"/>
</g>
<g>
	<path class="st2" d="M34.7,20.9h-4.8v-4.8h4.8V20.9z M31.1,19.7h2.4v-2.4h-2.4V19.7z"/>
</g>
<g>
	<rect x="30.5" y="36.5" class="st1" width="3.6" height="3.6"/>
</g>
<g>
	<path class="st2" d="M34.7,40.7h-4.8v-4.8h4.8V40.7z M31.1,39.5h2.4v-2.4h-2.4V39.5z"/>
</g>
<g>
	<rect x="11.3" y="36.5" class="st1" width="3.6" height="3.6"/>
</g>
<g>
	<path class="st2" d="M15.5,40.7h-4.8v-4.8h4.8V40.7z M11.9,39.5h2.4v-2.4h-2.4V39.5z"/>
</g>
<g>
	<path class="st2" d="M31.1,38.9h-2.4v-1.2h2.4V38.9z M27.5,38.9h-2.4v-1.2h2.4V38.9z M23.9,38.9h-2.4v-1.2h2.4V38.9z M20.3,38.9
		h-2.4v-1.2h2.4V38.9z M16.7,38.9h-2.4v-1.2h2.4V38.9z M31.1,19.7h-2.4v-1.2h2.4V19.7z M27.5,19.7h-2.4v-1.2h2.4V19.7z M23.9,19.7
		h-2.4v-1.2h2.4V19.7z M20.3,19.7h-2.4v-1.2h2.4V19.7z M16.7,19.7h-2.4v-1.2h2.4V19.7z"/>
</g>
</svg>
