<?xml version="1.0" encoding="utf-8"?>
<!-- Generator: Adobe Illustrator 25.3.1, SVG Export Plug-In . SVG Version: 6.00 Build 0)  -->
<svg version="1.1" id="레이어_1" xmlns="http://www.w3.org/2000/svg" xmlns:xlink="http://www.w3.org/1999/xlink" x="0px"
	 y="0px" viewBox="0 0 50 50" style="enable-background:new 0 0 50 50;" xml:space="preserve">
<style type="text/css">
	.st0{fill:#F2E6DB;}
	.st1{fill:#FFFFFF;}
	.st2{fill:#D2AA89;}
	.st3{fill:#B87C51;}
</style>
<g>
	<g>
		<path class="st0" d="M35.9,23.3c0,8-6.4,14.4-14.4,14.4S7.1,31.2,7.1,23.3S13.5,8.9,21.5,8.9S35.9,15.3,35.9,23.3"/>
	</g>
	<g>
		<path class="st1" d="M40.7,25.1h-2.4H12.5h-1.2c-1,0-1.8,0.8-1.8,1.8v13.8h33V26.9C42.5,25.9,41.6,25.1,40.7,25.1"/>
	</g>
	<g>
		<path class="st2" d="M43.1,41.3H8.9V26.9c0-1.3,1.1-2.4,2.4-2.4h1.2v1.2h-1.2c-0.7,0-1.2,0.5-1.2,1.2v13.2h31.8V26.9
			c0-0.7-0.5-1.2-1.2-1.2h-2.4v-1.2h2.4c1.3,0,2.4,1.1,2.4,2.4V41.3z M42.1,17.9h-3.8v-1.2h2.6c-0.2-1.1-0.9-1.8-1.9-1.8h-4.3v-1.2
			h4.3c1.8,0,3.2,1.5,3.2,3.6V17.9z"/>
	</g>
	<g>
		<path class="st1" d="M15.5,31.1V16.8c0-1.4,1.3-2.6,2.7-2.6h21h0c-1.4,0-2.6,1.2-2.6,2.6v14.2H15.5z"/>
	</g>
	<g>
		<path class="st2" d="M37.1,31.7H14.9V16.8c0-1.7,1.5-3.2,3.3-3.2h21v1.2c-1.1,0-2,0.9-2,2V31.7z M16.1,30.5h19.8V16.9
			c0-0.8,0.3-1.5,0.7-2H18.1c-1.1,0-2.1,0.9-2.1,2V30.5z"/>
	</g>
	<g>
		<path class="st3" d="M31.2,19.1c0,0.8-0.6,1.4-1.4,1.4s-1.4-0.6-1.4-1.4s0.6-1.4,1.4-1.4S31.2,18.3,31.2,19.1"/>
	</g>
	<g>
		<path class="st2" d="M29.8,21.1c-1.1,0-2-0.9-2-2c0-1.1,0.9-2,2-2c1.1,0,2,0.9,2,2C31.8,20.2,30.9,21.1,29.8,21.1z M29.8,18.3
			c-0.4,0-0.8,0.3-0.8,0.8c0,0.4,0.3,0.8,0.8,0.8s0.8-0.3,0.8-0.8C30.6,18.7,30.2,18.3,29.8,18.3z"/>
	</g>
</g>
<g>
	<polygon class="st3" points="28.8,22.3 26.6,24.5 22.7,20.5 17.9,25.5 17.9,28.1 34.1,28.1 34.1,27.7 	"/>
</g>
<g>
	<path class="st2" d="M40.1,31.7H11.9v-1.2h28.2V31.7z M34.7,28.7H17.3v-3.4l5.4-5.6l3.9,4l2.1-2.2l5.9,6.1V28.7z M18.5,27.5H33
		l-4.2-4.3l-1.3,1.4L28,25l-0.9,0.8l-4.4-4.5l-4.2,4.4V27.5z"/>
</g>
<g>
	<g>
		<path class="st0" d="M36.5,40.7h-21v-2.4c0-1,0.8-1.8,1.8-1.8h17.4c1,0,1.8,0.8,1.8,1.8V40.7z"/>
	</g>
	<g>
		<path class="st2" d="M37.1,41.3H14.9v-3c0-1.3,1.1-2.4,2.4-2.4h17.4c1.3,0,2.4,1.1,2.4,2.4V41.3z M16.1,40.1h19.8v-1.8
			c0-0.7-0.5-1.2-1.2-1.2H17.3c-0.7,0-1.2,0.5-1.2,1.2V40.1z"/>
	</g>
</g>
<g>
	<path class="st2" d="M13.1,38.9h-1.2v-1.2h1.2V38.9z M13.1,36.5h-1.2v-1.2h1.2V36.5z M13.1,34.1h-1.2v-1.2h1.2V34.1z M39.5,29.3
		h-1.2v-6.6h-0.6v-1.2h1.8V29.3z M13.7,29.3h-1.2v-7.8h1.8v1.2h-0.6V29.3z"/>
</g>
</svg>
