<svg width="609" height="487" viewBox="0 0 609 487" fill="none" xmlns="http://www.w3.org/2000/svg">
<path d="M338.14 75.7362C347.429 80.077 354.455 73.7901 354.455 54.5339C354.455 35.2778 347.414 22.4303 338.14 18.0895C328.866 13.7487 321.765 20.0128 321.765 39.2765C321.765 58.5403 328.79 71.3726 338.14 75.7362ZM338.14 24.4904C344.11 27.2804 348.864 36.9959 348.864 51.9264C348.864 66.857 344.11 72.1252 338.14 69.3428C332.17 66.5605 327.347 56.8754 327.347 41.884C327.347 26.8927 332.109 21.6777 338.14 24.4904Z" fill="#3C3937"/>
<path d="M371.717 40.1584C374.475 41.4304 376.805 43.4769 378.423 46.0492C380.041 48.6215 380.877 51.6088 380.831 54.648C380.831 58.5631 378.613 62.0068 372.97 66.4541L357.263 78.7315V83.4068L388.077 97.7823V91.5258L365.618 81.0425L377.231 72.2925C383.869 66.971 386.581 63.17 386.581 57.2631C386.563 52.3588 385.17 47.5579 382.56 43.4074C379.949 39.257 376.227 35.9239 371.816 33.7878C362.572 29.4774 356.77 34.951 356.77 44.9249L362.572 47.6389C362.527 41.5192 365.74 37.376 371.717 40.1584Z" fill="#3C3937"/>
<path d="M405.288 55.8339C408.031 57.1087 410.347 59.1508 411.956 61.7138C413.565 64.2767 414.399 67.2511 414.357 70.2779C414.357 74.2005 412.146 77.6367 406.503 82.0915L390.796 94.3613V99.0366L421.602 113.42V107.156L399.151 96.68L410.764 87.9299C417.402 82.5629 420.114 78.8074 420.114 72.893C420.097 67.9885 418.703 63.1876 416.091 59.038C413.479 54.8885 409.754 51.5575 405.341 49.4253C396.105 45.1149 390.295 50.5884 390.295 60.5624L396.105 63.2687C396.105 57.187 399.318 53.0439 405.288 55.8339Z" fill="#3C3937"/>
<path d="M69.0924 277.124C66.9534 271.865 62.9583 267.577 57.8666 265.074C48.9043 260.893 42.2129 266.64 42.2129 278.401C42.2129 290.161 48.9195 302.165 57.8666 306.331C63.6162 309.014 67.4898 307.38 69.0924 304.757V310.611L74.7888 313.264V273.938L69.0924 271.278V277.124ZM58.3679 300.318C52.0031 297.353 47.803 289.196 47.803 281.008C47.803 272.821 52.0031 268.594 58.3679 271.566C64.7327 274.539 69.2063 282.818 69.2063 291.005C69.2063 299.192 64.7783 303.29 58.3679 300.318Z" fill="#3C3937"/>
<path d="M97.9173 283.768C92.1677 281.077 88.2941 282.711 86.6915 285.334V279.488L80.9951 276.827V332.893L86.6915 335.546V312.99C88.8323 318.248 92.827 322.535 97.9173 325.04C106.88 329.221 113.571 323.466 113.571 311.705C113.571 299.945 106.88 287.949 97.9173 283.768ZM97.416 318.547C91.0056 315.552 86.5776 307.296 86.5776 299.109C86.5776 290.921 91.0056 286.801 97.416 289.789C103.826 292.776 107.981 300.91 107.981 309.098C107.981 317.285 103.781 321.535 97.416 318.547Z" fill="#3C3937"/>
<path d="M320.229 435.787L293.402 380.345L287.987 377.791V426.931L165.127 367.148L183.112 324.485L177.188 321.725L166.737 347.8L156.559 312.07L150.308 309.159L163.858 354.011L159.438 364.365L123.809 347.025V330.3C125.951 335.559 129.948 339.847 135.042 342.35C144.004 346.538 150.696 340.784 150.696 329.023C150.696 317.263 144.004 305.267 135.042 301.078C129.285 298.394 125.419 300.029 123.809 302.651V296.805L118.112 294.145V350.203L121.074 351.586L287.987 432.875L293.79 435.589V392.356L320.616 447.806L326.092 450.36V395.275L320.229 392.539V435.787ZM134.533 307.091C140.898 310.063 145.098 318.213 145.098 326.4C145.098 334.588 140.898 338.815 134.533 335.842C128.168 332.87 123.695 324.599 123.695 316.411C123.695 308.224 128.115 304.119 134.533 307.091Z" fill="#3C3937"/>
<path d="M346.783 420.051C337.547 415.74 330.909 421.45 330.909 433.278C330.909 445.107 337.547 457.012 346.783 461.323C354.029 464.706 359.695 462.478 361.442 456.473L355.639 453.759C354.477 456.45 351.082 457.354 346.783 455.34C341.14 452.702 337.213 445.852 336.606 438.828L362.498 450.908C362.586 449.965 362.621 449.019 362.604 448.072C362.604 436.236 356.019 424.361 346.783 420.051ZM336.606 433.043C337.213 426.52 341.087 423.373 346.783 426.034C352.48 428.694 356.353 435.384 357.022 442.576L336.606 433.043Z" fill="#3C3937"/>
<path d="M523.759 322.402L518.404 326.15L508.956 367.011L499.758 339.218L494.107 343.178L506.358 377.205L502.545 392.964L407.977 467.838L413.157 451.995L407.521 449.364L399.744 474.353L398.886 475.029L390.873 441.595L385.116 438.904L376.875 465.603L368.581 431.188L362.664 428.428L373.837 472.984L379.586 475.668L387.88 449.418L396.235 483.445L401.985 486.128L404.977 476.99L505.902 397.1L505.819 396.994L505.91 396.925L523.759 322.402Z" fill="#3C3937"/>
<path d="M537.757 311.515C529.402 317.369 523.409 331.281 523.409 344.402C523.409 357.523 529.409 363.027 537.757 357.174C544.304 352.612 549.453 343.573 551.003 334.953L545.754 338.632C544.516 343.398 541.696 347.601 537.757 350.552C532.66 354.133 529.106 351.061 528.559 343.992L551.96 327.617C552.058 326.476 552.058 325.336 552.058 324.348C552.058 311.242 546.104 305.669 537.757 311.515ZM528.559 337.598C529.106 329.677 532.607 321.748 537.757 318.137C542.906 314.526 546.408 317.483 547.008 324.667L528.559 337.598Z" fill="#3C3937"/>
<path d="M578.909 290.214C577.458 287.5 573.956 286.147 568.754 289.796C560.657 295.467 554.611 309.524 554.611 322.539C554.611 335.553 560.688 341.126 568.754 335.462C573.956 331.813 577.458 325.579 578.909 320.813V327.282L584.058 323.671V280.134L578.909 283.745V290.214ZM569.209 328.225C563.46 332.254 559.662 328.073 559.662 319.011C559.662 309.949 563.46 300.447 569.209 296.418C574.959 292.389 579.007 296.418 579.007 305.457C579.007 314.496 575.005 324.143 569.194 328.21L569.209 328.225Z" fill="#3C3937"/>
<path d="M605.104 264.322C599.506 268.244 596.058 275.155 594.805 279.298V272.6L589.655 276.211V319.741L594.805 316.13V293.605C594.805 285.691 598.906 275.664 604.755 271.559C606.501 270.335 607.907 269.81 609 269.795V262.337C608.005 262.512 606.851 263.09 605.104 264.322Z" fill="#3C3937"/>
<path d="M289.788 51.934L318.886 65.5114V59.2624L296.426 48.7715L308.047 40.0215C314.678 34.7 317.389 30.899 317.389 24.9921C317.376 20.0802 315.982 15.2711 313.367 11.1146C310.752 6.95797 307.021 3.62152 302.601 1.48645C293.366 -2.82395 287.555 2.64957 287.555 12.6235L293.366 15.3375C293.366 9.21779 296.571 5.07464 302.548 7.85701C305.291 9.13258 307.606 11.1749 309.215 13.7377C310.824 16.3005 311.658 19.2744 311.617 22.301C311.617 26.2237 309.407 29.6598 303.763 34.1147L288.056 46.3921V46.5669L287.981 46.4757L37.3381 248.692V240.702L31.5278 237.995V253.443L25.1326 258.605L5.81034 249.581V226.015L0 223.301V278.401L5.81034 281.115V281.046L25.3149 265.279L31.5354 268.183V293.088L37.3457 295.794V255.579L289.788 51.934ZM5.81795 274.189V256.157L19.9526 262.756L5.81795 274.189ZM31.5354 261.585L30.5024 261.106L31.5354 260.277V261.585Z" fill="#3C3937"/>
</svg>
