<?xml version="1.0" encoding="utf-8"?>
<!-- Generator: Adobe Illustrator 25.3.1, SVG Export Plug-In . SVG Version: 6.00 Build 0)  -->
<svg version="1.1" id="레이어_1" xmlns="http://www.w3.org/2000/svg" xmlns:xlink="http://www.w3.org/1999/xlink" x="0px"
	 y="0px" viewBox="0 0 24 24" style="enable-background:new 0 0 24 24;" xml:space="preserve">
<style type="text/css">
	.st0{fill:#FFFFFF;}
	.st1{fill:none;stroke:#3C3938;stroke-width:0.7;stroke-miterlimit:10;}
	.st2{fill:#3C3938;}
	.st3{fill:#231815;}
	.st4{fill:#EEAD64;}
</style>
<path class="st0" d="M14.5,3.7c-1.2,0-2.1,1-2.1,2.1c0,0.1,0,0.1,0,0.2c-0.1,0-0.1,0-0.2,0c-1.2,0-2.1,1-2.1,2.1c0,0.1,0,0.1,0,0.2
	c-0.1,0-0.1,0-0.2,0c-1.2,0-2.1,1-2.1,2.1c0,1.2,1,2.1,2.1,2.1c1.2,0,2.1-1,2.1-2.1c0-0.1,0-0.1,0-0.2c0.1,0,0.1,0,0.2,0
	c1.2,0,2.1-1,2.1-2.1c0-0.1,0-0.1,0-0.2c0.1,0,0.1,0,0.2,0c1.2,0,2.1-1,2.1-2.1S15.7,3.7,14.5,3.7"/>
<path class="st1" d="M14.5,3.7c-1.2,0-2.1,1-2.1,2.1c0,0.1,0,0.1,0,0.2c-0.1,0-0.1,0-0.2,0c-1.2,0-2.1,1-2.1,2.1c0,0.1,0,0.1,0,0.2
	c-0.1,0-0.1,0-0.2,0c-1.2,0-2.1,1-2.1,2.1c0,1.2,1,2.1,2.1,2.1c1.2,0,2.1-1,2.1-2.1c0-0.1,0-0.1,0-0.2c0.1,0,0.1,0,0.2,0
	c1.2,0,2.1-1,2.1-2.1c0-0.1,0-0.1,0-0.2c0.1,0,0.1,0,0.2,0c1.2,0,2.1-1,2.1-2.1S15.7,3.7,14.5,3.7z"/>
<path class="st2" d="M9.9,8.5c-1.1,0-2,0.9-2,2s0.9,2,2,2s2-0.9,2-2c0,0,0-0.1,0-0.1l0,0c0,0,0-0.1,0-0.1c0,0,0.1-0.1,0.1,0l0,0
	c0,0,0.1,0,0.1,0c1.1,0,2-0.9,2-2c0,0,0-0.1,0-0.1l0,0c0,0,0-0.1,0-0.1c0,0,0.1-0.1,0.1,0l0,0c0,0,0.1,0,0.1,0c1.1,0,2-0.9,2-2
	c0-1.1-0.9-2-2-2s-2,0.9-2,2c0,0,0,0.1,0,0.1l0,0c0,0,0,0.1,0,0.1c0,0-0.1,0.1-0.1,0l0,0c0,0-0.1,0-0.1,0c-1.1,0-2,0.9-2,2
	c0,0,0,0.1,0,0.1c0,0,0,0.1,0,0.1c0,0-0.1,0.1-0.1,0.1l0,0C10,8.5,10,8.5,9.9,8.5 M9.9,12.7c-1.3,0-2.3-1-2.3-2.3
	c0-1.3,1-2.3,2.3-2.3c0-1.3,1-2.3,2.3-2.3c0-1.3,1-2.3,2.3-2.3c1.3,0,2.3,1,2.3,2.3c0,1.3-1,2.3-2.3,2.3c0,1.3-1,2.3-2.3,2.3
	C12.2,11.7,11.2,12.7,9.9,12.7"/>
<path class="st1" d="M9.9,8.5c-1.1,0-2,0.9-2,2s0.9,2,2,2s2-0.9,2-2c0,0,0-0.1,0-0.1l0,0c0,0,0-0.1,0-0.1c0,0,0.1-0.1,0.1,0l0,0
	c0,0,0.1,0,0.1,0c1.1,0,2-0.9,2-2c0,0,0-0.1,0-0.1l0,0c0,0,0-0.1,0-0.1c0,0,0.1-0.1,0.1,0l0,0c0,0,0.1,0,0.1,0c1.1,0,2-0.9,2-2
	c0-1.1-0.9-2-2-2s-2,0.9-2,2c0,0,0,0.1,0,0.1l0,0c0,0,0,0.1,0,0.1c0,0-0.1,0.1-0.1,0l0,0c0,0-0.1,0-0.1,0c-1.1,0-2,0.9-2,2
	c0,0,0,0.1,0,0.1c0,0,0,0.1,0,0.1c0,0-0.1,0.1-0.1,0.1l0,0C10,8.5,10,8.5,9.9,8.5z M9.9,12.7c-1.3,0-2.3-1-2.3-2.3
	c0-1.3,1-2.3,2.3-2.3c0-1.3,1-2.3,2.3-2.3c0-1.3,1-2.3,2.3-2.3c1.3,0,2.3,1,2.3,2.3c0,1.3-1,2.3-2.3,2.3c0,1.3-1,2.3-2.3,2.3
	C12.2,11.7,11.2,12.7,9.9,12.7z"/>
<path class="st0" d="M19.4,2.4c0,0.6-0.5,1.1-1.1,1.1c-0.6,0-1.1-0.5-1.1-1.1s0.5-1.1,1.1-1.1C18.9,1.4,19.4,1.8,19.4,2.4"/>
<circle class="st1" cx="18.3" cy="2.4" r="1.1"/>
<path class="st3" d="M18.3,1.5c-0.5,0-0.9,0.4-0.9,0.9c0,0.5,0.4,0.9,0.9,0.9c0.5,0,0.9-0.4,0.9-0.9C19.2,1.9,18.8,1.5,18.3,1.5
	 M18.3,3.7c-0.7,0-1.2-0.6-1.2-1.2c0-0.7,0.6-1.2,1.2-1.2c0.7,0,1.2,0.6,1.2,1.2C19.5,3.1,19,3.7,18.3,3.7"/>
<path class="st1" d="M18.3,1.5c-0.5,0-0.9,0.4-0.9,0.9c0,0.5,0.4,0.9,0.9,0.9c0.5,0,0.9-0.4,0.9-0.9C19.2,1.9,18.8,1.5,18.3,1.5z
	 M18.3,3.7c-0.7,0-1.2-0.6-1.2-1.2c0-0.7,0.6-1.2,1.2-1.2c0.7,0,1.2,0.6,1.2,1.2C19.5,3.1,19,3.7,18.3,3.7z"/>
<path class="st4" d="M14,17.6c0,1-0.7,1.8-1.6,2v-4.7c0.9,0.2,1.6,1,1.6,2V17.6z M12.4,13.3v-0.8c0-0.5-0.4-0.8-0.8-0.8H5.3
	c-0.5,0-0.8,0.4-0.8,0.8v9.5c0,0.5,0.4,0.8,0.8,0.8h6.2c0.5,0,0.8-0.4,0.8-0.8v-0.8c1.8-0.2,3.2-1.7,3.2-3.5v-0.8
	C15.6,15,14.2,13.5,12.4,13.3"/>
<path class="st1" d="M14,17.6c0,1-0.7,1.8-1.6,2v-4.7c0.9,0.2,1.6,1,1.6,2V17.6z M12.4,13.3v-0.8c0-0.5-0.4-0.8-0.8-0.8H5.3
	c-0.5,0-0.8,0.4-0.8,0.8v9.5c0,0.5,0.4,0.8,0.8,0.8h6.2c0.5,0,0.8-0.4,0.8-0.8v-0.8c1.8-0.2,3.2-1.7,3.2-3.5v-0.8
	C15.6,15,14.2,13.5,12.4,13.3z"/>
<path class="st2" d="M12.6,15.1v4.3c0.8-0.2,1.3-0.9,1.3-1.8v-0.8C13.9,16,13.3,15.3,12.6,15.1 M12.4,19.7c0,0-0.1,0-0.1,0
	c0,0-0.1-0.1-0.1-0.1v-4.7c0,0,0-0.1,0.1-0.1c0,0,0.1,0,0.1,0c1,0.2,1.8,1.1,1.8,2.1v0.8C14.2,18.7,13.4,19.6,12.4,19.7
	C12.4,19.7,12.4,19.7,12.4,19.7 M5.3,11.8c-0.4,0-0.7,0.3-0.7,0.7v9.5c0,0.4,0.3,0.7,0.7,0.7h6.2c0.4,0,0.7-0.3,0.7-0.7v-0.8
	c0-0.1,0.1-0.2,0.1-0.2c1.7-0.2,3-1.6,3-3.4v-0.8c0-1.7-1.3-3.2-3-3.4c-0.1,0-0.1-0.1-0.1-0.2v-0.8c0-0.4-0.3-0.7-0.7-0.7H5.3z
	 M11.6,22.9H5.3c-0.5,0-1-0.4-1-1v-9.5c0-0.5,0.4-1,1-1h6.2c0.5,0,1,0.4,1,1v0.6c1.8,0.3,3.2,1.8,3.2,3.7v0.8c0,1.9-1.4,3.4-3.2,3.7
	v0.6C12.6,22.5,12.1,22.9,11.6,22.9"/>
<path class="st1" d="M12.6,15.1v4.3c0.8-0.2,1.3-0.9,1.3-1.8v-0.8C13.9,16,13.3,15.3,12.6,15.1z M12.4,19.7c0,0-0.1,0-0.1,0
	c0,0-0.1-0.1-0.1-0.1v-4.7c0,0,0-0.1,0.1-0.1c0,0,0.1,0,0.1,0c1,0.2,1.8,1.1,1.8,2.1v0.8C14.2,18.7,13.4,19.6,12.4,19.7
	C12.4,19.7,12.4,19.7,12.4,19.7z M5.3,11.8c-0.4,0-0.7,0.3-0.7,0.7v9.5c0,0.4,0.3,0.7,0.7,0.7h6.2c0.4,0,0.7-0.3,0.7-0.7v-0.8
	c0-0.1,0.1-0.2,0.1-0.2c1.7-0.2,3-1.6,3-3.4v-0.8c0-1.7-1.3-3.2-3-3.4c-0.1,0-0.1-0.1-0.1-0.2v-0.8c0-0.4-0.3-0.7-0.7-0.7H5.3z
	 M11.6,22.9H5.3c-0.5,0-1-0.4-1-1v-9.5c0-0.5,0.4-1,1-1h6.2c0.5,0,1,0.4,1,1v0.6c1.8,0.3,3.2,1.8,3.2,3.7v0.8c0,1.9-1.4,3.4-3.2,3.7
	v0.6C12.6,22.5,12.1,22.9,11.6,22.9z"/>
</svg>
