<svg width="102" height="104" viewBox="0 0 102 104" fill="none" xmlns="http://www.w3.org/2000/svg">
<g style="mix-blend-mode:multiply">
<path fill-rule="evenodd" clip-rule="evenodd" d="M22.9597 1.5378e-08C22.4708 -8.87511e-05 22.0682 0.384123 22.0455 0.872458C21.9817 2.24357 21.9111 4.4231 21.9271 7.15002H1.68945C1.24515 7.15002 0.865058 7.4692 0.788233 7.90681C0.385929 10.1984 -0.285678 15.13 0.13197 20.7491C0.548901 26.3586 2.05836 32.7472 6.10162 37.8624C11.1862 44.2979 20.1701 47.4984 30.9296 47.6072C31.8047 48.9726 32.7636 50.2574 33.8143 51.4401C35.8431 53.8989 38.3901 55.8794 41.2733 57.2397C41.5545 57.3724 41.8383 57.4989 42.1244 57.6191V68.5314C38.1124 69.9627 35.9082 73.0691 34.716 75.796C34.0875 77.2336 33.7295 78.5867 33.528 79.5796C33.453 79.9493 33.3993 80.2707 33.3614 80.53H26.6396C26.1343 80.53 25.7246 80.9397 25.7246 81.445V91.25H16.3095C15.8042 91.25 15.3945 91.6597 15.3945 92.165V102.575C15.3945 103.08 15.8042 103.49 16.3095 103.49H84.7495C85.2549 103.49 85.6645 103.08 85.6645 102.575V92.165C85.6645 91.6597 85.2549 91.25 84.7495 91.25H75.3346V81.445C75.3346 80.9397 74.9249 80.53 74.4196 80.53H67.5271C67.4889 80.2705 67.4349 79.9488 67.3595 79.5788C67.157 78.5859 66.7977 77.2328 66.1679 75.7953C64.9733 73.0687 62.7668 69.9626 58.7548 68.5314V57.6773C59.0883 57.5399 59.4187 57.394 59.7457 57.2397C62.6292 55.8792 65.1764 53.8985 67.2054 51.4394C68.2518 50.2555 69.2072 48.9714 70.0795 47.6081C80.874 47.518 89.8969 44.3174 95.0067 37.8629L95.0072 37.8624C99.0506 32.747 100.557 26.3582 100.972 20.7487C101.387 15.1295 100.713 10.198 100.311 7.90681C100.234 7.4692 99.8536 7.15002 99.4093 7.15002H79.0919C79.1079 4.42756 79.0373 2.25179 78.9735 0.882408C78.9507 0.394226 78.5484 0.0100986 78.0597 0.0100098L22.9597 1.5378e-08ZM23.7844 8.06502C23.7844 8.12435 23.7788 8.18235 23.768 8.23854C23.8268 12.4015 24.0967 17.6607 24.8707 23.1881C25.9817 31.1222 28.1169 39.4943 32.0701 45.9798C32.2314 46.1086 32.3481 46.2908 32.3936 46.4997C33.2434 47.8383 34.1742 49.0912 35.1932 50.2369L35.2044 50.2497L35.2157 50.2632C37.0747 52.5198 39.41 54.3371 42.0542 55.5847C44.6983 56.8323 47.5858 57.4792 50.5095 57.4792C53.4332 57.4792 56.3207 56.8323 58.9648 55.5847C61.609 54.3371 63.9443 52.5198 65.8033 50.2632L65.8118 50.253L65.8243 50.2386C71.8342 43.4477 74.7745 32.9642 76.1484 23.163C77.4154 14.1237 77.3314 5.8118 77.1821 1.83985L23.8369 1.83016C23.7815 3.30589 23.7351 5.38052 23.7633 7.86859C23.7771 7.93187 23.7844 7.99759 23.7844 8.06502ZM2.46479 8.98002H21.9502C22.03 13.0839 22.3157 18.1388 23.0583 23.4419C24.1144 30.9837 26.1073 39.1293 29.8193 45.754C19.8799 45.4427 11.9761 42.3459 7.53742 36.7278L7.53729 36.7276C3.81055 32.0128 2.36001 26.0365 1.95694 20.6134C1.59578 15.7543 2.08121 11.4148 2.46479 8.98002ZM43.9544 68.24V58.2928C46.0688 58.9647 48.2795 59.3092 50.5095 59.3092C52.6904 59.3092 54.8528 58.9797 56.9248 58.3367V68.24H43.9544ZM43.3071 70.07H57.5721L57.5796 70.0723C61.3101 71.1786 63.3598 73.9462 64.4917 76.5297C65.0569 77.8197 65.3826 79.0429 65.5664 79.9444C65.6103 80.1599 65.646 80.3563 65.6748 80.53H35.2134C35.2421 80.3561 35.2776 80.1594 35.3214 79.9435C35.5044 79.0421 35.8288 77.819 36.3928 76.5291C37.5222 73.9458 39.5693 71.1785 43.2996 70.0723L43.3071 70.07ZM73.5046 91.25H27.5546V82.36H73.5046V91.25ZM93.5715 36.7276C89.108 42.3652 81.1647 45.4637 71.1872 45.7571C74.9068 39.1139 76.9032 30.9606 77.9606 23.417C78.703 18.1211 78.9888 13.076 79.0687 8.98002H98.6341C99.0181 11.4151 99.5058 15.7547 99.1468 20.6139C98.7462 26.0368 97.2981 32.013 93.5715 36.7276ZM17.2245 101.66V93.08H83.8345V101.66H17.2245ZM51.4395 26.8451C51.1479 26.635 50.7988 26.5199 50.4395 26.5151H50.4095C50.0504 26.5211 49.7016 26.6362 49.4095 26.8451L45.4995 29.6951L46.9895 25.0851C47.1028 24.7382 47.1028 24.3642 46.9896 24.0173C46.8763 23.6703 46.6556 23.3683 46.3595 23.1551L42.4395 20.3051H47.2794C47.6446 20.3049 48.0004 20.1899 48.2965 19.9764C48.5926 19.7628 48.8141 19.4615 48.9295 19.1151L50.4194 14.5051L51.9194 19.1151C52.0317 19.4615 52.2509 19.7634 52.5456 19.9772C52.8403 20.1911 53.1953 20.3059 53.5594 20.3051H58.4095L54.4895 23.1551C54.1933 23.3683 53.9726 23.6703 53.8593 24.0173C53.7461 24.3642 53.7461 24.7382 53.8595 25.0851L55.3595 29.6951L51.4395 26.8451Z" fill="#F7C3C3"/>
</g>
</svg>
