<svg width="80" height="38" viewBox="0 0 80 38" fill="none" xmlns="http://www.w3.org/2000/svg">
<g clip-path="url(#clip0_22_1083)">
<path d="M4.78921 28.4397H8.46058C8.29965 27.6432 8.21884 26.8328 8.21914 26.0203C8.21914 22.8443 9.48187 19.7982 11.7298 17.5518C13.9777 15.3054 17.0267 14.0425 20.2066 14.0406C22.1569 14.0396 24.0781 14.5144 25.8028 15.4238C27.5276 16.3331 29.0038 17.6495 30.1032 19.2585C31.6717 16.9734 33.9831 15.3005 36.6456 14.5231C36.4626 13.6877 36.3701 12.8349 36.3696 11.9797C36.3696 8.80248 37.6332 5.75537 39.8826 3.50875C42.132 1.26212 45.1829 0 48.364 0C51.5439 0.0018274 54.593 1.26476 56.8409 3.51119C59.0888 5.75762 60.3517 8.80367 60.3517 11.9797C60.3505 12.7292 60.2789 13.4769 60.1377 14.2129C60.7853 14.1031 61.4407 14.0455 62.0976 14.0406C65.2775 14.0425 68.3267 15.3054 70.5746 17.5518C72.8225 19.7982 74.0852 22.8443 74.0852 26.0203C74.0855 26.8328 74.0045 27.6432 73.8436 28.4397H75.2239C76.4923 28.4397 77.7089 28.9429 78.6058 29.8387C79.5027 30.7346 80.0066 31.9495 80.0066 33.2164C80.0066 34.4839 79.5028 35.6996 78.6061 36.5965C77.7094 37.4934 76.4929 37.9982 75.2239 38H4.83049C3.56023 38 2.34206 37.496 1.44386 36.5989C0.545648 35.7018 0.0410156 34.4851 0.0410156 33.2164C0.0428442 31.9489 0.548205 30.7339 1.44621 29.8383C2.34422 28.9427 3.56142 28.4397 4.83049 28.4397" fill="#C7DB9C"/>
</g>
<defs>
<clipPath id="clip0_22_1083">
<rect width="80" height="38" fill="white"/>
</clipPath>
</defs>
</svg>
