<svg width="100" height="100" viewBox="0 0 100 100" fill="none" xmlns="http://www.w3.org/2000/svg">
<g clip-path="url(#clip0_1338_191)">
<path d="M74.4743 59.6062L85.9081 70.0692L76.0607 74.7148L72.2906 84.9928L60.8569 74.5503L74.4743 59.6062ZM25.5461 59.6884L14.0918 70.1514L23.9392 74.797L27.7093 85.0749L39.1637 74.6325L25.5461 59.6884ZM71.2399 46.1833C71.2399 41.9917 69.9942 37.8941 67.6604 34.4089C65.3265 30.9237 62.0093 28.2074 58.1282 26.6034C54.2471 24.9993 49.9764 24.5795 45.8563 25.3973C41.7361 26.215 37.9515 28.2335 34.981 31.1974C32.0106 34.1614 29.9876 37.9376 29.1681 42.0486C28.3485 46.1597 28.7692 50.4209 30.3768 54.2934C31.9844 58.166 34.7068 61.476 38.1997 63.8047C41.6926 66.1334 45.799 67.3764 49.9999 67.3764C55.6331 67.3764 61.0356 65.1434 65.0189 61.169C69.0021 57.1945 71.2399 51.804 71.2399 46.1833V46.1833ZM76.7198 46.1833C76.7198 43.141 79.4393 39.6876 78.5534 36.9331C77.6675 34.1786 73.3413 32.8219 71.6108 30.5197C69.8802 28.2174 70.0451 23.7156 67.6347 21.9684C65.2244 20.2211 61.1247 21.7628 58.2611 20.8378C55.3975 19.9128 53.0695 16.2539 50.0205 16.2539C46.9715 16.2539 44.52 19.9334 41.78 20.8378C39.04 21.7423 34.7962 20.2417 32.4064 21.9684C30.0167 23.6951 30.1815 28.1352 28.4304 30.5197C26.6793 32.9042 22.4354 34.0758 21.5083 36.9331C20.5812 39.7904 23.3212 43.0999 23.3212 46.1833C23.3212 49.2666 20.6018 52.6789 21.5083 55.4334C22.4147 58.1879 26.6999 59.5446 28.4304 61.8468C30.1609 64.1491 29.9961 68.6713 32.4064 70.4186C34.8168 72.1658 38.9164 70.6241 41.78 71.5491C44.6436 72.4742 46.9921 76.1331 50.0205 76.1331C53.0489 76.1331 55.5211 72.433 58.2611 71.5491C61.001 70.6652 65.2656 72.1453 67.6347 70.4186C70.0039 68.6919 69.8596 64.2519 71.6108 61.8468C73.3619 59.4418 77.6263 58.2907 78.5534 55.4334C79.4805 52.5761 76.7198 49.2666 76.7198 46.1833Z" fill="white"/>
<path d="M72.2904 85.9999C72.0225 85.9974 71.7652 85.8947 71.5694 85.7121L60.115 75.2697C59.9339 75.0689 59.8341 74.8081 59.8348 74.5379C59.8356 74.2677 59.9369 74.0074 60.1192 73.8076C60.3015 73.6078 60.5517 73.4826 60.8212 73.4565C61.0907 73.4304 61.3604 73.5053 61.5778 73.6664L71.8784 83.0399L75.0922 74.3447C75.1961 74.0783 75.3939 73.859 75.6485 73.728L84.0332 69.7813L74.1652 60.7778C73.5359 61.1988 72.9734 61.7116 72.4965 62.299C71.8422 63.3778 71.3755 64.5593 71.1161 65.7935C71.077 66.8308 70.8026 67.8458 70.3135 68.7621C69.8245 69.6783 69.1336 70.472 68.2928 71.0834C67.452 71.6948 66.4832 72.1081 65.4593 72.292C64.4353 72.4759 63.3829 72.4258 62.3812 72.1453C61.1126 72.0202 59.8321 72.1035 58.5906 72.392C57.4665 72.9029 56.436 73.5976 55.5415 74.4476C54.88 75.2819 54.0379 75.956 53.0782 76.4195C52.1184 76.8829 51.066 77.1237 49.9998 77.1237C48.9336 77.1237 47.8812 76.8829 46.9215 76.4195C45.9617 75.956 45.1196 75.2819 44.4581 74.4476C43.5708 73.5887 42.5387 72.8929 41.409 72.392C40.1745 72.1036 38.9007 72.0203 37.639 72.1453C35.606 72.4697 33.5229 72.1004 31.7264 71.0969C30.2131 69.6945 29.2125 67.8279 28.8834 65.7935C28.6214 64.5633 28.1623 63.3833 27.5238 62.299C27.0339 61.7164 26.4653 61.2045 25.8344 60.7778L16.0076 69.7608L24.3923 73.7074C24.652 73.8318 24.852 74.0535 24.9486 74.3242L28.1624 83.0193L38.4631 73.6458C38.6805 73.4847 38.9501 73.41 39.2196 73.4361C39.4891 73.4622 39.7393 73.5872 39.9216 73.787C40.1039 73.9868 40.2053 74.2471 40.206 74.5173C40.2068 74.7875 40.1069 75.0483 39.9257 75.2491L28.4714 85.6916C28.3465 85.8148 28.191 85.9025 28.0208 85.9459C27.8506 85.9892 27.672 85.9866 27.5031 85.9382C27.3318 85.8994 27.1726 85.8191 27.0397 85.7044C26.9067 85.5896 26.8041 85.444 26.7409 85.2804L23.1151 75.4753L13.7208 71.0558C13.5639 70.9747 13.4281 70.8582 13.3244 70.7154C13.2206 70.5726 13.1518 70.4075 13.1234 70.2335C13.0986 70.0611 13.1156 69.8853 13.1729 69.7207C13.2303 69.5562 13.3263 69.4078 13.453 69.288L24.0215 59.5445C22.432 58.664 21.1789 57.2835 20.4575 55.6183C20.058 53.6288 20.3487 51.5629 21.2816 49.7599C21.7922 48.5702 22.112 47.3077 22.2292 46.0187C22.1093 44.7302 21.7897 43.4681 21.2816 42.2776C20.3486 40.482 20.0579 38.4224 20.4575 36.4396C21.324 34.5426 22.8141 32.998 24.6808 32.0613C25.7561 31.4487 26.7178 30.656 27.5238 29.7179C28.1784 28.6466 28.6451 27.4718 28.904 26.244C29.2378 24.2052 30.2373 22.3336 31.747 20.92C33.5467 19.9256 35.6267 19.5568 37.6596 19.8716C38.9202 20.0026 40.1939 19.9263 41.4297 19.6455C42.5504 19.1287 43.58 18.4346 44.4786 17.5899C45.1378 16.7521 45.9793 16.0748 46.9393 15.609C47.8993 15.1432 48.9529 14.9011 50.0204 14.9011C51.0879 14.9011 52.1415 15.1432 53.1015 15.609C54.0616 16.0748 54.9029 16.7521 55.5622 17.5899C56.4149 18.5146 57.493 19.2031 58.6917 19.5886C59.8903 19.974 61.1685 20.0432 62.4018 19.7894C63.4051 19.5086 64.4592 19.4588 65.4847 19.6439C66.5101 19.8289 67.48 20.2439 68.3212 20.8576C69.1624 21.4713 69.8529 22.2676 70.3406 23.1865C70.8284 24.1053 71.1006 25.1226 71.1368 26.1617C71.3956 27.3895 71.8625 28.5643 72.5171 29.6356C73.3309 30.5738 74.2993 31.3663 75.3806 31.979C77.2385 32.9275 78.7252 34.4687 79.6039 36.3574C79.9825 38.3408 79.6927 40.3935 78.7798 42.1954C78.2564 43.382 77.9294 44.6455 77.8116 45.9366C77.9268 47.2281 78.254 48.4919 78.7798 49.6776C79.6928 51.4869 79.9825 53.546 79.6039 55.5361C78.8772 57.2045 77.6165 58.5852 76.0193 59.4622L86.6702 69.1853C86.7979 69.306 86.8945 69.4558 86.9517 69.6219C87.0089 69.7879 87.0251 69.9653 86.9988 70.1389C86.9725 70.3125 86.9045 70.4772 86.8006 70.6189C86.6968 70.7607 86.5602 70.8753 86.4024 70.953L76.9464 75.4136L73.3411 85.2188C73.2779 85.3824 73.1753 85.528 73.0424 85.6428C72.9094 85.7575 72.7503 85.8378 72.5789 85.8766L72.2904 85.9999ZM39.1017 69.9663C40.1118 69.9401 41.1197 70.0719 42.0889 70.3568C43.4568 70.9106 44.7184 71.6965 45.8177 72.6797C46.2854 73.358 46.9114 73.9128 47.6418 74.296C48.3721 74.6792 49.1849 74.8794 50.0101 74.8794C50.8353 74.8794 51.6481 74.6792 52.3785 74.296C53.1088 73.9128 53.7348 73.358 54.2025 72.6797C55.2987 71.6925 56.561 70.9061 57.9313 70.3568C59.4088 69.97 60.9441 69.8517 62.4636 70.0074C63.2194 70.281 64.031 70.3651 64.8269 70.2521C65.6229 70.139 66.3788 69.8324 67.028 69.3593C67.6772 68.8861 68.1999 68.2608 68.55 67.5387C68.9 66.8165 69.0668 66.0195 69.0354 65.2179C69.2539 63.7212 69.8329 62.2997 70.7228 61.0753C71.6126 59.8509 72.7867 58.8601 74.1445 58.1878C75.669 57.1805 77.1112 56.1322 77.5232 54.9399C77.7143 53.4128 77.4339 51.8639 76.7197 50.4999C76.0025 49.1146 75.6283 47.578 75.6283 46.0187C75.6283 44.4595 76.0025 42.9229 76.7197 41.5376C77.4352 40.174 77.7156 38.6246 77.5232 37.0974C77.1112 35.823 75.669 34.8569 74.1445 33.8497C72.8478 33.11 71.6961 32.1419 70.7453 30.9924C69.9415 29.7309 69.3629 28.3399 69.0354 26.8812C69.0668 26.0796 68.9 25.2826 68.55 24.5604C68.1999 23.8382 67.6772 23.2131 67.028 22.7399C66.3788 22.2668 65.6229 21.9602 64.8269 21.8471C64.031 21.7341 63.2194 21.818 62.4636 22.0917C60.9441 22.2474 59.4088 22.1291 57.9313 21.7423C56.5618 21.2007 55.2993 20.4213 54.2025 19.44C53.7378 18.7574 53.1129 18.1987 52.3822 17.8125C51.6514 17.4263 50.837 17.2243 50.0101 17.2243C49.1832 17.2243 48.3688 17.4263 47.638 17.8125C46.9073 18.1987 46.2823 18.7574 45.8177 19.44C44.755 20.5048 43.4529 21.301 42.0195 21.7622C40.5862 22.2234 39.0631 22.3364 37.5772 22.0917C36.8203 21.8191 36.008 21.7358 35.2113 21.849C34.4146 21.9622 33.6579 22.2686 33.0074 22.7412C32.3568 23.2138 31.8323 23.8383 31.4797 24.56C31.1271 25.2818 30.9572 26.0788 30.9848 26.8812C30.6573 28.3399 30.0787 29.7309 29.2748 30.9924C28.3241 32.1419 27.1724 33.11 25.8756 33.8497C24.3511 34.8569 22.9296 35.9052 22.5176 37.0974C22.3162 38.6225 22.5895 40.1726 23.3005 41.5376C24.0177 42.9229 24.3919 44.4595 24.3919 46.0187C24.3919 47.578 24.0177 49.1146 23.3005 50.4999C22.592 51.8657 22.3189 53.4149 22.5176 54.9399C22.9296 56.2349 24.3511 57.1805 25.8756 58.1878C27.2282 58.8671 28.3979 59.8598 29.2868 61.083C30.1758 62.3061 30.758 63.724 30.9848 65.2179C30.9572 66.0203 31.1271 66.8173 31.4797 67.539C31.8323 68.2608 32.3568 68.8854 33.0074 69.358C33.6579 69.8306 34.4146 70.137 35.2113 70.2502C36.008 70.3634 36.8203 70.28 37.5772 70.0074L39.1017 69.9663ZM49.9998 68.2808C45.587 68.2808 41.2734 66.9751 37.6043 64.5289C33.9353 62.0828 31.0756 58.6059 29.3869 54.5381C27.6982 50.4702 27.2564 45.994 28.1173 41.6756C28.9781 37.3572 31.1031 33.3905 34.2234 30.2771C37.3436 27.1637 41.3191 25.0435 45.6471 24.1845C49.975 23.3255 54.4611 23.7664 58.5379 25.4513C62.6148 27.1363 66.0993 29.9896 68.5509 33.6506C71.0025 37.3116 72.3111 41.6157 72.3111 46.0187C72.3056 51.9213 69.9532 57.5806 65.7702 61.7543C61.5872 65.9281 55.9154 68.2753 49.9998 68.2808V68.2808ZM49.9998 25.915C46.0149 25.915 42.1194 27.0941 38.8061 29.3032C35.4928 31.5122 32.9103 34.6519 31.3854 38.3253C29.8604 41.9988 29.4614 46.041 30.2388 49.9407C31.0162 53.8404 32.9352 57.4227 35.7529 60.2342C38.5707 63.0458 42.1608 64.9604 46.0691 65.7361C49.9775 66.5118 54.0285 66.1136 57.7101 64.592C61.3917 63.0704 64.5384 60.4937 66.7523 57.1877C68.9662 53.8817 70.1479 49.9949 70.1479 46.0187C70.1561 43.3725 69.641 40.7507 68.6324 38.3034C67.6237 35.856 66.1413 33.6312 64.2698 31.7562C62.3984 29.8812 60.1747 28.3929 57.726 27.3765C55.2774 26.3601 52.6518 25.8355 49.9998 25.8329V25.915Z" fill="#231815"/>
</g>
<defs>
<clipPath id="clip0_1338_191">
<rect width="74" height="71" fill="white" transform="translate(13 15)"/>
</clipPath>
</defs>
</svg>
