<svg width="100" height="100" viewBox="0 0 100 100" fill="none" xmlns="http://www.w3.org/2000/svg">
<g clip-path="url(#clip0_1338_183)">
<path d="M59.6464 69.7855V80.8523V69.7855ZM41.354 69.7855V80.8523V69.7855ZM36.8699 72.7884V87.8871L50.5107 82.5112L64.1305 87.8871V72.7884H36.8699ZM53.6537 13.4649L59.9398 32.9525H80.3904C81.1155 32.931 81.8285 33.1429 82.4247 33.5571C83.0209 33.9713 83.4691 34.566 83.7034 35.2541C83.9377 35.9421 83.9459 36.6873 83.7268 37.3804C83.5077 38.0735 83.0727 38.678 82.4858 39.1053L65.9325 51.159L72.2185 70.6466C72.4433 71.3319 72.4448 72.0709 72.223 72.7572C72.0012 73.4434 71.5674 74.0412 70.9844 74.4643C70.4014 74.8873 69.6993 75.1137 68.9795 75.1106C68.2598 75.1076 67.5596 74.8754 66.9802 74.4475L50.4897 62.3937L33.9364 74.4475C33.3566 74.8668 32.6594 75.0918 31.9443 75.0905C31.2292 75.0892 30.5328 74.8617 29.9544 74.4403C29.376 74.0189 28.9452 73.4254 28.7233 72.7441C28.5015 72.0628 28.4999 71.3288 28.719 70.6466L35.005 51.159L18.4727 39.1053C17.8936 38.6831 17.4626 38.0882 17.2413 37.4057C17.02 36.7231 17.0198 35.9879 17.2407 35.3052C17.4616 34.6225 17.8922 34.0272 18.4711 33.6046C19.0499 33.1821 19.7472 32.9538 20.4633 32.9525H40.9139L47.2 13.4649C47.4222 12.7828 47.854 12.1886 48.4336 11.7672C49.0131 11.3458 49.7108 11.1189 50.4269 11.1189C51.1429 11.1189 51.8406 11.3458 52.4202 11.7672C52.9997 12.1886 53.4315 12.7828 53.6537 13.4649" fill="white"/>
<path d="M64.1304 89C63.9994 89.0297 63.8634 89.0297 63.7323 89L50.4897 83.6871L37.247 88.9159C37.0808 88.9813 36.9012 89.0048 36.7238 88.9842C36.5465 88.9637 36.3769 88.8999 36.23 88.7983C36.083 88.6966 35.9633 88.5603 35.8812 88.4014C35.7991 88.2425 35.7573 88.0659 35.7593 87.887V74.4893L34.5859 75.3503C33.8165 75.9021 32.8932 76.197 31.947 76.1933C31.0009 76.1897 30.0799 75.8875 29.3147 75.3298C28.5496 74.7721 27.979 73.9872 27.684 73.0862C27.389 72.1853 27.3845 71.2141 27.6712 70.3104L33.7478 51.5789L17.8441 39.9872C17.0832 39.4245 16.5182 38.6363 16.2292 37.7339C15.9402 36.8316 15.9419 35.861 16.2339 34.9597C16.526 34.0584 17.0937 33.272 17.8565 32.712C18.6193 32.1519 19.5386 31.8466 20.4842 31.8394H40.1386L46.2151 13.1079C46.4949 12.2116 47.0516 11.4276 47.8048 10.869C48.558 10.3104 49.4688 10.0061 50.4058 10V10C51.342 10.0093 52.2514 10.3148 53.004 10.873C53.7566 11.4311 54.3139 12.2133 54.5965 13.1079L60.673 31.8394H80.3066C81.2454 31.8501 82.1567 32.1588 82.9096 32.7209C83.6625 33.2831 84.2183 34.0698 84.4973 34.9683C84.8086 35.869 84.8174 36.847 84.5223 37.7532C84.2272 38.6593 83.6444 39.4439 82.8629 39.9872L67.2525 51.5789L73.329 70.3104C73.6212 71.2171 73.6198 72.1933 73.3248 73.0992C73.0298 74.005 72.4563 74.7941 71.6866 75.3534C70.9168 75.9128 69.9903 76.2136 69.0395 76.2131C68.0887 76.2125 67.1625 75.9106 66.3934 75.3503L65.241 74.4893V87.887C65.2402 88.0684 65.1961 88.2469 65.1122 88.4077C65.0284 88.5685 64.9072 88.7068 64.759 88.8109C64.5733 88.936 64.3542 89.0019 64.1304 89V89ZM37.9175 72.8933V86.333L50.0287 81.5451C50.2912 81.441 50.5834 81.441 50.8459 81.5451L63.0618 86.333V72.8933L60.7778 71.2344V80.8522C60.7779 80.9974 60.749 81.141 60.6929 81.2749C60.6369 81.4088 60.5548 81.5302 60.4513 81.6319C60.3479 81.7335 60.2253 81.8135 60.0907 81.8672C59.9561 81.9208 59.8122 81.9469 59.6673 81.9441C59.3783 81.9441 59.1012 81.8291 58.8968 81.6243C58.6925 81.4195 58.5777 81.1418 58.5777 80.8522V69.6384L50.5315 63.7586L42.4645 69.6384V80.8522C42.4645 81.1418 42.3497 81.4195 42.1453 81.6243C41.941 81.8291 41.6638 81.9441 41.3749 81.9441C41.23 81.9469 41.0861 81.9208 40.9515 81.8672C40.8169 81.8135 40.6942 81.7335 40.5908 81.6319C40.4874 81.5302 40.4053 81.4088 40.3492 81.2749C40.2932 81.141 40.2643 80.9974 40.2643 80.8522V71.2344L37.9175 72.8933ZM50.4897 61.3017C50.723 61.3002 50.9507 61.3737 51.1392 61.5116L67.6716 73.5653C68.0655 73.8498 68.5389 74.0024 69.0245 74.0012C69.51 74.0001 69.9828 73.8452 70.3754 73.5589C70.7679 73.2726 71.0602 72.8693 71.2106 72.4066C71.3609 71.944 71.3617 71.4455 71.2127 70.9824L64.9267 51.4948C64.8581 51.2724 64.8594 51.0341 64.9306 50.8125C65.0019 50.5908 65.1395 50.3965 65.3247 50.2559L81.8781 38.2233C82.2721 37.9367 82.5654 37.5322 82.716 37.0682C82.8665 36.6042 82.8666 36.1043 82.7162 35.6403C82.5742 35.1697 82.2821 34.7587 81.8847 34.4705C81.4873 34.1822 81.0065 34.0324 80.516 34.0443H60.0654C59.834 34.0434 59.6086 33.9701 59.4207 33.8346C59.2329 33.6991 59.092 33.5081 59.0178 33.2883L52.7317 13.8009C52.5949 13.3475 52.3185 12.949 51.9422 12.6624C51.5659 12.3757 51.1089 12.2156 50.6363 12.2049C50.1467 12.1965 49.6675 12.3475 49.2708 12.6353C48.8741 12.9231 48.5812 13.3321 48.4362 13.8009L42.1501 33.2883C42.0787 33.5098 41.9386 33.7026 41.7501 33.8386C41.5616 33.9746 41.3347 34.0466 41.1024 34.0443H20.6518C20.1606 34.0409 19.6812 34.1949 19.2834 34.4838C18.8857 34.7727 18.5904 35.1814 18.4407 35.6503C18.291 36.1191 18.2946 36.6236 18.4512 37.0903C18.6077 37.5569 18.9089 37.9612 19.3108 38.2442L35.8432 50.277C36.0334 50.4133 36.1748 50.6073 36.2465 50.8304C36.3182 51.0535 36.3164 51.2939 36.2413 51.5159L29.9552 71.0034C29.7959 71.4648 29.7893 71.9653 29.9365 72.4306C30.0838 72.896 30.3769 73.3013 30.7724 73.5863C31.1643 73.8746 31.6377 74.0301 32.1238 74.0301C32.61 74.0301 33.0835 73.8746 33.4754 73.5863L50.0287 61.5327C50.1607 61.4184 50.3192 61.339 50.4897 61.3017V61.3017Z" fill="#231815"/>
</g>
<defs>
<clipPath id="clip0_1338_183">
<rect width="69" height="79" fill="white" transform="translate(16 10)"/>
</clipPath>
</defs>
</svg>
