<svg width="100" height="100" viewBox="0 0 100 100" fill="none" xmlns="http://www.w3.org/2000/svg">
<g clip-path="url(#clip0_1337_141)">
<path d="M33.2566 12.9217C33.2566 12.4824 33.1255 12.053 32.8797 11.6878C32.634 11.3225 32.2848 11.0378 31.8762 10.8697C31.4676 10.7016 31.0179 10.6577 30.5841 10.7434C30.1503 10.8291 29.7519 11.0405 29.4391 11.3511C29.1264 11.6617 28.9134 12.0575 28.8272 12.4883C28.7409 12.9191 28.7851 13.3658 28.9544 13.7716C29.1236 14.1774 29.4103 14.5244 29.778 14.7684C30.1458 15.0125 30.5781 15.1427 31.0204 15.1427C31.6135 15.1427 32.1823 14.9087 32.6016 14.4922C33.021 14.0757 33.2566 13.5107 33.2566 12.9217Z" fill="#231815"/>
<path d="M72.2166 12.9217C72.2166 12.4824 72.0854 12.053 71.8397 11.6878C71.594 11.3225 71.2447 11.0378 70.8361 10.8697C70.4275 10.7016 69.9779 10.6577 69.5441 10.7434C69.1103 10.8291 68.7119 11.0405 68.3991 11.3511C68.0864 11.6617 67.8734 12.0575 67.7871 12.4883C67.7008 12.9191 67.7451 13.3658 67.9144 13.7716C68.0836 14.1774 68.3702 14.5244 68.738 14.7684C69.1057 15.0125 69.5381 15.1427 69.9804 15.1427C70.5734 15.1427 71.1422 14.9087 71.5616 14.4922C71.9809 14.0757 72.2166 13.5107 72.2166 12.9217" fill="#231815"/>
<path d="M52.7361 7.24587C52.7361 6.8066 52.6049 6.37722 52.3592 6.01198C52.1135 5.64674 51.7643 5.36206 51.3557 5.19395C50.947 5.02585 50.4974 4.98189 50.0636 5.06758C49.6298 5.15328 49.2314 5.36473 48.9187 5.67534C48.6059 5.98595 48.3929 6.3817 48.3066 6.81253C48.2204 7.24337 48.2647 7.68999 48.4339 8.09583C48.6032 8.50166 48.8898 8.84844 49.2575 9.09249C49.6252 9.33654 50.0576 9.46678 50.4999 9.46678C51.093 9.46678 51.6618 9.23292 52.0811 8.8164C52.5005 8.39988 52.7361 7.83492 52.7361 7.24587" fill="#231815"/>
<path d="M57.3084 28.1231L50.5004 12.9216L43.6675 28.2466L34.1512 17.0675L38.3503 38.71H62.6505L66.8248 17.0675L57.3084 28.1231ZM25.6039 34.0458C20.6746 38.9293 17.3149 45.1555 15.9501 51.9363C14.5854 58.7172 15.2769 65.7477 17.9373 72.138C20.5976 78.5283 25.107 83.991 30.8948 87.8346C36.6826 91.6781 43.4884 93.7297 50.4507 93.7297C57.4131 93.7297 64.2189 91.6781 70.0066 87.8346C75.7944 83.991 80.3038 78.5283 82.9642 72.138C85.6245 65.7477 86.316 58.7172 84.9513 51.9363C83.5866 45.1555 80.2269 38.9293 75.2976 34.0458" fill="white"/>
<path d="M50.4998 95.0001C43.284 94.9978 36.2308 92.8712 30.2314 88.8892C24.2319 84.9072 19.5555 79.2483 16.7928 72.6277C14.0302 66.007 13.3053 58.7217 14.7099 51.6921C16.1144 44.6624 19.5853 38.204 24.684 33.1328C24.9299 32.8946 25.2598 32.7614 25.6033 32.7614C25.9468 32.7614 26.2767 32.8946 26.5226 33.1328C26.6451 33.2543 26.7423 33.3985 26.8085 33.5572C26.8748 33.716 26.9089 33.8863 26.9089 34.0582C26.9089 34.2301 26.8748 34.4002 26.8085 34.559C26.7423 34.7178 26.6451 34.8622 26.5226 34.9836C21.7745 39.6926 18.5394 45.6946 17.2268 52.2302C15.9141 58.7659 16.5829 65.5414 19.1485 71.6994C21.714 77.8574 26.0611 83.1213 31.6396 86.8248C37.2181 90.5284 43.7774 92.5052 50.4874 92.5052C57.1975 92.5052 63.7567 90.5284 69.3352 86.8248C74.9137 83.1213 79.2608 77.8574 81.8263 71.6994C84.3919 65.5414 85.0607 58.7659 83.748 52.2302C82.4354 45.6946 79.2003 39.6926 74.4522 34.9836C74.2108 34.7352 74.0759 34.4034 74.0759 34.0582C74.0759 33.713 74.2108 33.3812 74.4522 33.1328C74.6981 32.8946 75.028 32.7614 75.3715 32.7614C75.715 32.7614 76.0449 32.8946 76.2908 33.1328C81.4002 38.1979 84.8814 44.655 86.2935 51.6863C87.7057 58.7177 86.9854 66.0071 84.2238 72.6316C81.4622 79.2561 76.7835 84.9177 70.7802 88.8996C64.7768 92.8815 57.7188 95.0047 50.4998 95.0001ZM62.6499 39.8945H38.3497C38.0438 39.8942 37.7475 39.7882 37.5117 39.5946C37.276 39.401 37.1154 39.1318 37.0577 38.8334L32.8834 17.1909C32.824 16.9099 32.8631 16.6174 32.9941 16.3615C33.1252 16.1057 33.3404 15.9019 33.604 15.7842C33.8605 15.6617 34.1505 15.6268 34.4291 15.6848C34.7077 15.7428 34.9592 15.8905 35.1445 16.105L43.3191 25.7047L49.3072 12.28C49.4079 12.0348 49.5798 11.8251 49.8011 11.6774C50.0224 11.5297 50.2829 11.4507 50.5495 11.4507C50.8161 11.4507 51.0767 11.5297 51.298 11.6774C51.5192 11.8251 51.6912 12.0348 51.7919 12.28L57.7551 25.7047L65.9297 16.105C66.1215 15.8919 66.3772 15.7457 66.6591 15.688C66.9409 15.6302 67.234 15.6639 67.4951 15.7842C67.7558 15.9054 67.9683 16.1097 68.0988 16.3646C68.2294 16.6194 68.2705 16.9102 68.2156 17.1909L64.0165 38.8334C63.9619 39.1471 63.7917 39.4295 63.5392 39.6256C63.2866 39.8217 62.9697 39.9175 62.6499 39.8945ZM39.4182 37.4267H61.6561L64.7122 21.6822L58.4011 29.0856C58.2651 29.2576 58.0847 29.3898 57.879 29.468C57.6734 29.5462 57.4502 29.5676 57.2333 29.5298C57.0113 29.5009 56.8007 29.4152 56.6221 29.2811C56.4435 29.147 56.3031 28.969 56.2146 28.7648L50.5992 16.1297L44.959 28.7648C44.8791 28.97 44.7443 29.1498 44.5692 29.2846C44.3941 29.4194 44.1852 29.5042 43.9651 29.5298C43.7446 29.5644 43.5189 29.5417 43.3098 29.4638C43.1008 29.386 42.9157 29.2557 42.7725 29.0856L36.4862 21.6822L39.4182 37.4267Z" fill="#231815"/>
<path d="M65.5825 78.836H35.4184C35.2467 78.8393 35.076 78.8085 34.9164 78.7455C34.7567 78.6824 34.6114 78.5884 34.4887 78.4689C34.3661 78.3494 34.2687 78.2069 34.2022 78.0496C34.1357 77.8923 34.1015 77.7233 34.1016 77.5527C34.1016 77.2058 34.2403 76.8732 34.4873 76.6279C34.7342 76.3826 35.0692 76.2447 35.4184 76.2447H65.5825C65.9318 76.2447 66.2667 76.3826 66.5137 76.6279C66.7606 76.8732 66.8994 77.2058 66.8994 77.5527C66.8994 77.7233 66.8652 77.8923 66.7987 78.0496C66.7322 78.2069 66.6348 78.3494 66.5122 78.4689C66.3896 78.5884 66.2442 78.6824 66.0846 78.7455C65.9249 78.8085 65.7542 78.8393 65.5825 78.836V78.836ZM61.284 71.2352C60.9413 71.2352 60.6127 71.1 60.3704 70.8594C60.1281 70.6187 59.992 70.2922 59.992 69.9519V50.8019C59.9887 50.6313 60.0196 50.4619 60.0831 50.3033C60.1465 50.1448 60.2412 50.0004 60.3615 49.8786C60.4818 49.7568 60.6253 49.6601 60.7837 49.594C60.9421 49.528 61.1122 49.494 61.284 49.494H68.415C69.4584 49.435 70.5028 49.5882 71.4845 49.9441C72.4661 50.3 73.3643 50.8511 74.1239 51.5639C74.8836 52.2766 75.4888 53.1359 75.9024 54.089C76.316 55.0422 76.5293 56.0693 76.5293 57.1072C76.5293 58.1451 76.316 59.172 75.9024 60.1252C75.4888 61.0783 74.8836 61.9376 74.1239 62.6504C73.3643 63.3631 72.4661 63.9142 71.4845 64.2701C70.5028 64.6261 69.4584 64.7792 68.415 64.7202H62.6009V69.9519C62.6009 70.1225 62.5667 70.2915 62.5002 70.4488C62.4337 70.6061 62.3363 70.7486 62.2137 70.8681C62.0911 70.9876 61.9457 71.0816 61.7861 71.1447C61.6264 71.2077 61.4558 71.2385 61.284 71.2352V71.2352ZM62.6009 62.1291H68.415C69.7561 62.1291 71.0422 61.5999 71.9904 60.6581C72.9387 59.7163 73.4714 58.4391 73.4714 57.1072C73.4714 55.7753 72.9387 54.4979 71.9904 53.5561C71.0422 52.6143 69.7561 52.0852 68.415 52.0852H62.6009V62.1291ZM49.2333 71.2352C47.0982 71.2352 45.0505 70.3928 43.5408 68.8933C42.0311 67.3938 41.1829 65.3602 41.1829 63.2396V57.4896C41.1829 55.369 42.0311 53.3354 43.5408 51.8359C45.0505 50.3364 47.0982 49.494 49.2333 49.494C51.3684 49.494 53.416 50.3364 54.9258 51.8359C56.4355 53.3354 57.2837 55.369 57.2837 57.4896V63.2396C57.2837 65.3602 56.4355 67.3938 54.9258 68.8933C53.416 70.3928 51.3684 71.2352 49.2333 71.2352V71.2352ZM49.2333 52.0852C47.7921 52.0917 46.4119 52.6632 45.3928 53.6753C44.3738 54.6874 43.7983 56.0583 43.7918 57.4896V63.2396C43.7918 63.9493 43.9326 64.6521 44.206 65.3078C44.4795 65.9635 44.8803 66.5592 45.3856 67.061C45.8909 67.5629 46.4907 67.9609 47.1509 68.2325C47.8111 68.5041 48.5187 68.644 49.2333 68.644C49.9479 68.644 50.6554 68.5041 51.3156 68.2325C51.9758 67.9609 52.5757 67.5629 53.081 67.061C53.5863 66.5592 53.9871 65.9635 54.2605 65.3078C54.534 64.6521 54.6747 63.9493 54.6747 63.2396V57.4896C54.6682 56.0583 54.0928 54.6874 53.0737 53.6753C52.0547 52.6632 50.6744 52.0917 49.2333 52.0852V52.0852ZM32.8592 71.2352C32.6875 71.2385 32.5168 71.2077 32.3571 71.1447C32.1975 71.0816 32.0521 70.9876 31.9295 70.8681C31.8069 70.7486 31.7095 70.6061 31.643 70.4488C31.5765 70.2915 31.5423 70.1225 31.5423 69.9519V52.0852H26.1009C25.7582 52.0852 25.4296 51.95 25.1873 51.7094C24.945 51.4687 24.8088 51.1422 24.8088 50.8019C24.8055 50.6313 24.8365 50.4619 24.9 50.3033C24.9634 50.1448 25.0581 50.0004 25.1784 49.8786C25.2987 49.7568 25.4422 49.6601 25.6006 49.594C25.759 49.528 25.9291 49.494 26.1009 49.494H39.5927C39.942 49.494 40.2769 49.6318 40.5239 49.8771C40.7708 50.1223 40.9096 50.455 40.9096 50.8019C40.9096 50.9725 40.8754 51.1415 40.8089 51.2988C40.7424 51.4561 40.645 51.5986 40.5224 51.7181C40.3998 51.8376 40.2544 51.9316 40.0948 51.9946C39.9351 52.0577 39.7644 52.0884 39.5927 52.0852H34.3252V69.9519C34.3255 70.1268 34.2897 70.3 34.2202 70.4607C34.1507 70.6214 34.0488 70.7663 33.9208 70.8865C33.7928 71.0067 33.6414 71.0996 33.476 71.1596C33.3105 71.2195 33.1344 71.2453 32.9586 71.2352H32.8592Z" fill="#231815"/>
</g>
<defs>
<clipPath id="clip0_1337_141">
<rect width="73" height="90" fill="white" transform="translate(14 5)"/>
</clipPath>
</defs>
</svg>
