<svg width="100" height="100" viewBox="0 0 100 100" fill="none" xmlns="http://www.w3.org/2000/svg">
<path d="M57.66 62.9771H42.3408V74.2205H57.66V62.9771Z" fill="white"/>
<path d="M57.2042 66.6648V73.141V66.6648ZM42.4917 66.6648V73.141V66.6648ZM81.9273 85.4337H17.7686V78.6277C17.7686 76.1392 19.801 74.1304 22.3188 74.1304H77.377C79.8948 74.1304 81.9273 76.1392 81.9273 78.6277V85.4337ZM28.6892 15.9046C17.0102 27.4479 17.0102 46.1868 28.6892 57.76C40.3682 69.3032 59.3276 69.3032 71.037 57.76C82.716 46.2168 82.716 27.4778 71.037 15.9046H28.6892ZM51.3798 25.3491L53.5943 32.0951H60.7837C62.3308 32.0951 62.9982 34.074 61.7241 34.9734L55.8998 39.141L58.1142 45.887C58.5996 47.3561 56.9008 48.5554 55.6571 47.656L49.8327 43.4884L44.0084 47.656C42.7647 48.5554 41.0659 47.3561 41.5513 45.887L43.7657 39.141L37.9414 34.9734C36.6977 34.074 37.3347 32.0951 38.8818 32.0951H46.0712L48.2857 25.3491C48.8014 23.88 50.8945 23.88 51.3798 25.3491ZM73.4941 36.8323C73.4941 23.9399 62.9072 13.4761 49.8631 13.4761C36.819 13.4761 26.232 23.9399 26.232 36.8323C26.232 49.7247 36.819 60.1886 49.8631 60.1886C62.9072 60.1886 73.4941 49.7247 73.4941 36.8323Z" fill="white"/>
<path d="M81.9276 86.5433H17.7689C17.1622 86.5433 16.6465 86.0336 16.6465 85.434V78.628C16.6465 75.5398 19.1946 72.9913 22.3495 72.9913H41.3696V66.665C41.3696 66.5751 41.3696 66.4851 41.3999 66.3652C36.4553 64.986 31.7837 62.3775 27.9008 58.5398C15.7668 46.5768 15.7668 27.0883 27.9008 15.1253C28.3255 14.7056 29.0535 14.7056 29.4782 15.1253C29.9029 15.5451 29.9029 16.2647 29.4782 16.6844C18.2542 27.7779 18.2542 45.8572 29.4782 56.9507C40.7022 68.0442 58.9943 68.0442 70.2183 56.9507C75.6482 51.5839 78.6514 44.4181 78.6514 36.8026C78.6514 29.187 75.6482 22.0512 70.2183 16.6544C69.7936 16.2347 69.7936 15.5151 70.2183 15.0953C70.643 14.6756 71.371 14.6756 71.7957 15.0953C77.6504 20.8819 80.8962 28.5874 80.8962 36.8026C80.8962 45.0177 77.6504 52.7232 71.7957 58.5098C67.9128 62.3475 63.2412 64.956 58.2966 66.3352C58.3269 66.4251 58.3269 66.5151 58.3269 66.635V72.9613H77.3773C80.5019 72.9613 83.0803 75.4798 83.0803 78.598V85.404C83.05 86.0336 82.5343 86.5433 81.9276 86.5433ZM18.8913 84.2946H80.8052V78.598C80.8052 76.7091 79.2581 75.21 77.3773 75.21H22.3495C20.4384 75.21 18.9216 76.7391 18.9216 78.598V84.2946H18.8913ZM43.6144 72.9913H56.0821V66.9049C51.9565 67.7444 47.7096 67.7444 43.6144 66.9049V72.9913V72.9913ZM49.8634 61.2982C36.2126 61.2982 25.11 50.3246 25.11 36.8326C25.11 23.3405 36.2126 12.3669 49.8634 12.3669C63.5142 12.3669 74.6168 23.3405 74.6168 36.8326C74.6168 50.3246 63.5142 61.2982 49.8634 61.2982ZM49.8634 14.5856C37.426 14.5856 27.3244 24.5698 27.3244 36.8326C27.3244 49.0953 37.426 59.0795 49.8331 59.0795C62.2401 59.0795 72.3417 49.0953 72.3417 36.8326C72.3417 24.5698 62.2705 14.5856 49.8634 14.5856ZM56.5978 49.0654C56.0518 49.0654 55.4754 48.8855 54.99 48.5557L49.8331 44.8678L44.6761 48.5557C43.7054 49.2453 42.4313 49.2453 41.4606 48.5557C40.4899 47.8661 40.0955 46.6668 40.4595 45.5274L42.4313 39.531L37.2743 35.8431C36.3036 35.1535 35.9093 33.9542 36.2733 32.8149C36.6373 31.6756 37.6687 30.956 38.8821 30.956H45.2525L47.2243 24.9595C47.5883 23.8202 48.6197 23.1006 49.8027 23.1006C51.0161 23.1006 52.0172 23.8202 52.4116 24.9595L54.3833 30.956H60.7537C61.9671 30.956 62.9682 31.6756 63.3322 32.8149C63.6962 33.9542 63.3322 35.1236 62.3311 35.8431L57.1742 39.531L59.146 45.5274C59.51 46.6668 59.1156 47.8361 58.1449 48.5557C57.7202 48.9154 57.1742 49.0654 56.5978 49.0654ZM38.9124 33.2047C38.6091 33.2047 38.4878 33.4146 38.4574 33.5345C38.4271 33.6544 38.3967 33.8943 38.6394 34.0742L44.4638 38.2417C44.8581 38.5116 45.0098 39.0213 44.8581 39.471L42.6437 46.217C42.5527 46.5169 42.7043 46.6668 42.8257 46.7567C42.947 46.8467 43.1594 46.9366 43.402 46.7567L49.2264 42.5892C49.6207 42.3193 50.1668 42.3193 50.5611 42.5892L56.3855 46.7567C56.6281 46.9366 56.8405 46.8467 56.9618 46.7567C57.0832 46.6668 57.2348 46.5169 57.1438 46.217L54.9294 39.471C54.7777 39.0213 54.9294 38.5116 55.3237 38.2417L61.1481 34.0742C61.3907 33.8943 61.3604 33.6544 61.3301 33.5345C61.2997 33.4146 61.1784 33.2047 60.8751 33.2047H53.6856C53.2003 33.2047 52.7756 32.9049 52.6239 32.4251L50.4094 25.6791C50.3184 25.3793 50.0758 25.3493 49.9544 25.3493C49.9241 25.3793 49.5904 25.3793 49.4994 25.6791L47.2849 32.4251C47.1333 32.8749 46.7086 33.2047 46.2232 33.2047H38.9124V33.2047Z" fill="#231815"/>
</svg>
