<svg width="75" height="58" viewBox="0 0 75 58" fill="none" xmlns="http://www.w3.org/2000/svg">
<path d="M57.1315 57.9274C52.3875 57.9274 47.8379 56.0179 44.4834 52.6188C41.1289 49.2197 39.2443 44.6095 39.2443 39.8024L39.2443 39.5487L39.2443 39.2587C39.2443 29.8337 53.554 6.19864 55.1639 3.51614L55.6648 2.68246L67.3988 -8.852e-07L61.9968 22.4386C66.1481 23.6326 69.7335 26.307 72.092 29.9688C74.4505 33.6305 75.4231 38.0327 74.8305 42.3639C74.2379 46.6951 72.1201 50.6632 68.8675 53.5367C65.6149 56.4102 61.4467 57.9954 57.1315 58L57.1315 57.9274ZM58.5982 6.85119C54.0549 14.3912 43.895 32.6612 43.895 39.2587L43.895 39.875C43.889 42.4548 44.6173 44.9816 45.9928 47.1525C47.3682 49.3235 49.3323 51.0465 51.6497 52.1149C53.9671 53.1833 56.5394 53.5518 59.0583 53.1763C61.5771 52.8007 63.9357 51.697 65.8512 49.9975C67.7666 48.298 69.1578 46.0749 69.8578 43.5945C70.5579 41.1141 70.5371 38.4818 69.798 36.013C69.0589 33.5443 67.6329 31.3439 65.6908 29.6757C63.7488 28.0075 61.3731 26.9422 58.8487 26.6075L56.2729 26.245L61.1024 6.27118L58.5982 6.85119Z" fill="#F9C14B"/>
<path d="M17.8873 57.9274C13.1434 57.9274 8.59374 56.0179 5.23924 52.6188C1.88474 49.2197 0.000164024 44.6095 0.000163604 39.8024L0.000163582 39.5487L0.000163557 39.2587C0.000162733 29.8337 14.3099 6.19864 15.884 3.51614L16.4206 2.68246L28.1546 -8.852e-07L22.7527 22.4386C26.9039 23.6326 30.4893 26.307 32.8478 29.9688C35.2063 33.6305 36.1789 38.0327 35.5864 42.3639C34.9938 46.6951 32.876 50.6632 29.6234 53.5367C26.3707 56.4102 22.2026 57.9954 17.8873 58L17.8873 57.9274ZM19.3541 6.85119C14.8108 14.3912 4.65084 32.6612 4.65084 39.2587L4.65084 39.875C4.64483 42.4548 5.3732 44.9816 6.74863 47.1525C8.12407 49.3235 10.0882 51.0465 12.4056 52.1149C14.723 53.1833 17.2953 53.5518 19.8142 53.1763C22.333 52.8007 24.6915 51.697 26.607 49.9975C28.5225 48.298 29.9136 46.0749 30.6137 43.5945C31.3137 41.1141 31.2929 38.4818 30.5538 36.013C29.8148 33.5443 28.3887 31.3439 26.4467 29.6757C24.5046 28.0075 22.129 26.9422 19.6046 26.6075L17.0288 26.245L21.8583 6.27118L19.3541 6.85119Z" fill="#F9C14B"/>
</svg>
