<?xml version="1.0" encoding="utf-8"?>
<!-- Generator: Adobe Illustrator 25.3.1, SVG Export Plug-In . SVG Version: 6.00 Build 0)  -->
<svg version="1.1" id="레이어_1" xmlns="http://www.w3.org/2000/svg" xmlns:xlink="http://www.w3.org/1999/xlink" x="0px"
	 y="0px" viewBox="0 0 24 24" style="enable-background:new 0 0 24 24;" xml:space="preserve">
<style type="text/css">
	.st0{fill:#7890BD;}
</style>
<path class="st0" d="M13.5,20.2v-8.8c0-2.4,0.5-4.2,1.4-5.3c0.9-1.1,2.7-1.8,5.3-2.2v4.3c-0.3,0-0.6,0.1-0.9,0.2
	C19,8.6,18.8,8.8,18.6,9c-0.1,0.1-0.2,0.3-0.2,0.7c-0.1,0.3-0.1,0.7-0.1,1.1v1.4h2.9v8.1H13.5z M2.8,20.2v-8.8
	c0-2.4,0.5-4.2,1.4-5.3C5.1,5,6.8,4.2,9.4,3.9v4.3c-0.3,0-0.6,0.1-0.9,0.2C8.3,8.6,8.1,8.8,7.9,9C7.8,9.1,7.7,9.3,7.6,9.7
	c-0.1,0.3-0.1,0.7-0.1,1.1v1.4h2.9v8.1H2.8z"/>
</svg>
