<svg width="43" height="33" viewBox="0 0 43 33" fill="none" xmlns="http://www.w3.org/2000/svg">
<g clip-path="url(#clip0_25_981)">
<path d="M32.7469 33.0409C30.0277 33.0409 27.4199 31.9544 25.4971 30.0204C23.5744 28.0864 22.4941 25.4634 22.4941 22.7284V22.5634V22.419C22.4941 17.0359 30.6963 3.58836 31.5986 2.08273L31.9062 1.6084L38.6319 0.0615234L35.5356 12.849C37.9151 13.5283 39.9702 15.0499 41.322 17.1333C42.6739 19.2167 43.2314 21.7215 42.8917 24.1857C42.5521 26.65 41.3382 28.9078 39.4739 30.5427C37.6095 32.1776 35.2203 33.0795 32.7469 33.0821V33.0409ZM33.5877 3.95962C30.9835 8.24962 25.1598 18.6446 25.1598 22.419V22.7284C25.1603 24.1953 25.5813 25.6311 26.3721 26.8636C27.1629 28.0962 28.2901 29.0734 29.6189 29.6782C30.9476 30.283 32.4215 30.4899 33.864 30.2739C35.3066 30.0579 36.6566 29.4282 37.7526 28.4604C38.8486 27.4925 39.644 26.2274 40.0436 24.8166C40.4432 23.4058 40.4301 21.909 40.0058 20.5055C39.5815 19.102 38.7639 17.8513 37.6511 16.903C36.5383 15.9548 35.1772 15.3493 33.7311 15.159L32.2548 14.9734L35.023 3.60903L33.5877 3.95962Z" fill="#739FBD"/>
<path d="M10.2527 33.041C7.53355 33.041 4.92562 31.9545 3.00286 30.0205C1.08009 28.0866 0 25.4636 0 22.7285V22.5429V22.3985C0 17.0154 8.2022 3.56791 9.10444 2.06229L9.41195 1.58789L16.1378 0.0410156L13.0415 12.8285C15.4209 13.5078 17.476 15.0294 18.8279 17.1129C20.1798 19.1963 20.7373 21.7009 20.3976 24.1652C20.0579 26.6295 18.844 28.8873 16.9796 30.5222C15.1152 32.1571 12.7262 33.0591 10.2527 33.0617V33.041ZM11.0934 3.93917C8.48922 8.22917 2.66569 18.6241 2.66569 22.3985V22.7285C2.66619 24.1955 3.087 25.6312 3.87782 26.8638C4.66864 28.0964 5.79588 29.0736 7.12461 29.6784C8.45334 30.2832 9.9272 30.49 11.3698 30.274C12.8123 30.058 14.1625 29.4284 15.2585 28.4605C16.3544 27.4926 17.1498 26.2276 17.5494 24.8168C17.949 23.4059 17.9358 21.9091 17.5115 20.5056C17.0872 19.1021 16.2697 17.8514 15.1568 16.9032C14.044 15.955 12.6831 15.3494 11.237 15.1591L9.76063 14.9735L12.5288 3.60916L11.0934 3.93917Z" fill="#739FBD"/>
</g>
<defs>
<clipPath id="clip0_25_981">
<rect width="43" height="33" fill="white"/>
</clipPath>
</defs>
</svg>
