<svg width="56" height="43" viewBox="0 0 56 43" fill="none" xmlns="http://www.w3.org/2000/svg">
<g clip-path="url(#clip0_2_58)">
<path d="M42.6743 43C39.133 43 35.7368 41.5843 33.2327 39.0642C30.7287 36.5442 29.3219 33.1264 29.3219 29.5625V29.3744V29.1325C29.3219 22.1181 40.0038 4.62248 41.1788 2.63373L41.5794 2.01566L50.3386 0.0268555L46.2261 16.6357C49.3249 17.5208 52.0013 19.5035 53.7619 22.2182C55.5224 24.933 56.2485 28.1967 55.8061 31.4077C55.3638 34.6188 53.7829 37.5607 51.3549 39.691C48.9269 41.8214 45.8154 42.9966 42.5942 43H42.6743ZM43.6891 5.07937C40.2976 10.6694 32.7134 24.2144 32.7134 29.1056V29.5625C32.7141 31.474 33.2622 33.3448 34.2921 34.9509C35.322 36.557 36.79 37.8303 38.5204 38.6184C40.2509 39.4065 42.1704 39.6759 44.0491 39.3944C45.9277 39.113 47.686 38.2926 49.1133 37.0315C50.5406 35.7703 51.5765 34.1218 52.0969 32.2835C52.6173 30.4451 52.6002 28.4949 52.0475 26.6661C51.4949 24.8373 50.4303 23.2075 48.981 21.972C47.5318 20.7364 45.7594 19.9473 43.876 19.6994L41.9533 19.4575L45.6385 4.59564L43.6891 5.07937Z" fill="#3A8A5C"/>
<path d="M13.3524 43C9.81113 43 6.41489 41.5843 3.91083 39.0642C1.40677 36.5442 0 33.1264 0 29.5625V29.3744V29.1325C0 22.1181 10.6819 4.62248 11.8836 2.63373L12.2575 2.01566L21.0434 0.0268555L16.9843 16.6625C20.0831 17.5476 22.7595 19.5304 24.5201 22.2451C26.2806 24.9599 27.0067 28.2236 26.5643 31.4346C26.122 34.6457 24.5411 37.5876 22.1131 39.7179C19.6851 41.8483 16.5736 43.0235 13.3524 43.0269V43ZM14.4473 5.10627C11.0558 10.6963 3.47163 24.2413 3.47163 29.1325V29.5894C3.47296 31.4995 4.02096 33.3689 5.05011 34.9739C6.07926 36.579 7.546 37.8517 9.27494 38.64C11.0039 39.4283 12.9218 39.6987 14.7995 39.419C16.6771 39.1392 18.4349 38.3212 19.8627 37.0626C21.2905 35.804 22.3279 34.1581 22.8508 32.3219C23.3737 30.4856 23.36 28.5366 22.8114 26.708C22.2627 24.8793 21.2022 23.2485 19.7569 22.0103C18.3115 20.7722 16.5423 19.9792 14.6609 19.7263L12.7382 19.4844L16.3166 4.59564L14.4473 5.10627Z" fill="#3A8A5C"/>
</g>
<defs>
<clipPath id="clip0_2_58">
<rect width="56" height="43" fill="white"/>
</clipPath>
</defs>
</svg>
