<?xml version="1.0" encoding="utf-8"?>
<!-- Generator: Adobe Illustrator 25.3.1, SVG Export Plug-In . SVG Version: 6.00 Build 0)  -->
<svg version="1.1" id="레이어_1" xmlns="http://www.w3.org/2000/svg" xmlns:xlink="http://www.w3.org/1999/xlink" x="0px"
	 y="0px" viewBox="0 0 17.2 91.5" style="enable-background:new 0 0 17.2 91.5;" xml:space="preserve">
<style type="text/css">
	.st0{fill:#39865A;}
</style>
<path class="st0" d="M3,91.5v-8.3h4.4v8.3h2.9v-8.3H14v8.3h2.9V79.7H0.1v11.8H3z M16.9,64.8H0.1v3.5h5.8V71c0,3.4,2.2,6,5.5,6
	c3.3,0,5.5-2.6,5.5-6V64.8z M14,71c0,1.4-1,2.4-2.6,2.4c-1.5,0-2.6-1-2.6-2.4v-2.8H14V71z M8.5,46.1c-4.7,0-8.6,2.7-8.6,7.9
	c0,5.1,3.9,8,8.6,8c4.8,0,8.7-2.9,8.7-8C17.2,48.8,13.3,46.1,8.5,46.1 M2.7,54c0-2.9,2.7-4.4,5.7-4.4c3.2,0,5.8,1.6,5.8,4.4
	c0,2.8-2.6,4.4-5.8,4.4C5.5,58.3,2.7,56.9,2.7,54 M6.9,40c0.9,2,2.6,3.4,4.8,3.4c3.2,0,5.2-2.9,5.2-6.1V31H0.1v3.5h6.3v1.8l-6.3,4.3
	v4.2L6.9,40z M9.3,34.5H14v2.8c0,1.4-0.7,2.6-2.3,2.6c-1.6,0-2.4-1.3-2.4-2.7V34.5z M16.9,23.9H6c-2,0-3.2-1.1-3.2-3
	C2.8,19.1,4.1,18,6,18h10.9v-3.5H5.7c-3.8,0-5.8,2.8-5.8,6.5c0,3.7,2.1,6.5,5.8,6.5h11.2V23.9z M3,11.8V3.5h4.4v8.3h2.9V3.5H14v8.3
	h2.9V0H0.1v11.8H3z"/>
</svg>
