<?xml version="1.0" encoding="utf-8"?>
<!-- Generator: Adobe Illustrator 25.3.1, SVG Export Plug-In . SVG Version: 6.00 Build 0)  -->
<svg version="1.1" id="레이어_1" xmlns="http://www.w3.org/2000/svg" xmlns:xlink="http://www.w3.org/1999/xlink" x="0px"
	 y="0px" viewBox="0 0 24 24" style="enable-background:new 0 0 24 24;" xml:space="preserve">
<style type="text/css">
	.st0{fill:#333333;}
	.st1{fill:#FFFFFF;}
	.st2{fill:#83BFC6;}
	.st3{fill:#5E9B8B;}
	.st4{fill:#F6D057;}
	.st5{fill:#EB5E58;}
</style>
<path class="st0" d="M19.4,13.2c0-0.2,0.1-0.3,0.3-0.3c0.2,0,0.3,0.1,0.3,0.3c0,0.2-0.1,0.3-0.3,0.3c0,0,0,0,0,0
	C19.5,13.5,19.4,13.3,19.4,13.2 M20.5,13.5c-0.2,0-0.3-0.2-0.2-0.3c0-0.2,0.2-0.3,0.3-0.2c0.2,0,0.3,0.2,0.2,0.3
	C20.8,13.4,20.7,13.5,20.5,13.5C20.5,13.5,20.5,13.5,20.5,13.5 M18.6,13.5c-0.1-0.1,0-0.3,0.2-0.4c0.1-0.1,0.3,0,0.4,0.2
	c0.1,0.1,0,0.3-0.2,0.4c0,0-0.1,0-0.1,0C18.7,13.7,18.6,13.6,18.6,13.5 M21.3,13.7L21.3,13.7c-0.1-0.1-0.2-0.2-0.1-0.4
	c0.1-0.1,0.2-0.2,0.4-0.1c0.1,0.1,0.2,0.2,0.1,0.4c-0.1,0.1-0.2,0.2-0.3,0.2C21.3,13.8,21.3,13.7,21.3,13.7 M17.9,14
	c-0.1-0.1-0.1-0.3,0-0.4c0.1-0.1,0.3-0.1,0.4,0c0.1,0.1,0.1,0.3,0,0.4c-0.1,0-0.1,0.1-0.2,0.1C18,14.1,17.9,14.1,17.9,14 M21.9,14.2
	L21.9,14.2c-0.1-0.1-0.1-0.3,0-0.4c0.1-0.1,0.3-0.1,0.4,0c0.1,0.1,0.1,0.3,0,0.4c-0.1,0.1-0.1,0.1-0.2,0.1
	C22,14.2,22,14.2,21.9,14.2 M17.3,14.7c-0.1-0.1-0.2-0.3-0.1-0.4c0.1-0.1,0.3-0.2,0.4-0.1c0.1,0.1,0.2,0.3,0.1,0.4
	c-0.1,0.1-0.1,0.1-0.2,0.1C17.5,14.8,17.4,14.8,17.3,14.7 M22.4,14.8c-0.1-0.1,0-0.3,0.1-0.4c0.1-0.1,0.3,0,0.4,0.1
	c0.1,0.1,0,0.3-0.1,0.4c0,0-0.1,0-0.2,0C22.6,14.9,22.5,14.9,22.4,14.8 M17,15.5c-0.2,0-0.2-0.2-0.2-0.4h0c0,0,0.2-0.2,0.4-0.2
	c0.2,0,0.2,0.2,0.2,0.4C17.4,15.5,17.3,15.6,17,15.5C17.1,15.6,17.1,15.6,17,15.5 M22.7,15.5c0-0.2,0.1-0.3,0.2-0.4
	c0.2,0,0.3,0.1,0.4,0.2c0,0.2-0.1,0.3-0.2,0.4c0,0,0,0-0.1,0C22.9,15.7,22.7,15.6,22.7,15.5 M17,16.5c-0.2,0-0.3-0.2-0.3-0.3
	c0-0.2,0.1-0.3,0.3-0.3c0.2,0,0.3,0.2,0.3,0.3C17.3,16.3,17.1,16.5,17,16.5L17,16.5z M22.8,16.2c0-0.2,0.1-0.3,0.3-0.3
	c0.2,0,0.3,0.1,0.3,0.3c0,0.2-0.1,0.3-0.3,0.3C22.9,16.5,22.8,16.3,22.8,16.2 M16.8,17.1c0-0.2,0-0.3,0.2-0.4c0.2,0,0.3,0,0.4,0.2
	c0,0.2,0,0.3-0.2,0.4c0,0-0.1,0-0.1,0C17,17.3,16.8,17.2,16.8,17.1 M22.9,17.3c-0.2,0-0.2-0.2-0.2-0.4s0.2-0.2,0.4-0.2
	c0.2,0,0.2,0.2,0.2,0.4C23.2,17.3,23.1,17.3,22.9,17.3C22.9,17.3,22.9,17.3,22.9,17.3 M17.2,17.9c-0.1-0.1,0-0.3,0.1-0.4
	c0.1-0.1,0.3,0,0.4,0.1c0.1,0.1,0,0.3-0.1,0.4c0,0-0.1,0-0.2,0C17.3,18.1,17.3,18,17.2,17.9 M22.4,18.1c-0.1-0.1-0.2-0.3-0.1-0.4
	c0.1-0.1,0.3-0.2,0.4-0.1c0.1,0.1,0.2,0.3,0.1,0.4c-0.1,0.1-0.2,0.1-0.2,0.1C22.5,18.1,22.5,18.1,22.4,18.1 M17.8,18.7
	c-0.1-0.1-0.1-0.3,0-0.4c0.1-0.1,0.3-0.1,0.4,0c0.1,0.1,0.1,0.3,0,0.4c-0.1,0.1-0.1,0.1-0.2,0.1C17.9,18.8,17.9,18.7,17.8,18.7
	 M21.8,18.7c-0.1-0.1-0.1-0.3,0.1-0.4v0c0-0.1,0.3-0.1,0.4,0c0.1,0.1,0.1,0.3,0,0.4c-0.1,0-0.1,0.1-0.2,0.1
	C22,18.8,21.9,18.8,21.8,18.7 M18.6,19.2L18.6,19.2c-0.1-0.1-0.2-0.2-0.1-0.4c0.1-0.1,0.2-0.2,0.4-0.1c0.1,0.1,0.2,0.2,0.1,0.4
	c0,0.1-0.2,0.2-0.3,0.2C18.7,19.2,18.6,19.2,18.6,19.2 M21,19.1c-0.1-0.1,0-0.3,0.1-0.4c0.1-0.1,0.3,0,0.4,0.1
	c0.1,0.1,0,0.3-0.1,0.4c0,0-0.1,0-0.1,0C21.2,19.3,21.1,19.2,21,19.1 M19.5,19.5c-0.2,0-0.3-0.2-0.2-0.3c0-0.2,0.2-0.3,0.3-0.2
	s0.3,0.2,0.2,0.3C19.8,19.4,19.7,19.5,19.5,19.5C19.6,19.5,19.5,19.5,19.5,19.5 M20.1,19.2c0-0.2,0.1-0.3,0.3-0.3
	c0.2,0,0.3,0.1,0.3,0.3c0,0.2-0.1,0.3-0.3,0.3c0,0,0,0,0,0C20.3,19.5,20.2,19.4,20.1,19.2"/>
<path class="st0" d="M3.2,13.2c0-0.2,0.1-0.3,0.3-0.3c0.2,0,0.3,0.1,0.3,0.3c0,0.2-0.1,0.3-0.3,0.3c0,0,0,0,0,0
	C3.3,13.5,3.2,13.3,3.2,13.2 M4.3,13.5c-0.2,0-0.3-0.2-0.2-0.3c0-0.2,0.2-0.3,0.3-0.2c0.2,0,0.3,0.2,0.2,0.3
	C4.6,13.4,4.5,13.5,4.3,13.5C4.3,13.5,4.3,13.5,4.3,13.5 M2.4,13.5c-0.1-0.1,0-0.3,0.2-0.4c0.1-0.1,0.3,0,0.4,0.2
	c0.1,0.1,0,0.3-0.2,0.4c0,0-0.1,0-0.1,0C2.5,13.7,2.4,13.6,2.4,13.5 M5.1,13.7c-0.1-0.1-0.2-0.2-0.1-0.4c0.1-0.1,0.2-0.2,0.4-0.1
	c0.1,0.1,0.2,0.2,0.1,0.4c-0.1,0.1-0.2,0.2-0.3,0.2C5.1,13.8,5.1,13.7,5.1,13.7 M1.7,14c-0.1-0.1-0.1-0.3,0-0.4
	c0.1-0.1,0.3-0.1,0.4,0c0.1,0.1,0.1,0.3,0,0.4c-0.1,0-0.1,0.1-0.2,0.1C1.8,14.1,1.7,14.1,1.7,14 M5.7,14.2c-0.1-0.1-0.1-0.3,0-0.4
	c0.1-0.1,0.3-0.1,0.4,0c0.1,0.1,0.1,0.3,0,0.4c-0.1,0.1-0.1,0.1-0.2,0.1C5.8,14.2,5.8,14.2,5.7,14.2 M1.2,14.7
	C1,14.6,1,14.5,1.1,14.3c0.1-0.1,0.3-0.2,0.4-0.1c0.1,0.1,0.2,0.4,0.1,0.4h0c-0.1,0.1-0.1,0.2-0.2,0.2C1.3,14.7,1.2,14.8,1.2,14.7
	 M6.2,14.7L6.2,14.7c-0.1-0.1,0-0.3,0.1-0.4c0.1-0.1,0.3,0,0.4,0.1c0.1,0.1,0,0.3-0.1,0.4c0,0-0.1,0-0.2,0
	C6.4,14.9,6.3,14.9,6.2,14.7 M0.8,15.5c-0.2,0-0.2-0.2-0.2-0.4C0.7,15,0.9,14.9,1,15c0.2,0,0.2,0.2,0.2,0.4
	C1.2,15.5,1.1,15.6,0.8,15.5C0.9,15.6,0.9,15.6,0.8,15.5 M6.5,15.5c0-0.2,0.1-0.3,0.2-0.4c0.2,0,0.3,0.1,0.4,0.2
	c0,0.2-0.1,0.3-0.2,0.4c0,0,0,0-0.1,0C6.7,15.7,6.5,15.6,6.5,15.5 M0.8,16.5c-0.2,0-0.3-0.2-0.3-0.3c0-0.2,0.1-0.3,0.3-0.3
	c0.2,0,0.3,0.2,0.3,0.3C1.1,16.3,1,16.5,0.8,16.5L0.8,16.5z M6.6,16.2L6.6,16.2c0-0.2,0.1-0.3,0.3-0.3c0.2,0,0.3,0.1,0.3,0.3
	c0,0.2-0.1,0.3-0.3,0.3C6.7,16.5,6.6,16.3,6.6,16.2 M0.6,17.1c0-0.2,0-0.3,0.2-0.4c0.2,0,0.3,0,0.4,0.2c0,0.2,0,0.3-0.2,0.4
	c0,0-0.1,0-0.1,0C0.8,17.3,0.7,17.2,0.6,17.1 M6.7,17.3c-0.2,0-0.2-0.2-0.2-0.4s0.2-0.2,0.4-0.2C7,16.8,7.1,17,7,17.1
	C7,17.3,6.9,17.3,6.7,17.3C6.7,17.3,6.7,17.3,6.7,17.3 M1,17.9c-0.1-0.1,0-0.3,0.1-0.4c0.1-0.1,0.3,0,0.4,0.1c0.1,0.1,0,0.3-0.1,0.4
	c0,0-0.1,0-0.2,0C1.2,18.1,1.1,18,1,17.9 M6.2,18.1c-0.1-0.1-0.2-0.3-0.1-0.4c0.1-0.1,0.3-0.2,0.4-0.1c0.1,0.1,0.2,0.3,0.1,0.4
	c-0.1,0.1-0.2,0.1-0.2,0.1C6.3,18.1,6.3,18.1,6.2,18.1 M1.6,18.7c-0.1-0.1-0.1-0.3,0-0.4c0.1-0.1,0.3-0.1,0.4,0
	c0.1,0.1,0.1,0.3,0,0.4c-0.1,0.1-0.1,0.1-0.2,0.1C1.7,18.8,1.7,18.7,1.6,18.7 M5.6,18.7c-0.1-0.1-0.1-0.3,0-0.4
	c0.1-0.1,0.3-0.1,0.4,0c0.1,0.1,0.1,0.3,0,0.4c-0.1,0-0.1,0.1-0.2,0.1C5.7,18.8,5.7,18.8,5.6,18.7 M2.4,19.2
	c-0.1-0.1-0.2-0.2-0.1-0.4c0.1-0.1,0.2-0.2,0.4-0.1c0.1,0.1,0.2,0.2,0.1,0.4c0,0.1-0.2,0.2-0.3,0.2C2.5,19.2,2.5,19.2,2.4,19.2
	 M4.8,19.1c-0.1-0.1,0-0.3,0.1-0.4c0.1-0.1,0.3,0,0.4,0.1c0.1,0.1,0,0.3-0.1,0.4c0,0-0.1,0-0.1,0C5,19.3,4.9,19.2,4.8,19.1
	 M3.3,19.5c-0.2,0-0.3-0.2-0.2-0.3c0-0.2,0.2-0.3,0.3-0.2c0.2,0,0.3,0.2,0.2,0.3C3.6,19.4,3.5,19.5,3.3,19.5
	C3.4,19.5,3.3,19.5,3.3,19.5 M4,19.2c0-0.2,0.1-0.3,0.3-0.3c0.2,0,0.3,0.1,0.3,0.3c0,0.2-0.1,0.3-0.3,0.3c0,0,0,0,0,0
	C4.1,19.5,4,19.4,4,19.2"/>
<path class="st1" d="M19.4,12.9c-0.1,0.5-0.2,1-0.3,1.5c0,0.2-0.1,0.3-0.2,0.5c-0.6,1.5-1.6,2.6-2.8,3.5c-0.1,0.1-0.2,0.2-0.3,0.2
	c-1.2,0.8-2.7,1.2-4.1,1.1c-0.9,0-1.8-0.2-2.7-0.5c-0.5-0.2-0.9-0.4-1.3-0.7c-0.5-0.3-1-0.8-1.5-1.2c-1.8-1.9-2.5-4.6-1.8-7.2
	c0.1-0.3,0.2-0.6,0.3-0.9c0.6-1.5,1.6-2.7,2.8-3.5c0,0,0.1,0,0.1-0.1C8,5.4,8.6,5.1,9.2,4.9c0.9-0.3,2-0.5,3-0.4
	c0.8,0,1.6,0.2,2.3,0.5c0.8,0.3,1.5,0.7,2.1,1.3c0.4,0.3,0.8,0.7,1.1,1.1c0,0,0.1,0.1,0.1,0.1c0.3,0.4,0.5,0.8,0.7,1.2
	C19.3,10,19.5,11.5,19.4,12.9"/>
<path class="st2" d="M19.4,12.9c-0.1,0.5-0.2,1-0.3,1.5c0,0.2-0.1,0.3-0.2,0.5c-0.6,1.5-1.6,2.6-2.8,3.5c-0.1,0.1-0.2,0.2-0.3,0.2
	c-1.2,0.8-2.7,1.2-4.1,1.1c-0.9,0-1.8-0.2-2.7-0.5c-0.5-0.2-0.9-0.4-1.3-0.7c-0.2-0.2-0.5-0.4-0.7-0.6c-1.8-1.9-2.5-4.6-1.8-7.2
	c0.1-0.3,0.2-0.6,0.3-0.9C6,8.4,7,7.2,8.2,6.4c0,0,0.1,0,0.1-0.1C8.8,6,9.4,5.7,10,5.5C11,5.1,12,5,13,5.1c0.8,0,1.6,0.2,2.3,0.5
	c0.5,0.2,0.9,0.4,1.3,0.7c0.4,0.3,0.8,0.7,1.1,1.1c0,0,0.1,0.1,0.1,0.1c0.3,0.4,0.5,0.8,0.7,1.2C19.3,10,19.5,11.5,19.4,12.9"/>
<path class="st0" d="M11.8,4.8c-0.8,0-1.6,0.1-2.4,0.4C8.7,5.4,8.2,5.7,7.6,6c0,0,0,0-0.1,0c-1.2,0.8-2.1,2-2.7,3.4
	C4.8,9.7,4.7,10,4.6,10.3c-0.6,2.5,0,5,1.7,6.9C7.1,18,8,18.6,9.1,19c0.8,0.3,1.7,0.5,2.6,0.5c1.4,0,2.8-0.4,4-1.1
	c0.1-0.1,0.2-0.1,0.3-0.2c1.2-0.8,2.1-2,2.6-3.4c0.1-0.1,0.1-0.3,0.2-0.4c0.2-0.5,0.3-1,0.3-1.5c0.1-1.4-0.1-2.8-0.7-4
	c-0.2-0.4-0.4-0.8-0.7-1.2c0,0-0.1-0.1-0.1-0.1c-0.8-1-1.9-1.8-3.1-2.3C13.7,5,13,4.8,12.2,4.8C12.1,4.8,11.9,4.8,11.8,4.8
	 M11.8,20.1c0,0-0.1,0-0.1,0c-1,0-1.9-0.2-2.8-0.6c-1.1-0.4-2.1-1.1-2.9-2c-1.9-2-2.6-4.8-1.9-7.4c0.1-0.3,0.2-0.6,0.3-0.9
	c0.6-1.5,1.6-2.7,2.9-3.6c0,0,0.1,0,0.1-0.1c0.6-0.4,1.2-0.7,1.8-0.9c1-0.4,2.1-0.5,3.1-0.4c0.8,0,1.7,0.2,2.4,0.5
	C16,5.2,17.2,6.1,18,7.2c0,0,0.1,0.1,0.1,0.1c0.3,0.4,0.6,0.8,0.8,1.3c0.7,1.3,0.9,2.8,0.8,4.3v0c-0.1,0.5-0.2,1.1-0.4,1.6
	c-0.1,0.2-0.1,0.3-0.2,0.5c-0.6,1.5-1.6,2.7-2.9,3.6c-0.1,0.1-0.2,0.2-0.4,0.2C14.7,19.7,13.2,20.1,11.8,20.1"/>
<path class="st1" d="M11.7,19.8c-0.9,0-1.8-0.2-2.7-0.5c-1.1-0.4-2-1.1-2.8-1.9c0,0,0,0,0,0c-1.7-1.9-2.5-4.6-1.8-7.2
	c2.5,0.3,4,1.1,4.4,2.1c0.1,0.4,0.1,0.8-0.1,1.2c-0.7,1.6-0.8,2,0.1,2.5c0,0,0,0,0,0c0.5,0.3,0.8,0.6,0.9,1c0,0.3,0,0.6-0.2,0.9
	C9.2,18.4,11.3,19,11.7,19.8"/>
<path class="st3" d="M11.7,19.8c-0.9,0-1.8-0.2-2.7-0.5c-1.1-0.4-2-1.1-2.8-1.9c0,0,0,0,0,0c-1.2-1.8-1.7-4.1-1.1-6.3
	c1.7,0.2,3,0.7,3.7,1.2c0.1,0.4,0.1,0.8-0.1,1.2c-0.7,1.6-0.8,2,0.1,2.5c0,0,0,0,0,0c0,0.4,0.2,0.6,0.7,0.9c0.1,0,0.1,0.1,0.2,0.1
	c0,0.3,0,0.6-0.2,0.9C9.2,18.4,11.3,19,11.7,19.8"/>
<path class="st0" d="M4.6,10.5c-0.5,2.4,0.1,4.8,1.8,6.6C7.1,18,8,18.6,9.1,19c0.6,0.2,1.2,0.4,1.9,0.5c-0.2-0.2-0.4-0.3-0.7-0.4
	c-0.7-0.4-1.3-0.8-1-1.4c0.2-0.3,0.2-0.5,0.2-0.7c-0.1-0.2-0.3-0.5-0.7-0.7c-1.2-0.6-0.9-1.3-0.3-2.8c0.2-0.4,0.2-0.8,0-1.1
	C8,11.4,6.6,10.8,4.6,10.5 M11.7,20.1L11.7,20.1c-1,0-1.9-0.2-2.8-0.6c-1.1-0.4-2.1-1.1-2.9-2c-1.9-2-2.6-4.8-1.9-7.5
	c0-0.1,0.2-0.2,0.3-0.2c2.4,0.3,4,1.1,4.5,2.1C9.2,12.5,9.2,13,9,13.6c-0.7,1.6-0.7,1.7,0,2.1c0.6,0.3,0.9,0.6,1,1.1
	c0.1,0.4,0,0.8-0.2,1.2c0.1,0.1,0.5,0.4,0.8,0.6c0.5,0.3,1.1,0.7,1.3,1.1c0,0.1,0,0.2,0,0.3C11.8,20.1,11.8,20.1,11.7,20.1"/>
<path class="st1" d="M17.8,7.7c-0.9,1.1,0.4,2.4-0.2,3.7c-0.4,0.8-1.6,2-2.4,1.5c0,0,0,0-0.1,0c-0.3-0.2-0.3-0.7-0.4-1.1
	c-0.1-0.5-0.3-1-1.2-1.2c-1.8-0.6-0.5-1.1-1-2.6c-0.3-1-1.9-1.4-2.8-2.2C9.5,5.4,9.3,5.2,9.2,4.9c0.9-0.3,2-0.5,3-0.4
	c0.8,0,1.6,0.2,2.3,0.5c1.3,0.5,2.4,1.4,3.2,2.4c0,0,0.1,0.1,0.1,0.1C17.9,7.6,17.8,7.6,17.8,7.7"/>
<path class="st3" d="M17.6,11.3c-0.4,0.8-1.6,2-2.4,1.5c-0.1-0.4-0.1-0.8-0.5-1.2c-0.1-0.5-0.3-1-1.2-1.2c-1.8-0.5-0.5-1.1-1-2.6
	c-0.3-1-1.9-1.4-2.8-2.2c1-0.3,2.5-0.6,3.5-0.5c0.8,0,1.6,0.2,2.3,0.5c1.1,0.4,1.6,1.2,2.1,2C16.9,8.8,18.2,10,17.6,11.3"/>
<path class="st0" d="M9.6,5.1c0.3,0.4,0.9,0.8,1.5,1.1c0.8,0.4,1.6,0.9,1.8,1.6c0.2,0.6,0.1,1.1,0,1.5c-0.1,0.5-0.1,0.7,0.7,0.9
	c1.2,0.4,1.3,1.1,1.4,1.7c0,0.3,0.1,0.5,0.2,0.7c0.1,0.1,0.3,0.1,0.5,0.1c0.6-0.2,1.3-0.9,1.6-1.4c0.2-0.5,0.1-1,0-1.6
	C17.2,9,17,8.2,17.5,7.5c-0.8-1-1.9-1.8-3.1-2.3C13.7,5,13,4.8,12.2,4.8C11.3,4.7,10.5,4.8,9.6,5.1 M15.6,13.3
	c-0.2,0-0.4-0.1-0.6-0.2c-0.4-0.3-0.4-0.7-0.5-1.1c-0.1-0.5-0.1-1-1-1.2c-1.3-0.4-1.3-0.9-1.2-1.6c0.1-0.3,0.1-0.7,0-1.2
	c-0.1-0.5-0.8-0.9-1.5-1.3C10,6.2,9.2,5.7,9,5c0-0.1,0-0.2,0-0.2c0-0.1,0.1-0.1,0.2-0.2c1-0.4,2.1-0.5,3.1-0.4
	c0.8,0,1.7,0.2,2.4,0.5C16,5.2,17.2,6.1,18,7.2c0,0,0.1,0.1,0.1,0.1c0.1,0.1,0.1,0.3,0,0.4c-0.5,0.5-0.4,1.1-0.2,1.7
	c0.1,0.6,0.3,1.3,0,2c-0.3,0.7-1.2,1.6-2,1.8C15.8,13.2,15.7,13.3,15.6,13.3"/>
<path class="st3" d="M19.1,14.5c0,0.2-0.1,0.3-0.2,0.5c-0.6,1.5-1.6,2.6-2.8,3.5c-1.3-1.5-1.7-2.4,0.4-2.7
	C18.1,15.6,18.7,14.3,19.1,14.5"/>
<path class="st0" d="M18.5,15.1c-0.4,0.4-1,0.8-2,0.9c-0.7,0.1-1.1,0.2-1.2,0.5c-0.1,0.3,0.2,0.8,0.8,1.5
	C17.2,17.3,18,16.3,18.5,15.1 M16.1,18.7c-0.1,0-0.2,0-0.2-0.1c-1-1.1-1.3-1.8-1.1-2.3c0.2-0.5,0.7-0.7,1.6-0.8
	c0.9-0.1,1.4-0.6,1.8-0.9c0.3-0.3,0.6-0.5,0.9-0.4c0.1,0.1,0.2,0.2,0.2,0.4c-0.1,0.2-0.1,0.3-0.2,0.5c-0.6,1.5-1.6,2.7-2.9,3.6
	C16.3,18.7,16.2,18.7,16.1,18.7"/>
<path class="st1" d="M17.3,19.9C17.3,20,17.3,20,17.3,19.9c-0.3,0.3-0.7,0.4-1.1,0.1L7.1,11l1.3-1.2l0.2,0.2l8.9,8.9
	C17.8,19.1,17.7,19.6,17.3,19.9"/>
<path class="st4" d="M17.3,19.9C17.3,20,17.3,20,17.3,19.9c-0.2,0-0.3-0.1-0.5-0.2l-9.1-9.1l0.8-0.7l8.9,8.9
	C17.8,19.1,17.7,19.6,17.3,19.9"/>
<path class="st0" d="M16.4,19.8c0.2,0.1,0.4,0.2,0.7-0.1c0.1-0.1,0.2-0.3,0.2-0.4c0-0.1,0-0.2-0.1-0.3l-8.9-8.9L7.5,11L16.4,19.8z
	 M16.7,20.6c-0.2,0-0.5-0.1-0.7-0.3c0,0,0,0,0,0l-9.1-9.1c-0.1-0.1-0.1-0.1-0.1-0.2c0-0.1,0-0.2,0.1-0.2l1.3-1.2
	c0.1-0.1,0.3-0.1,0.4,0l9.1,9.1c0.4,0.4,0.4,1.1-0.1,1.5C17.3,20.4,17,20.6,16.7,20.6"/>
<path class="st1" d="M5.4,5.2L5.1,4l0.1-0.1l3.3,3.3c1,1,1,2.7,0,3.7c-1.1,1.1-3,1.1-4.1,0l-3-3l0.1-0.1L2.6,8"/>
<path class="st0" d="M6.4,12c-0.9,0-1.7-0.3-2.3-0.9l-3-3C1,8,1,7.9,1,7.8c0-0.1,0-0.2,0.1-0.2l0.1-0.1c0.1-0.1,0.2-0.1,0.3-0.1
	l1.2,0.3c0.2,0,0.3,0.2,0.2,0.3c0,0.2-0.2,0.3-0.3,0.2L2,8.2l2.5,2.5c1,1,2.7,1,3.7,0c0.4-0.4,0.7-1,0.7-1.6c0-0.6-0.2-1.2-0.7-1.6
	L5.6,4.7l0.1,0.4c0,0.2,0,0.3-0.2,0.4c-0.2,0-0.3,0-0.4-0.2L4.8,4.1c0-0.1,0-0.2,0.1-0.3L5,3.7c0.1-0.1,0.3-0.1,0.4,0L8.7,7
	c1.1,1.1,1.1,3,0,4.1C8.1,11.7,7.3,12,6.4,12"/>
<path class="st0" d="M5.1,9.4c-0.1,0-0.1,0-0.2-0.1L2.2,6.6c-0.1-0.1-0.1-0.3,0-0.4c0.1-0.1,0.3-0.1,0.4,0l2.7,2.7
	c0.1,0.1,0.1,0.3,0,0.4C5.2,9.4,5.1,9.4,5.1,9.4"/>
<path class="st0" d="M6.5,8c-0.1,0-0.1,0-0.2-0.1L3.6,5.2c-0.1-0.1-0.1-0.3,0-0.4c0.1-0.1,0.3-0.1,0.4,0l2.7,2.7
	c0.1,0.1,0.1,0.3,0,0.4C6.7,7.9,6.6,8,6.5,8"/>
<path class="st0" d="M5.8,8.7c-0.1,0-0.1,0-0.2-0.1L2.9,5.9c-0.1-0.1-0.1-0.3,0-0.4c0.1-0.1,0.3-0.1,0.4,0L6,8.2
	c0.1,0.1,0.1,0.3,0,0.4C5.9,8.7,5.9,8.7,5.8,8.7"/>
<path class="st1" d="M16.3,10.4L7.7,20c-0.3,0.3-0.6,0.3-0.8,0.3c-0.6-0.1-1-0.9-0.5-1.5L15,9.2l0.5,0.5L16.3,10.4z"/>
<path class="st4" d="M16.3,10.4L7.7,20c-0.3,0.3-0.6,0.3-0.8,0.3C6.7,20,6.6,19.5,7,19.2l8.5-9.5L16.3,10.4z"/>
<path class="st0" d="M15,9.7L6.6,19c0,0,0,0,0,0c-0.3,0.3-0.2,0.6,0,0.8c0.2,0.2,0.6,0.3,0.9,0l8.4-9.3L15,9.7z M7,20.6
	c-0.3,0-0.6-0.1-0.9-0.4c-0.4-0.4-0.5-1.1,0-1.6L14.8,9C14.8,9,14.9,9,15,8.9c0.1,0,0.2,0,0.2,0.1l1.3,1.2c0.1,0.1,0.1,0.3,0,0.4
	l-8.6,9.6c0,0,0,0,0,0C7.7,20.5,7.3,20.6,7,20.6"/>
<path class="st1" d="M12.5,12c0.7-2.7,3.5-5.4,5.4-6.1c1.8-0.6,2.6-0.2,2.6-0.2l-6.7,7.5L12.5,12z"/>
<path class="st0" d="M12.9,11.9l1,0.9L20,5.8c-0.4,0-1,0-1.9,0.3C16.2,6.8,13.6,9.4,12.9,11.9 M13.8,13.4c-0.1,0-0.1,0-0.2-0.1
	l-1.3-1.2c-0.1-0.1-0.1-0.2-0.1-0.3c0.7-2.7,3.5-5.6,5.6-6.3c1.8-0.6,2.7-0.3,2.8-0.2c0.1,0,0.1,0.1,0.2,0.2c0,0.1,0,0.2-0.1,0.3
	l-6.7,7.5C14,13.4,13.9,13.4,13.8,13.4"/>
<path class="st5" d="M20.1,12.4c-0.6,0-1,0.2-1.4,0.6c-0.7,0.7-0.7,1.9-0.1,2.7l1.5,2l1.5-2c0.6-0.8,0.6-2-0.2-2.7
	C21.1,12.7,20.6,12.4,20.1,12.4"/>
<path class="st0" d="M20.1,12.7c-0.4,0-0.8,0.2-1.2,0.5c-0.6,0.6-0.6,1.6-0.1,2.3l1.2,1.7l1.3-1.7c0.5-0.7,0.5-1.7-0.1-2.4
	C20.9,12.9,20.5,12.7,20.1,12.7 M20.1,18L20.1,18c-0.1,0-0.2,0-0.2-0.1l-1.5-2c-0.7-0.9-0.6-2.2,0.2-3.1c0.4-0.4,1-0.7,1.6-0.7
	c0.6,0,1.1,0.2,1.5,0.6c0.8,0.8,0.9,2.2,0.2,3.1l-1.5,2C20.2,18,20.1,18,20.1,18"/>
<path class="st1" d="M20.9,14.5c0,0.5-0.4,0.8-0.8,0.8c-0.5,0-0.8-0.4-0.8-0.8s0.4-0.8,0.8-0.8C20.5,13.7,20.9,14.1,20.9,14.5"/>
<path class="st0" d="M20.1,14c-0.3,0-0.5,0.2-0.5,0.5c0,0.3,0.2,0.5,0.5,0.5c0.3,0,0.5-0.2,0.5-0.5C20.6,14.2,20.4,14,20.1,14
	 M20.1,15.6c-0.6,0-1.1-0.5-1.1-1.1c0-0.6,0.5-1.1,1.1-1.1s1.1,0.5,1.1,1.1C21.2,15.1,20.7,15.6,20.1,15.6"/>
<path class="st5" d="M3.7,12.4c-0.6,0-1,0.2-1.4,0.6c-0.7,0.7-0.7,1.9-0.1,2.7l1.5,2l1.5-2c0.6-0.8,0.6-2-0.2-2.7
	C4.7,12.7,4.3,12.4,3.7,12.4"/>
<path class="st0" d="M3.7,12.7c-0.4,0-0.8,0.2-1.2,0.5C2,13.9,2,14.9,2.5,15.5l1.2,1.7L5,15.5c0.5-0.7,0.5-1.7-0.1-2.4
	C4.6,12.9,4.2,12.7,3.7,12.7 M3.7,18L3.7,18c-0.1,0-0.2,0-0.2-0.1l-1.5-2c-0.7-0.9-0.6-2.2,0.2-3.1c0.4-0.4,1-0.7,1.6-0.7
	c0.6,0,1.1,0.2,1.5,0.6c0.8,0.8,0.9,2.2,0.2,3.1l-1.5,2C3.9,18,3.8,18,3.7,18"/>
<path class="st1" d="M4.6,14.5c0,0.5-0.4,0.8-0.8,0.8c-0.5,0-0.8-0.4-0.8-0.8s0.4-0.8,0.8-0.8C4.2,13.7,4.6,14.1,4.6,14.5"/>
<path class="st0" d="M3.7,14c-0.3,0-0.5,0.2-0.5,0.5c0,0.3,0.2,0.5,0.5,0.5s0.5-0.2,0.5-0.5C4.3,14.2,4,14,3.7,14 M3.7,15.6
	c-0.6,0-1.1-0.5-1.1-1.1c0-0.6,0.5-1.1,1.1-1.1s1.1,0.5,1.1,1.1C4.9,15.1,4.4,15.6,3.7,15.6"/>
</svg>
