<?xml version="1.0" encoding="utf-8"?>
<!-- Generator: Adobe Illustrator 25.3.1, SVG Export Plug-In . SVG Version: 6.00 Build 0)  -->
<svg version="1.1" id="레이어_1" xmlns="http://www.w3.org/2000/svg" xmlns:xlink="http://www.w3.org/1999/xlink" x="0px"
	 y="0px" viewBox="0 0 24 24" style="enable-background:new 0 0 24 24;" xml:space="preserve">
<style type="text/css">
	.st0{fill:#39865A;}
</style>
<path class="st0" d="M12.3,13.2c-1.9,0-3.4-1.5-3.4-3.4c0-1.9,1.5-3.4,3.4-3.4s3.4,1.5,3.4,3.4C15.8,11.6,14.2,13.2,12.3,13.2
	 M12.3,2.7c-3.9,0-7.1,3.2-7.1,7.1c0,1.9,1.2,4.6,3.4,8.3c1.7,2.7,3.4,4.9,3.4,4.9c0.1,0.1,0.1,0.1,0.2,0.1s0.2,0,0.2-0.1
	c0,0,1.7-2.2,3.4-4.9c2.3-3.6,3.4-6.4,3.4-8.2C19.4,5.8,16.2,2.7,12.3,2.7"/>
</svg>
