<svg width="75" height="78" viewBox="0 0 75 78" fill="none" xmlns="http://www.w3.org/2000/svg">
<g clip-path="url(#clip0_25_1188)">
<path d="M27.846 25.3726C27.1563 25.3706 26.4679 25.4322 25.7897 25.5566C23.2168 26.0331 20.8899 27.3781 19.2048 29.3628C17.5197 31.3475 16.5805 33.8494 16.5468 36.4429C16.5132 39.0365 17.3872 41.5615 19.0202 43.5885C20.6532 45.6155 22.9444 47.0193 25.5041 47.5613C26.961 47.8454 28.4598 47.8454 29.9167 47.5613V47.5613C32.4892 47.083 34.815 45.7365 36.4987 43.7508C38.1825 41.765 39.12 39.2625 39.152 36.6691C39.184 34.0756 38.3084 31.5512 36.6742 29.5253C35.0399 27.4993 32.7479 26.0969 30.188 25.5566C29.4125 25.3995 28.6232 25.319 27.8317 25.316L27.846 25.3726ZM27.8317 49.783C26.896 49.7876 25.9624 49.6927 25.0471 49.4999C21.8056 48.8147 18.9371 46.9593 16.9995 44.2945C15.062 41.6296 14.1939 38.3459 14.5641 35.082C14.9343 31.8181 16.5164 28.8073 19.0026 26.6352C21.4888 24.4631 24.7013 23.285 28.0155 23.33C31.3297 23.375 34.5085 24.64 36.9337 26.8787C39.3589 29.1175 40.8571 32.1701 41.137 35.4428C41.4169 38.7155 40.4583 41.9744 38.4479 44.5856C36.4374 47.1968 33.5187 48.9737 30.2594 49.5707C29.4581 49.7121 28.6457 49.7832 27.8317 49.783V49.783ZM31.7874 57.9622C31.8481 58.0387 31.9203 58.1055 32.0016 58.1603C31.9203 58.1055 31.8481 58.0387 31.7874 57.9622V57.9622ZM25.3898 61.9811C26.9949 62.1367 28.6115 62.1367 30.2166 61.9811C31.2733 58.2594 31.4732 57.4103 31.5161 57.2122C31.5099 57.1747 31.5099 57.1365 31.5161 57.099C31.5578 56.8983 31.6589 56.7144 31.8063 56.5708C31.9538 56.4272 32.1411 56.3302 32.3443 56.2924C34.2575 55.7797 36.0585 54.9209 37.6566 53.7594L38.3563 53.3207C38.5569 53.1993 38.793 53.1485 39.0263 53.1768C39.2596 53.2051 39.4764 53.3106 39.6415 53.4763C41.1218 54.4784 42.6622 55.3905 44.2541 56.2075C45.4961 55.1936 46.6388 54.066 47.6671 52.8395C46.8376 51.2648 45.9174 49.7387 44.911 48.2688C44.7652 48.1379 44.6652 47.9645 44.6254 47.7736C44.5892 47.6423 44.5819 47.5048 44.6041 47.3705C44.6262 47.2362 44.6773 47.1082 44.7539 46.9952C45.9172 45.1465 46.7617 43.1188 47.2529 40.9952C47.3079 40.7708 47.4382 40.5716 47.6224 40.4302C47.8066 40.2888 48.0338 40.2136 48.2668 40.2169C48.4239 40.2169 49.395 40.0471 53.4791 38.915C53.6291 37.3242 53.6291 35.7229 53.4791 34.132C51.772 33.5903 50.0308 33.1601 48.2668 32.8442C48.0659 32.843 47.8689 32.7894 47.6956 32.6886C47.5804 32.6181 47.4806 32.5254 47.4021 32.416C47.3236 32.3066 47.268 32.1828 47.2386 32.0518C46.7383 29.9288 45.8891 27.9018 44.7253 26.0518C44.6028 25.8531 44.5516 25.6191 44.5801 25.388C44.6087 25.1568 44.7152 24.9419 44.8824 24.7783C45.8916 23.3074 46.8166 21.7813 47.6528 20.2075C46.626 18.9801 45.4884 17.8481 44.2541 16.8254C42.6596 17.6461 41.1148 18.558 39.6273 19.5566C39.4902 19.6978 39.3177 19.8003 39.1274 19.8537C38.8588 19.9128 38.5776 19.8672 38.342 19.7264C36.4801 18.5634 34.4329 17.7213 32.2872 17.2358C32.0595 17.1837 31.8569 17.0552 31.7138 16.8721C31.5707 16.689 31.4958 16.4626 31.5018 16.231C31.1643 14.4811 30.7257 12.7519 30.188 11.0518C28.587 10.9106 26.9765 10.9106 25.3755 11.0518C24.828 12.7491 24.3892 14.4789 24.0618 16.231C24.0618 16.4632 23.9829 16.6886 23.8378 16.8709C23.6927 17.0532 23.4899 17.1817 23.2621 17.2358C21.1192 17.7302 19.0735 18.5717 17.2072 19.7264C16.9716 19.8672 16.6904 19.9128 16.4218 19.8537C16.2315 19.8003 16.059 19.6978 15.922 19.5566C14.4417 18.5545 12.9014 17.6424 11.3095 16.8254C10.072 17.8394 8.93403 18.9671 7.91077 20.1934C8.73116 21.7776 9.65169 23.309 10.6669 24.7783C10.8342 24.9423 10.9396 25.1582 10.9656 25.39C10.9916 25.6218 10.9366 25.8554 10.8097 26.0518C9.65842 27.8965 8.81459 29.9129 8.31062 32.0235C8.25893 32.2801 8.11093 32.5077 7.89649 32.6604C7.7766 32.7412 7.6412 32.7967 7.4987 32.8235C7.35621 32.8503 7.20968 32.8478 7.06823 32.816C7.14831 32.8324 7.23092 32.8324 7.31099 32.816C5.53748 33.1373 3.78686 33.5721 2.07013 34.1179C1.92759 35.7043 1.92759 37.3002 2.07013 38.8867C3.78353 39.4272 5.52907 39.862 7.29672 40.1886C7.53165 40.186 7.76039 40.2633 7.94486 40.4074C8.12934 40.5516 8.25842 40.754 8.31062 40.981C8.80851 43.1003 9.65782 45.1231 10.8239 46.9669C10.9647 47.2009 11.0106 47.479 10.9525 47.7452C10.9126 47.9361 10.8126 48.1095 10.6669 48.2405C9.65297 49.7057 8.73248 51.2323 7.91077 52.8113C8.93385 54.042 10.0718 55.1743 11.3095 56.1933C12.8986 55.3714 14.4387 54.4595 15.922 53.4622C16.0872 53.2965 16.304 53.1909 16.5373 53.1626C16.7706 53.1344 17.0067 53.1851 17.2072 53.3065C19.0744 54.4563 21.1201 55.293 23.2621 55.7829C23.3943 55.8121 23.5192 55.8671 23.6296 55.9449C23.74 56.0227 23.8335 56.1216 23.9047 56.2358C24.0046 56.4031 24.0587 56.5933 24.0618 56.7877C24.3885 58.534 24.8224 60.2588 25.3613 61.9527L25.3898 61.9811ZM27.8032 64.1179C26.9178 64.1179 26.0324 64.0754 25.1471 63.9905C24.7775 63.9708 24.4216 63.8454 24.1226 63.6294C23.8235 63.4134 23.594 63.1161 23.462 62.7735C22.648 59.9433 22.2767 58.415 22.034 57.6084C20.1494 57.11 18.3392 56.3678 16.6503 55.4008C15.9506 55.8678 14.6225 56.6603 12.0092 58.1037C11.6682 58.2532 11.2906 58.3006 10.9227 58.2403C10.5549 58.1799 10.2128 58.0145 9.93857 57.7641C8.58733 56.6656 7.34849 55.438 6.23997 54.099C5.98968 53.8257 5.82529 53.4861 5.76694 53.1216C5.7086 52.7571 5.75885 52.3837 5.91153 52.0471C7.33956 49.4716 8.16781 48.1414 8.63906 47.448C7.65619 45.7762 6.90224 43.9822 6.39706 42.1132C5.58308 41.9575 4.06938 41.5896 1.18476 40.783C0.836896 40.6512 0.535399 40.4216 0.317251 40.1225C0.0991036 39.8234 -0.0262131 39.4677 -0.0433401 39.099C-0.21472 37.372 -0.21472 35.6325 -0.0433401 33.9056C-0.0262131 33.5369 0.0991036 33.1812 0.317251 32.8821C0.535399 32.5829 0.836896 32.3535 1.18476 32.2217C4.04082 31.4151 5.5688 31.0471 6.39706 30.8915C6.9021 29.0135 7.65599 27.21 8.63906 25.5282C8.16781 24.849 7.36812 23.5329 5.91153 20.9292V20.8443C5.78862 20.5137 5.75823 20.1563 5.8236 19.8101C5.88896 19.4638 6.04765 19.1415 6.28282 18.8773C7.40003 17.5414 8.64328 16.3141 9.99569 15.2122C10.2623 14.9792 10.5875 14.8219 10.937 14.7571C11.2864 14.6924 11.6471 14.7225 11.9806 14.8443H12.0663C14.6653 16.2594 16.0077 17.0943 16.6931 17.5612C18.3827 16.5921 20.1925 15.8453 22.0768 15.3395C22.2339 14.5329 22.6052 13.033 23.5048 10.1745C23.4986 10.1465 23.4986 10.1176 23.5048 10.0896C23.6581 9.77063 23.893 9.49693 24.1861 9.29584C24.4792 9.09475 24.8204 8.97327 25.1756 8.94336C26.9187 8.7806 28.6734 8.7806 30.4165 8.94336C30.7885 8.96033 31.1475 9.0845 31.4493 9.30068C31.7512 9.51685 31.9828 9.8156 32.1158 10.1603C32.9298 12.9905 33.3011 14.5188 33.4582 15.3395C35.3458 15.829 37.1571 16.5717 38.8418 17.5471C39.5416 17.0801 40.8696 16.2735 43.4829 14.8301C43.8258 14.6829 44.2039 14.6353 44.5731 14.693C44.9422 14.7506 45.2872 14.911 45.5679 15.1556C46.9126 16.2663 48.1507 17.4981 49.2664 18.8349C49.4991 19.1034 49.6549 19.4288 49.7177 19.7772C49.7805 20.1256 49.7479 20.4842 49.6234 20.8159C48.1954 23.4056 47.3529 24.7216 46.8816 25.415C47.8596 27.0893 48.6133 28.8827 49.1236 30.7499C49.9376 30.9056 51.4656 31.2735 54.3359 32.0801H54.4216C54.7437 32.2339 55.019 32.4695 55.2196 32.7627C55.4202 33.056 55.5391 33.3965 55.564 33.7499C55.7354 35.4769 55.7354 37.2164 55.564 38.9434C55.5449 39.3117 55.4169 39.6663 55.196 39.9632C54.9751 40.26 54.6711 40.4861 54.3217 40.6132C51.4656 41.4339 49.9376 41.8019 49.1094 42.0283C48.6154 43.8988 47.8659 45.6937 46.8816 47.3631C47.3672 48.0565 48.1669 49.3726 49.6234 51.9622C49.7761 52.2997 49.825 52.6744 49.7641 53.0393C49.7031 53.4042 49.535 53.7433 49.2807 54.0141C48.1685 55.3497 46.93 56.577 45.5821 57.6792C45.3064 57.9272 44.9636 58.0901 44.5958 58.1479C44.228 58.2058 43.8512 58.156 43.5115 58.0047C40.9125 56.5896 39.5844 55.7688 38.8847 55.3159H38.7847C37.146 56.4665 35.3404 57.3635 33.4296 57.9763C33.4232 58.0138 33.4232 58.0521 33.4296 58.0896C33.2011 58.9669 32.7727 60.4953 32.173 62.632C32.0369 62.9748 31.8045 63.2716 31.5032 63.4873C31.202 63.703 30.8447 63.8285 30.4736 63.849C29.6025 63.9339 28.7457 63.9763 27.8746 63.9763" fill="#739FBD"/>
<path d="M50.3808 76.3581C49.4792 76.3462 48.6149 75.9993 47.9591 75.3861C47.3033 74.7729 46.9036 73.938 46.8393 73.0468L45.0686 49.2025C42.3839 48.4525 39.1994 46.3722 38.928 43.3864C38.928 43.3864 37.5 24.8203 37.5 24.8062V24.3958C37.4974 22.2133 38.3431 20.1137 39.8614 18.5327C41.3798 16.9517 43.4542 16.0108 45.6541 15.9053H65.1323C67.3373 16.0037 69.4188 16.9415 70.9432 18.5232C72.4676 20.105 73.3172 22.2087 73.3149 24.3958C73.3211 24.4333 73.3211 24.4716 73.3149 24.5091L71.8869 43.344C71.7682 44.1979 71.469 45.0174 71.0088 45.749C70.5487 46.4805 69.9379 47.1076 69.2165 47.5893C68.1745 48.3547 66.9977 48.9209 65.7464 49.2591L63.9756 73.1034C63.9111 73.997 63.5094 74.8339 62.8506 75.4475C62.1917 76.061 61.3239 76.4063 60.4198 76.4147L50.3808 76.3581Z" fill="white"/>
<path d="M65.118 14.2646H45.654C43.0299 14.3886 40.5554 15.5114 38.7463 17.399C36.9371 19.2867 35.9331 21.7934 35.9434 24.3967C35.9434 24.524 35.9434 24.708 35.9434 24.9486L37.3715 43.4721C37.5147 44.5418 37.8854 45.5692 38.4589 46.4864C39.0325 47.4036 39.7959 48.1897 40.6988 48.7929C41.5779 49.4372 42.538 49.9653 43.5548 50.3636L45.2542 73.1042C45.3473 74.4085 45.9322 75.6303 46.8925 76.5269C47.8529 77.4235 49.1185 77.9294 50.4379 77.9439H60.5341C61.8559 77.9329 63.1251 77.4286 64.0885 76.5317C65.0519 75.6347 65.6387 74.4109 65.7321 73.1042L67.36 50.4203C68.3769 50.0219 69.337 49.4939 70.2161 48.8496C71.1193 48.2435 71.8828 47.4547 72.4563 46.5352C73.0298 45.6157 73.4003 44.5862 73.5434 43.5146V43.5146L74.9714 24.6797C74.9714 24.5948 74.9714 24.5099 74.9714 24.4392C74.9809 21.8219 73.965 19.303 72.1377 17.4131C70.3104 15.5232 67.8144 14.4097 65.1752 14.3071H65.0895L65.118 14.2646ZM65.0895 17.5901C66.8562 17.6702 68.5236 18.4226 69.7446 19.6905C70.9656 20.9584 71.646 22.6441 71.6441 24.3967L70.2161 43.2316C70.0162 45.4674 66.9602 47.4769 64.504 47.7882H64.1755L62.3048 72.8778C62.2696 73.3575 62.0557 73.807 61.7047 74.1391C61.3537 74.4712 60.8907 74.6623 60.4056 74.675H50.3094C49.8268 74.6588 49.3672 74.4662 49.0192 74.1344C48.6712 73.8027 48.4594 73.3551 48.4244 72.8778L46.5537 47.7882H46.2252C43.769 47.4345 40.713 45.4675 40.5131 43.2458L39.0851 24.7221V24.3967C39.0684 22.6381 39.7407 20.9417 40.9606 19.6643C42.1804 18.3869 43.8526 17.6281 45.6255 17.5476L65.0895 17.5901Z" fill="white"/>
<path d="M65.0614 18.5656H45.7259C44.2283 18.6493 42.821 19.302 41.7969 20.388C40.7729 21.474 40.2109 22.9095 40.228 24.3957V24.6646L41.656 43.1599C41.7988 44.7873 44.4121 46.4712 46.497 46.7826H46.7541C46.9965 46.8047 47.2234 46.9102 47.3956 47.0808C47.5677 47.2514 47.6742 47.4762 47.6965 47.7165L49.5672 72.8202C49.5837 73.04 49.6793 73.2466 49.8366 73.4025C49.9938 73.5583 50.2023 73.653 50.4241 73.6693H60.5202C60.7445 73.6563 60.9564 73.563 61.1166 73.4069C61.2768 73.2507 61.3744 73.0423 61.3913 72.8202L63.262 47.7165C63.2844 47.4762 63.3908 47.2514 63.563 47.0808C63.7351 46.9102 63.9621 46.8047 64.2045 46.7826H64.4616C66.5322 46.4712 69.1598 44.7873 69.3026 43.1457L70.7306 24.3533C70.7361 22.8674 70.1632 21.4366 69.1312 20.3586C68.0992 19.2806 66.6876 18.6384 65.1899 18.5656H65.0614ZM60.5631 75.7354H50.4669C49.7378 75.7003 49.0463 75.4039 48.521 74.9016C47.9957 74.3993 47.6723 73.725 47.6109 73.0042L45.7973 48.7071C42.9412 48.0986 39.9281 45.8769 39.6996 43.3297L38.2716 24.792V24.3957C38.2621 22.3753 39.0416 20.4295 40.447 18.9656C41.8524 17.5018 43.7747 16.6333 45.8116 16.542H65.2327C67.2821 16.6191 69.2209 17.4833 70.6388 18.9517C72.0567 20.4202 72.8424 22.3776 72.8298 24.4099V24.4099L71.4018 43.2448C71.1733 45.8486 68.1602 48.042 65.3041 48.6505L63.4905 72.9476C63.4291 73.6685 63.1057 74.3427 62.5804 74.845C62.0551 75.3473 61.3636 75.6436 60.6345 75.6788" fill="#739FBD"/>
<path d="M55.4353 2.03738C54.4157 2.03738 53.419 2.33699 52.5712 2.89832C51.7235 3.45965 51.0627 4.25749 50.6725 5.19094C50.2823 6.1244 50.1802 7.15153 50.3791 8.14248C50.5781 9.13343 51.0691 10.0437 51.79 10.7581C52.511 11.4726 53.4295 11.9591 54.4296 12.1562C55.4296 12.3533 56.4661 12.2521 57.4081 11.8655C58.3501 11.4788 59.1552 10.8241 59.7217 9.98399C60.2881 9.1439 60.5905 8.15621 60.5905 7.14585C60.5905 5.79099 60.0473 4.4916 59.0805 3.53358C58.1138 2.57555 56.8025 2.03738 55.4353 2.03738ZM55.4353 14.2921C54.006 14.3061 52.6048 13.8989 51.4095 13.1223C50.2142 12.3456 49.2788 11.2345 48.722 9.93C48.1652 8.6255 48.0122 7.1864 48.2823 5.79553C48.5525 4.40467 49.2336 3.12473 50.2392 2.11822C51.2449 1.11172 52.5297 0.424107 53.9305 0.142585C55.3313 -0.138937 56.785 -0.00161392 58.1069 0.537125C59.4288 1.07586 60.5593 1.99173 61.3549 3.1684C62.1505 4.34508 62.5753 5.72946 62.5754 7.14585C62.5848 8.08095 62.4071 9.00863 62.0525 9.87524C61.6979 10.7419 61.1735 11.5303 60.5095 12.1948C59.8456 12.8593 59.0553 13.3868 58.1843 13.7468C57.3133 14.1068 56.379 14.2921 55.4353 14.2921Z" fill="#739FBD"/>
<path d="M55.437 75.7363C55.163 75.7363 54.9 75.6295 54.7049 75.4388C54.5098 75.2481 54.3983 74.9889 54.3945 74.7174V46.0617C54.4244 45.8104 54.5463 45.5787 54.7371 45.4105C54.928 45.2423 55.1745 45.1494 55.4299 45.1494C55.6852 45.1494 55.9317 45.2423 56.1226 45.4105C56.3134 45.5787 56.4353 45.8104 56.4652 46.0617V74.7174C56.4652 74.9876 56.3568 75.2467 56.164 75.4378C55.9712 75.6289 55.7097 75.7363 55.437 75.7363Z" fill="#739FBD"/>
<path d="M46.6254 48.8492C46.3647 48.8498 46.1134 48.7522 45.9225 48.5761C45.7316 48.4001 45.6154 48.1588 45.5973 47.901L44.0264 26.9718C44.0056 26.7016 44.0939 26.4342 44.272 26.2286C44.4501 26.0229 44.7034 25.8957 44.9761 25.875C45.2488 25.8544 45.5185 25.942 45.7261 26.1184C45.9336 26.2949 46.062 26.5459 46.0828 26.8161L47.6536 47.7453C47.6733 48.0172 47.5838 48.2857 47.4046 48.4925C47.2254 48.6992 46.971 48.8275 46.6968 48.8492H46.6254Z" fill="#739FBD"/>
<path d="M64.2466 48.8491C63.9724 48.8274 63.718 48.6992 63.5388 48.4924C63.3596 48.2857 63.2701 48.0172 63.2898 47.7453L64.8606 26.8161C64.8588 26.6746 64.8867 26.5343 64.9426 26.4041C64.9985 26.2739 65.0812 26.1567 65.1853 26.0599C65.2894 25.9631 65.4128 25.8889 65.5475 25.8419C65.6822 25.795 65.8252 25.7763 65.9676 25.7872C66.1099 25.798 66.2485 25.8381 66.3743 25.9049C66.5002 25.9717 66.6106 26.0638 66.6985 26.1752C66.7865 26.2867 66.8501 26.415 66.8853 26.5522C66.9204 26.6893 66.9263 26.8322 66.9027 26.9718L65.3462 47.901C65.328 48.1587 65.2118 48.4001 65.0209 48.5761C64.83 48.7522 64.5787 48.8498 64.318 48.8491" fill="#739FBD"/>
</g>
<defs>
<clipPath id="clip0_25_1188">
<rect width="75" height="78" fill="white"/>
</clipPath>
</defs>
</svg>
