<svg width="52" height="44" viewBox="0 0 52 44" fill="none" xmlns="http://www.w3.org/2000/svg">
<g clip-path="url(#clip0_25_1311)">
<path d="M33.6971 0.796875H0.796875V42.4505H33.6971V0.796875Z" fill="white"/>
<path d="M1.59355 41.6426H32.9002V1.59355H1.59355V41.6426ZM33.6859 43.2472H0.796777C0.692143 43.2472 0.588521 43.2266 0.491852 43.1866C0.395182 43.1465 0.30735 43.0878 0.233363 43.0138C0.159375 42.9398 0.100696 42.852 0.0606541 42.7553C0.0206123 42.6586 0 42.555 0 42.4504V0.796743C0 0.585425 0.0839384 0.382787 0.233363 0.233363C0.382787 0.0839384 0.585459 0 0.796777 0H33.6969C33.8016 0 33.9052 0.0206123 34.0019 0.0606541C34.0985 0.100696 34.1864 0.159375 34.2604 0.233363C34.3343 0.30735 34.3931 0.395182 34.4331 0.491852C34.4731 0.588521 34.4937 0.692109 34.4937 0.796743V42.4504C34.4937 42.555 34.4731 42.6586 34.4331 42.7553C34.3931 42.852 34.3343 42.9398 34.2604 43.0138C34.1864 43.0878 34.0985 43.1465 34.0019 43.1866C33.9052 43.2266 33.8016 43.2472 33.6969 43.2472" fill="#739FBD"/>
<path d="M26.0732 1.59355H8.4335C8.22218 1.59355 8.01951 1.50961 7.87008 1.36019C7.72066 1.21077 7.63672 1.00806 7.63672 0.796743C7.63672 0.585425 7.72066 0.382787 7.87008 0.233363C8.01951 0.0839384 8.22218 0 8.4335 0H26.0732C26.2845 0 26.4872 0.0839384 26.6366 0.233363C26.7861 0.382787 26.87 0.585425 26.87 0.796743C26.87 1.00806 26.7861 1.21077 26.6366 1.36019C26.4872 1.50961 26.2845 1.59355 26.0732 1.59355" fill="#739FBD"/>
<path d="M22.5431 9.92656C22.4545 9.92656 8.27857 9.86016 8.26751 9.78269C8.09821 9.77695 7.93776 9.70567 7.82007 9.58384C7.70237 9.46202 7.63662 9.29921 7.63672 9.12982C7.63672 8.9185 7.72066 8.71579 7.87008 8.56637C8.01951 8.41695 8.22218 8.33301 8.4335 8.33301H26.0732C26.2845 8.33301 26.4872 8.41695 26.6366 8.56637C26.7861 8.71579 26.87 8.9185 26.87 9.12982C26.8697 9.17963 26.8534 9.22803 26.8235 9.26788C26.7936 9.30772 26.7517 9.33693 26.704 9.35116C26.704 9.67208 22.875 9.92656 22.5431 9.92656" fill="#739FBD"/>
<path d="M19.0111 18.2599C18.8451 18.2599 8.13289 18.1271 8.11075 17.9722C7.97965 17.9636 7.85693 17.9048 7.76824 17.8078C7.67955 17.7109 7.63178 17.5834 7.63491 17.4521C7.63491 17.3474 7.65552 17.2438 7.69556 17.1471C7.73561 17.0505 7.79429 16.9626 7.86827 16.8886C7.94226 16.8146 8.03009 16.756 8.12676 16.7159C8.22343 16.6759 8.32705 16.6553 8.43169 16.6553H26.0714C26.2818 16.6581 26.4828 16.743 26.6317 16.8918C26.7805 17.0406 26.8653 17.2417 26.8682 17.4521C26.8692 17.543 26.8372 17.6311 26.7782 17.7003C26.7192 17.7695 26.6372 17.8149 26.5473 17.8283C26.5473 18.0718 19.2546 18.2599 19.0111 18.2599Z" fill="#739FBD"/>
<path d="M15.4808 26.5809C15.2373 26.5809 7.97785 26.3927 7.95572 26.1603C7.8658 26.147 7.78375 26.1015 7.72476 26.0323C7.66576 25.9632 7.6338 25.875 7.63479 25.784C7.63479 25.6794 7.6554 25.5758 7.69544 25.4792C7.73548 25.3825 7.79416 25.2947 7.86815 25.2207C7.94214 25.1467 8.02997 25.088 8.12664 25.048C8.22331 25.0079 8.32693 24.9873 8.43156 24.9873H26.0713C26.2826 24.9873 26.4853 25.0712 26.6347 25.2207C26.7841 25.3701 26.8681 25.5727 26.8681 25.784C26.8683 25.9164 26.8181 26.0439 26.7276 26.1405C26.6372 26.2372 26.5133 26.2958 26.3811 26.3042C26.3811 26.4591 15.6468 26.5809 15.4808 26.5809Z" fill="#739FBD"/>
<path d="M11.9959 34.9139C11.675 34.9139 7.86817 34.6704 7.83497 34.3495C7.78745 34.3328 7.74664 34.3011 7.7187 34.2592C7.69075 34.2173 7.67721 34.1674 7.68006 34.1171C7.68006 34.0125 7.70067 33.9088 7.74072 33.8122C7.78076 33.7155 7.83944 33.6277 7.91342 33.5537C7.98741 33.4797 8.07524 33.421 8.17191 33.381C8.26858 33.3409 8.3722 33.3203 8.47684 33.3203H26.1166C26.3279 33.3203 26.5305 33.4043 26.6799 33.5537C26.8294 33.7031 26.9133 33.9058 26.9133 34.1171C26.9134 34.2884 26.8461 34.4528 26.726 34.5749C26.6059 34.6971 26.4427 34.7671 26.2715 34.77C26.2715 34.8475 12.0845 34.9139 11.9959 34.9139" fill="#739FBD"/>
<path d="M27.3899 31.794C27.2212 31.7951 27.0539 31.7624 26.898 31.6978C26.7422 31.6332 26.6008 31.538 26.4824 31.4178L21.7793 26.7146C21.5436 26.4715 21.4125 26.1457 21.4141 25.8071C21.4159 25.4692 21.5465 25.1447 21.7793 24.8997L43.7127 2.97731C43.9534 2.73673 44.2798 2.60156 44.6202 2.60156C44.9605 2.60156 45.2869 2.73673 45.5276 2.97731L50.2308 7.66942C50.4705 7.91073 50.6057 8.2367 50.607 8.57686C50.6088 8.74569 50.5764 8.9131 50.5117 9.06905C50.4471 9.22501 50.3515 9.36629 50.2308 9.48431L28.2973 31.4178C28.1793 31.5385 28.0381 31.634 27.8821 31.6987C27.7262 31.7633 27.5587 31.7958 27.3899 31.794" fill="#5C51A0"/>
<path d="M44.6189 1.37178C44.2815 1.36947 43.947 1.43489 43.6352 1.56415C43.3235 1.6934 43.0409 1.88386 42.804 2.12429L20.8485 23.9914C20.37 24.4742 20.1016 25.1265 20.1016 25.8062C20.1016 26.486 20.37 27.1382 20.8485 27.6211L25.5516 32.3243C26.0356 32.8018 26.6867 33.0718 27.3665 33.0768C28.0473 33.0765 28.7001 32.8058 29.1814 32.3243L51.1149 10.3909C51.5933 9.90801 51.8617 9.25573 51.8617 8.57597C51.8617 7.89621 51.5933 7.24394 51.1149 6.76108L46.4117 2.06897C46.1749 1.82854 45.8922 1.63809 45.5805 1.50883C45.2687 1.37957 44.9342 1.31415 44.5968 1.31647L44.6189 1.37178ZM44.5968 3.88386L49.3 8.57597L27.3665 30.5094L22.6744 25.8062L44.5968 3.88386Z" fill="white"/>
<path d="M19.2114 35.2793C18.9992 35.2775 18.7907 35.2235 18.6042 35.1222C18.4178 35.0208 18.2591 34.8752 18.1421 34.6981C18.0251 34.521 17.9535 34.3179 17.9335 34.1067C17.9135 33.8954 17.9457 33.6824 18.0274 33.4865L21.5132 25.3085C21.5948 25.1155 21.722 24.9452 21.884 24.8122C22.0459 24.6792 22.2376 24.5875 22.4428 24.5449H22.6973C23.0375 24.5463 23.3634 24.6815 23.6048 24.9212L28.2969 29.6244C28.4381 29.7685 28.5436 29.9436 28.6051 30.1357C28.6666 30.3278 28.6823 30.5317 28.651 30.731C28.6121 30.9374 28.5231 31.1311 28.3919 31.2951C28.2607 31.4591 28.0913 31.5884 27.8985 31.6716L19.7094 35.1465C19.5543 35.2216 19.3838 35.2595 19.2114 35.2571" fill="#5C51A0"/>
<path d="M22.6968 23.2393C22.1947 23.2477 21.7053 23.3989 21.2859 23.6752C20.8665 23.9515 20.5345 24.3415 20.3286 24.7996L16.8427 32.9887C16.6789 33.3798 16.6141 33.8052 16.654 34.2274C16.6939 34.6495 16.8374 35.0553 17.0715 35.4088C17.3057 35.7622 17.6235 36.0525 17.9967 36.2539C18.3698 36.4552 18.7869 36.5614 19.2109 36.5631C19.5575 36.5639 19.9005 36.4922 20.2179 36.3528L28.396 32.867C28.7828 32.7037 29.1235 32.4477 29.3879 32.1215C29.6524 31.7953 29.8324 31.409 29.912 30.9968C29.9942 30.5844 29.9725 30.1581 29.8488 29.7563C29.7252 29.3545 29.5035 28.9898 29.2038 28.6949L24.5117 23.9918C24.0297 23.5112 23.3774 23.2408 22.6968 23.2393V23.2393ZM22.6968 25.8067L27.3889 30.5098L19.2109 33.9957L22.6968 25.8067Z" fill="white"/>
<path d="M44.6192 3.88477L22.6968 25.8182L19.2109 33.9962L27.3889 30.5103L49.3224 8.58795L44.6192 3.88477Z" fill="white"/>
<path d="M23.3725 26.2606L20.7166 32.4799L26.9358 29.835L48.1942 8.57668L44.6198 5.01329L23.3725 26.2606ZM19.2115 34.7928C18.9984 34.7957 18.7924 34.7164 18.6361 34.5715C18.5223 34.4579 18.4456 34.3125 18.416 34.1545C18.3864 33.9965 18.4052 33.8333 18.4701 33.6862L21.9339 25.5303C21.9757 25.4255 22.0399 25.3311 22.122 25.2536L44.0886 3.32018C44.2372 3.17683 44.4355 3.09668 44.642 3.09668C44.8484 3.09668 45.0467 3.17683 45.1953 3.32018L49.8985 8.01229C50.0448 8.16407 50.1279 8.36587 50.1308 8.57668C50.1311 8.68142 50.1107 8.78514 50.0708 8.88198C50.031 8.97882 49.9724 9.06689 49.8985 9.14108L27.965 31.0745C27.8939 31.1485 27.8068 31.2052 27.7105 31.2405L19.5325 34.7264C19.4347 34.7694 19.3293 34.7919 19.2226 34.7928" fill="#739FBD"/>
<path d="M39.6609 24.0029C39.5561 24.0038 39.4521 23.9837 39.3552 23.9438C39.2583 23.9038 39.1703 23.8449 39.0965 23.7705C38.9531 23.622 38.873 23.4236 38.873 23.2172C38.873 23.0108 38.9531 22.8124 39.0965 22.6639L47.1528 14.6076L40.513 7.96783C40.367 7.82067 40.2851 7.62179 40.2851 7.41451C40.2851 7.20724 40.367 7.00836 40.513 6.8612C40.6615 6.71785 40.8599 6.6377 41.0663 6.6377C41.2727 6.6377 41.4711 6.71785 41.6196 6.8612L48.8017 14.0432C48.948 14.195 49.0311 14.3968 49.0341 14.6076C49.0322 14.8187 48.949 15.0208 48.8017 15.1719L40.181 23.7927C40.0305 23.9409 39.8279 24.0243 39.6166 24.025" fill="#739FBD"/>
<path d="M28.296 32.3916L21.5787 35.1139L21.3242 37.3272H28.6723L28.296 32.3916Z" fill="white"/>
</g>
<defs>
<clipPath id="clip0_25_1311">
<rect width="51.89" height="43.2472" fill="white"/>
</clipPath>
</defs>
</svg>
