<svg width="49" height="49" viewBox="0 0 49 49" fill="none" xmlns="http://www.w3.org/2000/svg">
<g clip-path="url(#clip0_25_1327)">
<path d="M9.11502 24.5599C8.99748 24.5586 8.88171 24.5311 8.77616 24.4794C8.67061 24.4276 8.57793 24.353 8.50491 24.2608C8.37723 24.1003 8.31819 23.8958 8.34059 23.6919C8.363 23.488 8.46505 23.3012 8.62455 23.1723L19.6303 14.3318C19.7464 14.2376 19.8876 14.1795 20.0364 14.1646C20.1852 14.1497 20.3351 14.1787 20.4676 14.2481L30.4445 19.2126L43.6872 5.96988C43.8371 5.84771 44.0271 5.78571 44.2201 5.79603C44.4132 5.80635 44.5955 5.88828 44.7314 6.02574C44.8674 6.16319 44.9473 6.34631 44.9555 6.53947C44.9637 6.73263 44.8997 6.92193 44.7759 7.07043L31.1504 20.7079C31.0352 20.8233 30.8871 20.9002 30.7264 20.9281C30.5658 20.9559 30.4005 20.9334 30.2531 20.8635L20.2044 15.8391L9.58159 24.3685C9.44838 24.4831 9.27877 24.5468 9.10305 24.548" fill="#739FBD"/>
<path d="M6.98678 42.1563H11.2096V32.8374H6.98678V42.1563ZM11.9872 43.7115H6.20921C6.00298 43.7115 5.8052 43.6295 5.65937 43.4837C5.51355 43.3379 5.43164 43.1402 5.43164 42.9339V32.1076C5.43164 31.9014 5.51355 31.7036 5.65937 31.5578C5.8052 31.412 6.00298 31.3301 6.20921 31.3301H11.9872C12.1934 31.3301 12.3912 31.412 12.537 31.5578C12.6828 31.7036 12.7648 31.9014 12.7648 32.1076V42.9818C12.7648 43.188 12.6828 43.3857 12.537 43.5316C12.3912 43.6774 12.1934 43.7594 11.9872 43.7594" fill="#739FBD"/>
<path d="M28.4712 42.1568H32.694V29.2729H28.4712V42.1568ZM33.4716 43.7119H27.6936C27.4874 43.7119 27.2896 43.63 27.1437 43.4842C26.9979 43.3384 26.916 43.1406 26.916 42.9344V28.4954C26.916 28.2892 26.9979 28.0913 27.1437 27.9455C27.2896 27.7997 27.4874 27.7178 27.6936 27.7178H33.4716C33.6778 27.7178 33.8756 27.7997 34.0214 27.9455C34.1672 28.0913 34.2492 28.2892 34.2492 28.4954V42.9822C34.2492 43.1884 34.1672 43.3862 34.0214 43.532C33.8756 43.6778 33.6778 43.7598 33.4716 43.7598" fill="#739FBD"/>
<path d="M17.729 42.1569H21.9518V24.0454H17.729V42.1569ZM22.7294 43.7121H16.9514C16.7452 43.7121 16.5474 43.6302 16.4016 43.4843C16.2558 43.3385 16.1738 43.1408 16.1738 42.9345V23.2678C16.1738 23.0616 16.2558 22.8638 16.4016 22.718C16.5474 22.5721 16.7452 22.4902 16.9514 22.4902H22.7294C22.9356 22.4902 23.1334 22.5721 23.2792 22.718C23.4251 22.8638 23.507 23.0616 23.507 23.2678V42.9824C23.507 43.1886 23.4251 43.3863 23.2792 43.5322C23.1334 43.678 22.9356 43.76 22.7294 43.76" fill="#739FBD"/>
<path d="M39.2134 42.1563H43.4482V18.4702H39.2134V42.1563ZM44.2138 43.7115H38.4358C38.2296 43.7115 38.0318 43.6296 37.886 43.4837C37.7401 43.3379 37.6582 43.1402 37.6582 42.9339V17.6926C37.6582 17.4863 37.7401 17.2886 37.886 17.1428C38.0318 16.9969 38.2296 16.915 38.4358 16.915H44.2138C44.42 16.915 44.6178 16.9969 44.7636 17.1428C44.9094 17.2886 44.9913 17.4863 44.9913 17.6926V42.9339C44.9913 43.1402 44.9094 43.3379 44.7636 43.4837C44.6178 43.6296 44.42 43.7115 44.2138 43.7115" fill="#739FBD"/>
<path d="M47.9831 48.76H0.742412C0.536187 48.76 0.3384 48.678 0.192576 48.5322C0.0467524 48.3864 -0.0351562 48.1886 -0.0351562 47.9824V0.777532C-0.0351562 0.571306 0.0467524 0.373556 0.192576 0.227732C0.3384 0.0819087 0.536187 0 0.742412 0C0.948638 0 1.14642 0.0819087 1.29225 0.227732C1.43807 0.373556 1.51998 0.571306 1.51998 0.777532V47.2048H47.9472C48.0494 47.2048 48.1505 47.2249 48.2448 47.264C48.3392 47.3031 48.4249 47.3604 48.4971 47.4326C48.5693 47.5048 48.6266 47.5905 48.6656 47.6849C48.7047 47.7792 48.7248 47.8803 48.7248 47.9824C48.7248 48.0845 48.7047 48.1857 48.6656 48.28C48.6266 48.3744 48.5693 48.46 48.4971 48.5322C48.4249 48.6044 48.3392 48.6617 48.2448 48.7008C48.1505 48.7399 48.0494 48.76 47.9472 48.76" fill="#739FBD"/>
<path d="M44.2143 12.967C44.0102 12.9639 43.8155 12.8806 43.6722 12.7352C43.529 12.5897 43.4487 12.3937 43.4487 12.1895V7.17714H38.4363C38.3269 7.19079 38.2159 7.18098 38.1105 7.14844C38.0052 7.11591 37.908 7.06136 37.8254 6.9884C37.7428 6.91543 37.6766 6.82574 37.6312 6.72525C37.5859 6.62476 37.5625 6.51576 37.5625 6.40552C37.5625 6.29528 37.5859 6.18628 37.6312 6.08579C37.6766 5.9853 37.7428 5.89561 37.8254 5.82265C37.908 5.74968 38.0052 5.69514 38.1105 5.6626C38.2159 5.63006 38.3269 5.62026 38.4363 5.6339H44.2143C44.4205 5.6339 44.6183 5.71589 44.7641 5.86171C44.91 6.00753 44.9919 6.20528 44.9919 6.41151V12.2493C44.9919 12.4555 44.91 12.6533 44.7641 12.7991C44.6183 12.9449 44.4205 13.0269 44.2143 13.0269" fill="#739FBD"/>
</g>
<defs>
<clipPath id="clip0_25_1327">
<rect width="48.76" height="48.76" fill="white"/>
</clipPath>
</defs>
</svg>
