<svg width="75" height="62" viewBox="0 0 75 62" fill="none" xmlns="http://www.w3.org/2000/svg">
<g clip-path="url(#clip0_25_1197)">
<path d="M38.9475 31.9371C39.1977 31.9371 39.4377 31.8377 39.6147 31.6607C39.7916 31.4838 39.891 31.2437 39.891 30.9935V18.3472H47.5706V30.9935C47.5706 31.2437 47.67 31.4838 47.8469 31.6607C48.0239 31.8377 48.2639 31.9371 48.5141 31.9371C48.7644 31.9371 49.0044 31.8377 49.1813 31.6607C49.3583 31.4838 49.4577 31.2437 49.4577 30.9935V17.3512C49.4577 17.0997 49.3587 16.8583 49.1821 16.6793C49.0056 16.5002 48.7656 16.398 48.5141 16.3945H38.9475C38.696 16.398 38.456 16.5002 38.2795 16.6793C38.1029 16.8583 38.0039 17.0997 38.0039 17.3512V30.9411C38.0039 31.1913 38.1033 31.4313 38.2803 31.6082C38.4572 31.7852 38.6972 31.8847 38.9475 31.8847" fill="#739FBD"/>
<path d="M29.3811 31.9365C29.6313 31.9365 29.8713 31.8371 30.0483 31.6601C30.2252 31.4832 30.3246 31.2431 30.3246 30.9929V10.1166H38.0042V30.9929C38.0042 31.2431 38.1036 31.4832 38.2805 31.6601C38.4575 31.8371 38.6975 31.9365 38.9477 31.9365C39.198 31.9365 39.438 31.8371 39.6149 31.6601C39.7919 31.4832 39.8913 31.2431 39.8913 30.9929V9.17309C39.8913 8.92285 39.7919 8.6828 39.6149 8.50585C39.438 8.32889 39.198 8.22949 38.9477 8.22949H29.3811C29.1308 8.22949 28.8908 8.32889 28.7139 8.50585C28.5369 8.6828 28.4375 8.92285 28.4375 9.17309V30.9929C28.4375 31.2431 28.5369 31.4832 28.7139 31.6601C28.8908 31.8371 29.1308 31.9365 29.3811 31.9365" fill="#739FBD"/>
<path d="M19.8147 31.9369C20.0649 31.9369 20.3049 31.8375 20.4819 31.6606C20.6588 31.4836 20.7582 31.2436 20.7582 30.9933V1.88713H28.4378V30.9933C28.4378 31.2436 28.5372 31.4836 28.7141 31.6606C28.8911 31.8375 29.1311 31.9369 29.3813 31.9369C29.6316 31.9369 29.8716 31.8375 30.0485 31.6606C30.2255 31.4836 30.3249 31.2436 30.3249 30.9933V0.943523C30.3249 0.693275 30.2255 0.453306 30.0485 0.276354C29.8716 0.0994019 29.6316 0 29.3813 0H19.8147C19.5644 0 19.3244 0.0994019 19.1475 0.276354C18.9705 0.453306 18.8711 0.693275 18.8711 0.943523V30.9933C18.8711 31.2436 18.9705 31.4836 19.1475 31.6606C19.3244 31.8375 19.5644 31.9369 19.8147 31.9369Z" fill="#739FBD"/>
<path d="M25.2798 51.6994H54.1108C54.9172 51.6994 55.6905 51.3791 56.2607 50.8089C56.8309 50.2387 57.1512 49.4654 57.1512 48.659C57.1512 47.8527 56.8309 47.0793 56.2607 46.5091C55.6905 45.939 54.9172 45.6186 54.1108 45.6186H26.5117L7.71909 27.4682C9.18685 26.8784 10.6022 27.2978 12.3976 28.6739C16.7747 32.0419 23.8645 37.6246 23.93 37.677C24.2408 37.9455 24.6028 38.1482 24.9942 38.2729C25.3855 38.3976 25.798 38.4418 26.2068 38.4027C26.6157 38.3635 27.0124 38.242 27.373 38.0454C27.7336 37.8487 28.0506 37.5811 28.3049 37.2586C28.5592 36.9361 28.7455 36.5653 28.8526 36.1688C28.9597 35.7723 28.9853 35.3582 28.928 34.9515C28.8706 34.5449 28.7314 34.154 28.5189 33.8025C28.3063 33.4511 28.0247 33.1464 27.6911 32.9068C27.6256 32.9068 20.5096 27.2454 16.1063 23.8512C10.8643 19.9197 5.51745 20.2998 0.865174 25.07C0.585975 25.3559 0.365875 25.694 0.217463 26.065C0.0690499 26.4361 -0.00476898 26.8327 0.000238734 27.2323C0.0152582 28.0433 0.349623 28.8156 0.930704 29.3815L23.2092 50.8475C23.7795 51.3882 24.5334 51.6926 25.3191 51.6994" fill="white"/>
<path d="M24.9251 42.6174H42.3286C43.135 42.6174 43.9083 42.297 44.4785 41.7269C45.0486 41.1567 45.369 40.3834 45.369 39.5771C45.369 38.7707 45.0486 37.9974 44.4785 37.4272C43.9083 36.857 43.135 36.5367 42.3286 36.5367H28.5814C28.7839 36.1736 29.0838 35.8744 29.4474 35.6729C29.811 35.4714 30.2238 35.3757 30.6389 35.3966H38.9082C39.522 35.3981 40.1215 35.2104 40.6249 34.8592C43.9536 32.5658 45.7228 32.2382 49.6674 32.2382C53.3761 32.2382 56.9538 33.6929 62.471 40.7696C62.7125 41.0949 63.0166 41.3687 63.3654 41.5749C63.7142 41.781 64.1007 41.9154 64.5021 41.9701C64.9036 42.0248 65.312 41.9987 65.7032 41.8933C66.0945 41.7879 66.4607 41.6054 66.7804 41.3564C67.1001 41.1075 67.3667 40.7972 67.5648 40.4437C67.7628 40.0902 67.8882 39.7007 67.9336 39.2981C67.979 38.8954 67.9434 38.4878 67.829 38.0991C67.7146 37.7104 67.5237 37.3485 67.2674 37.0347C61.2522 29.3158 56.1544 26.1575 49.6674 26.1575C45.5238 25.8952 41.4109 27.0202 37.9777 29.3551H30.6389C26.2881 29.3551 21.8848 32.5265 21.8848 39.6163C21.8848 40.4227 22.2051 41.196 22.7753 41.7662C23.3455 42.3364 24.1188 42.6567 24.9251 42.6567" fill="white"/>
<path d="M25.2795 49.602H54.1106C54.3433 49.5746 54.558 49.4628 54.7137 49.2877C54.8694 49.1125 54.9555 48.8863 54.9555 48.6519C54.9555 48.4176 54.8694 48.1914 54.7137 48.0162C54.558 47.8411 54.3433 47.7292 54.1106 47.7018H25.7382L4.4688 27.1925C7.49605 24.4797 10.3792 24.4273 13.7471 27.0221C18.1242 30.3901 25.2271 35.9728 25.2927 36.0253C25.3891 36.1089 25.5015 36.1721 25.6231 36.211C25.7447 36.2499 25.8729 36.2637 26 36.2516C26.127 36.2395 26.2503 36.2019 26.3624 36.1408C26.4745 36.0796 26.573 35.9964 26.652 35.8962C26.731 35.7959 26.7888 35.6806 26.8219 35.5573C26.8551 35.4341 26.8629 35.3053 26.8448 35.1789C26.8268 35.0525 26.7833 34.9312 26.717 34.8221C26.6506 34.713 26.5629 34.6186 26.459 34.5444C26.3935 34.5444 19.2906 28.8961 14.9004 25.515C10.5102 22.1339 6.35591 22.514 2.43751 26.5372C2.34815 26.6237 2.27758 26.7277 2.23023 26.8427C2.18288 26.9577 2.15974 27.0813 2.1623 27.2056C2.16933 27.4571 2.27252 27.6963 2.45061 27.874L24.7291 49.3399C24.9069 49.5065 25.1408 49.6001 25.3844 49.602" fill="#739FBD"/>
<path d="M24.9262 40.5207H42.3297C42.5799 40.5207 42.8199 40.4213 42.9969 40.2444C43.1738 40.0674 43.2733 39.8274 43.2733 39.5772C43.2733 39.3269 43.1738 39.0869 42.9969 38.9099C42.8199 38.733 42.5799 38.6336 42.3297 38.6336H25.9091C26.2892 33.7061 29.5916 33.2998 30.64 33.2998H38.9093C39.0979 33.3017 39.282 33.2419 39.4335 33.1295C42.3583 30.899 46.001 29.8216 49.6685 30.1022C54.9105 30.1022 58.842 32.7232 64.084 39.4461C64.2387 39.6442 64.4657 39.7727 64.7152 39.8035C64.9646 39.8342 65.216 39.7646 65.4142 39.6099C65.6123 39.4552 65.7408 39.2283 65.7715 38.9788C65.8023 38.7294 65.7326 38.4778 65.578 38.2797C60.0083 31.1375 55.3954 28.2151 49.6292 28.2151C45.6811 27.9483 41.7652 29.0804 38.5685 31.4127H30.6007C29.1829 31.4127 27.8034 31.8725 26.6692 32.7232C24.8607 34.1254 23.9434 36.432 23.9434 39.5641C23.9434 39.688 23.9677 39.8107 24.0152 39.9251C24.0626 40.0396 24.1321 40.1436 24.2197 40.2312C24.3073 40.3189 24.4113 40.3883 24.5258 40.4358C24.6403 40.4832 24.763 40.5076 24.8869 40.5076" fill="#739FBD"/>
<path d="M74.056 41.582L67.5428 34.8984L49.0254 53.8614L55.5386 60.545" fill="white"/>
<path d="M55.5529 61.4889C55.6741 61.4913 55.7946 61.4694 55.9071 61.4244C56.0197 61.3794 56.1221 61.3121 56.2082 61.2267C56.3779 61.0509 56.4728 60.8159 56.4728 60.5715C56.4728 60.327 56.3779 60.0921 56.2082 59.9162L50.3371 53.888L67.5309 36.2748L73.3757 42.2638C73.5573 42.387 73.7761 42.443 73.9945 42.4222C74.213 42.4014 74.4174 42.3052 74.5725 42.1501C74.7276 41.9949 74.8238 41.7906 74.8446 41.5722C74.8654 41.3538 74.8094 41.1349 74.6862 40.9533L68.1337 34.2697C68.0479 34.1786 67.9443 34.1061 67.8294 34.0565C67.7144 34.0069 67.5905 33.9814 67.4654 33.9814C67.3383 33.9818 67.2126 34.0075 67.0956 34.057C66.9786 34.1065 66.8727 34.1788 66.7839 34.2697L48.2796 53.2458C48.1068 53.4201 48.0098 53.6556 48.0098 53.9011C48.0098 54.1465 48.1068 54.3821 48.2796 54.5563L54.8321 61.2399C54.922 61.3284 55.0284 61.3983 55.1454 61.4455C55.2623 61.4927 55.3875 61.5164 55.5136 61.5151" fill="#739FBD"/>
<path d="M67.8306 43.6918C68.1508 44.0219 68.33 44.4637 68.33 44.9237C68.33 45.3836 68.1508 45.8254 67.8306 46.1555C67.6742 46.3172 67.4869 46.4458 67.2797 46.5336C67.0726 46.6214 66.8499 46.6667 66.625 46.6667C66.4 46.6667 66.1773 46.6214 65.9702 46.5336C65.7631 46.4458 65.5757 46.3172 65.4193 46.1555C65.099 45.8254 64.9199 45.3836 64.9199 44.9237C64.9199 44.4637 65.099 44.0219 65.4193 43.6918C65.5757 43.5301 65.7631 43.4015 65.9702 43.3137C66.1773 43.2259 66.4 43.1807 66.625 43.1807C66.8499 43.1807 67.0726 43.2259 67.2797 43.3137C67.4869 43.4015 67.6742 43.5301 67.8306 43.6918" fill="#739FBD"/>
</g>
<defs>
<clipPath id="clip0_25_1197">
<rect width="75" height="61.5018" fill="white"/>
</clipPath>
</defs>
</svg>
