<svg width="40" height="40" viewBox="0 0 40 40" fill="none" xmlns="http://www.w3.org/2000/svg">
<g clip-path="url(#clip0_22_1961)">
<path d="M20.0091 40.0005C23.9673 40.0005 27.8365 38.8265 31.1273 36.6271C34.4182 34.4277 36.9828 31.3016 38.4967 27.6444C40.0106 23.9872 40.4058 19.9631 39.6323 16.0813C38.8588 12.1994 36.9513 8.63414 34.1512 5.83655C31.3511 3.03896 27.7841 1.13471 23.9016 0.364693C20.019 -0.405321 15.9953 -0.00646881 12.3394 1.51073C8.68355 3.02794 5.5598 5.59536 3.36336 8.8882C1.16691 12.181 -0.003561 16.0513 8.13832e-06 20.0095C0.00479046 25.3131 2.11508 30.3978 5.86698 34.1463C9.61888 37.8949 14.7055 40.0005 20.0091 40.0005Z" fill="#333333"/>
<path d="M33.3611 24.9707H6.69434C6.72738 25.5793 6.81804 26.1834 6.96502 26.7749H33.1806C33.3199 26.2209 33.3807 25.6499 33.3611 25.079" fill="white"/>
<path d="M6.69398 24.0321C6.4532 20.8952 6.75221 17.7401 7.57804 14.7042C10.6452 17.9157 17.9705 20.6221 17.6277 13.333C18.069 14.2551 18.8235 14.9905 19.7567 15.4079C18.9267 17.9158 20.8572 18.6194 21.3263 16.3281L22.3367 16.7971C21.6691 19.2328 23.6177 19.9726 24.1409 17.7714C24.5111 17.8905 24.8679 18.0477 25.2055 18.2405C24.8988 20.2252 26.5045 20.7304 26.7752 18.9262C29.1929 19.6659 33.4689 20.4417 33.4689 24.1945L6.78417 24.0321" fill="white"/>
</g>
<defs>
<clipPath id="clip0_22_1961">
<rect width="40" height="40" fill="white"/>
</clipPath>
</defs>
</svg>
