<svg width="40" height="40" viewBox="0 0 40 40" fill="none" xmlns="http://www.w3.org/2000/svg">
<g clip-path="url(#clip0_22_1962)">
<path d="M20.0091 40.0004C23.9673 40.0004 27.8365 38.8265 31.1273 36.6271C34.4182 34.4277 36.9828 31.3016 38.4967 27.6444C40.0106 23.9871 40.4058 19.9631 39.6323 16.0812C38.8588 12.1994 36.9513 8.63416 34.1512 5.83656C31.3511 3.03897 27.7841 1.13472 23.9016 0.364707C20.019 -0.405306 15.9953 -0.00650978 12.3394 1.51069C8.68355 3.02789 5.5598 5.59532 3.36336 8.88815C1.16691 12.181 -0.003561 16.0513 8.13832e-06 20.0095C0.00479046 25.3131 2.11508 30.3978 5.86698 34.1463C9.61888 37.8948 14.7055 40.0004 20.0091 40.0004Z" fill="#333333"/>
<path d="M24.014 11.4749L25.1688 10.3022C25.2696 10.1985 25.3903 10.1161 25.5236 10.0598C25.6568 10.0036 25.7999 9.97461 25.9446 9.97461C26.0892 9.97461 26.2324 10.0036 26.3657 10.0598C26.4989 10.1161 26.6195 10.1985 26.7204 10.3022L29.3546 12.9363C29.5553 13.1448 29.6674 13.4228 29.6674 13.7122C29.6674 14.0015 29.5553 14.2796 29.3546 14.488L28.1819 15.6427L24.014 11.4749ZM12.4489 23.022L11.7633 25.8908L13.8021 27.9115L16.6347 27.2079L12.467 23.0401L12.4489 23.022ZM11.5829 26.6305L11.1318 28.4348L12.9361 27.9837L11.5829 26.6305ZM13.1886 22.2282L23.1841 12.2327L27.37 16.4005L17.3744 26.396L15.6965 24.718L21.1092 19.2151L20.2973 18.4032L14.7944 23.8159L13.1886 22.2282ZM11.1318 29.1204H24.9703V30.0406H11.1318V29.1204Z" fill="white"/>
</g>
<defs>
<clipPath id="clip0_22_1962">
<rect width="40" height="40" fill="white"/>
</clipPath>
</defs>
</svg>
