<svg width="40" height="40" viewBox="0 0 40 40" fill="none" xmlns="http://www.w3.org/2000/svg">
<g clip-path="url(#clip0_22_1965)">
<path d="M20.0091 40.0181C23.9665 40.0181 27.835 38.8445 31.1255 36.6459C34.4159 34.4473 36.9806 31.3224 38.495 27.6662C40.0095 24.01 40.4056 19.9869 39.6336 16.1055C38.8615 12.2241 36.9559 8.65882 34.1576 5.86051C31.3592 3.0622 27.794 1.15652 23.9127 0.384468C20.0313 -0.387584 16.0081 0.0086947 12.352 1.52313C8.69578 3.03757 5.57078 5.60214 3.37216 8.89261C1.17354 12.1831 0 16.0517 0 20.0091C0.00477736 25.3144 2.11449 30.4009 5.86587 34.1523C9.61726 37.9037 14.7038 40.0133 20.0091 40.0181Z" fill="#333333"/>
<path d="M14.7046 11.7095H25.2955L24.9165 11.114H15.0474L14.7046 11.7095ZM25.9992 12.8461H13.7303C13.6304 12.8477 13.532 12.8215 13.446 12.7706C13.36 12.7196 13.2898 12.6459 13.2432 12.5575C13.1902 12.4738 13.1621 12.3768 13.1621 12.2778C13.1621 12.1788 13.1902 12.0819 13.2432 11.9982L14.2355 10.194C14.2872 10.1114 14.3591 10.0433 14.4443 9.99596C14.5294 9.94863 14.6252 9.92361 14.7226 9.92328H25.2233C25.317 9.91951 25.4098 9.94095 25.4924 9.98538C25.5749 10.0298 25.6441 10.0956 25.6925 10.1759L26.6487 11.6733C26.71 11.7672 26.7427 11.877 26.7427 11.9892C26.7427 12.1013 26.71 12.211 26.6487 12.3049L26.4683 12.5394C26.418 12.6125 26.3506 12.6721 26.2719 12.713C26.1933 12.7539 26.1059 12.7748 26.0172 12.774" fill="white"/>
<path d="M14.6505 28.9035H25.3135L26.1795 15.498H13.7123L14.6505 28.9035ZM25.8367 30.0221H14.1453C14.003 30.0224 13.866 29.9684 13.7621 29.8712C13.6581 29.774 13.5952 29.6408 13.586 29.4988L12.5756 14.9747C12.5655 14.8991 12.5732 14.8221 12.5983 14.75C12.6234 14.678 12.6651 14.6128 12.72 14.5598C12.7712 14.5005 12.8351 14.4535 12.907 14.4223C12.9788 14.3911 13.0567 14.3764 13.1349 14.3793H26.775C26.8532 14.3764 26.9311 14.3911 27.0029 14.4223C27.0747 14.4535 27.1386 14.5005 27.1899 14.5598C27.2448 14.6128 27.2865 14.678 27.3116 14.75C27.3367 14.8221 27.3444 14.8991 27.3343 14.9747L26.396 29.4988C26.3937 29.5699 26.3774 29.6398 26.348 29.7046C26.3186 29.7694 26.2769 29.8278 26.2249 29.8764C26.173 29.925 26.1119 29.9629 26.0453 29.9879C25.9787 30.0129 25.9078 30.0245 25.8367 30.0221Z" fill="white"/>
<path d="M12.5754 14.3435H27.4424V13.0625H12.5754V14.3435ZM28.0017 15.4802H11.9981C11.8497 15.4802 11.7075 15.4212 11.6026 15.3163C11.4977 15.2114 11.4388 15.0692 11.4388 14.9209V12.5032C11.4363 12.4282 11.4491 12.3535 11.4761 12.2836C11.5031 12.2136 11.5438 12.1498 11.596 12.0959C11.6482 12.0421 11.7108 11.9993 11.7798 11.9701C11.8489 11.9408 11.9231 11.9257 11.9981 11.9258H28.0017C28.0775 11.9258 28.1525 11.9407 28.2226 11.9697C28.2926 11.9987 28.3563 12.0413 28.4099 12.0949C28.4635 12.1485 28.5061 12.2122 28.5351 12.2822C28.5641 12.3523 28.579 12.4273 28.579 12.5032V14.9209C28.5791 14.9959 28.564 15.0701 28.5348 15.1391C28.5055 15.2082 28.4628 15.2706 28.4089 15.3228C28.355 15.375 28.2912 15.4158 28.2213 15.4429C28.1513 15.4699 28.0766 15.4826 28.0017 15.4802Z" fill="white"/>
<path d="M26.991 25.3499H13.0262L12.5391 19.7207H27.3519L26.991 25.3499Z" fill="white"/>
</g>
<defs>
<clipPath id="clip0_22_1965">
<rect width="40" height="40" fill="white"/>
</clipPath>
</defs>
</svg>
