<svg width="348" height="401" viewBox="0 0 348 401" fill="none" xmlns="http://www.w3.org/2000/svg">
<g clip-path="url(#clip0_22_1868)">
<path d="M83.0493 6.84961H250.979C257.206 6.84961 263.178 9.32129 267.581 13.7209C271.984 18.1205 274.458 24.0877 274.458 30.3097V371.073C274.458 377.295 271.984 383.263 267.581 387.662C263.178 392.062 257.206 394.534 250.979 394.534H83.0493C79.9645 394.536 76.9095 393.931 74.0589 392.753C71.2082 391.575 68.6179 389.847 66.4358 387.668C64.2537 385.49 62.5227 382.903 61.3416 380.055C60.1606 377.208 59.5527 374.156 59.5527 371.073V30.3097C59.5574 24.0861 62.0349 18.119 66.4409 13.7198C70.8468 9.32073 76.8206 6.84961 83.0493 6.84961Z" fill="#E9E3F0"/>
<path d="M310.775 171.959L308.193 180.831L299.314 183.41V185.484L308.193 188.081L310.775 196.953H312.851L315.45 188.081L324.329 185.484V183.41L315.45 180.831L312.851 171.959H310.775Z" fill="#FFCF00"/>
<path d="M322.969 116.917L318.172 133.301L301.792 138.094V141.928L318.172 146.704L322.969 163.088H326.806L331.586 146.704L348 141.928V138.094L331.586 133.301L326.806 116.917H322.969Z" fill="#FFCF00"/>
<path d="M88.5957 105.448L91.1948 114.32L100.056 116.899V118.974L91.1948 121.571L88.5957 130.442H86.5199L83.9208 121.571L75.042 118.974V116.899L83.9208 114.32L86.5199 105.448H88.5957Z" fill="#FFCF00"/>
<path d="M25.0141 59.2773L29.8111 75.6611L46.2081 80.4542V84.2886L29.8111 89.0643L25.0141 105.448H21.1765L16.397 89.0643L0 84.2886V80.4542L16.397 75.6611L21.1765 59.2773H25.0141Z" fill="#FFCF00"/>
<path d="M269.329 373.932C269.329 378.555 267.491 382.988 264.22 386.257C260.949 389.525 256.512 391.361 251.886 391.361H82.1417C77.5154 391.361 73.0785 389.525 69.8072 386.257C66.5359 382.988 64.6981 378.555 64.6981 373.932V27.0854C64.6981 22.4628 66.5359 18.0296 69.8072 14.7609C73.0785 11.4922 77.5154 9.65594 82.1417 9.65594H129.1L133.129 16.9241C134.188 18.843 135.745 20.4415 137.636 21.5517C139.526 22.662 141.682 23.2429 143.875 23.2335H190.135C192.328 23.2429 194.483 22.662 196.374 21.5517C198.265 20.4415 199.821 18.843 200.88 16.9241L204.927 9.65594H251.886C256.512 9.65594 260.949 11.4922 264.22 14.7609C267.491 18.0296 269.329 22.4628 269.329 27.0854V373.932ZM251.886 0H82.1417C74.957 0 68.0666 2.85182 62.9862 7.92805C57.9059 13.0043 55.0518 19.8891 55.0518 27.068V373.915C55.0495 377.471 55.7486 380.992 57.1089 384.278C58.4693 387.564 60.4643 390.55 62.9801 393.066C65.4958 395.581 68.483 397.576 71.7709 398.938C75.0587 400.299 78.5828 401 82.1417 401H251.886C255.446 401.005 258.972 400.308 262.263 398.95C265.554 397.591 268.544 395.598 271.063 393.084C273.583 390.57 275.581 387.585 276.945 384.299C278.308 381.012 279.01 377.49 279.01 373.932V27.0854C279.01 19.9065 276.156 13.0217 271.076 7.94544C265.995 2.86921 259.105 0.0174465 251.92 0.0174465" fill="#9070AD"/>
<path d="M146.317 280.493C145.049 280.494 143.833 280.995 142.933 281.887C142.037 282.788 141.534 284.007 141.534 285.277C141.534 286.547 142.037 287.766 142.933 288.667L150.085 295.813L157.237 288.667C158.133 287.766 158.635 286.547 158.635 285.277C158.635 284.007 158.133 282.788 157.237 281.887C156.436 281.126 155.404 280.654 154.304 280.547C153.204 280.439 152.099 280.703 151.166 281.295C150.85 281.517 150.472 281.636 150.085 281.636C149.698 281.636 149.32 281.517 149.003 281.295C148.205 280.772 147.272 280.493 146.317 280.493ZM150.085 299.909C149.188 299.908 148.328 299.55 147.695 298.916L140.177 291.404C139.081 289.641 138.477 287.617 138.427 285.542C138.377 283.467 138.883 281.417 139.893 279.603C140.902 277.789 142.379 276.278 144.169 275.226C145.96 274.174 147.999 273.619 150.076 273.619C152.153 273.619 154.193 274.174 155.983 275.226C157.773 276.278 159.25 277.789 160.26 279.603C161.269 281.417 161.775 283.467 161.725 285.542C161.675 287.617 161.071 289.641 159.975 291.404L152.475 298.916C151.835 299.541 150.98 299.897 150.085 299.909Z" fill="white"/>
<path d="M127.879 263.499C127.21 263.5 126.557 263.699 126.002 264.071C125.446 264.443 125.014 264.97 124.758 265.587C124.502 266.204 124.435 266.883 124.565 267.538C124.696 268.193 125.017 268.795 125.489 269.268L130.862 274.637L136.217 269.268C136.533 268.954 136.783 268.581 136.954 268.169C137.125 267.758 137.213 267.317 137.213 266.872C137.213 266.426 137.125 265.985 136.954 265.574C136.783 265.163 136.533 264.789 136.217 264.475C135.653 263.939 134.926 263.607 134.152 263.531C133.378 263.455 132.6 263.64 131.943 264.057C131.626 264.279 131.249 264.398 130.862 264.398C130.475 264.398 130.097 264.279 129.78 264.057C129.214 263.691 128.553 263.497 127.879 263.499ZM130.862 278.854C130.456 278.858 130.054 278.779 129.679 278.623C129.304 278.468 128.965 278.238 128.681 277.948L122.733 272.022C121.376 270.654 120.614 268.806 120.614 266.88C120.614 264.954 121.376 263.106 122.733 261.739C126.449 261.127 130.148 260.418 133.827 259.612C134.798 259.596 135.762 259.776 136.661 260.142C137.56 260.507 138.376 261.05 139.06 261.739C139.736 262.414 140.273 263.215 140.639 264.097C141.005 264.98 141.193 265.925 141.193 266.88C141.193 267.835 141.005 268.781 140.639 269.663C140.273 270.546 139.736 271.347 139.06 272.022L133.129 277.948C132.844 278.236 132.505 278.465 132.13 278.62C131.756 278.776 131.354 278.856 130.949 278.854" fill="white"/>
<path d="M290.21 214.139H159.47V344.773H290.21V214.139Z" fill="white"/>
<path d="M161.423 342.837H288.273V216.09H161.423V342.837ZM292.163 344.772C292.163 345.287 291.96 345.781 291.597 346.146C291.234 346.512 290.742 346.72 290.227 346.724H159.487C158.969 346.724 158.472 346.519 158.105 346.152C157.739 345.786 157.533 345.29 157.533 344.772V214.051C157.533 213.795 157.584 213.542 157.682 213.307C157.781 213.071 157.925 212.857 158.107 212.677C158.288 212.497 158.504 212.355 158.741 212.259C158.977 212.162 159.231 212.114 159.487 212.116H290.227C290.74 212.116 291.233 212.32 291.596 212.683C291.959 213.046 292.163 213.538 292.163 214.051" fill="#9070AD"/>
<path d="M279.76 324.066H187.815C187.331 324.02 186.882 323.796 186.554 323.437C186.227 323.077 186.046 322.609 186.046 322.123C186.046 321.637 186.227 321.169 186.554 320.809C186.882 320.45 187.331 320.225 187.815 320.18H279.76C280.031 320.154 280.305 320.185 280.563 320.271C280.821 320.357 281.058 320.496 281.26 320.679C281.461 320.862 281.622 321.085 281.732 321.334C281.842 321.582 281.899 321.851 281.899 322.123C281.899 322.395 281.842 322.664 281.732 322.912C281.622 323.161 281.461 323.384 281.26 323.567C281.058 323.75 280.821 323.889 280.563 323.975C280.305 324.061 280.031 324.092 279.76 324.066Z" fill="#E3E5E5"/>
<path d="M278.941 273.869H228.616V302.453H278.941V273.869Z" fill="#FFDEC7"/>
<path d="M230.552 300.501H276.987V275.804H230.552V300.501ZM279.01 304.406H228.616C228.098 304.406 227.601 304.2 227.234 303.834C226.868 303.468 226.662 302.971 226.662 302.453V273.869C226.662 273.351 226.868 272.855 227.234 272.489C227.601 272.123 228.098 271.917 228.616 271.917H279.01C279.529 271.917 280.025 272.123 280.392 272.489C280.758 272.855 280.964 273.351 280.964 273.869V302.453C280.964 302.971 280.758 303.468 280.392 303.834C280.025 304.2 279.529 304.406 279.01 304.406Z" fill="#9070AD"/>
<path d="M279.691 282.479C279.691 282.479 264.375 282.723 262.84 300.588L254.59 310.105C252.72 311.45 251.387 313.413 250.825 315.645C250.263 317.878 250.509 320.237 251.52 322.306C254.851 330.48 264.306 319.255 264.306 319.255C264.306 319.255 287.296 304.179 291.117 301.826C294.937 299.473 304.147 292.379 296.995 282.427C289.843 272.475 276.307 269.146 265.823 269.912V269.808H210.527C209.534 269.658 208.52 269.724 207.554 270.001C206.589 270.279 205.695 270.761 204.934 271.416C204.172 272.07 203.561 272.881 203.142 273.793C202.723 274.706 202.506 275.698 202.506 276.701C202.506 277.705 202.723 278.697 203.142 279.609C203.561 280.521 204.172 281.332 204.934 281.987C205.695 282.641 206.589 283.124 207.554 283.401C208.52 283.679 209.534 283.745 210.527 283.595H246.286" fill="#FFDEC7"/>
<path d="M255.252 327.273C254.962 327.291 254.671 327.291 254.38 327.273C253.313 327.065 252.322 326.571 251.514 325.843C250.706 325.115 250.111 324.182 249.793 323.143C248.608 320.703 248.308 317.929 248.944 315.293C249.581 312.657 251.114 310.325 253.281 308.694L260.869 299.979C262.457 284.989 273.743 280.806 279.569 280.719C280.084 280.719 280.58 280.919 280.951 281.276C281.322 281.634 281.539 282.122 281.557 282.637C281.562 282.891 281.516 283.143 281.423 283.38C281.33 283.616 281.192 283.832 281.015 284.015C280.839 284.198 280.628 284.344 280.394 284.446C280.161 284.547 279.91 284.601 279.656 284.606C279.08 284.606 266.05 285.129 264.689 300.955C264.658 301.363 264.493 301.749 264.218 302.053L256.055 311.5C255.926 311.64 255.779 311.763 255.619 311.866C255.13 312.197 250.717 315.352 253.316 321.748C253.962 323.352 254.677 323.491 254.904 323.491C256.962 323.822 260.817 320.511 262.788 318.175C262.906 318.025 263.047 317.896 263.207 317.792C264.149 317.182 286.285 302.68 290.105 300.362C291.605 299.473 296.559 296.179 297.518 291.526C297.732 290.156 297.653 288.757 297.286 287.42C296.919 286.083 296.273 284.839 295.39 283.769C288.413 274.044 275.173 271.395 265.963 272.057C265.698 272.088 265.429 272.058 265.178 271.97H210.597C209.923 271.93 209.248 272.028 208.613 272.258C207.978 272.488 207.397 272.846 206.905 273.308C206.414 273.771 206.022 274.33 205.755 274.949C205.487 275.569 205.349 276.236 205.349 276.911C205.349 277.586 205.487 278.253 205.755 278.873C206.022 279.492 206.414 280.051 206.905 280.513C207.397 280.976 207.978 281.334 208.613 281.564C209.248 281.794 209.923 281.892 210.597 281.852H246.356C246.627 281.827 246.9 281.858 247.158 281.944C247.417 282.03 247.654 282.169 247.855 282.352C248.056 282.535 248.217 282.757 248.327 283.006C248.437 283.255 248.494 283.524 248.494 283.796C248.494 284.067 248.437 284.336 248.327 284.585C248.217 284.834 248.056 285.057 247.855 285.24C247.654 285.423 247.417 285.561 247.158 285.647C246.9 285.733 246.627 285.765 246.356 285.739H210.597C208.251 285.739 206.002 284.808 204.343 283.151C202.685 281.493 201.753 279.246 201.753 276.902C201.753 274.559 202.685 272.311 204.343 270.654C206.002 268.996 208.251 268.065 210.597 268.065H265.893C266.067 268.046 266.243 268.046 266.416 268.065C276.603 267.508 290.837 270.645 298.652 281.434C299.857 282.934 300.726 284.675 301.202 286.539C301.677 288.403 301.748 290.347 301.408 292.24C300.17 298.271 294.553 302.21 292.198 303.622C288.709 305.748 268.091 319.204 265.666 320.79C264.341 322.323 259.701 327.291 255.2 327.291" fill="#9070AD"/>
<path d="M222.214 293.077H204.212C203.215 293.236 202.196 293.177 201.224 292.904C200.253 292.631 199.352 292.151 198.584 291.497C197.816 290.842 197.199 290.029 196.777 289.113C196.354 288.198 196.135 287.201 196.135 286.193C196.135 285.184 196.354 284.188 196.777 283.272C197.199 282.356 197.816 281.543 198.584 280.888C199.352 280.234 200.253 279.754 201.224 279.481C202.196 279.208 203.215 279.149 204.212 279.308H239.971" fill="#FFDEC7"/>
<path d="M222.214 295.029H204.212C201.867 295.029 199.617 294.098 197.959 292.441C196.3 290.783 195.368 288.536 195.368 286.192C195.368 283.849 196.3 281.601 197.959 279.944C199.617 278.286 201.867 277.355 204.212 277.355H239.971C240.242 277.33 240.516 277.361 240.774 277.447C241.032 277.533 241.269 277.672 241.471 277.855C241.672 278.038 241.833 278.261 241.943 278.509C242.053 278.758 242.11 279.027 242.11 279.299C242.11 279.571 242.053 279.84 241.943 280.088C241.833 280.337 241.672 280.56 241.471 280.743C241.269 280.926 241.032 281.065 240.774 281.151C240.516 281.237 240.242 281.268 239.971 281.242H204.212C202.898 281.242 201.638 281.764 200.709 282.692C199.78 283.62 199.258 284.879 199.258 286.192C199.258 287.505 199.78 288.764 200.709 289.692C201.638 290.621 202.898 291.142 204.212 291.142H222.214C222.485 291.116 222.758 291.148 223.016 291.234C223.274 291.32 223.512 291.459 223.713 291.642C223.914 291.824 224.075 292.047 224.185 292.296C224.295 292.545 224.352 292.814 224.352 293.086C224.352 293.357 224.295 293.626 224.185 293.875C224.075 294.124 223.914 294.347 223.713 294.53C223.512 294.713 223.274 294.851 223.016 294.937C222.758 295.023 222.485 295.055 222.214 295.029Z" fill="#9070AD"/>
<path d="M260.537 302.454H196.798C195.805 302.604 194.791 302.538 193.826 302.261C192.861 301.983 191.967 301.501 191.205 300.846C190.443 300.192 189.832 299.381 189.413 298.469C188.994 297.556 188.777 296.564 188.777 295.561C188.777 294.557 188.994 293.565 189.413 292.653C189.832 291.741 190.443 290.93 191.205 290.275C191.967 289.621 192.861 289.138 193.826 288.861C194.791 288.583 195.805 288.517 196.798 288.667H236.273" fill="#FFDEC7"/>
<path d="M260.538 304.406H196.799C194.453 304.406 192.204 303.475 190.545 301.818C188.887 300.161 187.955 297.913 187.955 295.569C187.955 293.226 188.887 290.978 190.545 289.321C192.204 287.663 194.453 286.732 196.799 286.732H236.274C236.758 286.778 237.208 287.003 237.535 287.362C237.862 287.722 238.043 288.19 238.043 288.676C238.043 289.162 237.862 289.63 237.535 289.989C237.208 290.349 236.758 290.573 236.274 290.619H196.799C196.125 290.579 195.45 290.677 194.815 290.908C194.18 291.138 193.599 291.495 193.108 291.958C192.616 292.421 192.225 292.979 191.957 293.599C191.689 294.218 191.551 294.886 191.551 295.56C191.551 296.235 191.689 296.903 191.957 297.522C192.225 298.142 192.616 298.7 193.108 299.163C193.599 299.626 194.18 299.983 194.815 300.213C195.45 300.444 196.125 300.542 196.799 300.502H260.538C261.056 300.502 261.553 300.707 261.919 301.073C262.286 301.44 262.492 301.936 262.492 302.454C262.492 302.972 262.286 303.468 261.919 303.834C261.553 304.2 261.056 304.406 260.538 304.406Z" fill="#9070AD"/>
<path d="M237.966 235.926H258.741C260.458 235.926 262.104 236.607 263.318 237.82C264.531 239.032 265.213 240.677 265.213 242.392C265.213 244.107 264.531 245.752 263.318 246.965C262.104 248.177 260.458 248.859 258.741 248.859H237.966V248.684H261.812C262.661 248.684 263.503 248.851 264.288 249.176C265.073 249.501 265.787 249.978 266.388 250.578C266.989 251.179 267.465 251.891 267.79 252.676C268.116 253.461 268.283 254.301 268.283 255.151C268.283 256 268.116 256.841 267.79 257.625C267.465 258.41 266.989 259.122 266.388 259.723C265.787 260.323 265.073 260.8 264.288 261.125C263.503 261.45 262.661 261.617 261.812 261.617H237.966V261.443H258.741C260.458 261.443 262.104 262.124 263.318 263.337C264.531 264.549 265.213 266.194 265.213 267.909C265.213 269.624 264.531 271.269 263.318 272.481C262.104 273.694 260.458 274.375 258.741 274.375H237.966V274.201H253.665C255.382 274.201 257.028 274.882 258.241 276.095C259.455 277.308 260.137 278.952 260.137 280.667C260.137 282.382 259.455 284.027 258.241 285.24C257.028 286.452 255.382 287.134 253.665 287.134L240.042 288.162C240.042 288.162 231.181 290.201 224.535 277.948C217.889 265.695 213.807 242.723 221.464 235.577C229.122 228.431 233.221 225.625 234.251 215.934C235.28 206.243 235.315 201.346 242.17 201.886C248.554 202.409 249.828 212.1 248.554 221.808C248.952 226.169 248.604 230.566 247.525 234.81" fill="#FFDEC7"/>
<path d="M241.088 203.785C237.722 203.785 237.216 205.825 236.344 214.365L236.169 216.108C235.158 225.607 231.302 229.145 224.918 235.019C224.238 235.646 223.523 236.291 222.79 236.989C217.435 241.973 217.993 261.808 226.279 277.076C232.157 287.9 239.553 286.331 239.641 286.314H239.92L253.543 285.286H253.7C254.799 285.296 255.863 284.905 256.695 284.188C257.526 283.47 258.067 282.474 258.217 281.387C258.367 280.299 258.115 279.194 257.508 278.279C256.901 277.364 255.982 276.701 254.921 276.414H238.018C237.503 276.409 237.011 276.202 236.648 275.836C236.285 275.47 236.082 274.977 236.082 274.462V274.288C236.082 273.774 236.286 273.282 236.649 272.92C237.012 272.557 237.505 272.353 238.018 272.353H253.718C254.303 272.347 254.887 272.399 255.462 272.51H258.951C260.051 272.524 261.118 272.137 261.953 271.421C262.788 270.704 263.333 269.708 263.485 268.62C263.637 267.531 263.386 266.424 262.779 265.507C262.172 264.59 261.251 263.925 260.189 263.638H237.966C237.452 263.638 236.96 263.434 236.597 263.072C236.234 262.709 236.03 262.217 236.03 261.704V261.529C236.03 261.016 236.234 260.524 236.597 260.161C236.96 259.798 237.452 259.595 237.966 259.595H258.741C259.326 259.59 259.911 259.643 260.486 259.751H261.864C262.457 259.751 263.044 259.635 263.593 259.408C264.141 259.181 264.639 258.848 265.058 258.429C265.478 258.01 265.811 257.512 266.038 256.965C266.265 256.417 266.382 255.83 266.382 255.237C266.382 254.644 266.265 254.057 266.038 253.51C265.811 252.962 265.478 252.464 265.058 252.045C264.639 251.626 264.141 251.293 263.593 251.067C263.044 250.84 262.457 250.723 261.864 250.723H260.486C259.911 250.832 259.326 250.884 258.741 250.88H237.966C237.452 250.88 236.96 250.676 236.597 250.313C236.234 249.95 236.03 249.458 236.03 248.945V248.771C236.03 248.256 236.233 247.762 236.596 247.397C236.958 247.031 237.451 246.823 237.966 246.819H259.98C261.042 246.532 261.963 245.867 262.57 244.95C263.176 244.033 263.427 242.926 263.275 241.837C263.123 240.748 262.579 239.752 261.744 239.036C260.909 238.32 259.842 237.933 258.741 237.947H237.966C237.482 237.901 237.032 237.677 236.705 237.317C236.378 236.958 236.197 236.49 236.197 236.004C236.197 235.518 236.378 235.05 236.705 234.69C237.032 234.331 237.482 234.106 237.966 234.06H245.711C246.665 230.169 246.966 226.146 246.601 222.156C246.583 221.982 246.583 221.807 246.601 221.633C247.595 214.156 246.88 208.073 244.699 205.389C244.38 204.964 243.974 204.612 243.508 204.356C243.041 204.101 242.526 203.948 241.995 203.907H241.088V203.785ZM238.507 290.358C235.175 290.358 228.232 289.016 222.808 278.994C216.039 266.514 211.521 242.392 220.121 234.287C220.871 233.572 221.586 232.928 222.284 232.3C228.564 226.513 231.442 223.864 232.297 215.847L232.471 214.104C233.343 205.581 233.971 199.445 242.292 200.16C243.349 200.242 244.378 200.542 245.312 201.044C246.246 201.545 247.065 202.235 247.717 203.071C251.607 207.864 251.206 216.892 250.491 222.017C250.843 226.101 250.572 230.214 249.688 234.217H258.741C260.288 234.24 261.799 234.688 263.108 235.513C264.417 236.337 265.473 237.505 266.162 238.889C266.85 240.274 267.143 241.821 267.01 243.361C266.876 244.901 266.321 246.375 265.405 247.621C266.851 248.301 268.074 249.378 268.93 250.727C269.787 252.076 270.242 253.64 270.242 255.237C270.242 256.834 269.787 258.399 268.93 259.747C268.074 261.096 266.851 262.174 265.405 262.854C266.265 263.967 266.832 265.277 267.055 266.665C267.278 268.054 267.15 269.475 266.682 270.801C266.213 272.127 265.42 273.315 264.374 274.256C263.329 275.197 262.064 275.861 260.695 276.187C261.589 277.542 262.063 279.131 262.056 280.754C262.051 282.97 261.174 285.096 259.614 286.671C258.054 288.246 255.935 289.145 253.718 289.172L240.286 290.183C239.709 290.278 239.126 290.325 238.542 290.323" fill="#9070AD"/>
<path d="M181.553 312.65C178.075 309.185 173.503 307.031 168.615 306.555C163.727 306.078 158.825 307.308 154.742 310.036C150.369 307.088 145.053 305.875 139.833 306.635C134.613 307.395 129.864 310.073 126.514 314.145C123.165 318.217 121.456 323.391 121.721 328.656C121.986 333.92 124.207 338.896 127.949 342.612L151.567 366.141C152.416 366.977 153.559 367.445 154.751 367.445C155.942 367.445 157.086 366.977 157.934 366.141L181.553 342.542C185.523 338.565 187.752 333.178 187.752 327.561C187.752 321.945 185.523 316.557 181.553 312.581" fill="#FFCF00"/>
<path d="M142.951 308.398C139.13 308.368 135.388 309.479 132.203 311.588C129.018 313.697 126.536 316.708 125.075 320.236C123.613 323.763 123.239 327.646 124 331.387C124.76 335.128 126.622 338.557 129.345 341.235L152.963 364.834C153.45 365.298 154.097 365.556 154.769 365.556C155.441 365.556 156.088 365.298 156.574 364.834L180.193 341.235C182.14 339.633 183.752 337.663 184.937 335.438C186.123 333.213 186.858 330.777 187.101 328.268C187.344 325.76 187.09 323.228 186.354 320.817C185.617 318.407 184.413 316.165 182.809 314.219C181.206 312.274 179.235 310.663 177.008 309.478C174.781 308.294 172.343 307.559 169.833 307.317C167.322 307.074 164.788 307.328 162.375 308.063C159.963 308.799 157.719 310.003 155.772 311.605C155.448 311.817 155.069 311.93 154.682 311.93C154.294 311.93 153.915 311.817 153.591 311.605C150.42 309.475 146.685 308.34 142.864 308.345L142.951 308.398ZM154.673 369.349C152.966 369.346 151.33 368.669 150.12 367.466L126.501 343.867C122.512 339.883 120.114 334.581 119.761 328.957C119.407 323.332 121.12 317.772 124.579 313.321C128.038 308.869 133.005 305.833 138.546 304.782C144.087 303.731 149.822 304.738 154.673 307.613C159.524 304.724 165.265 303.706 170.815 304.751C176.365 305.796 181.341 308.833 184.806 313.29C188.271 317.746 189.986 323.314 189.628 328.946C189.27 334.578 186.863 339.884 182.862 343.867L159.243 367.466C158.028 368.672 156.385 369.348 154.673 369.349Z" fill="#9070AD"/>
<path d="M142.113 323.143C142.116 322.124 141.817 321.128 141.253 320.279C140.689 319.431 139.885 318.769 138.944 318.378C138.003 317.987 136.967 317.884 135.968 318.081C134.968 318.279 134.049 318.769 133.329 319.489C132.608 320.21 132.117 321.127 131.919 322.126C131.721 323.125 131.825 324.161 132.216 325.101C132.608 326.041 133.27 326.844 134.119 327.407C134.968 327.971 135.965 328.27 136.985 328.267C138.343 328.262 139.645 327.721 140.606 326.761C141.567 325.801 142.108 324.5 142.113 323.143Z" fill="white"/>
<path d="M187.362 220.727C187.362 214.243 185.438 207.904 181.832 202.513C178.227 197.122 173.103 192.919 167.107 190.438C161.112 187.957 154.514 187.307 148.15 188.572C141.785 189.837 135.938 192.96 131.349 197.545C126.761 202.13 123.636 207.972 122.37 214.331C121.104 220.691 121.754 227.283 124.237 233.273C126.72 239.264 130.926 244.384 136.322 247.987C141.717 251.589 148.061 253.512 154.551 253.512C163.253 253.512 171.599 250.058 177.752 243.91C183.905 237.761 187.362 229.422 187.362 220.727Z" fill="white"/>
<path d="M154.551 189.895C148.448 189.898 142.484 191.709 137.412 195.099C132.339 198.489 128.387 203.306 126.054 208.94C123.721 214.574 123.113 220.773 124.305 226.753C125.498 232.733 128.438 238.225 132.755 242.536C137.071 246.846 142.569 249.781 148.554 250.969C154.54 252.157 160.743 251.546 166.381 249.211C172.018 246.877 176.837 242.925 180.226 237.855C183.616 232.785 185.426 226.825 185.426 220.727C185.416 212.55 182.16 204.71 176.371 198.929C170.583 193.149 162.735 189.899 154.551 189.895ZM154.551 255.447C147.679 255.443 140.962 253.404 135.251 249.587C129.539 245.77 125.088 240.346 122.46 234.002C119.833 227.657 119.147 220.677 120.49 213.943C121.833 207.209 125.144 201.025 130.004 196.171C134.864 191.317 141.056 188.012 147.795 186.674C154.535 185.335 161.521 186.024 167.869 188.652C174.218 191.281 179.644 195.731 183.461 201.44C187.278 207.149 189.316 213.861 189.316 220.727C189.306 229.936 185.64 238.764 179.122 245.274C172.604 251.783 163.766 255.442 154.551 255.447Z" fill="#9070AD"/>
<path d="M158.004 226.391H148.462L151.044 215.359H160.586L158.004 226.391ZM176.948 215.359L178.692 208.195H169.97L171.523 201.642H163.882L162.347 208.195H152.719L154.254 201.642H146.439L144.886 208.195H136.287L134.542 215.359H143.264L140.683 226.391H132.153L130.408 233.555H139.025L137.56 239.812H145.322L146.788 233.555H156.347L154.882 239.812H162.627L164.109 233.555H172.831L174.575 226.391H165.854L168.435 215.359H176.948Z" fill="#9070AD"/>
<path d="M159.644 265.381C159.154 265.366 158.687 265.166 158.337 264.823C157.986 264.479 157.779 264.016 157.754 263.526C157.73 263.036 157.891 262.555 158.206 262.179C158.521 261.802 158.966 261.558 159.452 261.494C169.44 260.571 178.718 255.943 185.46 248.523C192.202 241.102 195.917 231.428 195.875 221.407C195.921 220.923 196.145 220.474 196.505 220.147C196.865 219.82 197.333 219.639 197.82 219.639C198.306 219.639 198.775 219.82 199.134 220.147C199.494 220.474 199.719 220.923 199.765 221.407C199.815 232.394 195.739 243.001 188.344 251.133C180.948 259.265 170.77 264.33 159.819 265.329H159.644" fill="#9070AD"/>
<path d="M221.447 191.08C219.441 187.495 216.093 184.853 212.138 183.735C208.183 182.617 203.945 183.115 200.358 185.119C196.77 187.123 194.126 190.469 193.007 194.42C191.888 198.372 192.386 202.606 194.392 206.191L206.306 218.113C206.517 218.324 206.767 218.491 207.042 218.605C207.317 218.719 207.613 218.778 207.911 218.778C208.209 218.778 208.504 218.719 208.779 218.605C209.055 218.491 209.305 218.324 209.515 218.113L221.447 206.191C223.448 204.185 224.572 201.468 224.572 198.635C224.572 195.803 223.448 193.086 221.447 191.08Z" fill="#FFCF00"/>
<path d="M202.014 189.894C200.278 189.881 198.577 190.385 197.13 191.343C195.683 192.301 194.554 193.668 193.889 195.27C193.224 196.873 193.053 198.637 193.397 200.337C193.741 202.037 194.585 203.596 195.821 204.814L207.736 216.736C207.763 216.772 207.799 216.801 207.84 216.821C207.88 216.842 207.925 216.852 207.971 216.852C208.017 216.852 208.061 216.842 208.102 216.821C208.143 216.801 208.179 216.772 208.206 216.736L220.12 204.814C221.789 203.313 222.814 201.228 222.982 198.992C223.151 196.755 222.45 194.54 221.025 192.807C219.601 191.073 217.562 189.956 215.334 189.686C213.105 189.416 210.859 190.015 209.061 191.358C208.741 191.58 208.36 191.698 207.971 191.698C207.582 191.698 207.201 191.58 206.881 191.358C205.44 190.398 203.746 189.889 202.014 189.894ZM207.962 220.71C206.846 220.709 205.775 220.271 204.979 219.49L193.065 207.533C191.457 204.89 190.582 201.867 190.53 198.775C190.477 195.682 191.249 192.632 192.767 189.936C194.284 187.24 196.492 184.996 199.164 183.434C201.836 181.873 204.876 181.05 207.971 181.05C211.066 181.05 214.106 181.873 216.778 183.434C219.45 184.996 221.658 187.24 223.175 189.936C224.693 192.632 225.465 195.682 225.412 198.775C225.36 201.867 224.484 204.89 222.877 207.533L210.98 219.49C210.186 220.275 209.114 220.713 207.997 220.71" fill="#9070AD"/>
<path d="M201.596 196.361C201.596 195.847 201.443 195.345 201.158 194.918C200.872 194.491 200.466 194.158 199.991 193.961C199.516 193.765 198.994 193.713 198.489 193.814C197.985 193.914 197.522 194.161 197.159 194.524C196.795 194.888 196.548 195.35 196.447 195.854C196.347 196.358 196.399 196.88 196.595 197.355C196.792 197.829 197.125 198.235 197.553 198.52C197.98 198.805 198.483 198.958 198.997 198.958C199.686 198.958 200.347 198.684 200.834 198.197C201.322 197.71 201.596 197.049 201.596 196.361Z" fill="white"/>
<path d="M192.752 241.294C190.945 238.117 187.954 235.784 184.432 234.802C180.91 233.82 177.143 234.27 173.951 236.053C170.76 237.836 168.403 240.808 167.396 244.32C166.389 247.832 166.813 251.6 168.575 254.802L179.233 265.451C179.421 265.641 179.645 265.792 179.892 265.895C180.139 265.998 180.404 266.051 180.672 266.051C180.94 266.051 181.205 265.998 181.452 265.895C181.699 265.792 181.923 265.641 182.111 265.451L192.752 254.802C193.639 253.915 194.344 252.862 194.824 251.703C195.304 250.544 195.552 249.302 195.552 248.048C195.552 246.793 195.304 245.551 194.824 244.392C194.344 243.234 193.639 242.181 192.752 241.294Z" fill="#9070AD"/>
<path d="M175.344 240.44C173.836 240.435 172.361 240.878 171.106 241.713C169.85 242.547 168.872 243.736 168.294 245.127C167.716 246.519 167.566 248.051 167.861 249.528C168.157 251.005 168.885 252.362 169.954 253.425L180.664 264.109L191.322 253.459C192.635 252.117 193.406 250.337 193.487 248.461C193.567 246.585 192.952 244.746 191.758 243.296C190.564 241.846 188.877 240.888 187.019 240.605C185.161 240.323 183.265 240.735 181.693 241.764C181.369 241.977 180.99 242.09 180.603 242.09C180.216 242.09 179.837 241.977 179.513 241.764C178.259 240.924 176.783 240.476 175.274 240.475L175.344 240.44ZM180.507 268.031C179.492 267.974 178.537 267.531 177.838 266.793L167.18 256.144C165.252 253.632 164.066 250.632 163.755 247.482C163.445 244.332 164.023 241.158 165.425 238.32C166.826 235.481 168.994 233.091 171.684 231.419C174.374 229.748 177.479 228.862 180.646 228.862C183.814 228.862 186.919 229.748 189.609 231.419C192.299 233.091 194.467 235.481 195.868 238.32C197.27 241.158 197.848 244.332 197.538 247.482C197.227 250.632 196.041 253.632 194.113 256.144L183.472 266.793C183.105 267.164 182.668 267.458 182.185 267.658C181.703 267.859 181.186 267.962 180.664 267.961" fill="#9070AD"/>
<path d="M112.477 68.0971H110.732V66.4762H112.703L113.087 63.2865H111.186V61.6656H113.297L113.837 57.5H115.268L114.779 61.6656H117.605L118.146 57.5H119.594L119.088 61.6656H120.937V63.2865H118.896L118.512 66.4762H120.466V68.0971H118.32L117.78 72.7682H116.297L116.785 68.0971H113.942L113.366 72.7682H111.919L112.477 68.0971ZM116.96 66.4762L117.361 63.2865H114.5L114.116 66.4762H116.96Z" fill="#9070AD"/>
<path d="M132.118 65.5693C129.439 66.0729 126.713 66.2775 123.989 66.1793H122.576V56.872H130.967V58.6149H124.687V64.419C127.103 64.4866 129.519 64.2878 131.891 63.8263L132.118 65.5693ZM124.443 67.8002H136.95V74.4583H134.839V69.5432H124.373L124.443 67.8002ZM136.95 55.5996V66.9288H134.839V62.1357H129.99V60.3927H134.839V55.5996H136.95Z" fill="#9070AD"/>
<path d="M156.243 65.3951V67.1381H149.073V70.502H146.945V67.1381H139.462V65.3951H156.243ZM143.614 72.3669H154.376V74.1099H141.503V68.881H143.614V72.3669ZM154.08 63.8439H141.642V56.1924H143.736V58.3885H151.986V56.1924H154.08V63.8439ZM151.986 60.0443H143.736V62.1532H151.986V60.0443Z" fill="#9070AD"/>
<path d="M167.371 55.8965H169.342V73.5176H167.371V64.4718H165.453C165.278 68.1494 163.708 70.3978 161.493 70.3978C159.277 70.3978 157.516 67.8357 157.516 63.6874C157.516 59.5392 159.086 57.012 161.493 57.012C163.9 57.012 165.208 59.1558 165.435 62.6939H167.371V55.8965ZM163.499 63.6874C163.499 60.707 162.714 59.0337 161.44 59.0337C160.167 59.0337 159.4 60.7767 159.4 63.6874C159.4 66.5982 160.167 68.376 161.44 68.376C162.714 68.376 163.551 66.7202 163.551 63.7223L163.499 63.6874ZM173.093 55.5479V74.3891H171.087V55.5827L173.093 55.5479Z" fill="#9070AD"/>
<path d="M183.402 56.8028C183.513 59.0692 182.875 61.3092 181.585 63.1771C180.296 65.0451 178.427 66.4371 176.268 67.1385L175.256 65.5698C177.263 64.8849 178.994 63.5705 180.192 61.8225L175.605 62.3279L175.308 60.585L180.925 60.2538C181.093 59.6843 181.21 59.1011 181.274 58.5109H176.093V56.7679L183.402 56.8028ZM178.535 67.4871H190.868V74.2323H178.535V67.4871ZM180.628 72.5068H188.809V69.2126H180.628V72.5068ZM190.868 55.5479V66.6505H188.862V61.927H186.821V66.5285H184.815V55.8965H186.821V60.1493H188.862V55.5479H190.868Z" fill="#9070AD"/>
<path d="M200.288 67.9225C200.881 67.9225 201.474 67.8005 202.032 67.7133L202.171 69.282C199.181 69.7825 196.15 70.0101 193.118 69.9617L192.874 68.2188H194.618V59.6261H193.275V57.8831H201.718V59.6261H200.34L200.288 67.9225ZM196.485 68.1316H198.351V59.6609H196.485V68.1316ZM203.34 55.931H205.329V73.4476H203.34V64.6109H201.16V62.7111H203.34V55.931ZM209.009 55.5127V74.3888H206.986V55.5824L209.009 55.5127Z" fill="#9070AD"/>
<path d="M216.214 66.3541C214.96 66.3541 213.757 65.8564 212.871 64.9706C211.984 64.0848 211.486 62.8834 211.486 61.6307C211.486 60.378 211.984 59.1766 212.871 58.2908C213.757 57.4049 214.96 56.9073 216.214 56.9073C217.467 56.9073 218.67 57.4049 219.556 58.2908C220.443 59.1766 220.941 60.378 220.941 61.6307C220.941 62.8834 220.443 64.0848 219.556 64.9706C218.67 65.8564 217.467 66.3541 216.214 66.3541ZM216.214 64.4891C216.784 64.4925 217.343 64.3264 217.819 64.0117C218.295 63.697 218.667 63.248 218.887 62.7218C219.107 62.1956 219.165 61.616 219.055 61.0565C218.944 60.497 218.67 59.983 218.266 59.5798C217.863 59.1765 217.348 58.9023 216.788 58.7919C216.228 58.6815 215.648 58.7399 215.122 58.9597C214.595 59.1795 214.146 59.5508 213.831 60.0264C213.516 60.502 213.349 61.0604 213.353 61.6307C213.345 62.0049 213.415 62.3767 213.557 62.7231C213.699 63.0694 213.91 63.383 214.178 63.6444C214.447 63.9058 214.766 64.1094 215.116 64.2427C215.466 64.376 215.839 64.4362 216.214 64.4194V64.4891ZM226.68 72.4021V74.145H214.051V67.9576H216.214V72.3846L226.68 72.4021ZM226.156 69.3519H224.028V55.6523H226.156V69.3519Z" fill="#9070AD"/>
<path d="M112.477 97.727H110.732V96.1061H112.703L113.087 92.9165H111.186V91.2956H113.297L113.837 87.1299H115.268L114.779 91.2956H117.605L118.146 87.1299H119.594L119.088 91.2956H120.937V92.9165H118.896L118.512 96.1061H120.466V97.727H118.32L117.78 102.398H116.297L116.785 97.727H113.942L113.366 102.398H111.919L112.477 97.727ZM116.96 96.1061L117.361 92.9165H114.5L114.116 96.1061H116.96Z" fill="#9070AD"/>
<path d="M132.118 95.2001C129.439 95.7037 126.713 95.9084 123.989 95.8102H122.576V86.5028H130.967V88.2458H124.687V94.0498C127.103 94.1175 129.519 93.9187 131.891 93.4572L132.118 95.2001ZM124.443 97.4312H136.95V104.089H134.839V99.1741H124.373L124.443 97.4312ZM136.95 85.2305V96.5597H134.839V91.7666H129.99V90.0236H134.839V85.2305H136.95Z" fill="#9070AD"/>
<path d="M156.243 95.0251V96.768H149.073V100.132H146.945V96.768H139.462V95.0251H156.243ZM143.614 101.997H154.376V103.74H141.503V98.511H143.614V101.997ZM154.08 93.4738H141.642V85.8223H143.736V88.0184H151.986V85.8223H154.08V93.4738ZM151.986 89.6742H143.736V91.7832H151.986V89.6742Z" fill="#9070AD"/>
<path d="M167.371 85.5263H169.342V103.148H167.371V94.1016H165.453C165.278 97.7792 163.708 100.028 161.493 100.028C159.277 100.028 157.516 97.4655 157.516 93.3173C157.516 89.1691 159.086 86.6419 161.493 86.6419C163.9 86.6419 165.208 88.7857 165.435 92.3239H167.371V85.5263ZM163.499 93.3173C163.499 90.3368 162.714 88.6636 161.44 88.6636C160.167 88.6636 159.4 90.4065 159.4 93.3173C159.4 96.228 160.167 98.0058 161.44 98.0058C162.714 98.0058 163.551 96.35 163.551 93.3522L163.499 93.3173ZM173.093 85.1777V104.019H171.087V85.2126L173.093 85.1777Z" fill="#9070AD"/>
<path d="M183.489 94.7815C182.699 94.5198 181.97 94.1008 181.346 93.5495C180.722 92.9983 180.217 92.3264 179.861 91.5745C179.52 92.377 179.017 93.1008 178.384 93.7006C177.751 94.3004 177 94.7632 176.18 95.0604L175.238 93.4569C176.21 93.1156 177.06 92.4952 177.68 91.6736C178.301 90.852 178.665 89.8656 178.727 88.8381H175.605V87.0952H178.727V85.2476H180.75V87.0952H183.786V88.8381H180.75C180.827 89.8245 181.201 90.7643 181.824 91.5332C182.447 92.302 183.289 92.8634 184.239 93.1432L183.489 94.7815ZM191.548 102.224V103.88H178.535V99.0692H188.809V97.6051H178.5V95.9842H190.868V100.603H180.628V102.241L191.548 102.224ZM186.96 95.0604H184.972V85.5265H186.96V89.2912H188.862V85.1953H190.868V95.1824H188.862V91.0168H186.96V95.0604Z" fill="#9070AD"/>
<path d="M204.543 95.9843C201.583 96.4862 198.579 96.6963 195.577 96.6117H194.008V90.6334H200.374V88.2805H193.973V86.5375H202.45V92.2718H196.101V94.8513C198.852 94.9077 201.602 94.7093 204.317 94.2588L204.543 95.9843ZM208.817 101.997V103.74H196.118V98.041H198.229V101.98L208.817 101.997ZM208.329 99.1565H206.201V85.2129H208.329V99.1565Z" fill="#9070AD"/>
<path d="M217.766 90.7555C217.768 92.3517 218.219 93.9153 219.067 95.268C219.915 96.6208 221.127 97.7085 222.563 98.407L221.394 100.15C220.291 99.5978 219.309 98.8307 218.506 97.8938C217.703 96.957 217.096 95.8692 216.719 94.6945C216.38 95.9438 215.793 97.1122 214.993 98.1302C214.193 99.1482 213.196 99.9951 212.062 100.62L210.858 98.8775C212.306 98.0754 213.513 96.9009 214.353 95.4758C215.194 94.0507 215.637 92.427 215.638 90.7729V89.03H211.504V87.287H221.97V89.03H217.853L217.766 90.7555ZM226.174 85.3V104.176H224.046V85.2129L226.174 85.3Z" fill="#9070AD"/>
<path d="M112.477 127.357H110.732V125.736H112.703L113.087 122.546H111.186V120.925H113.297L113.837 116.76H115.268L114.779 120.925H117.605L118.146 116.76H119.594L119.088 120.925H120.937V122.546H118.896L118.512 125.736H120.466V127.357H118.32L117.78 132.028H116.297L116.785 127.357H113.942L113.366 132.028H111.919L112.477 127.357ZM116.96 125.736L117.361 122.546H114.5L114.116 125.736H116.96Z" fill="#9070AD"/>
<path d="M121.687 127.967C125.668 128.045 129.65 127.836 133.601 127.339L133.74 128.908C129.844 129.549 125.896 129.829 121.948 129.745L121.687 127.967ZM132.624 120.681C132.733 121.701 132.53 122.73 132.042 123.633C131.554 124.535 130.804 125.268 129.89 125.736C128.977 126.204 127.943 126.383 126.925 126.252C125.906 126.12 124.952 125.683 124.188 124.998C123.424 124.313 122.885 123.413 122.643 122.416C122.401 121.419 122.468 120.373 122.833 119.414C123.199 118.456 123.847 117.631 124.692 117.048C125.537 116.465 126.538 116.152 127.565 116.15C128.199 116.095 128.838 116.17 129.442 116.372C130.046 116.573 130.602 116.896 131.076 117.321C131.55 117.746 131.932 118.263 132.199 118.841C132.465 119.419 132.609 120.045 132.624 120.681ZM124.617 120.681C124.557 121.281 124.681 121.885 124.971 122.414C125.262 122.942 125.707 123.37 126.246 123.641C126.785 123.911 127.394 124.012 127.992 123.93C128.589 123.848 129.148 123.587 129.594 123.181C130.04 122.774 130.353 122.243 130.49 121.656C130.627 121.068 130.583 120.453 130.363 119.892C130.143 119.33 129.758 118.849 129.258 118.51C128.759 118.172 128.168 117.993 127.565 117.997C127.191 117.963 126.815 118.008 126.459 118.127C126.104 118.246 125.777 118.438 125.5 118.691C125.222 118.943 125.001 119.251 124.849 119.593C124.697 119.936 124.618 120.307 124.617 120.681ZM136.828 114.808V133.736H134.699V114.808H136.828Z" fill="#9070AD"/>
<path d="M156.243 129.728V131.471H139.462V129.728H143.962V126.451H141.503V120.386H152.161V117.876H141.451V116.133H154.254V122.129H143.561V124.743H154.673V126.486H151.934V129.763L156.243 129.728ZM146.056 129.728H149.928V126.451H146.143L146.056 129.728Z" fill="#9070AD"/>
<path d="M167.685 126.067C166.691 125.75 165.776 125.225 165.001 124.528C164.225 123.831 163.606 122.977 163.184 122.024C162.782 123.044 162.161 123.964 161.366 124.72C160.571 125.476 159.62 126.049 158.579 126.399L157.48 124.656C158.78 124.267 159.923 123.478 160.747 122.401C161.571 121.324 162.033 120.015 162.068 118.66V117.963H158.056V116.22H168.191V117.963H164.231V118.66C164.287 119.961 164.757 121.21 165.573 122.226C166.389 123.242 167.507 123.971 168.766 124.307L167.685 126.067ZM173.127 131.593V133.336H160.498V127.357H162.626V131.61L173.127 131.593ZM172.604 128.595H170.476V114.86H172.604V128.595Z" fill="#9070AD"/>
<path d="M185.722 124.83C183.044 125.334 180.317 125.538 177.594 125.44H176.181V116.133H184.571V117.876H178.291V123.68C180.707 123.747 183.123 123.548 185.496 123.087L185.722 124.83ZM178.047 127.061H190.554V133.719H188.444V128.804H177.977L178.047 127.061ZM190.554 114.86V126.19H188.444V121.396H183.594V119.653H188.444V114.86H190.554Z" fill="#9070AD"/>
<path d="M209.847 124.656V126.399H202.677V129.763H200.514V126.399H193.014V124.656H209.847ZM197.218 131.628H207.98V133.371H195.089V128.142H197.218V131.628ZM207.684 123.105H195.281V115.453H197.392V117.649H205.625V115.453H207.719L207.684 123.105ZM205.59 119.305H197.357V121.414H205.59V119.305Z" fill="#9070AD"/>
<path d="M221.028 115.156H222.999V132.777H221.028V123.732H219.057C218.883 127.409 217.313 129.658 215.097 129.658C212.882 129.658 211.12 127.095 211.12 122.947C211.12 118.799 212.69 116.272 215.097 116.272C217.504 116.272 218.813 118.416 219.039 121.954H221.028V115.156ZM217.156 122.947C217.156 119.967 216.371 118.294 215.097 118.294C213.824 118.294 213.039 120.036 213.039 122.947C213.039 125.858 213.824 127.636 215.097 127.636C216.371 127.636 217.156 125.98 217.156 122.982V122.947ZM226.75 114.808V133.649H224.744V114.843L226.75 114.808Z" fill="#9070AD"/>
</g>
<defs>
<clipPath id="clip0_22_1868">
<rect width="348" height="401" fill="white"/>
</clipPath>
</defs>
</svg>
