<svg width="333" height="233" viewBox="0 0 333 233" fill="none" xmlns="http://www.w3.org/2000/svg">
<path d="M15.2152 232.934C12.2997 232.688 9.50703 231.647 7.1394 229.926C4.72126 228.092 2.80629 225.675 1.57302 222.9C0.339763 220.125 -0.171582 217.082 0.0867349 214.055C0.3874 211.132 1.4871 208.349 3.26485 206.011C5.12582 203.552 7.59393 201.622 10.4263 200.408C12.8444 199.298 15.4717 198.718 18.132 198.708C20.5163 198.716 22.8626 199.308 24.967 200.43C26.9931 201.517 28.7317 203.071 30.0389 204.965L23.3998 207.929C22.3141 206.591 20.7546 205.725 19.0463 205.51C17.0514 205.199 15.0091 205.503 13.1908 206.382C11.5151 207.103 10.0586 208.253 8.96793 209.717C7.91174 211.134 7.27091 212.817 7.11761 214.579C6.99741 216.425 7.33152 218.274 8.09054 219.961C8.84955 221.649 10.0103 223.124 11.4711 224.258C12.8814 225.33 14.5626 225.987 16.3254 226.154C18.1383 226.321 19.9629 226.005 21.6149 225.239C22.8806 224.684 24.0211 223.879 24.9676 222.871C25.9141 221.863 26.6469 220.674 27.122 219.375C27.5017 218.343 27.5921 217.227 27.3832 216.148L33.9135 213.183C34.4802 215.393 34.4802 217.71 33.9135 219.92C33.3026 222.338 32.132 224.578 30.4961 226.46C28.7227 228.552 26.4868 230.202 23.9658 231.277C21.1632 232.573 18.074 233.121 14.9976 232.869" fill="#FFCF00"/>
<path d="M66.8701 176.167L79.9524 205.597L73.4004 208.54L68.0673 196.572L55.0938 202.371L60.4051 214.317L53.8313 217.26L40.749 187.808L47.3228 184.887L52.5035 196.55L65.4987 190.751L60.2963 179.088L66.8701 176.167Z" fill="#FFCF00"/>
<path d="M107.27 179.743L99.0201 171.132L99.9125 183.034L107.27 179.743ZM111.819 184.56L100.435 189.662L100.914 196.202L94.1224 199.232L92.4463 164.7L99.2595 161.648L123.748 186.021L116.412 189.291L111.819 184.56Z" fill="#FFCF00"/>
<path d="M131.411 147.391L141.903 171.022L156.596 164.46L159.164 170.281L137.919 179.764L124.837 150.312L131.411 147.391Z" fill="#FFCF00"/>
<path d="M167.197 131.434L177.689 155.065L192.382 148.525L194.95 154.324L173.705 163.807L160.623 134.355L167.197 131.434Z" fill="#FFCF00"/>
<path d="M202.962 115.515L196.399 118.441L209.494 147.896L216.056 144.97L202.962 115.515Z" fill="#FFCF00"/>
<path d="M219.396 108.15L224.881 105.709L247.432 116.87L239.4 98.7982L245.952 95.877L259.056 125.329L253.571 127.771L231.019 116.609L239.052 134.681L232.478 137.602L219.396 108.15Z" fill="#FFCF00"/>
<path d="M279.06 82.1869C281.364 82.1182 283.657 82.5418 285.786 83.4295C287.774 84.2506 289.546 85.5186 290.967 87.1355L283.761 90.362C282.529 89.4868 281.07 88.9871 279.56 88.9231C277.808 88.8342 276.061 89.1708 274.467 89.9042C272.795 90.6314 271.34 91.7806 270.244 93.2396C269.233 94.6698 268.638 96.3525 268.524 98.101C268.395 99.9584 268.725 101.819 269.484 103.519C270.243 105.218 271.409 106.704 272.878 107.846C274.286 108.925 275.967 109.589 277.732 109.764C279.55 109.951 281.385 109.642 283.043 108.87C284.427 108.275 285.672 107.399 286.7 106.298C287.613 105.324 288.291 104.153 288.681 102.875C289.044 101.757 289.133 100.569 288.942 99.409L279.952 103.42L277.492 97.8394L293.47 90.7108L294.232 92.4548C295.506 95.2121 296.024 98.2595 295.734 101.284C295.431 104.192 294.348 106.965 292.599 109.306C290.768 111.748 288.328 113.665 285.525 114.865C282.729 116.159 279.647 116.707 276.578 116.457C273.657 116.207 270.858 115.167 268.481 113.448C266.073 111.605 264.166 109.186 262.934 106.414C261.702 103.641 261.184 100.603 261.428 97.5778C261.748 94.6595 262.846 91.8811 264.606 89.5336C266.48 87.079 268.954 85.1495 271.789 83.9309C274.117 82.8641 276.632 82.2712 279.19 82.1869" fill="#FFCF00"/>
<path d="M297.715 73.2271L319.569 63.4824L322.116 69.1941L306.814 76.0175L309.491 82.0125L323.531 75.7559L326.056 81.4675L312.016 87.7024L314.846 94.0244L330.453 87.0702L333 92.7818L310.819 102.679L297.715 73.2271Z" fill="#FFCF00"/>
<path d="M181.258 1.48511e-05H107.009C104.906 1.29019e-05 102.824 0.415183 100.881 1.22178C98.9388 2.02838 97.1741 3.21058 95.6881 4.70077C94.2022 6.19097 93.0241 7.95992 92.2213 9.90645C91.4186 11.853 91.0069 13.9389 91.0098 16.0449V62.7191C91.0069 64.8251 91.4186 66.911 92.2213 68.8575C93.0241 70.8041 94.2022 72.573 95.6881 74.0632C97.1741 75.5534 98.9388 76.7356 100.881 77.5422C102.824 78.3488 104.906 78.764 107.009 78.764H131.497L144.144 95.7899L156.769 78.764H181.258C183.363 78.7668 185.447 78.3538 187.392 77.5485C189.337 76.7431 191.105 75.5614 192.593 74.0709C194.081 72.5805 195.261 70.8105 196.065 68.8626C196.869 66.9146 197.282 64.8269 197.279 62.7191V16.0449C197.282 13.9371 196.869 11.8494 196.065 9.90143C195.261 7.95347 194.081 6.18353 192.593 4.69306C191.105 3.20258 189.337 2.02084 187.392 1.21553C185.447 0.410213 183.363 -0.00285493 181.258 1.48511e-05Z" fill="#8B5CA3"/>
<path d="M164.171 25.7456C162.994 24.5644 161.596 23.6273 160.057 22.9879C158.518 22.3485 156.869 22.0194 155.202 22.0194C153.536 22.0194 151.887 22.3485 150.348 22.9879C148.809 23.6273 147.411 24.5644 146.234 25.7456L144.057 27.9256L141.881 25.7456C139.502 23.3606 136.275 22.0196 132.909 22.0176C129.544 22.0155 126.315 23.3526 123.933 25.7347C121.552 28.1168 120.213 31.3488 120.211 34.7196C120.209 38.0904 121.544 41.324 123.922 43.709L126.099 45.889L144.057 63.8741L162.081 45.78L164.258 43.5999C165.437 42.4214 166.373 41.0215 167.011 39.4803C167.65 37.939 167.978 36.2869 167.978 34.6183C167.978 32.9497 167.65 31.2975 167.011 29.7563C166.373 28.2151 165.437 26.8151 164.258 25.6366" fill="#FFCF00"/>
</svg>
