<svg width="40" height="40" viewBox="0 0 40 40" fill="none" xmlns="http://www.w3.org/2000/svg">
<g clip-path="url(#clip0_22_1963)">
<path d="M20.0091 40.018C23.9665 40.018 27.835 38.8445 31.1255 36.6459C34.4159 34.4473 36.9806 31.3223 38.495 27.6661C40.0095 24.01 40.4056 19.9868 39.6336 16.1055C38.8615 12.2241 36.9559 8.65883 34.1576 5.86052C31.3592 3.06221 27.794 1.15653 23.9127 0.384482C20.0313 -0.38757 16.0081 0.00865383 12.352 1.52309C8.69578 3.03752 5.57078 5.6021 3.37216 8.89257C1.17354 12.183 0 16.0516 0 20.009C0.00477736 25.3143 2.11449 30.4009 5.86587 34.1523C9.61726 37.9036 14.7038 40.0132 20.0091 40.018Z" fill="#333333"/>
<path d="M24.3572 20.3882C23.8463 20.4467 23.3507 20.5996 22.8957 20.8392C22.2549 21.1523 21.7213 21.6484 21.3622 22.2646C21.0151 22.832 20.863 23.4973 20.9292 24.1591C20.985 24.5323 21.1203 24.8892 21.3261 25.2055C21.5912 25.5581 21.9497 25.8294 22.361 25.9889C22.7723 26.1483 23.2201 26.1895 23.6536 26.1076H24.0866C24.4198 26.0266 24.7457 25.918 25.0609 25.7829C25.78 25.5149 26.4064 25.045 26.8651 24.4297C27.1124 24.1167 27.2954 23.7579 27.4038 23.374C27.5122 22.9901 27.5438 22.5885 27.4966 22.1924L26.4682 14.0373C27.0817 14.3492 27.637 14.7642 28.11 15.2641C28.6312 15.7318 28.9647 16.3731 29.0483 17.0684C29.0909 17.4637 29.277 17.8296 29.5715 18.0968C29.6571 18.1712 29.758 18.226 29.8671 18.2571C29.9762 18.2883 30.091 18.2952 30.203 18.2772C30.4917 18.2772 30.8525 17.9164 30.8525 16.9782C30.6713 15.7329 30.1323 14.567 29.3009 13.6223C28.5886 12.7601 27.7771 11.9849 26.8832 11.3128L25.6382 10.3927L25.2052 9.9236C25.153 9.86076 25.0864 9.81148 25.011 9.78006C24.9355 9.74864 24.8536 9.73599 24.7722 9.74317H24.5196C24.3726 9.76969 24.2415 9.8522 24.154 9.97332C24.0665 10.0945 24.0294 10.2448 24.0505 10.3927L25.3315 20.4604C25.0259 20.4242 24.717 20.4242 24.4114 20.4604" fill="white"/>
<path d="M16.5626 18.2773L11.4926 18.981C11.4209 18.9938 11.3524 19.0211 11.2914 19.061C11.2305 19.101 11.1782 19.1529 11.1377 19.2135C11.0973 19.2742 11.0696 19.3424 11.0561 19.414C11.0427 19.4857 11.0438 19.5593 11.0595 19.6305L12.0699 26.0536H11.6188C11.2594 26.1101 10.912 26.226 10.5905 26.3964C10.1403 26.6327 9.76994 26.9968 9.52597 27.4429C9.27489 27.8796 9.17356 28.3865 9.23734 28.8863C9.28329 29.17 9.40122 29.4371 9.58004 29.6621C9.78933 29.929 10.0697 30.1315 10.3888 30.2464C10.7079 30.3613 11.0529 30.3839 11.3843 30.3116C11.7331 30.2544 12.073 30.1513 12.3948 30.0049C12.8775 29.7847 13.2897 29.435 13.5855 28.9945C13.933 28.5156 14.0816 27.9207 14.0005 27.3346L13.0262 21.11L15.9671 20.695L17.2842 28.9945C17.2908 29.0675 17.3122 29.1383 17.347 29.2027C17.3817 29.2672 17.4293 29.3238 17.4867 29.3694C17.544 29.4149 17.61 29.4484 17.6806 29.4677C17.7513 29.487 17.8251 29.4917 17.8977 29.4817H18.4028C18.5203 29.4434 18.6219 29.3672 18.6915 29.2652C18.7209 29.1999 18.736 29.1292 18.736 29.0577C18.736 28.9861 18.7209 28.9154 18.6915 28.8502L17.1038 18.8006C17.0857 18.6552 17.0113 18.5228 16.8966 18.4317C16.7818 18.3406 16.636 18.2981 16.4903 18.3134" fill="white"/>
</g>
<defs>
<clipPath id="clip0_22_1963">
<rect width="40" height="40" fill="white"/>
</clipPath>
</defs>
</svg>
