<svg width="538" height="88" viewBox="0 0 538 88" fill="none" xmlns="http://www.w3.org/2000/svg">
<g clip-path="url(#clip0_22_1151)">
<path d="M96.3765 66.2358L95.9049 65.1354L44.1536 1.08301H0V86.8996H25.3429V21.7642L25.797 22.5328L78.0373 86.8996H121.877V1.08301H96.3765V66.2358Z" fill="#034383"/>
<path d="M365.769 1.08301H330.017L283.697 42.8996L333.126 86.8996H372.144L316.341 42.8996L365.769 1.08301Z" fill="#034383"/>
<path d="M404.019 0H377.122V86.8996H404.019V0Z" fill="#034383"/>
<path d="M283.697 0H256.8V86.8996H283.697V0Z" fill="#034383"/>
<path d="M491.069 1.10059H456.399L408.979 86.9696H438.986L446.915 72.2097H500.081L507.993 86.9696H537.999L491.069 1.10059ZM456.801 53.4849L473.498 22.3408L490.283 53.4325L456.801 53.4849Z" fill="#034383"/>
<path d="M245.308 16.1748L244.836 14.3058L244.05 12.4368L243.124 10.6901L241.884 9.13548L240.138 7.38876L237.186 4.9084L233.955 3.12675L229.903 1.88657L224.925 0.94334L218.725 0.331989L210.795 0.0175781H167.882L159.952 0.331989L153.577 0.94334L148.617 1.88657L144.565 3.12675L142.696 4.06998L141.141 4.99574L138.19 7.47609L136.635 9.22281L135.395 10.7774L134.295 12.5241L133.526 14.3931L133.072 16.2621L132.758 18.2883L132.443 22.7774V64.9084L132.758 69.5896L133.072 71.5984L133.526 73.6246L134.295 75.4936L135.395 77.2403L136.635 78.987L138.19 80.5241L141.141 83.0219L144.407 84.7687L148.46 86.1661L153.42 87.0918L159.795 87.7206L167.567 88.035L189.015 88.1923L210.533 87.8429L218.463 87.5285L224.838 86.8997L229.798 85.9739L234.007 84.5765L237.273 82.8298L240.225 80.3669L241.972 78.8298L243.212 77.0831L244.137 75.3364L244.923 73.4674L245.849 69.4324L246.006 64.7512V22.6901L245.849 18.201L245.308 16.1748ZM222.148 61.5896L221.991 62.5154L221.676 63.4412L221.013 64.2621L220.087 65.0481L218.987 65.5023L217.589 65.9739L215.72 66.2883L213.712 66.4455H164.808L160.895 66.0088L159.498 65.6944L158.398 65.2228L157.629 64.6115L157.158 63.8254L156.843 62.7425V25.3451L157.158 24.4193L157.629 23.4761L158.398 22.6901L159.498 22.0787L160.895 21.6071L162.642 21.2927L164.825 21.1529H214.026L217.764 21.4499L219.161 21.7643L220.244 22.2359L221.03 23.0219L221.659 23.9477L221.973 25.0307L222.13 26.4281L222.148 61.5896Z" fill="#034383"/>
</g>
<defs>
<clipPath id="clip0_22_1151">
<rect width="538" height="88" fill="white"/>
</clipPath>
</defs>
</svg>
