<?xml version="1.0" encoding="utf-8"?>
<!-- Generator: Adobe Illustrator 16.0.0, SVG Export Plug-In . SVG Version: 6.00 Build 0)  -->
<!DOCTYPE svg PUBLIC "-//W3C//DTD SVG 1.1//EN" "http://www.w3.org/Graphics/SVG/1.1/DTD/svg11.dtd">
<svg version="1.1" id="Capa_1" xmlns="http://www.w3.org/2000/svg" xmlns:xlink="http://www.w3.org/1999/xlink" x="0px" y="0px"
	 width="1000px" height="500px" viewBox="0 0 1000 500" enable-background="new 0 0 1000 500" xml:space="preserve">
<g display="none">
	<g display="inline">
		<path fill="#4D4C4D" d="M741.603,223.52L517.269,19.108c-9.846-8.974-24.695-8.973-34.537-0.001L258.396,223.521
			c-7.888,7.188-10.493,18.262-6.64,28.211c3.854,9.951,13.239,16.379,23.91,16.379h35.83v204.806
			c0,8.12,6.584,14.704,14.704,14.704h122.963c8.12,0,14.704-6.583,14.704-14.704V348.565h72.267v124.353
			c0,8.12,6.584,14.704,14.704,14.704h122.957c8.12,0,14.704-6.583,14.704-14.704V268.111h35.837c10.67,0,20.056-6.43,23.91-16.379
			C752.096,241.782,749.49,230.708,741.603,223.52z"/>
	</g>
</g>
<g display="none">
	<g display="inline">
		<path fill="#4D4C4D" d="M684.659,41.729H585.91l113.453,103.16V56.432C699.363,48.312,692.78,41.729,684.659,41.729z"/>
	</g>
</g>
<path display="none" fill="#666666" d="M740.023,485.061V14.939H269.901v470.122H740.023z M485.847,415.988V132.056l-85.122,88.561
	c-7.415,7.708-19.667,7.954-27.366,0.547c-7.699-7.415-7.925-19.667-0.538-27.357L491.241,70.607
	c0.047-0.056,0.104-0.085,0.151-0.132c0.604-0.624,1.285-1.144,1.965-1.672c0.32-0.254,0.604-0.539,0.935-0.765
	c3.107-2.135,6.858-3.382,10.901-3.382c2.684,0,5.242,0.558,7.576,1.55c0.086,0.037,0.16,0.094,0.246,0.131
	c1.077,0.483,2.097,1.041,3.061,1.691c0.368,0.246,0.68,0.577,1.028,0.842c0.652,0.51,1.304,1.02,1.881,1.605
	c0.047,0.047,0.113,0.076,0.16,0.132l117.968,122.748c3.59,3.75,5.394,8.578,5.394,13.395c0,5.082-1.983,10.164-5.94,13.962
	c-7.699,7.406-19.951,7.161-27.357-0.549l-84.669-88.106v283.932c0,10.684-8.662,19.348-19.346,19.348
	C494.51,435.336,485.847,426.672,485.847,415.988z"/>
<polygon fill="#666666" points="656.039,320.887 736.103,243.397 503.111,2.664 277.723,235.89 357.84,313.306 448.167,219.842 
	448.167,500 559.581,500 559.581,221.238 "/>
</svg>
