<svg width="42" height="43" viewBox="0 0 42 43" fill="none" xmlns="http://www.w3.org/2000/svg">
<g clip-path="url(#clip0_39_361)">
<path d="M13.965 8.28497H6.446C6.11183 8.28497 5.79135 8.41772 5.55505 8.65401C5.31875 8.89031 5.186 9.2108 5.186 9.54498C5.186 9.87915 5.31875 10.1996 5.55505 10.4359C5.79135 10.6722 6.11183 10.805 6.446 10.805H13.965C14.2992 10.805 14.6197 10.6722 14.856 10.4359C15.0923 10.1996 15.225 9.87915 15.225 9.54498C15.225 9.2108 15.0923 8.89031 14.856 8.65401C14.6197 8.41772 14.2992 8.28497 13.965 8.28497Z" fill="white"/>
<path d="M13.965 13.324H6.446C6.11183 13.324 5.79135 13.4567 5.55505 13.693C5.31875 13.9293 5.186 14.2498 5.186 14.584C5.186 14.9181 5.31875 15.2386 5.55505 15.4749C5.79135 15.7112 6.11183 15.844 6.446 15.844H13.965C14.2992 15.844 14.6197 15.7112 14.856 15.4749C15.0923 15.2386 15.225 14.9181 15.225 14.584C15.225 14.2498 15.0923 13.9293 14.856 13.693C14.6197 13.4567 14.2992 13.324 13.965 13.324Z" fill="white"/>
<path d="M13.965 18.363H6.446C6.11183 18.363 5.79135 18.4957 5.55505 18.732C5.31875 18.9683 5.186 19.2888 5.186 19.623C5.186 19.9571 5.31875 20.2776 5.55505 20.5139C5.79135 20.7502 6.11183 20.883 6.446 20.883H13.965C14.2992 20.883 14.6197 20.7502 14.856 20.5139C15.0923 20.2776 15.225 19.9571 15.225 19.623C15.225 19.2888 15.0923 18.9683 14.856 18.732C14.6197 18.4957 14.2992 18.363 13.965 18.363Z" fill="white"/>
<path d="M13.965 23.402H6.446C6.11183 23.402 5.79135 23.5347 5.55505 23.771C5.31875 24.0073 5.186 24.3278 5.186 24.662C5.186 24.9961 5.31875 25.3166 5.55505 25.5529C5.79135 25.7892 6.11183 25.922 6.446 25.922H13.965C14.2992 25.922 14.6197 25.7892 14.856 25.5529C15.0923 25.3166 15.225 24.9961 15.225 24.662C15.225 24.3278 15.0923 24.0073 14.856 23.771C14.6197 23.5347 14.2992 23.402 13.965 23.402Z" fill="white"/>
<path d="M13.965 28.526H6.446C6.11183 28.526 5.79135 28.6588 5.55505 28.8951C5.31875 29.1313 5.186 29.4518 5.186 29.786C5.186 30.1202 5.31875 30.4406 5.55505 30.6769C5.79135 30.9132 6.11183 31.046 6.446 31.046H13.965C14.2992 31.046 14.6197 30.9132 14.856 30.6769C15.0923 30.4406 15.225 30.1202 15.225 29.786C15.225 29.4518 15.0923 29.1313 14.856 28.8951C14.6197 28.6588 14.2992 28.526 13.965 28.526Z" fill="white"/>
<path d="M18.196 10.804H25.715C26.0492 10.804 26.3697 10.6712 26.606 10.435C26.8423 10.1987 26.975 9.87817 26.975 9.544C26.975 9.20983 26.8423 8.88933 26.606 8.65304C26.3697 8.41674 26.0492 8.284 25.715 8.284H18.196C17.8618 8.284 17.5413 8.41674 17.305 8.65304C17.0687 8.88933 16.936 9.20983 16.936 9.544C16.936 9.87817 17.0687 10.1987 17.305 10.435C17.5413 10.6712 17.8618 10.804 18.196 10.804Z" fill="white"/>
<path d="M18.196 15.844H25.715C26.0492 15.844 26.3697 15.7112 26.606 15.4749C26.8423 15.2386 26.975 14.9181 26.975 14.584C26.975 14.2498 26.8423 13.9293 26.606 13.693C26.3697 13.4567 26.0492 13.324 25.715 13.324H18.196C17.8618 13.324 17.5413 13.4567 17.305 13.693C17.0687 13.9293 16.936 14.2498 16.936 14.584C16.936 14.9181 17.0687 15.2386 17.305 15.4749C17.5413 15.7112 17.8618 15.844 18.196 15.844Z" fill="white"/>
<path d="M23.08 19.618C23.08 19.2838 22.9472 18.9633 22.711 18.727C22.4747 18.4907 22.1542 18.358 21.82 18.358H18.199C17.8648 18.358 17.5443 18.4907 17.308 18.727C17.0717 18.9633 16.939 19.2838 16.939 19.618C16.939 19.9521 17.0717 20.2726 17.308 20.5089C17.5443 20.7452 17.8648 20.878 18.199 20.878H21.82C22.1542 20.878 22.4747 20.7452 22.711 20.5089C22.9472 20.2726 23.08 19.9521 23.08 19.618Z" fill="white"/>
<path d="M35.01 29.0579C34.7494 28.8489 34.4164 28.7519 34.0843 28.7883C33.7522 28.8246 33.4482 28.9914 33.239 29.2519L29.995 33.293L27.986 31.8379C27.8524 31.7357 27.6997 31.6613 27.5368 31.619C27.374 31.5768 27.2043 31.5676 27.0379 31.592C26.8714 31.6163 26.7115 31.6738 26.5676 31.7609C26.4237 31.8481 26.2988 31.9632 26.2001 32.0994C26.1014 32.2356 26.0309 32.3903 25.9929 32.5542C25.9549 32.718 25.9502 32.8879 25.9789 33.0536C26.0076 33.2194 26.0692 33.3777 26.1601 33.5193C26.251 33.6609 26.3692 33.7828 26.508 33.878L29.488 36.0369C29.7499 36.2269 30.0748 36.3088 30.3954 36.2656C30.7161 36.2224 31.0078 36.0575 31.21 35.805L35.21 30.8249C35.4171 30.5638 35.5124 30.2313 35.4749 29.9001C35.4374 29.569 35.2702 29.2661 35.01 29.0579Z" fill="white"/>
<path d="M38.195 25.191C36.5774 23.5366 34.4538 22.4695 32.161 22.159V5.07398C32.1594 3.72885 31.6243 2.43928 30.673 1.48822C29.7218 0.537168 28.4321 0.00229983 27.087 0.000976563L5.074 0.000976562C3.72895 0.00256393 2.43943 0.537517 1.48825 1.48852C0.53706 2.43952 0.00185248 3.72893 0 5.07398V34.256C0.00158791 35.6012 0.536678 36.8909 1.48789 37.8421C2.43911 38.7933 3.72878 39.3284 5.074 39.33H22.779C23.7568 40.4855 24.9758 41.4129 26.3502 42.047C27.7247 42.6812 29.2213 43.0068 30.735 43.001C32.7974 42.9993 34.8134 42.3885 36.5301 41.2454C38.2467 40.1023 39.5875 38.4777 40.3843 36.5754C41.1811 34.6731 41.3984 32.5779 41.0089 30.5525C40.6194 28.5272 39.6405 26.662 38.195 25.191ZM2.52 34.256V5.07398C2.52079 4.39686 2.79013 3.7477 3.26893 3.2689C3.74772 2.79011 4.39688 2.52077 5.074 2.51998H27.087C27.7641 2.52077 28.4133 2.79011 28.8921 3.2689C29.3709 3.7477 29.6402 4.39686 29.641 5.07398V22.118C27.9969 22.2929 26.4176 22.8545 25.0321 23.7568C23.6466 24.6591 22.4944 25.8765 21.6695 27.3094C20.8447 28.7424 20.3707 30.3502 20.2863 32.0014C20.2019 33.6527 20.5095 35.3004 21.184 36.81H5.074C4.39688 36.8092 3.74772 36.5398 3.26893 36.0611C2.79013 35.5823 2.52079 34.9331 2.52 34.256ZM30.735 40.481C28.6265 40.481 26.6044 39.6434 25.1135 38.1525C23.6226 36.6616 22.785 34.6394 22.785 32.531C22.785 30.4225 23.6226 28.4004 25.1135 26.9095C26.6044 25.4186 28.6265 24.581 30.735 24.581H30.879C32.9875 24.6001 35.002 25.456 36.4794 26.9604C37.9568 28.4648 38.7761 30.4945 38.757 32.603C38.7379 34.7114 37.882 36.726 36.3776 38.2034C34.8732 39.6808 32.8435 40.5001 30.735 40.481Z" fill="white"/>
</g>
<defs>
<clipPath id="clip0_39_361">
<rect width="41.197" height="43" fill="white"/>
</clipPath>
</defs>
</svg>
