<svg width="32" height="42" viewBox="0 0 32 42" fill="none" xmlns="http://www.w3.org/2000/svg">
<g clip-path="url(#clip0_39_379)">
<path d="M31.844 8.571C31.8441 8.41075 31.8127 8.25204 31.7514 8.10396C31.6902 7.95587 31.6003 7.82132 31.487 7.708L24.136 0.357C24.0227 0.243689 23.8881 0.153834 23.74 0.0925758C23.592 0.0313178 23.4333 -0.000140613 23.273 4.7246e-07H1.22C0.896437 4.7246e-07 0.586125 0.128536 0.35733 0.35733C0.128536 0.586125 0 0.896436 0 1.22V40.426C0 40.7496 0.128536 41.0599 0.35733 41.2887C0.586125 41.5175 0.896437 41.646 1.22 41.646H30.62C30.9436 41.646 31.2539 41.5175 31.4827 41.2887C31.7115 41.0599 31.84 40.7496 31.84 40.426V8.571H31.844ZM24.494 4.166L26.087 5.759L27.68 7.352H24.493L24.494 4.166ZM2.44 39.206V2.44H22.05V8.571C22.05 8.89456 22.1785 9.20488 22.4073 9.43367C22.6361 9.66246 22.9464 9.791 23.27 9.791H29.401V39.206H2.44Z" fill="white"/>
<path d="M11.021 22.043H20.821C21.1446 22.043 21.4549 21.9144 21.6837 21.6857C21.9125 21.4569 22.041 21.1465 22.041 20.823V18.376C22.0402 17.2993 21.7555 16.2418 21.2157 15.3103C20.6758 14.3787 19.8998 13.606 18.966 13.07C19.3372 12.5177 19.5512 11.8749 19.5852 11.2103C19.6192 10.5457 19.4719 9.88445 19.159 9.29717C18.8461 8.70989 18.3794 8.21873 17.8089 7.87624C17.2384 7.53376 16.5854 7.35284 15.92 7.35284C15.2546 7.35284 14.6017 7.53376 14.0311 7.87624C13.4606 8.21873 12.9939 8.70989 12.681 9.29717C12.3681 9.88445 12.2208 10.5457 12.2548 11.2103C12.2888 11.8749 12.5028 12.5177 12.874 13.07C11.9402 13.606 11.1642 14.3787 10.6243 15.3103C10.0845 16.2418 9.79979 17.2993 9.79901 18.376V20.826C9.79981 21.1494 9.92897 21.4592 10.1581 21.6874C10.3873 21.9156 10.6976 22.0435 11.021 22.043ZM12.241 18.373C12.233 17.8846 12.3222 17.3994 12.5036 16.9458C12.6849 16.4922 12.9547 16.0793 13.2973 15.731C13.6399 15.3827 14.0483 15.1061 14.4989 14.9173C14.9494 14.7285 15.433 14.6313 15.9215 14.6313C16.41 14.6313 16.8936 14.7285 17.3442 14.9173C17.7947 15.1061 18.2032 15.3827 18.5457 15.731C18.8883 16.0793 19.1581 16.4922 19.3395 16.9458C19.5208 17.3994 19.6101 17.8846 19.602 18.373V19.603H12.241V18.373ZM14.691 11.022C14.691 10.7787 14.7631 10.5409 14.8983 10.3386C15.0335 10.1364 15.2255 9.97871 15.4503 9.88561C15.6751 9.79252 15.9224 9.76816 16.161 9.81562C16.3996 9.86308 16.6187 9.98023 16.7908 10.1522C16.9628 10.3243 17.0799 10.5434 17.1274 10.782C17.1748 11.0206 17.1505 11.2679 17.0574 11.4927C16.9643 11.7174 16.8066 11.9095 16.6044 12.0447C16.4021 12.1798 16.1643 12.252 15.921 12.252C15.595 12.2512 15.2825 12.1212 15.0521 11.8904C14.8218 11.6597 14.6923 11.347 14.692 11.021L14.691 11.022Z" fill="white"/>
<path d="M25.724 32.166H24.412V28.173C24.412 28.0128 24.3804 27.8541 24.3191 27.7061C24.2578 27.5581 24.168 27.4236 24.0547 27.3103C23.9414 27.197 23.8069 27.1072 23.6589 27.0459C23.5109 26.9846 23.3522 26.953 23.192 26.953C23.0318 26.953 22.8731 26.9846 22.7251 27.0459C22.5771 27.1072 22.4426 27.197 22.3293 27.3103C22.216 27.4236 22.1262 27.5581 22.0649 27.7061C22.0036 27.8541 21.972 28.0128 21.972 28.173V32.166H19.43V30.624C19.43 30.3004 19.3015 29.9901 19.0727 29.7613C18.8439 29.5325 18.5336 29.404 18.21 29.404C17.8864 29.404 17.5761 29.5325 17.3473 29.7613C17.1185 29.9901 16.99 30.3004 16.99 30.624V32.166H14.611V28.173C14.611 27.8494 14.4825 27.5391 14.2537 27.3103C14.0249 27.0815 13.7146 26.953 13.391 26.953C13.0674 26.953 12.7571 27.0815 12.5283 27.3103C12.2995 27.5391 12.171 27.8494 12.171 28.173V32.166H9.71V25.723C9.71 25.3994 9.58146 25.0891 9.35267 24.8603C9.12387 24.6315 8.81356 24.503 8.49 24.503C8.16643 24.503 7.85612 24.6315 7.62733 24.8603C7.39853 25.0891 7.27 25.3994 7.27 25.723V32.166H6.121C5.79744 32.166 5.48713 32.2945 5.25833 32.5233C5.02954 32.7521 4.901 33.0624 4.901 33.386C4.901 33.7096 5.02954 34.0199 5.25833 34.2487C5.48713 34.4775 5.79744 34.606 6.121 34.606H25.721C26.0446 34.606 26.3549 34.4775 26.5837 34.2487C26.8125 34.0199 26.941 33.7096 26.941 33.386C26.941 33.0624 26.8125 32.7521 26.5837 32.5233C26.3549 32.2945 26.0446 32.166 25.721 32.166H25.724Z" fill="white"/>
</g>
<defs>
<clipPath id="clip0_39_379">
<rect width="31.844" height="41.646" fill="white"/>
</clipPath>
</defs>
</svg>
