<svg width="26" height="42" viewBox="0 0 26 42" fill="none" xmlns="http://www.w3.org/2000/svg">
<g clip-path="url(#clip0_39_389)">
<path d="M18.173 29.983H7.52202C7.19846 29.983 6.88815 29.8545 6.65935 29.6257C6.43056 29.3969 6.30202 29.0866 6.30202 28.763C6.29752 26.1444 5.29225 23.6266 3.49202 21.725C1.20871 19.2968 -0.0429724 16.0771 0.000677185 12.7442C0.0443268 9.41139 1.3799 6.22559 3.72602 3.858C4.9081 2.6406 6.32187 1.67209 7.88403 1.00951C9.44619 0.346931 11.1252 0.0036876 12.822 0L12.847 0C14.537 0.00275551 16.2099 0.338351 17.7702 0.987626C19.3305 1.6369 20.7476 2.58714 21.9406 3.78409C23.1337 4.98103 24.0793 6.40125 24.7235 7.96365C25.3677 9.52604 25.6978 11.2 25.695 12.89C25.7016 16.188 24.4407 19.3624 22.173 21.757C20.3822 23.6494 19.3869 26.1576 19.393 28.763C19.393 29.0866 19.2645 29.3969 19.0357 29.6257C18.8069 29.8545 18.4966 29.983 18.173 29.983ZM8.68302 27.543H17.01C17.2758 24.7465 18.4703 22.1195 20.403 20.081C22.2729 18.0973 23.2964 15.4632 23.2562 12.7374C23.2161 10.0116 22.1155 7.40874 20.188 5.481C19.2262 4.51425 18.0823 3.74773 16.8224 3.22577C15.5626 2.7038 14.2117 2.43673 12.848 2.44H12.828C11.4544 2.44403 10.0954 2.72295 8.8312 3.26034C7.567 3.79772 6.42314 4.58269 5.46702 5.569C3.56312 7.48713 2.4786 10.0697 2.44222 12.7721C2.40584 15.4745 3.42044 18.0853 5.27202 20.054C7.20755 22.1033 8.40739 24.7376 8.68302 27.543Z" fill="white"/>
<path d="M18.013 33.87H7.681C7.35744 33.87 7.04712 33.7415 6.81833 33.5127C6.58953 33.2839 6.461 32.9736 6.461 32.65C6.461 32.3264 6.58953 32.0161 6.81833 31.7873C7.04712 31.5585 7.35744 31.43 7.681 31.43H18.013C18.3366 31.43 18.6469 31.5585 18.8757 31.7873C19.1045 32.0161 19.233 32.3264 19.233 32.65C19.233 32.9736 19.1045 33.2839 18.8757 33.5127C18.6469 33.7415 18.3366 33.87 18.013 33.87Z" fill="white"/>
<path d="M18.013 37.758H7.681C7.35744 37.758 7.04712 37.6295 6.81833 37.4007C6.58953 37.1719 6.461 36.8616 6.461 36.538C6.461 36.2144 6.58953 35.9041 6.81833 35.6753C7.04712 35.4465 7.35744 35.318 7.681 35.318H18.013C18.3366 35.318 18.6469 35.4465 18.8757 35.6753C19.1045 35.9041 19.233 36.2144 19.233 36.538C19.233 36.8616 19.1045 37.1719 18.8757 37.4007C18.6469 37.6295 18.3366 37.758 18.013 37.758Z" fill="white"/>
<path d="M16.112 41.645H9.582C9.25844 41.645 8.94812 41.5165 8.71933 41.2877C8.49054 41.0589 8.362 40.7486 8.362 40.425C8.362 40.1015 8.49054 39.7911 8.71933 39.5623C8.94812 39.3336 9.25844 39.205 9.582 39.205H16.112C16.4356 39.205 16.7459 39.3336 16.9747 39.5623C17.2035 39.7911 17.332 40.1015 17.332 40.425C17.332 40.7486 17.2035 41.0589 16.9747 41.2877C16.7459 41.5165 16.4356 41.645 16.112 41.645Z" fill="white"/>
</g>
<defs>
<clipPath id="clip0_39_389">
<rect width="25.694" height="41.646" fill="white"/>
</clipPath>
</defs>
</svg>
