<svg width="33" height="33" viewBox="0 0 33 33" fill="none" xmlns="http://www.w3.org/2000/svg">
<path opacity="0.1" d="M28 0H5C2.23858 0 0 2.23858 0 5V28C0 30.7614 2.23858 33 5 33H28C30.7614 33 33 30.7614 33 28V5C33 2.23858 30.7614 0 28 0Z" fill="#125EAC"/>
<path d="M20 10.25H11.75C11.3522 10.25 10.9706 10.408 10.6893 10.6893C10.408 10.9706 10.25 11.3522 10.25 11.75V22.25C10.25 22.6478 10.408 23.0294 10.6893 23.3107C10.9706 23.592 11.3522 23.75 11.75 23.75H22.25C22.6478 23.75 23.0294 23.592 23.3107 23.3107C23.592 23.0294 23.75 22.6478 23.75 22.25V14L20 10.25ZM22.25 22.25H11.75V11.75H19.25V14.75H22.25V22.25ZM13.25 20.75H20.75V19.25H13.25V20.75ZM17 13.25H13.25V14.75H17V13.25ZM13.25 17.75H20.75V16.25H13.25V17.75Z" fill="#125EAC"/>
</svg>
