<svg width="33" height="33" viewBox="0 0 33 33" fill="none" xmlns="http://www.w3.org/2000/svg">
<path opacity="0.1" d="M28 0H5C2.23858 0 0 2.23858 0 5V28C0 30.7614 2.23858 33 5 33H28C30.7614 33 33 30.7614 33 28V5C33 2.23858 30.7614 0 28 0Z" fill="#125EAC"/>
<path d="M20.724 9.12199L17.924 11.922C17.8902 11.9546 17.8635 11.9938 17.8454 12.0371C17.8274 12.0805 17.8184 12.127 17.819 12.174V17.902C17.8187 17.9695 17.8381 18.0357 17.8748 18.0924C17.9114 18.1491 17.9638 18.1939 18.0255 18.2214C18.0872 18.2488 18.1555 18.2577 18.2222 18.247C18.2889 18.2363 18.351 18.2064 18.401 18.161L21.201 15.637C21.2385 15.6051 21.2687 15.5654 21.2892 15.5207C21.3098 15.4759 21.3203 15.4272 21.32 15.378V9.37399C21.3201 9.3049 21.2999 9.2373 21.2617 9.17968C21.2236 9.12205 21.1693 9.07696 21.1057 9.05005C21.042 9.02314 20.9719 9.01561 20.904 9.02841C20.8361 9.04121 20.7735 9.07376 20.724 9.12199ZM23.753 11.822C23.4206 11.6536 23.0759 11.5105 22.722 11.394V19.828C21.9354 19.5417 21.105 19.3945 20.268 19.393C18.9054 19.4017 17.5714 19.7851 16.412 20.501V12.015C15.3031 11.3697 14.05 11.0133 12.7675 10.9783C11.4851 10.9434 10.2143 11.2311 9.07199 11.815C8.95783 11.8734 8.86246 11.9629 8.79684 12.0731C8.73121 12.1833 8.69799 12.3098 8.70099 12.438V20.907C8.70151 21.0284 8.73362 21.1477 8.79417 21.253C8.85471 21.3582 8.94161 21.446 9.04633 21.5075C9.15104 21.569 9.26996 21.6023 9.3914 21.6039C9.51285 21.6056 9.63263 21.5756 9.73899 21.517C10.6064 21.0526 11.5732 20.8049 12.557 20.795C13.9619 20.8215 15.3183 21.314 16.413 22.195C17.5077 21.314 18.864 20.8215 20.269 20.795C21.2538 20.8037 22.2215 21.054 23.087 21.524C23.1933 21.5826 23.3131 21.6126 23.4346 21.6109C23.556 21.6093 23.6749 21.576 23.7797 21.5145C23.8844 21.453 23.9713 21.3652 24.0318 21.26C24.0924 21.1547 24.1245 21.0354 24.125 20.914V12.438C24.1268 12.3107 24.0929 12.1854 24.0271 12.0764C23.9614 11.9673 23.8664 11.8789 23.753 11.821V11.822Z" fill="#125EAC"/>
</svg>
