<svg width="33" height="33" viewBox="0 0 33 33" fill="none" xmlns="http://www.w3.org/2000/svg">
<path opacity="0.1" d="M28 0H5C2.23858 0 0 2.23858 0 5V28C0 30.7614 2.23858 33 5 33H28C30.7614 33 33 30.7614 33 28V5C33 2.23858 30.7614 0 28 0Z" fill="#125EAC"/>
<path d="M16.5 20.671L19.783 22.655C19.916 22.736 20.0699 22.7758 20.2255 22.7696C20.381 22.7634 20.5313 22.7113 20.6573 22.62C20.7834 22.5286 20.8797 22.402 20.9341 22.2562C20.9884 22.1103 20.9985 21.9516 20.963 21.8L20.092 18.063L22.997 15.546C23.1147 15.4443 23.1997 15.3101 23.2415 15.1603C23.2832 15.0104 23.2798 14.8516 23.2316 14.7037C23.1834 14.5558 23.0927 14.4254 22.9707 14.3288C22.8488 14.2323 22.701 14.1739 22.546 14.161L18.722 13.836L17.222 10.305C17.1611 10.1622 17.0596 10.0405 16.93 9.95491C16.8005 9.86935 16.6487 9.82373 16.4935 9.82373C16.3383 9.82373 16.1864 9.86935 16.0569 9.95491C15.9274 10.0405 15.8259 10.1622 15.765 10.305L14.265 13.828L10.452 14.155C10.297 14.1679 10.1492 14.2263 10.0272 14.3228C9.90528 14.4194 9.81452 14.5498 9.76636 14.6977C9.7182 14.8456 9.71477 15.0044 9.75651 15.1543C9.79825 15.3041 9.8833 15.4383 10.001 15.54L12.906 18.055L12.035 21.792C11.9995 21.9436 12.0095 22.1023 12.0639 22.2482C12.1183 22.394 12.2146 22.5206 12.3406 22.612C12.4667 22.7033 12.6169 22.7554 12.7725 22.7616C12.9281 22.7678 13.082 22.728 13.215 22.647L16.5 20.671Z" fill="#125EAC"/>
</svg>
