<svg width="33" height="33" viewBox="0 0 33 33" fill="none" xmlns="http://www.w3.org/2000/svg">
<path d="M16 17.563C17.0952 17.5668 18.1777 17.7966 19.18 18.238C19.5744 18.4154 19.9089 18.7032 20.1431 19.0666C20.3774 19.4301 20.5013 19.8536 20.5 20.286V20.751C20.4995 20.9498 20.4203 21.1402 20.2797 21.2807C20.1392 21.4213 19.9488 21.5005 19.75 21.501H12.25C12.0513 21.5005 11.8608 21.4213 11.7203 21.2807C11.5797 21.1402 11.5005 20.9498 11.5 20.751V20.293C11.497 19.8604 11.6202 19.4362 11.8547 19.0726C12.0892 18.709 12.4246 18.4217 12.82 18.246C13.8205 17.7983 14.9039 17.5656 16 17.563ZM10 17.75C10.2967 17.75 10.5867 17.662 10.8334 17.4972C11.08 17.3324 11.2723 17.0981 11.3858 16.824C11.4994 16.5499 11.5291 16.2483 11.4712 15.9574C11.4133 15.6664 11.2704 15.3991 11.0607 15.1893C10.8509 14.9796 10.5836 14.8367 10.2926 14.7788C10.0017 14.7209 9.70006 14.7507 9.42598 14.8642C9.15189 14.9777 8.91762 15.17 8.7528 15.4166C8.58797 15.6633 8.5 15.9533 8.5 16.25C8.5 16.6478 8.65804 17.0294 8.93934 17.3107C9.22065 17.592 9.60218 17.75 10 17.75ZM10.848 18.575C10.5678 18.527 10.2842 18.5019 10 18.5C9.28247 18.5 8.57266 18.6481 7.915 18.935C7.64324 19.0512 7.41164 19.2448 7.24896 19.4915C7.08628 19.7383 6.99971 20.0274 7 20.323V20.75C7.00053 20.9488 7.07972 21.1392 7.22025 21.2797C7.36079 21.4203 7.55125 21.4995 7.75 21.5H10.375V20.292C10.376 19.6876 10.5394 19.0946 10.848 18.575ZM22 17.75C22.2967 17.75 22.5867 17.662 22.8334 17.4972C23.08 17.3324 23.2723 17.0981 23.3858 16.824C23.4993 16.5499 23.5291 16.2483 23.4712 15.9574C23.4133 15.6664 23.2704 15.3991 23.0607 15.1893C22.8509 14.9796 22.5836 14.8367 22.2926 14.7788C22.0017 14.7209 21.7001 14.7507 21.426 14.8642C21.1519 14.9777 20.9176 15.17 20.7528 15.4166C20.588 15.6633 20.5 15.9533 20.5 16.25C20.5 16.6478 20.658 17.0294 20.9393 17.3107C21.2206 17.592 21.6022 17.75 22 17.75ZM25 20.323C25.0003 20.0274 24.9137 19.7383 24.751 19.4915C24.5884 19.2448 24.3568 19.0512 24.085 18.935C23.1643 18.5282 22.1438 18.4029 21.152 18.575C21.4603 19.0947 21.6233 19.6877 21.624 20.292V21.5H24.25C24.4487 21.4995 24.6392 21.4203 24.7797 21.2797C24.9203 21.1392 24.9995 20.9488 25 20.75V20.323ZM16 12.5C16.445 12.5 16.88 12.632 17.25 12.8792C17.62 13.1264 17.9084 13.4778 18.0787 13.889C18.249 14.3001 18.2936 14.7525 18.2068 15.189C18.12 15.6254 17.9057 16.0263 17.591 16.341C17.2763 16.6557 16.8754 16.87 16.439 16.9568C16.0025 17.0436 15.5501 16.999 15.139 16.8287C14.7278 16.6584 14.3764 16.37 14.1292 16C13.882 15.63 13.75 15.195 13.75 14.75C13.7496 14.4544 13.8075 14.1617 13.9205 13.8885C14.0334 13.6153 14.1991 13.3671 14.4081 13.1581C14.6171 12.9491 14.8653 12.7834 15.1385 12.6705C15.4117 12.5575 15.7044 12.4996 16 12.5Z" fill="#125EAC"/>
<path opacity="0.1" d="M28 0H5C2.23858 0 0 2.23858 0 5V28C0 30.7614 2.23858 33 5 33H28C30.7614 33 33 30.7614 33 28V5C33 2.23858 30.7614 0 28 0Z" fill="#125EAC"/>
</svg>
