<svg width="33" height="33" viewBox="0 0 33 33" fill="none" xmlns="http://www.w3.org/2000/svg">
<path opacity="0.1" d="M28 0H5C2.23858 0 0 2.23858 0 5V28C0 30.7614 2.23858 33 5 33H28C30.7614 33 33 30.7614 33 28V5C33 2.23858 30.7614 0 28 0Z" fill="#125EAC"/>
<path d="M20.75 9.41699H12.25C11.8745 9.41805 11.5147 9.56768 11.2492 9.83319C10.9837 10.0987 10.8341 10.4585 10.833 10.834V22.167C10.8341 22.5425 10.9837 22.9023 11.2492 23.1678C11.5147 23.4333 11.8745 23.5829 12.25 23.584H20.75C21.1255 23.5829 21.4853 23.4333 21.7508 23.1678C22.0163 22.9023 22.166 22.5425 22.167 22.167V10.834C22.166 10.4585 22.0163 10.0987 21.7508 9.83319C21.4853 9.56768 21.1255 9.41805 20.75 9.41699ZM12.25 10.834H15.791V16.5L14.02 15.438L12.25 16.5V10.834Z" fill="#125EAC"/>
</svg>
