<svg width="33" height="33" viewBox="0 0 33 33" fill="none" xmlns="http://www.w3.org/2000/svg">
<path opacity="0.1" d="M28 0H5C2.23858 0 0 2.23858 0 5V28C0 30.7614 2.23858 33 5 33H28C30.7614 33 33 30.7614 33 28V5C33 2.23858 30.7614 0 28 0Z" fill="#125EAC"/>
<path d="M22.266 10.408H11.66C11.3085 10.409 10.9717 10.5492 10.7232 10.7979C10.4747 11.0465 10.3348 11.3834 10.334 11.735L10.327 22.068C10.3271 22.1993 10.3661 22.3277 10.439 22.4369C10.512 22.5461 10.6157 22.6313 10.7369 22.6816C10.8582 22.732 10.9917 22.7454 11.1206 22.72C11.2495 22.6946 11.3679 22.6316 11.461 22.539L12.98 21.02H22.266C22.6177 21.0192 22.9548 20.8791 23.2035 20.6304C23.4522 20.3817 23.5922 20.0447 23.593 19.693V11.735C23.5922 11.3833 23.4522 11.0462 23.2035 10.7975C22.9548 10.5488 22.6177 10.4088 22.266 10.408ZM16.96 13.061C17.2225 13.061 17.479 13.1388 17.6973 13.2846C17.9155 13.4304 18.0856 13.6377 18.186 13.8801C18.2865 14.1226 18.3127 14.3894 18.2615 14.6468C18.2103 14.9043 18.0839 15.1407 17.8984 15.3263C17.7128 15.5119 17.4763 15.6383 17.2189 15.6895C16.9615 15.7407 16.6947 15.7144 16.4522 15.6139C16.2097 15.5135 16.0025 15.3434 15.8567 15.1252C15.7109 14.907 15.633 14.6504 15.633 14.388C15.6338 14.0363 15.7739 13.6992 16.0226 13.4505C16.2713 13.2018 16.6083 13.0618 16.96 13.061ZM19.613 18.367H14.307V17.989C14.3069 17.7277 14.3835 17.4721 14.5273 17.254C14.6711 17.0359 14.8758 16.8648 15.116 16.762C15.6977 16.5082 16.3254 16.3772 16.96 16.3772C17.5946 16.3772 18.2224 16.5082 18.804 16.762C19.0442 16.8648 19.2489 17.0359 19.3927 17.254C19.5366 17.4721 19.6132 17.7277 19.613 17.989V18.367Z" fill="#125EAC"/>
</svg>
