<svg width="24" height="24" viewBox="0 0 24 24" fill="none" xmlns="http://www.w3.org/2000/svg">
<path fill-rule="evenodd" clip-rule="evenodd" d="M20.789 21.2635L3.52539 3.99988C3.52543 3.74401 3.62306 3.48815 3.81828 3.29292C4.20881 2.9024 4.84197 2.9024 5.2325 3.29292L7.11158 5.17201C8.00007 3.28464 9.9179 2 12.1116 2C14.95 2 17.3266 4.15083 17.6091 6.97519L17.8957 9.84133C17.9131 10.0156 17.9218 10.1028 17.9323 10.1885C18.0765 11.3717 18.4832 12.5077 19.1228 13.5135C19.1692 13.5864 19.2177 13.6592 19.3147 13.8047L19.3149 13.8051L20.1761 15.0968C20.9624 16.2763 21.3556 16.866 21.183 17.3412C21.1504 17.4311 21.1051 17.5158 21.0484 17.5928C20.8595 17.8495 20.508 17.9444 19.919 17.9794L21.496 19.5564C21.8865 19.9469 21.8865 20.5801 21.496 20.9706C21.3007 21.1658 21.0449 21.2634 20.789 21.2635ZM6.34661 9.64952L14.6971 18H5.60079C4.18324 18 3.47447 18 3.17474 17.5928C3.11806 17.5158 3.07273 17.4311 3.0401 17.3412C2.86756 16.866 3.26072 16.2763 4.04703 15.0968L4.90817 13.8051L4.90827 13.8049L4.90832 13.8049L4.90834 13.8048C5.00539 13.6593 5.05394 13.5864 5.10029 13.5135C5.73988 12.5077 6.14663 11.3717 6.29083 10.1885C6.30128 10.1028 6.30999 10.0157 6.32741 9.84143L6.32742 9.84141L6.32743 9.84133L6.34661 9.64952ZM12.1111 22C12.6004 22 13.0931 21.9601 13.517 21.8788C13.729 21.8381 13.9365 21.7847 14.1245 21.7144C14.2952 21.6505 14.5281 21.5444 14.7252 21.3606C15.129 20.9838 15.1509 20.351 14.7741 19.9472C14.4186 19.5662 13.8351 19.5252 13.4312 19.8383L13.4236 19.8412C13.3703 19.8612 13.2776 19.8882 13.1402 19.9146C12.8656 19.9673 12.5024 20 12.1111 20C11.7198 20 11.3566 19.9673 11.082 19.9146C10.9446 19.8882 10.852 19.8612 10.7986 19.8412L10.7911 19.8383C10.3871 19.5252 9.80362 19.5662 9.44809 19.9472C9.07133 20.351 9.09325 20.9838 9.49707 21.3606C9.69411 21.5444 9.92699 21.6505 10.0977 21.7144C10.2857 21.7847 10.4932 21.8381 10.7052 21.8788C11.1292 21.9601 11.6219 22 12.1111 22Z" fill="#CCCCCC"/>
</svg>
