<?xml version="1.0" encoding="utf-8"?>
<!-- Generator: Adobe Illustrator 16.0.0, SVG Export Plug-In . SVG Version: 6.00 Build 0)  -->
<!DOCTYPE svg PUBLIC "-//W3C//DTD SVG 1.1//EN" "http://www.w3.org/Graphics/SVG/1.1/DTD/svg11.dtd">
<svg version="1.1" id="레이어_1" xmlns="http://www.w3.org/2000/svg" xmlns:xlink="http://www.w3.org/1999/xlink" x="0px"
	 y="0px" width="24px" height="24px" viewBox="0 0 24 24" enable-background="new 0 0 24 24" xml:space="preserve">
<g opacity="0.5">
	<g>
		<path fill="#595656" d="M18.408,12.484L9.942,4.019L2.386,3.385l0.634,7.559l8.465,8.467l-0.508,0.505l0.919,0.92l0.507-0.509
			l6.926-6.924l0.506-0.506l-0.917-0.919L18.408,12.484z M17.491,13.402l-0.957,0.958L9.343,7.166L8.424,8.084l7.192,7.191
			l-1.339,1.34L7.086,9.424l-0.919,0.918l7.193,7.192l-0.957,0.956l-8.129-8.129L3.987,6.948C4.396,6.866,4.846,6.62,5.233,6.233
			c0.386-0.389,0.631-0.838,0.716-1.246l3.413,0.287L17.491,13.402z"/>
		<path fill="#595656" d="M14.609,22.444c0.974,0.975,2.554,0.975,3.53,0l3.306-3.307c0.976-0.974,0.976-2.554,0-3.529l-1.491-1.489
			l-6.836,6.836L14.609,22.444z"/>
	</g>
	<defs>
		<filter id="Adobe_OpacityMaskFilter" filterUnits="userSpaceOnUse" x="2.96" y="3.958" width="20.29" height="20.292">
			<feColorMatrix  type="matrix" values="1 0 0 0 0  0 1 0 0 0  0 0 1 0 0  0 0 0 1 0"/>
		</filter>
	</defs>
	<mask maskUnits="userSpaceOnUse" x="2.96" y="3.958" width="20.29" height="20.292" id="SVGID_1_">
		<g filter="url(#Adobe_OpacityMaskFilter)">
			<g>
				<g>
					
						<path fill="#737272" stroke="#737272" stroke-width="0.5" stroke-linecap="round" stroke-linejoin="round" stroke-miterlimit="10" d="
						M18.408,12.484L9.942,4.019L2.386,3.385l0.634,7.559l8.465,8.467l-0.508,0.505l0.919,0.92l0.507-0.509l6.926-6.924l0.506-0.506
						l-0.917-0.919L18.408,12.484z M17.491,13.402l-0.957,0.958L9.343,7.166L8.424,8.084l7.192,7.191l-1.339,1.34L7.086,9.424
						l-0.919,0.918l7.193,7.192l-0.957,0.956l-8.129-8.129L3.987,6.948C4.396,6.866,4.846,6.62,5.233,6.233
						c0.386-0.389,0.631-0.838,0.716-1.246l3.413,0.287L17.491,13.402z"/>
					
						<path fill="#737272" stroke="#737272" stroke-width="0.5" stroke-linecap="round" stroke-linejoin="round" stroke-miterlimit="10" d="
						M14.609,22.444c0.974,0.975,2.554,0.975,3.53,0l3.306-3.307c0.976-0.974,0.976-2.554,0-3.529l-1.491-1.489l-6.836,6.836
						L14.609,22.444z"/>
				</g>
			</g>
		</g>
	</mask>
	<g mask="url(#SVGID_1_)">
		<defs>
			<filter id="Adobe_OpacityMaskFilter_1_" filterUnits="userSpaceOnUse" x="2.96" y="3.958" width="20.29" height="20.292">
				<feFlood  style="flood-color:white;flood-opacity:1" result="back"/>
				<feBlend  in="SourceGraphic" in2="back" mode="normal"/>
			</filter>
		</defs>
		<mask maskUnits="userSpaceOnUse" x="2.96" y="3.958" width="20.29" height="20.292" id="SVGID_1_">
			<g filter="url(#Adobe_OpacityMaskFilter_1_)">
				<image overflow="visible" width="25" height="25" xlink:href="AD7CEE5A.jpg"  transform="matrix(1 0 0 1 0.457 1.4033)">
				</image>
			</g>
		</mask>
		<g>
			<g>
				
					<path fill="#737272" stroke="#737272" stroke-width="0.5" stroke-linecap="round" stroke-linejoin="round" stroke-miterlimit="10" d="
					M19.234,13.311l-8.467-8.467L3.21,4.208l0.634,7.559l8.464,8.465l-0.507,0.507l0.918,0.92l0.508-0.509l6.922-6.924l0.509-0.507
					l-0.916-0.918L19.234,13.311z M18.314,14.227l-0.955,0.955l-7.191-7.191l-0.92,0.918l7.191,7.192l-1.337,1.339l-7.194-7.192
					l-0.916,0.918l7.191,7.191l-0.956,0.958l-8.13-8.13L4.811,7.773c0.41-0.083,0.86-0.329,1.246-0.718
					C6.444,6.67,6.69,6.22,6.774,5.813l3.411,0.284L18.314,14.227z"/>
				
					<path fill="#737272" stroke="#737272" stroke-width="0.5" stroke-linecap="round" stroke-linejoin="round" stroke-miterlimit="10" d="
					M15.434,23.27c0.974,0.974,2.556,0.974,3.531,0l3.304-3.307c0.976-0.975,0.976-2.556,0-3.531l-1.489-1.489l-6.837,6.838
					L15.434,23.27z"/>
			</g>
		</g>
	</g>
</g>
</svg>
