<svg width="28" height="27" viewBox="0 0 28 27" fill="none" xmlns="http://www.w3.org/2000/svg">
<path d="M10.4202 10.3359C10.2522 10.4759 10.2242 10.6719 10.3362 10.8399C10.7562 11.3719 11.3442 11.8199 12.0722 12.0999C12.6882 12.3519 13.3882 12.4919 14.0042 12.4919C14.9842 12.4919 16.3842 12.2959 17.5882 11.3159C17.7282 11.2039 17.7562 10.9799 17.6442 10.8399C17.5322 10.6999 17.3082 10.6719 17.1402 10.7839C16.1042 11.6239 14.8722 11.7919 14.0042 11.7919C12.9962 11.7919 11.6242 11.3719 10.8962 10.4199C10.7842 10.2519 10.5602 10.2239 10.4202 10.3359ZM11.8202 7.9279C11.8202 7.3399 11.3442 6.8919 10.7842 6.8919C10.2242 6.8919 9.77618 7.3399 9.77618 7.9279C9.77618 8.4879 10.2242 8.9359 10.7842 8.9359C11.3442 8.9359 11.8202 8.4879 11.8202 7.9279ZM18.5682 8.6839C18.5682 8.0959 18.1202 7.6479 17.5602 7.6479C17.0002 7.6479 16.5242 8.0959 16.5242 8.6839C16.5242 9.2439 17.0002 9.6919 17.5602 9.6919C18.1202 9.6919 18.5682 9.2439 18.5682 8.6839ZM14.2002 10.3359C14.5362 10.3919 14.7322 10.3079 14.8162 9.8879C14.8722 9.6359 14.9002 9.1879 14.8162 8.8239C14.7322 8.4319 14.4242 8.3759 14.1442 8.4599C13.8362 8.5159 12.4642 8.8799 12.1002 8.9919C11.7082 9.1319 11.6522 9.4119 12.0722 9.5799C12.6042 9.8039 13.9202 10.3079 14.2002 10.3359ZM12.9682 18.6799C12.9682 19.2679 13.4442 19.7439 14.0602 19.7439C14.6482 19.7439 15.1242 19.2679 15.1242 18.6799C15.1242 18.0919 14.6482 17.6159 14.0602 17.6159C13.4442 17.6159 12.9682 18.0919 12.9682 18.6799ZM12.9682 22.5999C12.9682 23.1879 13.4442 23.6639 14.0602 23.6639C14.6482 23.6639 15.1242 23.1879 15.1242 22.5999C15.1242 22.0119 14.6482 21.5359 14.0602 21.5359C13.4442 21.5359 12.9682 22.0119 12.9682 22.5999ZM26.8002 10.6719C26.3802 10.7839 25.6522 11.0079 25.3162 11.1199C25.0642 11.1759 24.8682 11.2319 24.7002 10.9239C24.5322 10.5879 24.1402 9.6919 24.0282 9.4399C23.9442 9.2159 23.8322 9.0479 23.6082 9.1319C23.3842 9.2159 23.4402 9.4119 23.5522 9.7759C23.6642 10.1119 23.9442 11.0079 24.0562 11.3439C24.1122 11.5679 24.1962 11.7639 23.9722 12.1279C23.7762 12.4079 22.9642 13.8079 22.6282 14.3679C22.3202 14.0879 22.0402 13.8359 21.7322 13.6119C21.8722 13.3879 21.8722 13.1639 21.7882 12.8559C21.6762 12.4079 21.4242 11.8759 21.2282 11.5399C21.1442 11.3719 21.0042 11.3159 20.8642 11.3719C21.0042 10.8399 21.0602 10.2799 21.0602 9.6639C21.0602 8.5159 20.7802 7.5079 20.2202 6.6679C20.1642 6.5839 20.1362 6.5279 20.0522 6.4439C20.3042 6.1919 20.7522 5.7159 20.9762 5.4359C21.2842 5.0719 21.0882 4.8199 20.8362 4.7919C20.5842 4.7639 20.1362 4.7079 19.7442 4.6519V2.3839C19.7722 1.7679 19.8002 1.4599 19.1282 1.2079C18.4562 0.955898 14.5922 0.143897 14.0602 0.115897C13.5002 0.0598977 13.2202 0.255896 13.0242 0.619897C12.8282 0.983897 11.8202 2.7479 11.8202 2.7479C11.4842 2.6079 11.3722 2.5799 10.8682 2.2999C10.3922 2.0479 10.1962 2.3559 10.2802 2.8319C10.3922 3.3359 10.5882 4.0359 10.6722 4.3159C10.1962 4.5119 9.74818 4.7639 9.32818 5.0159C7.87218 6.0239 7.11618 7.4799 7.11618 9.2719C7.11618 9.9999 7.20018 10.6999 7.34018 11.3159C7.14418 11.2879 7.03218 11.4559 6.92018 11.6799C6.75218 12.0159 6.55618 12.4359 6.41618 12.9119C6.27618 13.3879 6.41618 13.5279 6.69618 13.7799C6.50018 13.9479 6.27618 14.1439 6.08018 14.3119C5.71618 13.8919 4.84818 12.8559 4.59618 12.5759C4.31618 12.2399 4.40018 12.0439 4.42818 11.8199C4.48418 11.4839 4.56818 10.9799 4.62418 10.6159C4.68018 10.2519 4.68018 10.0559 4.45618 9.9999C4.20418 9.9439 4.14818 10.1399 4.06418 10.3639C4.00818 10.6159 3.84018 11.1479 3.70018 11.5119C3.58818 11.8479 3.39218 11.8199 3.14018 11.7639C2.77618 11.7359 2.04818 11.6239 1.60018 11.5399C1.12418 11.4839 0.844183 11.4839 0.760183 11.7359C0.648183 12.0439 0.984183 12.0999 1.34818 12.2119C1.71218 12.2959 2.69218 12.4919 3.19618 12.6319C3.64418 12.7439 3.81218 12.9119 4.09218 13.2479C4.28818 13.4999 5.07218 14.5359 5.43618 15.0119C4.34418 16.3279 3.84018 17.9519 3.84018 19.9679C3.84018 22.1239 4.51218 23.7199 5.94018 24.8679C8.12418 26.6319 12.0162 26.7439 13.7242 26.7439H14.9282C16.6362 26.7439 20.5002 26.6319 22.7122 24.8679C24.1402 23.7199 24.8122 22.1239 24.8122 19.9679C24.8122 17.9799 24.3082 16.3839 23.2722 15.0959C23.5802 14.5639 24.4202 13.0239 24.5882 12.7159C24.8122 12.3519 24.9522 12.1559 25.4002 11.9599C25.8762 11.7639 26.8002 11.4279 27.1362 11.2599C27.4722 11.1199 27.8082 11.0359 27.6682 10.7279C27.5562 10.5039 27.2762 10.5319 26.8002 10.6719ZM14.8162 14.0599C12.2962 14.0599 10.3642 13.5279 8.90818 12.5479C8.40418 11.9879 8.06818 11.3439 7.90018 10.5879C7.84418 10.1959 7.81618 9.7479 7.81618 9.2719C7.81618 8.4599 7.98418 7.7039 8.34818 7.0599C8.68418 6.4999 9.13218 5.9959 9.72018 5.6039C10.2522 5.2399 10.8962 4.9599 11.5682 4.7639C12.4362 5.0439 13.6122 5.3239 14.9842 5.6319C16.8042 6.0519 18.0922 6.2479 19.1282 6.4159C19.9402 7.2559 20.3602 8.3479 20.3602 9.6639C20.3602 10.4479 20.1922 11.7919 19.4922 12.6319C18.4842 13.3599 16.9442 14.0599 14.8162 14.0599ZM14.5362 26.0439H14.1162C12.7442 26.0719 8.57218 26.0999 6.38818 24.3359C5.12818 23.3279 4.54018 21.8999 4.54018 19.9679C4.54018 18.0919 5.01618 16.6079 5.99618 15.4319C6.36018 14.9839 6.80818 14.5919 7.22818 14.2559C9.04818 15.7119 11.8202 16.4959 14.9562 16.4119C15.6562 16.4119 16.5242 16.2159 16.9162 16.1599C17.3082 16.1039 17.4202 15.9919 17.6162 16.4399C17.8122 16.8599 18.0642 17.6719 18.2042 18.2319C18.3442 18.7639 18.6242 18.8479 19.0162 18.7079C19.7162 18.4279 20.6962 17.9239 21.1442 17.5879C21.4522 17.3359 21.5362 17.1679 21.3962 16.7199C21.2002 16.0479 20.8922 15.4879 20.7522 15.0959C20.6402 14.8159 20.6962 14.6759 20.8362 14.5639C20.9202 14.4799 21.0882 14.3399 21.2562 14.1439C21.7602 14.5079 22.2362 14.9279 22.6562 15.4319C23.6362 16.6079 24.1122 18.0919 24.1122 19.9679C24.1122 21.8999 23.5242 23.3279 22.2642 24.3359C20.0802 26.0999 15.9082 26.0719 14.5362 26.0439Z" fill="black"/>
<path d="M10.4202 10.3359C10.2522 10.4759 10.2242 10.6719 10.3362 10.8399C10.7562 11.3719 11.3442 11.8199 12.0722 12.0999C12.6882 12.3519 13.3882 12.4919 14.0042 12.4919C14.9842 12.4919 16.3842 12.2959 17.5882 11.3159C17.7282 11.2039 17.7562 10.9799 17.6442 10.8399C17.5322 10.6999 17.3082 10.6719 17.1402 10.7839C16.1042 11.6239 14.8722 11.7919 14.0042 11.7919C12.9962 11.7919 11.6242 11.3719 10.8962 10.4199C10.7842 10.2519 10.5602 10.2239 10.4202 10.3359ZM11.8202 7.9279C11.8202 7.3399 11.3442 6.8919 10.7842 6.8919C10.2242 6.8919 9.77618 7.3399 9.77618 7.9279C9.77618 8.4879 10.2242 8.9359 10.7842 8.9359C11.3442 8.9359 11.8202 8.4879 11.8202 7.9279ZM18.5682 8.6839C18.5682 8.0959 18.1202 7.6479 17.5602 7.6479C17.0002 7.6479 16.5242 8.0959 16.5242 8.6839C16.5242 9.2439 17.0002 9.6919 17.5602 9.6919C18.1202 9.6919 18.5682 9.2439 18.5682 8.6839ZM14.2002 10.3359C14.5362 10.3919 14.7322 10.3079 14.8162 9.8879C14.8722 9.6359 14.9002 9.1879 14.8162 8.8239C14.7322 8.4319 14.4242 8.3759 14.1442 8.4599C13.8362 8.5159 12.4642 8.8799 12.1002 8.9919C11.7082 9.1319 11.6522 9.4119 12.0722 9.5799C12.6042 9.8039 13.9202 10.3079 14.2002 10.3359ZM12.9682 18.6799C12.9682 19.2679 13.4442 19.7439 14.0602 19.7439C14.6482 19.7439 15.1242 19.2679 15.1242 18.6799C15.1242 18.0919 14.6482 17.6159 14.0602 17.6159C13.4442 17.6159 12.9682 18.0919 12.9682 18.6799ZM12.9682 22.5999C12.9682 23.1879 13.4442 23.6639 14.0602 23.6639C14.6482 23.6639 15.1242 23.1879 15.1242 22.5999C15.1242 22.0119 14.6482 21.5359 14.0602 21.5359C13.4442 21.5359 12.9682 22.0119 12.9682 22.5999ZM26.8002 10.6719C26.3802 10.7839 25.6522 11.0079 25.3162 11.1199C25.0642 11.1759 24.8682 11.2319 24.7002 10.9239C24.5322 10.5879 24.1402 9.6919 24.0282 9.4399C23.9442 9.2159 23.8322 9.0479 23.6082 9.1319C23.3842 9.2159 23.4402 9.4119 23.5522 9.7759C23.6642 10.1119 23.9442 11.0079 24.0562 11.3439C24.1122 11.5679 24.1962 11.7639 23.9722 12.1279C23.7762 12.4079 22.9642 13.8079 22.6282 14.3679C22.3202 14.0879 22.0402 13.8359 21.7322 13.6119C21.8722 13.3879 21.8722 13.1639 21.7882 12.8559C21.6762 12.4079 21.4242 11.8759 21.2282 11.5399C21.1442 11.3719 21.0042 11.3159 20.8642 11.3719C21.0042 10.8399 21.0602 10.2799 21.0602 9.6639C21.0602 8.5159 20.7802 7.5079 20.2202 6.6679C20.1642 6.5839 20.1362 6.5279 20.0522 6.4439C20.3042 6.1919 20.7522 5.7159 20.9762 5.4359C21.2842 5.0719 21.0882 4.8199 20.8362 4.7919C20.5842 4.7639 20.1362 4.7079 19.7442 4.6519V2.3839C19.7722 1.7679 19.8002 1.4599 19.1282 1.2079C18.4562 0.955898 14.5922 0.143897 14.0602 0.115897C13.5002 0.0598977 13.2202 0.255896 13.0242 0.619897C12.8282 0.983897 11.8202 2.7479 11.8202 2.7479C11.4842 2.6079 11.3722 2.5799 10.8682 2.2999C10.3922 2.0479 10.1962 2.3559 10.2802 2.8319C10.3922 3.3359 10.5882 4.0359 10.6722 4.3159C10.1962 4.5119 9.74818 4.7639 9.32818 5.0159C7.87218 6.0239 7.11618 7.4799 7.11618 9.2719C7.11618 9.9999 7.20018 10.6999 7.34018 11.3159C7.14418 11.2879 7.03218 11.4559 6.92018 11.6799C6.75218 12.0159 6.55618 12.4359 6.41618 12.9119C6.27618 13.3879 6.41618 13.5279 6.69618 13.7799C6.50018 13.9479 6.27618 14.1439 6.08018 14.3119C5.71618 13.8919 4.84818 12.8559 4.59618 12.5759C4.31618 12.2399 4.40018 12.0439 4.42818 11.8199C4.48418 11.4839 4.56818 10.9799 4.62418 10.6159C4.68018 10.2519 4.68018 10.0559 4.45618 9.9999C4.20418 9.9439 4.14818 10.1399 4.06418 10.3639C4.00818 10.6159 3.84018 11.1479 3.70018 11.5119C3.58818 11.8479 3.39218 11.8199 3.14018 11.7639C2.77618 11.7359 2.04818 11.6239 1.60018 11.5399C1.12418 11.4839 0.844183 11.4839 0.760183 11.7359C0.648183 12.0439 0.984183 12.0999 1.34818 12.2119C1.71218 12.2959 2.69218 12.4919 3.19618 12.6319C3.64418 12.7439 3.81218 12.9119 4.09218 13.2479C4.28818 13.4999 5.07218 14.5359 5.43618 15.0119C4.34418 16.3279 3.84018 17.9519 3.84018 19.9679C3.84018 22.1239 4.51218 23.7199 5.94018 24.8679C8.12418 26.6319 12.0162 26.7439 13.7242 26.7439H14.9282C16.6362 26.7439 20.5002 26.6319 22.7122 24.8679C24.1402 23.7199 24.8122 22.1239 24.8122 19.9679C24.8122 17.9799 24.3082 16.3839 23.2722 15.0959C23.5802 14.5639 24.4202 13.0239 24.5882 12.7159C24.8122 12.3519 24.9522 12.1559 25.4002 11.9599C25.8762 11.7639 26.8002 11.4279 27.1362 11.2599C27.4722 11.1199 27.8082 11.0359 27.6682 10.7279C27.5562 10.5039 27.2762 10.5319 26.8002 10.6719ZM14.8162 14.0599C12.2962 14.0599 10.3642 13.5279 8.90818 12.5479C8.40418 11.9879 8.06818 11.3439 7.90018 10.5879C7.84418 10.1959 7.81618 9.7479 7.81618 9.2719C7.81618 8.4599 7.98418 7.7039 8.34818 7.0599C8.68418 6.4999 9.13218 5.9959 9.72018 5.6039C10.2522 5.2399 10.8962 4.9599 11.5682 4.7639C12.4362 5.0439 13.6122 5.3239 14.9842 5.6319C16.8042 6.0519 18.0922 6.2479 19.1282 6.4159C19.9402 7.2559 20.3602 8.3479 20.3602 9.6639C20.3602 10.4479 20.1922 11.7919 19.4922 12.6319C18.4842 13.3599 16.9442 14.0599 14.8162 14.0599ZM14.5362 26.0439H14.1162C12.7442 26.0719 8.57218 26.0999 6.38818 24.3359C5.12818 23.3279 4.54018 21.8999 4.54018 19.9679C4.54018 18.0919 5.01618 16.6079 5.99618 15.4319C6.36018 14.9839 6.80818 14.5919 7.22818 14.2559C9.04818 15.7119 11.8202 16.4959 14.9562 16.4119C15.6562 16.4119 16.5242 16.2159 16.9162 16.1599C17.3082 16.1039 17.4202 15.9919 17.6162 16.4399C17.8122 16.8599 18.0642 17.6719 18.2042 18.2319C18.3442 18.7639 18.6242 18.8479 19.0162 18.7079C19.7162 18.4279 20.6962 17.9239 21.1442 17.5879C21.4522 17.3359 21.5362 17.1679 21.3962 16.7199C21.2002 16.0479 20.8922 15.4879 20.7522 15.0959C20.6402 14.8159 20.6962 14.6759 20.8362 14.5639C20.9202 14.4799 21.0882 14.3399 21.2562 14.1439C21.7602 14.5079 22.2362 14.9279 22.6562 15.4319C23.6362 16.6079 24.1122 18.0919 24.1122 19.9679C24.1122 21.8999 23.5242 23.3279 22.2642 24.3359C20.0802 26.0999 15.9082 26.0719 14.5362 26.0439Z" fill="url(#paint0_linear_74_39)" fill-opacity="0.8"/>
<defs>
<linearGradient id="paint0_linear_74_39" x1="18.7805" y1="-7.7439" x2="14.2195" y2="26.7439" gradientUnits="userSpaceOnUse">
<stop stop-color="#3F8AE1"/>
<stop offset="1" stop-color="#3B3F85" stop-opacity="0.5"/>
</linearGradient>
</defs>
</svg>
