<svg width="115" height="131" viewBox="0 0 115 131" fill="none" xmlns="http://www.w3.org/2000/svg">
<g clip-path="url(#clip0_3_12)">
<path d="M55.79 43L54.56 33.63C54.5454 33.4735 54.4693 33.3293 54.3483 33.2289C54.2273 33.1286 54.0715 33.0804 53.915 33.095C53.7585 33.1096 53.6142 33.1858 53.5139 33.3067C53.4136 33.4277 53.3654 33.5835 53.38 33.74L54.61 43.12C54.6259 43.2765 54.7033 43.4202 54.8252 43.5196C54.9471 43.619 55.1035 43.6659 55.26 43.65C55.4165 43.6341 55.5602 43.5567 55.6596 43.4348C55.759 43.3129 55.8059 43.1565 55.79 43V43ZM28.35 104.2C27.764 104.69 27.127 105.116 26.45 105.47C25.79 103.47 24.52 100.87 22.66 99.8C22.56 99.8 22.45 99.87 22.48 99.97C22.9713 100.999 23.5188 102.001 24.12 102.97C24.5928 103.939 24.9938 104.942 25.32 105.97C21.5381 107.361 17.4872 107.864 13.48 107.44C12.48 107.34 11.37 107.22 10.28 107.01C10.2983 105.135 10.4118 103.263 10.62 101.4C10.6131 101.388 10.6029 101.377 10.5906 101.37C10.5783 101.363 10.5643 101.359 10.55 101.359C10.5357 101.359 10.5217 101.363 10.5094 101.37C10.4971 101.377 10.4869 101.388 10.48 101.4C9.63207 103.075 9.18368 104.923 9.17 106.8C8.60707 106.652 8.05828 106.454 7.53 106.21C6.01 105.47 6.53 106.15 6.53 104.86C6.24 97.47 14.53 93.86 20.62 94.66C22.3218 95.0371 23.9137 95.8017 25.2717 96.8944C26.6298 97.9871 27.7174 99.3784 28.45 100.96C29.45 102.96 29.79 102.96 28.38 104.21L28.35 104.2ZM20.86 93.08C15.75 92.4 9.86 94 6.94 98.61C5.75 100.49 3.49 105.41 5.64 107.17C6.64 107.99 8.9 108.3 10.09 108.56C13.0457 109.199 16.0868 109.344 19.09 108.99C23.2125 108.567 27.1511 107.067 30.51 104.64C30.6209 104.558 30.7087 104.448 30.7648 104.322C30.8209 104.196 30.8433 104.057 30.83 103.92C30.4777 101.305 29.329 98.862 27.5399 96.9226C25.7508 94.9832 23.4081 93.6416 20.83 93.08H20.86ZM61 96.85L59.77 87.47C59.67 86.71 58.49 86.82 58.59 87.58L59.8 97C59.9 97.76 61.08 97.65 60.98 96.89L61 96.85ZM64.61 112C62.01 113.27 58.22 112.18 56.94 109.51C56.5982 108.861 56.4067 108.144 56.3796 107.411C56.3524 106.679 56.4904 105.949 56.7833 105.277C57.0761 104.605 57.5164 104.007 58.0715 103.528C58.6265 103.049 59.2822 102.701 59.99 102.51C65.94 100.16 70.5 109.13 64.61 112ZM55.17 109.44C56.42 113.32 61.37 115.08 64.98 113.62C66.566 112.903 67.8124 111.599 68.4575 109.982C69.1027 108.366 69.0964 106.562 68.44 104.95C68.1098 104.099 67.6144 103.322 66.9825 102.663C66.3505 102.004 65.5945 101.477 64.758 101.112C63.9214 100.747 63.0209 100.55 62.1082 100.535C61.1955 100.519 60.2887 100.684 59.44 101.02C55.82 101.93 54.05 105.91 55.19 109.44H55.17ZM72.65 126.44C72.38 126.58 72.1 126.7 71.83 126.83C71.2 125 70.04 122.83 68.39 121.91C68.3668 121.899 68.3407 121.894 68.3151 121.898C68.2895 121.901 68.2655 121.912 68.2462 121.929C68.2269 121.947 68.2131 121.969 68.2067 121.994C68.2002 122.019 68.2014 122.046 68.21 122.07C68.6357 123.031 69.1303 123.96 69.69 124.85C70.086 125.657 70.4203 126.493 70.69 127.35C66.7438 128.94 62.4341 129.403 58.24 128.69L57.04 128.51C57.04 126.81 57.13 125.13 57.31 123.42C57.31 123.401 57.3026 123.384 57.2895 123.371C57.2764 123.357 57.2586 123.35 57.24 123.35C57.2214 123.35 57.2036 123.357 57.1905 123.371C57.1774 123.384 57.17 123.401 57.17 123.42C56.3684 124.944 55.9432 126.638 55.93 128.36C55.1605 128.259 54.4266 127.974 53.79 127.53C53.28 127.05 53.35 126.94 53.66 125.84C55.39 119.7 59.97 116.42 66.48 117.28C70.2 118.2 72.24 120.39 73.91 123.69C74.91 125.69 74.47 125.51 72.66 126.48L72.65 126.44ZM66.75 115.7C62.07 115.08 56.75 116.5 53.97 120.7C52.87 122.36 50.74 126.94 52.47 128.7C53.11 129.37 55.15 129.7 55.99 129.89C58.7769 130.603 61.6666 130.827 64.53 130.55C68.5533 130.244 72.413 128.828 75.68 126.46C75.7943 126.38 75.8852 126.272 75.9432 126.145C76.0012 126.018 76.0243 125.879 76.01 125.74C75.6629 123.331 74.5913 121.084 72.9374 119.298C71.2835 117.512 69.1256 116.271 66.75 115.74V115.7ZM8.79 29.35C15.33 26.76 20.33 36.62 13.86 39.77C11 41.17 6.85 40 5.44 37C5.06414 36.2875 4.85339 35.4996 4.82335 34.6947C4.79331 33.8897 4.94476 33.0882 5.26648 32.3497C5.58819 31.6112 6.07193 30.9546 6.68187 30.4284C7.2918 29.9022 8.0123 29.52 8.79 29.31V29.35ZM14.21 41.31C15.914 40.5381 17.2531 39.1365 17.9466 37.399C18.6401 35.6616 18.6341 33.7232 17.93 31.99C17.5745 31.0714 17.0404 30.2325 16.3585 29.5217C15.6766 28.8109 14.8606 28.2424 13.9576 27.849C13.0546 27.4556 12.0826 27.2452 11.0977 27.2299C10.1129 27.2146 9.13476 27.3948 8.22 27.76C4.32 28.76 2.42 33.02 3.64 36.82C5 41.09 10.32 43 14.21 41.4V41.31ZM44 25.27C45.74 19.13 50.31 15.84 56.83 16.7C60.55 17.63 62.58 19.82 64.25 23.12C65.25 25.12 64.81 24.93 63 25.9C62.73 26.04 62.45 26.16 62.18 26.29C61.55 24.46 60.39 22.29 58.74 21.37C58.64 21.32 58.53 21.44 58.57 21.54C58.9813 22.4957 59.4591 23.4213 60 24.31C60.3915 25.1189 60.7257 25.9543 61 26.81C57.0511 28.4022 52.7383 28.8695 48.54 28.16L47.33 28C47.33 26.29 47.43 24.62 47.6 22.91C47.5994 22.894 47.5941 22.8785 47.5846 22.8656C47.5752 22.8527 47.562 22.8429 47.547 22.8375C47.5319 22.8321 47.5155 22.8314 47.5 22.8354C47.4845 22.8394 47.4706 22.848 47.46 22.86C46.6631 24.3859 46.2382 26.0786 46.22 27.8C45.4526 27.7099 44.7184 27.4354 44.08 27C43.57 26.52 43.64 26.41 43.95 25.32L44 25.27ZM46.28 29.37C49.0686 30.0728 51.9565 30.296 54.82 30.03C58.8567 29.7053 62.7254 28.2727 66 25.89C66.1133 25.8076 66.2026 25.6966 66.2588 25.5683C66.315 25.4401 66.3362 25.2991 66.32 25.16C65.9736 22.752 64.9034 20.5062 63.2515 18.7203C61.5995 16.9344 59.4437 15.6927 57.07 15.16C52.39 14.54 47.07 15.95 44.28 20.11C43.19 21.77 41.06 26.35 42.78 28.11C43.42 28.78 45.47 29.11 46.3 29.31L46.28 29.37ZM1.75 55.51C1.46 48.13 9.75 44.51 15.84 45.32C17.5418 45.6971 19.1337 46.4617 20.4917 47.5544C21.8498 48.6471 22.9374 50.0384 23.67 51.62C24.67 53.62 25.01 53.62 23.6 54.86C23.0168 55.3567 22.3794 55.7861 21.7 56.14C21.04 54.14 19.77 51.54 17.91 50.47C17.81 50.41 17.7 50.54 17.73 50.64C18.2234 51.6682 18.7709 52.6696 19.37 53.64C19.8428 54.6094 20.2438 55.612 20.57 56.64C16.7894 58.0365 12.7394 58.5496 8.73 58.14C7.6564 58.0541 6.5882 57.9105 5.53 57.71C5.54861 55.8388 5.66209 53.9697 5.87 52.11C5.86432 52.0947 5.85408 52.0815 5.84068 52.0722C5.82727 52.0629 5.81133 52.0579 5.795 52.0579C5.77867 52.0579 5.76273 52.0629 5.74932 52.0722C5.73592 52.0815 5.72568 52.0947 5.72 52.11C4.87758 53.7862 4.43274 55.634 4.42 57.51C3.85707 57.3619 3.30828 57.1645 2.78 56.92C1.26 56.18 1.78 56.85 1.78 55.56L1.75 55.51ZM5.37 59.28C8.32562 59.9207 11.3676 60.0626 14.37 59.7C18.4901 59.2874 22.4272 57.7899 25.78 55.36C25.8936 55.2774 25.9837 55.1667 26.0416 55.0387C26.0994 54.9107 26.123 54.7699 26.11 54.63C25.755 52.0161 24.6053 49.5745 22.8167 47.6356C21.0281 45.6967 18.6868 44.3543 16.11 43.79C11 43.12 5.11 44.72 2.19 49.33C1 51.16 -1.26 56.08 0.89 57.84C1.89 58.66 4.15 58.97 5.34 59.23L5.37 59.28ZM18.61 89.11C15.76 90.5 11.61 89.31 10.19 86.38C9.81612 85.6665 9.60694 84.8782 9.57784 84.0732C9.54873 83.2681 9.70045 82.4668 10.0218 81.7281C10.3432 80.9894 10.8261 80.3322 11.4349 79.8047C12.0437 79.2772 12.7631 78.8929 13.54 78.68C20.08 76.1 25.08 86 18.61 89.11ZM13 77.19C9.1 78.19 7.2 82.44 8.42 86.19C9.77 90.37 15.1 92.27 18.99 90.69C20.6948 89.9161 22.034 88.5127 22.7274 86.7736C23.4208 85.0345 23.4146 83.0946 22.71 81.36C22.3487 80.4468 21.8103 79.614 21.126 78.9096C20.4416 78.2051 19.6247 77.643 18.7223 77.2554C17.8199 76.8679 16.8497 76.6626 15.8677 76.6514C14.8856 76.6401 13.911 76.8232 13 77.19V77.19ZM111.6 93.9C111.313 94.06 111.023 94.21 110.73 94.35C110.2 92.88 109.2 91.03 107.85 90.46C107.74 90.46 107.65 90.52 107.68 90.63C107.977 91.4352 108.359 92.2063 108.82 92.93C109.115 93.556 109.369 94.2007 109.58 94.86C106.923 95.9265 104.054 96.3612 101.2 96.13C100.71 96.13 99.67 96.02 98.6 95.87C98.6 94.49 98.66 93.12 98.74 91.73C98.74 91.7115 98.7326 91.6936 98.7195 91.6805C98.7064 91.6674 98.6886 91.66 98.67 91.66C98.6514 91.66 98.6336 91.6674 98.6205 91.6805C98.6074 91.6936 98.6 91.7115 98.6 91.73C97.9015 92.9491 97.523 94.3252 97.5 95.73C96.7236 95.6596 95.994 95.3282 95.43 94.79C95.6 95.06 95.83 94.56 95.8 94.39C95.53 92.76 96.92 90.79 97.87 89.71C98.9053 88.558 100.217 87.689 101.682 87.1851C103.146 86.6812 104.715 86.559 106.24 86.83C109.06 87.54 110.66 89.16 112.09 91.64C112.97 93.17 112.98 93.16 111.6 93.95V93.9ZM106.51 85.26C102.69 84.75 98.34 85.87 96.01 89.26C94.9 90.84 93.01 94.78 94.87 96.34C97.15 98.28 102.66 98.05 105.29 97.71C108.402 97.3807 111.374 96.243 113.91 94.41C114.025 94.3291 114.115 94.2183 114.172 94.0896C114.228 93.961 114.248 93.8193 114.23 93.68C113.947 91.6652 113.057 89.7845 111.678 88.2889C110.298 86.7934 108.495 85.7542 106.51 85.31V85.26ZM91.05 45C90.78 43.36 92.17 41.4 93.12 40.32C94.1553 39.168 95.4672 38.2991 96.9317 37.7951C98.3962 37.2912 99.9651 37.169 101.49 37.44C104.31 38.14 105.91 39.77 107.34 42.25C108.22 43.78 108.23 43.77 106.85 44.56L106 45C105.47 43.52 104.47 41.68 103.12 41.11C103.01 41.06 102.92 41.11 102.95 41.27C103.245 42.0793 103.627 42.8539 104.09 43.58C104.389 44.2045 104.643 44.8495 104.85 45.51C102.193 46.5781 99.3234 47.0096 96.47 46.77C95.98 46.77 94.94 46.67 93.87 46.52C93.87 45.14 93.93 43.76 94.01 42.38C94.0031 42.3675 93.9929 42.3571 93.9806 42.3498C93.9683 42.3426 93.9543 42.3387 93.94 42.3387C93.9257 42.3387 93.9117 42.3426 93.8994 42.3498C93.8871 42.3571 93.8769 42.3675 93.87 42.38C93.1731 43.5998 92.7948 44.9754 92.77 46.38C91.9946 46.3058 91.2662 45.975 90.7 45.44C90.87 45.7 91.1 45.2 91.07 45.04L91.05 45ZM100.56 48.31C103.665 47.9693 106.628 46.8288 109.16 45C109.275 44.9215 109.366 44.8126 109.422 44.6854C109.479 44.5583 109.499 44.4179 109.48 44.28C109.197 42.2652 108.307 40.3845 106.928 38.8889C105.548 37.3934 103.745 36.3542 101.76 35.91C97.94 35.4 93.59 36.52 91.26 39.85C90.15 41.43 88.26 45.37 90.12 46.93C92.4 48.93 97.91 48.65 100.54 48.31H100.56ZM39.6 66.48L25.51 60C25.3665 59.9404 25.2055 59.9388 25.0609 59.9955C24.9162 60.0521 24.7992 60.1627 24.7344 60.3039C24.6697 60.4451 24.6622 60.606 24.7136 60.7526C24.765 60.8992 24.8712 61.0202 25.01 61.09L39.11 67.53C39.2532 67.595 39.4164 67.6004 39.5636 67.5451C39.7108 67.4898 39.83 67.3782 39.895 67.235C39.96 67.0918 39.9654 66.9286 39.9101 66.7814C39.8548 66.6342 39.7432 66.515 39.6 66.45V66.48ZM96.26 25.35C100.99 23.49 104.63 30.62 99.94 32.89C98.8534 33.3743 97.6257 33.4378 96.4949 33.0683C95.3642 32.6988 94.4109 31.9225 93.82 30.89C93.5499 30.3734 93.3993 29.8028 93.3794 29.2202C93.3595 28.6376 93.4708 28.058 93.705 27.5242C93.9393 26.9904 94.2905 26.516 94.7328 26.1363C95.175 25.7565 95.6969 25.4809 96.26 25.33V25.35ZM100.36 34.46C101.698 33.8566 102.751 32.7577 103.295 31.3943C103.84 30.0309 103.834 28.5094 103.28 27.15C103.002 26.4322 102.584 25.7767 102.051 25.2212C101.518 24.6657 100.88 24.2212 100.175 23.9135C99.4691 23.6057 98.7094 23.4408 97.9397 23.4282C97.17 23.4156 96.4054 23.5556 95.69 23.84C94.9696 24.0521 94.3006 24.4102 93.7246 24.8922C93.1486 25.3741 92.6781 25.9694 92.3422 26.6411C92.0064 27.3128 91.8124 28.0465 91.7725 28.7964C91.7325 29.5463 91.8474 30.2964 92.11 31C93.17 34.26 97.32 35.75 100.36 34.52V34.46ZM104.69 82.27C103.603 82.752 102.376 82.8143 101.246 82.445C100.116 82.0757 99.1625 81.3008 98.57 80.27C98.294 79.7536 98.1385 79.1815 98.115 78.5965C98.0916 78.0115 98.2008 77.4287 98.4346 76.8919C98.6684 76.3551 99.0206 75.8782 99.4649 75.4969C99.9091 75.1155 100.434 74.8397 101 74.69C105.73 72.82 109.37 79.95 104.68 82.23L104.69 82.27ZM100.43 73.23C99.7164 73.4441 99.0538 73.8014 98.483 74.2801C97.9121 74.7589 97.4448 75.3491 97.1098 76.0145C96.7747 76.68 96.5788 77.4068 96.5342 78.1505C96.4895 78.8942 96.597 79.6392 96.85 80.34C97.91 83.6 102.06 85.08 105.1 83.85C106.445 83.2429 107.5 82.1357 108.041 80.7633C108.583 79.391 108.568 77.8617 108 76.5C107.722 75.7822 107.304 75.1267 106.771 74.5712C106.238 74.0157 105.6 73.5712 104.895 73.2635C104.189 72.9557 103.429 72.7908 102.66 72.7782C101.89 72.7656 101.125 72.9056 100.41 73.19L100.43 73.23ZM91.28 83.76L76 78.19C75.29 77.93 74.79 79.02 75.51 79.28L90.77 84.85C91.49 85.11 91.99 84.03 91.27 83.76H91.28ZM40.52 82.22L28.09 93.08C27.51 93.58 28.2 94.56 28.78 94.08L41.21 83.2C41.79 82.7 41.1 81.72 40.52 82.2V82.22ZM50.31 2.00001C56.31 -0.359987 60.82 8.62001 54.93 11.48C52.33 12.75 48.54 11.67 47.26 9.00001C46.9202 8.35103 46.7302 7.63411 46.704 6.90201C46.6778 6.1699 46.8161 5.44124 47.1087 4.76965C47.4014 4.09805 47.8409 3.50062 48.3949 3.02131C48.9489 2.542 49.6033 2.193 50.31 2.00001V2.00001ZM55.31 13.1C56.8978 12.3846 58.1464 11.0816 58.7935 9.4648C59.4406 7.84801 59.4357 6.04332 58.78 4.43001C58.4487 3.57984 57.9527 2.80347 57.3205 2.14547C56.6884 1.48746 55.9325 0.960774 55.0963 0.595628C54.2601 0.230483 53.36 0.0340693 52.4477 0.0176612C51.5354 0.001253 50.6288 0.165173 49.78 0.500013C46.15 1.41001 44.39 5.40001 45.52 8.92001C46.77 12.8 51.72 14.56 55.33 13.1H55.31ZM74.6 63.53L88.2 51.8C88.78 51.31 88.09 50.33 87.51 50.8L73.91 62.56C73.33 63.05 74.02 64.03 74.6 63.56" fill="#C6674D"/>
<path d="M61.21 71.66L59 69.52C58.66 70.58 58.42 71.31 58.09 72.32L61.19 71.66H61.21ZM55.51 72.82L51 74.53L52 76.33C53.17 76.02 54.25 75.78 55.29 75.43C55.6576 75.2893 55.9579 75.014 56.13 74.66C56.97 72.66 57.73 70.57 58.61 68.3C58.9679 68.4303 59.3047 68.6123 59.61 68.84C60.53 69.73 61.39 70.69 62.3 71.59C63.01 72.28 62.85 72.89 62.18 73.67L61.46 72.58L57.62 73.4C57.75 74.72 57.4 75.62 56.29 76C54.55 76.6 52.74 77 50.89 77.56C50.55 76.35 51.28 74.86 49.46 74.56C50.6 73.03 49.25 72.22 48.6 70.93L44.75 72.8C44.9285 74.1578 45.2298 75.4966 45.65 76.8C46.26 78.28 45.71 79.18 44.65 80.16C43.65 79.16 44.02 77.93 43.82 76.85C43.62 75.77 43.47 74.71 43.31 73.71C41.81 73.23 40.31 74.81 38.94 73C39.5232 72.6257 40.1313 72.2916 40.76 72C42.51 71.38 44.28 70.8 46.06 70.24C46.4748 70.0351 46.9424 69.9618 47.4 70.03C48.94 70.69 50.22 69.89 51.56 69.44L54.04 68.59C54.27 69.45 54.29 69.95 53.41 70.01C52.8483 70.0036 52.2888 70.0811 51.75 70.24C49.88 70.98 49.75 71.29 50.75 73.18C52.39 73.46 53.75 71.87 55.39 72.4C55.39 72.4 55.39 72.6 55.47 72.74" fill="#C6674D"/>
<path d="M73.94 70.85C73.15 71.09 72.78 70.79 72.51 70.06C72.04 68.82 71.51 67.61 70.87 66.2C70.51 66.58 70.23 66.83 70.01 67.11C69.47 67.8 68.96 68.51 68.42 69.2C67.88 69.89 67.42 70 66.67 69.43C65.7517 68.9055 64.7836 68.4734 63.78 68.14C64.03 69.79 63.88 71.14 64.78 72.22C64.89 72.35 65.09 72.52 65.06 72.63C65.033 72.9407 64.9147 73.2364 64.72 73.48C64.64 73.57 64.1 73.41 64.01 73.24C63.7802 72.7721 63.6185 72.2737 63.53 71.76C63.28 70.22 63.15 68.65 61.94 67.34C62.2908 67.1585 62.68 67.0638 63.075 67.0638C63.47 67.0638 63.8592 67.1585 64.21 67.34C64.9267 67.5777 65.6309 67.8514 66.32 68.16C66.4942 68.2675 66.6889 68.3374 66.8917 68.3653C67.0945 68.3932 67.3009 68.3784 67.4976 68.322C67.6944 68.2655 67.8772 68.1685 68.0343 68.0373C68.1914 67.9061 68.3194 67.7435 68.41 67.56C69 66.79 69.52 66 70 65.11C70.4 64.44 70.87 64.39 71.28 65.04C71.3661 65.1925 71.4365 65.3533 71.49 65.52L73.92 70.85" fill="#C6674D"/>
</g>
<defs>
<clipPath id="clip0_3_12">
<rect width="114.24" height="130.57" fill="white"/>
</clipPath>
</defs>
</svg>
