<svg width="73" height="65" viewBox="0 0 73 65" fill="none" xmlns="http://www.w3.org/2000/svg">
<g clip-path="url(#clip0_3_55)">
<path d="M49.75 12.1C49.8056 10.9907 49.8056 9.87931 49.75 8.77C49.6126 7.63282 49.3954 6.50671 49.1 5.4C48.8752 4.18064 48.2122 3.08558 47.236 2.32116C46.2598 1.55675 45.0377 1.17576 43.8 1.25C39.5701 1.30629 35.5198 2.96858 32.47 5.9C28.78 9.17 28.96 12.63 30.47 17.4C30.7496 18.0085 31.1512 18.5531 31.65 19C32.83 20.3 33.92 20.14 34.94 18.67C35.5298 17.7997 36.1993 16.9862 36.94 16.24C37.16 16.02 37.71 16.14 38.59 16.05C37.9219 16.825 37.3198 17.6546 36.79 18.53C36.62 18.9 37 19.93 37.02 19.93C38.74 19.67 39.02 21.24 39.88 22.11C41.0236 23.2416 41.9315 24.5888 42.5511 26.0735C43.1708 27.5583 43.4899 29.1511 43.49 30.76C43.4331 32.0021 43.6531 33.2412 44.1339 34.3879C44.6147 35.5345 45.3443 36.5599 46.27 37.39C47.2582 38.4264 48.1705 39.5326 49 40.7C50.58 39.48 51.93 38.43 53.3 37.4C56.68 34.82 60.1 32.29 63.46 29.68C69.07 25.3 70.14 19.27 69.4 12.68C69.1765 11.3155 68.7625 9.98924 68.17 8.74C67.8414 7.97869 67.2969 7.33043 66.6037 6.87542C65.9105 6.42041 65.0991 6.17863 64.27 6.18C63.2097 6.12188 62.1465 6.20936 61.11 6.44C57.56 7.18 54.72 9.3 51.92 11.44C51.26 11.94 50.76 12.62 49.78 12.11L49.75 12.1ZM22.15 28.76C21.7259 28.8537 21.2828 28.8068 20.8877 28.6264C20.4926 28.446 20.1669 28.1419 19.96 27.76C19.34 26.89 18.69 26.05 18.07 25.19C17.566 24.3897 16.9087 23.697 16.1359 23.1518C15.3631 22.6066 14.49 22.2197 13.567 22.0133C12.644 21.807 11.6893 21.7853 10.7579 21.9494C9.8265 22.1136 8.93677 22.4605 8.13998 22.97C7.09651 23.7462 6.09509 24.5774 5.13998 25.46C1.45998 28.21 1.13998 32.04 1.81998 36.08C2.90998 42.79 7.05998 47.54 12.21 51.54C16.01 54.54 20.21 57.03 23.07 61.03C23.5434 61.5126 24.0819 61.9266 24.67 62.26C27.13 59.59 29.43 56.94 31.9 54.45C34.6224 51.6188 36.9746 48.4535 38.9 45.03C41.524 40.7276 42.6623 35.6824 42.14 30.67C41.7709 28.6724 41.1667 26.7255 40.34 24.87C40.17 24.4 39.55 23.72 39.2 23.75C37.2 23.98 36.84 22.47 36.44 20.93C30.04 20.59 26.02 24.22 22.12 28.79L22.15 28.76ZM21.12 26.79L29.69 20.45C29.18 18.45 28.69 16.21 28.09 14.03C27 10.03 28.61 6.89 31.7 4.57C34.9267 1.95402 38.8619 0.362534 43 4.27663e-06C46.91 -0.249996 49.62 1.55 50.68 5.35C51.03 6.6 51.32 7.87 51.68 9.43L55.62 7.2C57.3832 6.095 59.3693 5.39453 61.4356 5.149C63.5019 4.90346 65.5969 5.11897 67.57 5.78C70.2 6.59 71.41 8 71.84 10.46C72.15 12.22 72.43 13.99 72.73 15.75C73.43 19.93 71.86 23.5 69.57 26.75C68.0531 28.8906 66.1299 30.7119 63.91 32.11C60.41 34.37 57.09 36.93 53.79 39.49C52.06 40.83 50.23 42.17 49.57 44.35C46.19 44.76 46.19 44.76 44.66 39.59C44.17 40.59 43.82 41.27 43.49 41.95C42.21 44.6 40.94 47.26 39.63 49.89C39.3731 50.4008 39.0354 50.8668 38.63 51.27C35.95 53.9 33.23 56.5 30.54 59.13C29.65 60 28.89 61 28 61.78C26.9901 62.6762 25.9246 63.5079 24.81 64.27C24.57 64.44 24.06 64.27 23.67 64.18C23.87 63.04 22.62 62.95 22.27 62.27C19.85 57.67 15.27 55.52 11.43 52.51C10.1435 51.5035 8.91485 50.4251 7.74998 49.28C6.47998 48.01 5.30998 46.64 4.12998 45.28C3.76333 44.8442 3.44793 44.3678 3.18998 43.86C1.37474 40.728 0.284685 37.2288 -2.32011e-05 33.62C-0.170023 30.48 0.379977 27.38 3.15998 25.24C4.61098 23.934 6.16987 22.7531 7.81998 21.71C9.70606 20.665 11.9133 20.3585 14.0128 20.8501C16.1122 21.3417 17.9539 22.5963 19.18 24.37C19.83 25.2 20.5 26 21.18 26.8" fill="#C6674D"/>
<path d="M12.31 31.23C11.05 32.46 9.31001 32.74 8.17001 34.6C9.87001 33.99 11 32.6 12.79 33.6C11.02 34.81 8.79001 35.32 7.91001 37.33C9.41001 38.63 10.64 35.91 12.22 37.11L9.60001 40C11.13 40.65 11.69 38.44 12.91 39.45L10.86 43.62C10.61 43.47 10.11 43.34 10.04 43.1C9.78001 42.1 9.68001 41.24 8.40001 40.99C8.14001 41 8.10001 39.79 8.00001 39.14C7.46001 38.75 6.28001 38.2 6.34001 37.87C6.56001 36.56 5.45001 35.13 6.79001 33.87C8.13001 32.61 9.18001 31.43 11 31.14C11.442 31.1213 11.8847 31.1514 12.32 31.23" fill="#C6674D"/>
<path d="M7.43 31.53C6.92 30.84 7.16 30.3 8.04 29.77C9.88 28.69 11.63 27.32 14.35 28.41L7.43 31.53Z" fill="#C6674D"/>
<path d="M30.36 29.14C32.1135 27.7085 34.1627 26.6838 36.36 26.14C36.71 26.03 37.19 26.38 37.92 26.62C35.48 27.72 33.38 28.67 31.27 29.62C31.14 29.68 30.88 29.44 30.32 29.16" fill="#C6674D"/>
<path d="M15.34 42C14.8522 42.6764 14.4047 43.3809 14 44.11C13.7273 44.7581 13.5066 45.4269 13.34 46.11C12.34 46.34 11.94 45.93 12 45C12.0688 44.1646 12.4558 43.3875 13.0811 42.8292C13.7063 42.2709 14.5221 41.9741 15.36 42" fill="#C6674D"/>
<path d="M34.35 31.45C34.66 29.68 35.7 29.35 36.72 29.52C37.5181 29.7947 38.265 30.2002 38.93 30.72C38.7584 31.0738 38.5506 31.4089 38.31 31.72C37.69 31.47 37.13 30.9 36.5 30.83C35.7518 30.9179 35.0244 31.1344 34.35 31.47" fill="#C6674D"/>
<path d="M16.39 45.16C16.17 46.16 15.94 47.16 15.59 48.65C15.4706 48.7147 15.3393 48.7545 15.204 48.7668C15.0687 48.7791 14.9324 48.7638 14.8032 48.7217C14.6741 48.6796 14.5549 48.6116 14.4529 48.5219C14.3509 48.4322 14.2683 48.3227 14.21 48.2C14.0773 47.9274 14.0084 47.6282 14.0084 47.325C14.0084 47.0218 14.0773 46.7226 14.21 46.45C14.7277 45.8085 15.3298 45.24 16 44.76L16.38 45.16" fill="#C6674D"/>
<path d="M38.49 34.48L34.36 33.92C35.98 32.37 37.09 32.41 38.59 33.92C38.59 34.12 38.52 34.31 38.49 34.51" fill="#C6674D"/>
<path d="M38.64 37.34C36.89 37.01 35.5 37.9 34.4 36.49C36.29 35.38 37.11 35.49 38.64 37.34Z" fill="#C6674D"/>
<path d="M19.37 50.06C18.25 50.66 17.79 50.13 17.56 49.37C17.28 48.44 17.56 47.77 18.81 47.68C18.98 48.43 19.16 49.17 19.37 50.06" fill="#C6674D"/>
<path d="M37 40.94L33.7 39.83C35.61 38.77 35.9 38.83 37 40.94Z" fill="#C6674D"/>
<path d="M33.8 42.84C34.1671 43.1798 34.4836 43.5704 34.74 44C34.8 44.13 34.21 44.73 34.1 44.68C33.6907 44.5103 33.3421 44.221 33.1 43.85C33.03 43.74 33.46 43.32 33.78 42.85" fill="#C6674D"/>
<path d="M32 48.7L30.58 48.87C30.52 48.75 30.47 48.62 30.41 48.5C30.67 48.29 30.91 47.98 31.21 47.91C31.51 47.84 31.77 48.08 32.05 48.18C32.05 48.35 32.05 48.52 32 48.7" fill="#C6674D"/>
<path d="M40.23 5.99999L35.84 8.99999L37.45 9.99999C35.96 11.41 34.03 12.32 33.45 14.64C35.16 14.45 35.54 11.86 37.59 12.9C36.75 14.78 34.31 15.64 34.35 17.99C32.57 17.79 32.57 17.79 33.09 15.99C32.67 15.44 32.04 14.93 31.91 14.32C31.78 13.71 32.25 13.15 32.45 12.57L31.45 11.41C31.709 10.987 32.0106 10.5916 32.35 10.23C37.6 5.80999 37.6 5.81999 40.25 6.04999" fill="#C6674D"/>
<path d="M66.52 16.05C64.67 14.13 62.67 15.44 60.3 16.38C60.59 15.54 60.62 15.1 60.85 14.9C61.6926 14.3347 62.6647 13.9924 63.6755 13.905C64.6864 13.8175 65.7029 13.9878 66.63 14.4C67.29 14.84 67.45 15.4 66.52 16.05" fill="#C6674D"/>
<path d="M67.63 11.28C65.13 11.28 63.19 11.43 61.63 12.9C61.52 13.01 61.03 12.83 60.8 12.66C60.57 12.49 60.67 12.07 60.75 12.03C61.9147 11.3291 63.1396 10.7334 64.41 10.25C64.9703 9.99636 65.6043 9.95813 66.191 10.1426C66.7777 10.3271 67.2757 10.7214 67.59 11.25" fill="#C6674D"/>
<path d="M64 21.71C63.3252 21.1537 62.6024 20.6584 61.84 20.23C60.9715 19.9236 60.0782 19.6927 59.17 19.54C59.5924 19.1859 60.0982 18.9455 60.6395 18.8415C61.1808 18.7374 61.7397 18.7732 62.2634 18.9454C62.787 19.1176 63.258 19.4205 63.6319 19.8256C64.0058 20.2306 64.2701 20.7243 64.4 21.26L64 21.71" fill="#C6674D"/>
<path d="M57.51 22.34C59.58 22.03 59.99 22.27 61.34 24.58C61.06 24.7 60.68 24.99 60.55 24.9C59.45 24.2 58.08 23.77 57.55 22.34" fill="#C6674D"/>
<path d="M56.6 30C56.52 28.88 56.4 28.07 56.43 27.28C56.43 26.97 56.82 26.67 57.03 26.36C57.35 26.63 57.85 26.85 57.96 27.19C58.0889 27.4606 58.1554 27.7567 58.1545 28.0564C58.1535 28.3561 58.0853 28.6518 57.9547 28.9215C57.8241 29.1913 57.6346 29.4283 57.4001 29.615C57.1656 29.8017 56.8922 29.9332 56.6 30Z" fill="#C6674D"/>
</g>
<defs>
<clipPath id="clip0_3_55">
<rect width="72.9" height="64.33" fill="white"/>
</clipPath>
</defs>
</svg>
