<svg width="171" height="81" viewBox="0 0 171 81" fill="none" xmlns="http://www.w3.org/2000/svg">
<g clip-path="url(#clip0_3_75)">
<path d="M65.84 65.76C64.69 66.48 63.53 67.17 62.35 67.83C61.5 68.3 62.26 69.61 63.12 69.13C64.3 68.47 65.46 67.78 66.61 67.07C67.43 66.56 66.67 65.25 65.84 65.76V65.76ZM85.67 51.7C84.57 52.47 83.47 53.26 82.38 54.05C81.6 54.62 82.38 55.93 83.14 55.36C84.23 54.57 85.33 53.78 86.44 53C87.23 52.45 86.44 51.14 85.67 51.7V51.7ZM72.57 61.24C71.47 62.02 70.36 62.8 69.24 63.55C69.0693 63.6626 68.9489 63.837 68.9041 64.0366C68.8594 64.2361 68.8937 64.4453 69 64.62C69.0422 64.7092 69.1039 64.7878 69.1805 64.85C69.2571 64.9122 69.3466 64.9564 69.4425 64.9794C69.5385 65.0025 69.6384 65.0037 69.7348 64.983C69.8313 64.9623 69.9219 64.9203 70 64.86C71.12 64.1 72.23 63.33 73.33 62.55C74.12 61.99 73.33 60.67 72.57 61.24V61.24ZM58.76 69.7C57.6 70.26 56.43 70.78 55.24 71.27C55.1329 71.3144 55.0365 71.3811 54.957 71.4656C54.8776 71.5501 54.8169 71.6504 54.7791 71.76C54.7413 71.8697 54.7272 71.9861 54.7377 72.1016C54.7482 72.217 54.7831 72.329 54.84 72.43C54.8724 72.5026 54.9189 72.568 54.9768 72.6225C55.0347 72.677 55.1028 72.7194 55.1773 72.7473C55.2517 72.7752 55.3309 72.7881 55.4104 72.7851C55.4898 72.7821 55.5679 72.7634 55.64 72.73C56.95 72.19 58.25 71.62 59.52 71.01C60.4 70.58 59.63 69.28 58.76 69.7V69.7ZM51.42 72.63C50.13 73.03 48.82 73.38 47.5 73.63C47.3948 73.6509 47.2956 73.6953 47.21 73.76C47.1348 73.8159 47.0732 73.8881 47.0299 73.9713C46.9866 74.0544 46.9627 74.1463 46.96 74.24C46.9483 74.3626 46.9654 74.4862 47.01 74.6009C47.0545 74.7157 47.1253 74.8185 47.2166 74.901C47.3079 74.9836 47.4172 75.0437 47.5359 75.0765C47.6546 75.1093 47.7792 75.1139 47.9 75.09C49.22 74.8 50.53 74.46 51.82 74.09C52.75 73.8 52.35 72.34 51.42 72.63ZM99.3 42.92C98.14 43.6 97 44.3 95.83 45C95 45.51 95.76 46.82 96.59 46.31C97.74 45.6 98.9 44.9 100.06 44.21C100.145 44.1601 100.22 44.0939 100.28 44.0151C100.34 43.9363 100.383 43.8466 100.408 43.7509C100.433 43.6553 100.439 43.5556 100.426 43.4577C100.413 43.3597 100.38 43.2654 100.33 43.18C100.28 43.0946 100.214 43.0199 100.135 42.9602C100.056 42.9004 99.9666 42.8568 99.8709 42.8317C99.7753 42.8066 99.6756 42.8006 99.5777 42.8141C99.4797 42.8275 99.3854 42.8601 99.3 42.91V42.92ZM143.3 40.22C140.572 36.8245 137.562 33.6665 134.3 30.78C144.964 20.7853 156.243 11.4671 168.07 2.88L143.28 40.23L143.3 40.22ZM135.28 33.28L129.83 38.78C131.1 36.39 132.49 34.07 133.83 31.71C134.37 32.19 134.91 32.71 135.43 33.17C135.375 33.2 135.325 33.237 135.28 33.28V33.28ZM128.73 27H128.8C140.261 18.6521 152.227 11.0208 164.63 4.15C153.738 12.2369 143.32 20.9446 133.43 30.23C133.374 30.2769 133.331 30.3373 133.304 30.4056C133.278 30.4738 133.27 30.5476 133.28 30.62C131.62 33.57 129.87 36.47 128.34 39.48C128.34 35.3 128.43 31.11 128.76 26.93L128.73 27ZM118.59 18.01C133.93 11.01 150.15 6.41 166.38 2.01C153.205 9.17555 140.512 17.1926 128.38 26.01C125.27 23.16 121.99 20.57 118.62 18.01H118.59ZM170.12 0C152.2 4.8 134.22 9.69 117.33 17.48C116.95 17.66 117.06 18.15 117.33 18.35C120.939 20.9977 124.414 23.8246 127.74 26.82C127.74 26.82 127.74 26.82 127.74 26.82C127.74 26.82 127.74 26.89 127.74 26.93C127.362 31.7668 127.228 36.6197 127.34 41.47C127.342 41.5687 127.373 41.6646 127.428 41.7462C127.484 41.8278 127.562 41.8915 127.653 41.9296C127.744 41.9677 127.844 41.9786 127.941 41.9609C128.038 41.9432 128.128 41.8978 128.2 41.83L136 34C136.053 33.9501 136.095 33.8885 136.12 33.82C138.571 36.2098 140.869 38.7515 143 41.43C143.055 41.4832 143.121 41.5234 143.194 41.5476C143.266 41.5718 143.343 41.5794 143.419 41.5698C143.495 41.5602 143.568 41.5336 143.632 41.4921C143.696 41.4506 143.75 41.3952 143.79 41.33L170.69 0.76C170.738 0.673107 170.759 0.574234 170.751 0.475461C170.743 0.376689 170.707 0.282293 170.647 0.203806C170.586 0.125319 170.504 0.0661401 170.411 0.0334986C170.317 0.000857048 170.216 -0.00383349 170.12 0.02V0ZM120.91 31.78C119.67 32.3267 118.44 32.8867 117.22 33.46C117.084 33.5154 116.971 33.6167 116.902 33.7464C116.832 33.876 116.811 34.0259 116.84 34.17C116.836 34.2099 116.836 34.2501 116.84 34.29C116.834 34.3331 116.834 34.3768 116.84 34.42C116.934 34.5919 117.088 34.7228 117.273 34.7875C117.457 34.8521 117.66 34.8459 117.84 34.77C119.07 34.2 120.29 33.64 121.53 33.09C122.42 32.69 121.65 31.39 120.77 31.78H120.91ZM92.4 47.17C91.27 47.91 90.14 48.65 89.02 49.4C88.9206 49.4745 88.84 49.5711 88.7845 49.6822C88.7289 49.7933 88.7 49.9158 88.7 50.04C88.7 50.1642 88.7289 50.2867 88.7845 50.3978C88.84 50.5089 88.9206 50.6055 89.02 50.68C89.1343 50.7734 89.2774 50.8244 89.425 50.8244C89.5726 50.8244 89.7157 50.7734 89.83 50.68C90.95 49.93 92.08 49.18 93.22 48.45C94.03 47.92 93.22 46.61 92.45 47.14L92.4 47.17ZM113.61 35.14C112.4 35.74 111.19 36.35 109.99 36.97C109.855 37.029 109.744 37.1329 109.677 37.2641C109.609 37.3953 109.589 37.5457 109.62 37.69C109.66 37.8755 109.758 38.0435 109.9 38.17C109.972 38.2374 110.057 38.2891 110.15 38.3218C110.243 38.3545 110.342 38.3675 110.44 38.36C110.552 38.3569 110.662 38.326 110.76 38.27C111.96 37.66 113.16 37.05 114.38 36.45C115.25 36.02 114.48 34.72 113.61 35.14V35.14ZM43.7 74.28C43.06 74.35 42.41 74.39 41.77 74.43H41.23C40.7 74.43 40.23 74.43 39.65 74.43C39.4647 74.4514 39.2938 74.5401 39.1697 74.6793C39.0456 74.8185 38.977 74.9985 38.977 75.185C38.977 75.3715 39.0456 75.5515 39.1697 75.6907C39.2938 75.8299 39.4647 75.9186 39.65 75.94H40H41.19H41.73C42.37 75.94 43.02 75.86 43.66 75.79C44.66 75.7 44.66 74.18 43.66 74.28H43.7ZM106.32 38.93C105.13 39.57 103.95 40.22 102.77 40.93C102.685 40.9799 102.61 41.0461 102.55 41.1249C102.49 41.2037 102.447 41.2934 102.422 41.3891C102.397 41.4847 102.391 41.5844 102.404 41.6823C102.418 41.7803 102.45 41.8746 102.5 41.96C102.55 42.0454 102.616 42.1201 102.695 42.1798C102.774 42.2396 102.863 42.2832 102.959 42.3083C103.055 42.3334 103.154 42.3394 103.252 42.3259C103.35 42.3125 103.445 42.2799 103.53 42.23L107.08 40.23C107.94 39.77 107.17 38.46 106.32 38.93ZM79.11 56.45L75.85 58.86C75.07 59.43 75.85 60.75 76.61 60.17L79.87 57.76C80.65 57.19 79.87 55.87 79.11 56.45ZM4.00001 77.39C2.79001 78 1.60001 78.66 0.390006 79.26C0.248299 79.3177 0.131495 79.4236 0.0601565 79.5589C-0.0111822 79.6943 -0.0324824 79.8505 5.87106e-06 80C5.87106e-06 80 5.87106e-06 80 5.87106e-06 80.08C0.0189794 80.1416 0.0423734 80.2018 0.0700059 80.26C0.163614 80.4317 0.319055 80.5614 0.504776 80.6227C0.690498 80.684 0.892581 80.6723 1.07001 80.59C2.28001 79.99 3.48001 79.37 4.66001 78.72C5.52001 78.25 4.76001 76.94 3.90001 77.41L4.00001 77.39ZM14.01 58.41C14.3874 59.7862 14.8894 61.125 15.51 62.41C15.5618 62.5467 15.6609 62.6603 15.7894 62.73C15.9179 62.7998 16.0672 62.821 16.21 62.79C16.3329 62.7693 16.4494 62.7205 16.5504 62.6474C16.6514 62.5743 16.7341 62.4788 16.7922 62.3685C16.8502 62.2582 16.8821 62.136 16.8852 62.0113C16.8882 61.8867 16.8625 61.7631 16.81 61.65C16.2856 60.4719 15.8641 59.2507 15.55 58C15.4836 57.8223 15.3531 57.6759 15.1842 57.5895C15.0153 57.5031 14.8203 57.483 14.6373 57.5331C14.4543 57.5833 14.2968 57.7 14.1955 57.8604C14.0942 58.0208 14.0566 58.2133 14.09 58.4L14.01 58.41ZM15.56 47C15.7031 47.0343 15.8537 47.0158 15.9842 46.9478C16.1147 46.8798 16.2162 46.7669 16.27 46.63C16.8228 45.4656 17.5513 44.3931 18.43 43.45C19.1 42.75 18.03 41.67 17.36 42.38C16.3959 43.4241 15.5998 44.6116 15 45.9C14.9548 45.9976 14.9277 46.1027 14.92 46.21C14.9211 46.4042 14.9894 46.5921 15.1134 46.7416C15.2374 46.8911 15.4093 46.993 15.6 47.03L15.56 47ZM35.82 74.21C34.4715 74.0255 33.1357 73.7584 31.82 73.41C31.6315 73.3707 31.435 73.4044 31.2704 73.5044C31.1057 73.6043 30.9852 73.7631 30.9331 73.9485C30.881 74.1339 30.9013 74.3322 30.9898 74.5033C31.0784 74.6744 31.2285 74.8054 31.41 74.87C32.7259 75.2174 34.0617 75.4845 35.41 75.67C36.41 75.8 36.78 74.34 35.82 74.21V74.21ZM30.22 46.14C30.57 47.04 32.03 46.65 31.68 45.74C31.1483 44.3507 30.3189 43.0946 29.25 42.06C28.56 41.38 27.49 42.45 28.18 43.13C29.0545 43.9747 29.7367 44.9979 30.18 46.13L30.22 46.14ZM21.41 41.46C22.5685 41.068 23.8162 41.0228 25 41.33C25.94 41.56 26.35 40.1 25.4 39.87C23.9534 39.4958 22.4298 39.5443 21.01 40.01C20.09 40.31 20.48 41.77 21.41 41.47V41.46ZM10.91 73.19C9.78001 73.94 8.65001 74.66 7.49001 75.36C6.66001 75.87 7.42001 77.18 8.25001 76.67C9.41001 75.97 10.55 75.24 11.67 74.5C12.48 73.96 11.72 72.65 10.91 73.19ZM28.5 57.19C27.8122 58.2764 27.0434 59.3094 26.2 60.28C25.57 61.01 26.63 62.09 27.27 61.35C28.202 60.283 29.0511 59.1463 29.81 57.95C30.33 57.12 29.02 56.36 28.5 57.19V57.19ZM28.2 72.19C26.9653 71.6445 25.7721 71.0095 24.63 70.29C23.8 69.77 23.04 71.08 23.86 71.6C25.0047 72.3181 26.2014 72.9498 27.44 73.49C28.32 73.88 29.09 72.58 28.2 72.19ZM31.62 54.13C32.0517 52.7796 32.2973 51.3767 32.35 49.96C32.3286 49.7747 32.2399 49.6038 32.1007 49.4797C31.9615 49.3556 31.7815 49.287 31.595 49.287C31.4085 49.287 31.2285 49.3556 31.0893 49.4797C30.9501 49.6038 30.8614 49.7747 30.84 49.96C30.7843 51.2416 30.5556 52.5097 30.16 53.73C29.86 54.66 31.32 55.06 31.62 54.13V54.13ZM17.29 68.52C16.29 69.32 15.27 70.1 14.23 70.86C13.45 71.43 14.23 72.75 14.99 72.17C16.13 71.33 17.26 70.47 18.36 69.59C19.12 68.98 18.05 67.91 17.29 68.52V68.52ZM20.83 67.16C20.9433 67.1828 21.0604 67.1784 21.1717 67.1471C21.283 67.1158 21.3852 67.0585 21.47 66.98C22.47 66.09 23.47 65.18 24.47 64.24C25.17 63.57 24.1 62.5 23.4 63.17C22.4 64.11 21.4 65.02 20.4 65.91C20.3173 65.9766 20.2522 66.0625 20.2103 66.1601C20.1685 66.2578 20.1512 66.3642 20.16 66.47C19.75 66.01 19.36 65.54 18.99 65.04C18.41 64.27 17.1 65.04 17.68 65.81C18.5245 66.9541 19.4681 68.0215 20.5 69C21.21 69.66 22.28 68.59 21.57 67.93C21.31 67.69 21.08 67.43 20.83 67.18V67.16ZM14.94 54.18C14.8697 52.8962 14.9401 51.6085 15.15 50.34C15.3 49.34 13.85 48.98 13.69 49.94C13.445 51.3392 13.3544 52.761 13.42 54.18C13.4251 54.2799 13.4499 54.3777 13.4929 54.468C13.5359 54.5582 13.5963 54.6391 13.6706 54.706C13.7449 54.7729 13.8317 54.8245 13.926 54.8577C14.0203 54.891 14.1202 54.9054 14.22 54.9C14.3165 54.9075 14.4134 54.894 14.5042 54.8605C14.5949 54.827 14.6774 54.7742 14.7458 54.7058C14.8142 54.6374 14.867 54.5549 14.9005 54.4642C14.934 54.3734 14.9475 54.2765 14.94 54.18" fill="#231815"/>
</g>
<defs>
<clipPath id="clip0_3_75">
<rect width="170.76" height="80.66" fill="white"/>
</clipPath>
</defs>
</svg>
