<svg width="129" height="86" viewBox="0 0 129 86" fill="none" xmlns="http://www.w3.org/2000/svg">
<g clip-path="url(#clip0_3_4)">
<path d="M123.47 38.09C122.91 37.74 122.34 37.41 121.77 37.09C122.41 36.43 123.08 35.78 123.69 35.09C123.873 34.8886 124.028 34.6632 124.15 34.42L126.94 35.95C125.709 36.5463 124.545 37.2738 123.47 38.12V38.09ZM120.38 36.26L119.44 35.71C119.981 34.6697 120.593 33.6673 121.27 32.71C121.12 33.13 122.15 33.45 123.11 33.89C122.26 34.68 121.33 35.41 120.45 36.17C120.423 36.2009 120.4 36.2344 120.38 36.27V36.26ZM100.11 61.8C96.4833 67.2667 92.85 72.71 89.21 78.13C87.35 80.91 88.21 80.87 85.39 78.76C79.18 74 71 70.71 64.1 67C74.7667 50.6 85.3833 34.1633 95.95 17.69C96.0476 17.5348 96.089 17.3508 96.0671 17.1687C96.0453 16.9867 95.9616 16.8177 95.83 16.69C94.65 15.69 93.14 13.83 91.72 13.28C91.5635 13.2208 91.4129 13.1471 91.27 13.06C94.01 12.47 96.91 10.97 99.5 10.06C106.87 7.47 114.42 5.15 121.68 2.27L122.03 2.13C122.18 2.81 122.18 3.74 122.26 4.27C122.88 8.22333 123.497 12.17 124.11 16.11C125.05 22.11 125.987 28.11 126.92 34.11L121.47 31.11C121.288 31.0094 121.075 30.9823 120.874 31.0344C120.673 31.0865 120.5 31.2138 120.39 31.39L100.11 61.8ZM83.24 83.93C83.24 83.81 82.5 83.71 81.98 83.33C81.68 83.1 81.35 82.89 80.98 82.68C81.3934 82.3383 81.772 81.9564 82.11 81.54C82.63 80.94 83.11 80.31 83.63 79.69C84.51 80.18 85.39 80.69 86.28 81.15C85.3406 82.1727 84.3059 83.1035 83.19 83.93H83.24ZM80.05 82C79.23 81.47 78.4 81 77.56 80.46C77.8315 80.1434 78.0821 79.8093 78.31 79.46C78.8283 78.8551 79.2103 78.1457 79.43 77.38L82.81 79.23C82.29 79.7 81.81 80.17 81.26 80.66C80.7927 81.0445 80.385 81.4961 80.05 82V82ZM76.12 79.62L74.3 78.57C74.55 78.19 74.73 77.74 74.93 77.36C75.2728 76.712 75.5767 76.0442 75.84 75.36L78.55 76.84C77.952 77.3344 77.4297 77.9139 77 78.56C76.6837 78.8891 76.3991 79.2474 76.15 79.63L76.12 79.62ZM73.15 77.89L72.32 77.41C71.82 77.1 71.32 76.81 70.8 76.51C71.1535 76.0101 71.4236 75.4563 71.6 74.87C71.8385 74.3845 72.0133 73.8703 72.12 73.34L75.12 75C74.6687 75.5601 74.2481 76.1443 73.86 76.75C73.5904 77.1146 73.3432 77.4953 73.12 77.89H73.15ZM69.71 75.89L67.02 74.28C67.5318 73.3021 67.9086 72.2592 68.14 71.18L71.33 72.93C71.0295 73.3659 70.7684 73.8277 70.55 74.31C70.2152 74.8056 69.9336 75.3352 69.71 75.89V75.89ZM63.65 72.23C63.5506 72.1722 63.447 72.122 63.34 72.08C63.3607 71.7706 63.4317 71.4666 63.55 71.18C63.8254 70.4636 64.0036 69.7137 64.08 68.95L67.31 70.72C66.7191 71.6118 66.2389 72.5722 65.88 73.58C65.13 73.14 64.38 72.7 63.65 72.23V72.23ZM90.94 19.81C91.3176 19.2601 91.6519 18.6817 91.94 18.08C92.3498 17.3874 92.685 16.6533 92.94 15.89C93.6259 16.3304 94.179 16.9492 94.54 17.68C93.9464 18.9056 93.2005 20.0513 92.32 21.09C91.9366 20.6017 91.4853 20.1707 90.98 19.81H90.94ZM89.58 19C89.12 18.74 88.64 18.5 88.18 18.27C88.8549 16.7391 89.2511 15.1001 89.35 13.43C89.92 13.86 90.93 14.51 91.9 15.2C91.4112 15.8841 90.967 16.5989 90.57 17.34C90.26 17.89 89.86 18.42 89.57 19H89.58ZM123.27 1C123.216 0.80685 123.088 0.642769 122.914 0.543499C122.74 0.444228 122.534 0.41781 122.34 0.470001L89.5 11.9C89.3628 11.9521 89.2402 12.0366 89.1427 12.1463C89.0452 12.256 88.9756 12.3876 88.94 12.53C88.8987 12.5399 88.8607 12.5606 88.83 12.59C87.46 13.99 87.04 16.59 86.55 18.4C86.5007 18.5895 86.5275 18.7909 86.6247 18.9609C86.7218 19.131 86.8817 19.2562 87.07 19.31C88.76 19.92 90.19 21.04 91.84 21.68C90.65 23.26 89.47 24.8 89.21 25.21C87.41 27.99 85.6133 30.77 83.82 33.55C76.68 44.55 69.51 55.55 62.53 66.67C62.4077 66.7426 62.3065 66.8458 62.2361 66.9694C62.1658 67.093 62.1288 67.2328 62.1288 67.375C62.1288 67.5172 62.1658 67.657 62.2361 67.7806C62.3065 67.9042 62.4077 68.0074 62.53 68.08V68.08C62.0495 69.4345 61.6946 70.8304 61.47 72.25C61.4208 72.4386 61.4342 72.6381 61.5082 72.8184C61.5821 72.9987 61.7126 73.1502 61.88 73.25C68.74 77.38 76.01 80.95 82.73 85.31C82.8338 85.3737 82.9532 85.4074 83.075 85.4074C83.1968 85.4074 83.3162 85.3737 83.42 85.31C84.84 84.25 86.22 83.12 87.61 82.01C87.642 81.9813 87.669 81.9475 87.69 81.91C87.8795 82.0135 88.1015 82.0401 88.3101 81.9842C88.5186 81.9284 88.6976 81.7944 88.81 81.61L108.36 52.24C111.787 47.1533 115.19 42.0733 118.57 37C120.07 37.94 121.57 38.84 123.11 39.71C123.267 39.8024 123.45 39.8407 123.63 39.819C123.811 39.7973 123.98 39.7169 124.11 39.59C125.438 38.6461 126.644 37.541 127.7 36.3C127.832 36.3401 127.973 36.3449 128.107 36.3137C128.242 36.2826 128.366 36.2167 128.467 36.1225C128.569 36.0284 128.643 35.9094 128.684 35.7773C128.725 35.6453 128.73 35.5048 128.7 35.37C126.9 23.91 125.07 12.46 123.29 0.990001" fill="#898989"/>
<path d="M35.88 4.46V4.06L36.26 4.39C36.1319 4.40452 36.0049 4.42791 35.88 4.46V4.46ZM34.76 3.39C35.24 3.28 34.98 3.39 34.76 3.39V3.39ZM34.21 23.14C33.81 30.29 33.78 39.26 25.62 41.79C21.19 43.16 15.54 43.99 11.17 42.1C9.2607 41.1725 7.55505 39.8743 6.1524 38.281C4.74976 36.6878 3.67815 34.8314 3 32.82C-0.529998 23.44 2.51 13.07 1.9 3.36H11.07C10.1722 9.65542 10.068 16.0386 10.76 22.36C10.8476 23.8301 11.0991 25.2858 11.51 26.7C12.66 30.82 15.87 35.7 20.71 33.21C25.55 30.72 25 23.54 25.28 18.86C25.54 13.93 26.28 8.78 26.06 3.86C26.06 3.67 26.06 3.45 26.06 3.23C26.2364 3.21502 26.4137 3.21502 26.59 3.23C28.5383 3.40191 30.4957 3.44867 32.45 3.37C33.1404 3.45973 33.8396 3.45973 34.53 3.37V3.37C34.4791 4.58066 34.5092 5.79336 34.62 7C34.62 12.39 34.51 17.79 34.21 23.18V23.14ZM12.25 4L12.65 4.44C12.4951 4.44522 12.3411 4.46532 12.19 4.5L12.25 4ZM19.43 32.34C19.21 32.39 19.02 32.42 18.82 32.45L18.48 31.84C18.7875 32.0491 19.1246 32.2109 19.48 32.32L19.43 32.34ZM36.33 2.65C36.2699 2.5309 36.1699 2.43665 36.0475 2.38366C35.9251 2.33067 35.788 2.3223 35.66 2.36C35.5471 2.2577 35.4022 2.19764 35.25 2.19L25.49 2C25.3228 2.0025 25.1629 2.06937 25.0437 2.18671C24.9245 2.30404 24.8551 2.46282 24.85 2.63C24.51 9.29667 24.1767 15.9333 23.85 22.54C23.71 25.17 23.6 28.98 21.63 31.09C21.5637 31.0806 21.4963 31.0806 21.43 31.09C14.84 33.3 15.56 15.78 15.61 12.53C15.68 8 15.78 5.65 12.41 2.39C12.3331 2.31935 12.2406 2.26794 12.14 2.24C12.0405 2.16965 11.9219 2.13128 11.8 2.13H1.19C1.08749 2.13122 0.986888 2.15783 0.897188 2.20746C0.807489 2.25709 0.731494 2.32818 0.676009 2.41439C0.620524 2.50059 0.587278 2.5992 0.579249 2.7014C0.57122 2.8036 0.588658 2.90619 0.630002 3C0.630002 3 0.630002 3 0.630002 3.05C1.42 14.21 -2.83 27.2 3.83 37.28C8.83 44.87 18.45 45.93 26.53 42.84C30.02 41.75 33.72 40.51 36.11 37.58C38.62 34.5 38.44 30.36 38.59 26.58L38.95 17.63C39.1187 15.9154 39.1888 14.1926 39.16 12.47L39.22 10.88C39.29 9.24 39.85 7.03 39.14 5.47C38.56 4.17 37.02 3.85 36.34 2.61L36.33 2.65ZM69.84 17.81C67.2 23.97 60.14 25.41 54.11 24.88C53.942 24.8826 53.7818 24.9512 53.6639 25.071C53.546 25.1907 53.48 25.352 53.48 25.52L53.63 41.57C53.63 41.92 53.63 42.33 53.63 42.72C53.32 42.72 52.97 42.72 52.72 42.72L44.61 42.62C44.5471 42.6096 44.4829 42.6096 44.42 42.62C44.26 34.95 44.3 27.28 44.36 19.62C44.36 15.9733 44.3967 12.3233 44.47 8.67C44.47 6.67 45.06 3.85 44.57 1.87C44.5651 1.84692 44.5651 1.82308 44.57 1.8C45.7749 1.76884 46.9753 1.64177 48.16 1.42C52.8 1.14 57.42 1.05 61.81 2.8C67.6 5.1 72.63 11.32 69.88 17.8L69.84 17.81ZM68.3 22.66C68.3126 22.5937 68.3039 22.5251 68.2752 22.464C68.2464 22.403 68.1991 22.3526 68.14 22.32C68.43 22.05 68.71 21.77 68.97 21.48C68.77 21.88 68.54 22.28 68.3 22.66ZM44.47 1.66C44.39 1.25 44.47 1.46 44.47 1.66V1.66ZM62.2 1.66C56.43 -0.649998 50 -0.0599985 43.92 0.540002C43.7528 0.54513 43.594 0.614509 43.4767 0.73371C43.3594 0.852911 43.2925 1.01276 43.29 1.18C43.05 15.18 42.82 29.12 43.13 43.08C43.1355 43.1858 43.1664 43.2887 43.22 43.38C43.221 43.5269 43.2742 43.6686 43.37 43.78C44.67 45.3 46.03 46.68 48.12 46.87C49.4512 46.9776 50.7888 46.9776 52.12 46.87C52.7 46.8723 53.279 46.8221 53.85 46.72C54.85 46.63 55.85 46.53 56.79 46.48C56.8572 46.4689 56.9216 46.4451 56.98 46.41C57.0749 46.4614 57.1815 46.4876 57.2894 46.486C57.3974 46.4844 57.5031 46.4551 57.5965 46.4009C57.6899 46.3467 57.7677 46.2694 57.8226 46.1764C57.8775 46.0835 57.9076 45.9779 57.91 45.87C57.91 41.55 57.91 37.23 57.91 32.87C57.91 32.2 57.56 30.38 57.91 29.79C58.52 28.79 58.26 29.34 59.22 29.03C60.78 28.54 62.43 28.51 63.99 27.87C68.99 25.81 71.54 20.28 71.76 15.16C71.7711 15.1039 71.7711 15.0461 71.76 14.99C72.24 9.08 67.52 3.78 62.11 1.63L62.2 1.66ZM59.6 17.46C58.0527 18.3397 56.3096 18.8176 54.53 18.85C54.68 16.62 54.85 14.39 55.01 12.17C57.2 12.41 62.2 11.53 62.01 14.81C61.458 15.9056 60.6091 16.8239 59.56 17.46H59.6ZM59.75 8.29L59.59 8.23C59.1405 8.08524 58.6721 8.00774 58.2 8C57.0154 7.8603 55.8209 7.82349 54.63 7.89C54.4645 7.89502 54.3072 7.96301 54.1901 8.08008C54.073 8.19716 54.005 8.35451 54 8.52C53.73 12.2 53.46 15.87 53.22 19.52C53.2056 19.6354 53.2303 19.7522 53.2901 19.8519C53.3499 19.9516 53.4414 20.0284 53.55 20.07C53.6405 20.1244 53.7445 20.1521 53.85 20.15C58.1 20.15 64.58 17.61 63.67 12.24C63.5088 11.2569 63.0507 10.3468 62.3571 9.63171C61.6635 8.91667 60.7677 8.43101 59.79 8.24" fill="#C6674D"/>
</g>
<defs>
<clipPath id="clip0_3_4">
<rect width="128.69" height="85.42" fill="white"/>
</clipPath>
</defs>
</svg>
