<svg width="48" height="48" viewBox="0 0 48 48" fill="none" xmlns="http://www.w3.org/2000/svg">
<g clip-path="url(#clip0_3_23)">
<path d="M27.21 44.05C27.1142 44.043 27.0193 44.0724 26.9444 44.1325C26.8695 44.1926 26.8201 44.2788 26.8061 44.3738C26.7922 44.4689 26.8147 44.5656 26.8693 44.6447C26.9238 44.7238 27.0062 44.7793 27.1 44.8C27.1958 44.8071 27.2907 44.7776 27.3656 44.7175C27.4405 44.6574 27.49 44.5712 27.5039 44.4762C27.5178 44.3811 27.4953 44.2844 27.4407 44.2053C27.3862 44.1262 27.3038 44.0708 27.21 44.05V44.05ZM44.85 41.44C41.77 45.85 35.24 46.44 30.41 46C27.5479 45.7568 24.7006 45.363 21.88 44.82C19.38 44.33 15.34 43.71 13.88 41.26C14.34 40.03 14.1 38.12 14.22 37.08C14.7 32.79 15.16 28.49 15.78 24.23C15.87 23.62 16.02 22.97 16.08 22.36C18.62 22.7 19.91 22.05 21.65 20.16C24.05 17.56 28.17 16.68 29.96 13.53C30.6287 12.2323 30.9296 10.7764 30.83 9.32C31.4181 9.25232 31.9746 9.01764 32.4335 8.64373C32.8925 8.26982 33.2348 7.7723 33.42 7.21C33.6319 6.36145 33.5599 5.46683 33.2149 4.66313C32.87 3.85942 32.2711 3.19092 31.51 2.76C32.2 1.25 33.51 0.590003 36.04 2.38C40.92 5.85 38.8 13.53 36.85 17.96C33.91 17.7 30.93 18.26 30.02 21.21C30.0101 21.2696 30.0101 21.3304 30.02 21.39C30.0103 21.4395 30.0103 21.4905 30.02 21.54C29.9399 22.2421 30.0598 22.9526 30.3658 23.5895C30.6719 24.2264 31.1517 24.7639 31.75 25.14C30.9812 25.7955 30.462 26.6962 30.28 27.69C30.2388 27.8167 30.2388 27.9533 30.28 28.08C30.2982 28.6125 30.4266 29.1353 30.6573 29.6156C30.8879 30.0958 31.2158 30.523 31.62 30.87C30.9069 31.1465 30.2733 31.5953 29.776 32.1764C29.2787 32.7575 28.933 33.4527 28.77 34.2C28.5557 34.9775 28.6362 35.8068 28.9961 36.5285C29.3561 37.2502 29.97 37.8135 30.72 38.11C29.9459 38.8881 29.4987 39.9328 29.47 41.03C29.4295 41.1534 29.4295 41.2866 29.47 41.41C30.39 44.59 34.87 44.95 37.47 43.88C37.64 43.81 37.63 43.52 37.47 43.51C35.25 43.39 31.47 43.78 30.69 41.04C31.22 37.04 36.91 36.97 39.86 36.9C40.9077 36.8482 41.9578 36.8816 43 37C43.5016 37.0345 43.9838 37.2074 44.393 37.4995C44.8023 37.7915 45.1226 38.1912 45.3184 38.6543C45.5142 39.1174 45.5778 39.6257 45.5022 40.1227C45.4266 40.6198 45.2147 41.0861 44.89 41.47L44.85 41.44ZM31.38 3.11C31.7818 3.50063 32.1025 3.9667 32.3239 4.48149C32.5452 4.99628 32.6629 5.54968 32.67 6.11C32.6664 6.47923 32.5736 6.84212 32.3995 7.16773C32.2254 7.49334 31.9751 7.77202 31.67 7.98C31.4099 8.12812 31.1189 8.21371 30.82 8.23C30.7288 6.51683 30.9214 4.80037 31.39 3.15L31.38 3.11ZM39.45 19.79C40.5555 19.9563 41.6283 20.2937 42.63 20.79C44.99 22.16 44.95 23.79 44.68 25.97C43.465 25.0257 42.0423 24.3846 40.53 24.1C38.35 23.75 35.39 23.48 33.18 24.34C33.0846 24.2564 32.9719 24.1949 32.85 24.16C32.3497 23.9851 31.9252 23.6427 31.6482 23.1908C31.3712 22.7389 31.2588 22.2052 31.33 21.68V21.61C32.16 18.21 37.11 19.27 39.42 19.76L39.45 19.79ZM45.29 30.94C45.18 30.87 45.07 30.79 44.94 30.72C42.26 29.21 37.05 29.8 34.12 30.2C33.91 30.2 33.7 30.26 33.49 30.31C33.49 30.31 33.49 30.31 33.42 30.31C32.8974 30.1943 32.4312 29.9007 32.1011 29.4794C31.7709 29.058 31.5974 28.5351 31.61 28C31.61 28 31.61 27.95 31.61 27.93C32.12 24.42 36.98 25.01 39.3 25.23C43.08 25.59 45.3 26.96 45.3 30.93L45.29 30.94ZM45.72 36.52C45.2418 36.2141 44.7189 35.9847 44.17 35.84C41.29 35.02 35.23 35.06 31.86 37.2C29.04 36.11 30.51 32.61 32.86 31.84C34.4064 31.4605 35.9998 31.3089 37.59 31.39C39.44 31.34 41.59 31.04 43.38 31.66C45.61 32.44 45.69 34.45 45.74 36.5L45.72 36.52ZM4.40001 37.94C5.8058 38.5029 7.2673 38.9152 8.76001 39.17C10.0326 39.5064 11.3437 39.6745 12.66 39.67C12.6099 39.9365 12.5003 40.1883 12.3392 40.4064C12.1782 40.6246 11.9699 40.8036 11.73 40.93C11.22 41.11 10.07 40.64 9.51001 40.57C8.15001 40.39 6.77001 40.37 5.41001 40.22C4.67001 40.13 2.01001 39.93 1.61001 39.4C1.21001 38.87 1.95001 36.94 2.07001 36.33C3.31049 30.7776 3.95745 25.1091 4.00001 19.42C6.92001 19.97 9.83001 20.54 12.76 21.07C13.4 21.18 14.37 21.07 14.7 21.57C15.15 22.29 14.3 24.88 14.17 25.75C13.73 28.64 13.48 31.57 13.17 34.47C13.07 35.38 13.17 37.39 12.85 38.95C11.6702 38.6417 10.4655 38.4376 9.25001 38.34C7.67001 38.1 6.09001 37.8 4.49001 37.71C4.36001 37.71 4.29001 37.89 4.42001 37.94H4.40001ZM45.87 36.62C45.8858 36.6266 45.9028 36.63 45.92 36.63C45.9372 36.63 45.9542 36.6266 45.97 36.62C46.5959 35.8539 46.9157 34.8831 46.8677 33.8951C46.8197 32.907 46.4072 31.9718 45.71 31.27C47.24 29.4 46.53 27.63 45.06 26.27C47.79 23.4 44.24 19.86 41.37 18.92C40.3544 18.5848 39.3147 18.3274 38.26 18.15C40 14 41.23 9.33 39.49 5C38.36 2.14 35.31 -1.3 32 0.500003C27.49 2.91 30.72 8.99 29 12.56C27.64 15.37 24.2 15.86 22 17.77C19.8 19.68 19 21.22 16 21.3C15.9514 21.0459 15.8462 20.8061 15.6921 20.5983C15.538 20.3906 15.339 20.2202 15.11 20.1C14.11 19.52 11.75 19.58 10.6 19.36L3.60001 18.05C3.478 18.0357 3.35447 18.0574 3.24464 18.1124C3.1348 18.1675 3.04345 18.2534 2.98181 18.3596C2.92018 18.4659 2.89096 18.5879 2.89774 18.7105C2.90453 18.8332 2.94703 18.9512 3.02001 19.05C2.33001 23.52 2.00001 28 1.32001 32.5C1.02001 34.36 0.650006 36.22 0.320006 38.07C0.210006 38.65 -0.169994 39.5 0.160006 40.07C1.09001 41.72 5.86001 41.6 7.34001 41.73C8.82001 41.86 12.13 42.98 13.34 42.13C14.69 45.02 20.34 45.88 22.79 46.31C28.97 47.4 36.16 48.61 41.93 45.5C44.72 43.99 49.2 38.96 45.93 36.62H45.87ZM9.01001 23.62C9.26629 23.6864 9.50608 23.805 9.71431 23.9685C9.92254 24.132 10.0947 24.3368 10.22 24.57C10.3112 24.7799 10.3559 25.0071 10.3513 25.2359C10.3466 25.4647 10.2925 25.6899 10.1928 25.8959C10.0932 26.1019 9.95016 26.284 9.77363 26.4297C9.5971 26.5754 9.3912 26.6812 9.17001 26.74C8.98339 26.8097 8.78291 26.8342 8.585 26.8114C8.3871 26.7887 8.19741 26.7193 8.0315 26.609C7.8656 26.4988 7.72821 26.3507 7.6306 26.177C7.533 26.0034 7.47796 25.8091 7.47001 25.61C7.49729 25.1609 7.65861 24.7302 7.93313 24.3737C8.20765 24.0172 8.58276 23.7512 9.01001 23.61V23.62ZM9.01001 27.75C9.65835 27.6486 10.2415 27.2982 10.6356 26.7734C11.0296 26.2487 11.2034 25.5909 11.12 24.94C10.97 23.78 9.80001 22.54 8.56001 22.94C8.51717 22.9548 8.47941 22.9815 8.4511 23.0169C8.42278 23.0523 8.40507 23.095 8.40001 23.14C7.40001 23.14 6.56001 24.58 6.46001 25.51C6.44121 25.8342 6.49712 26.1583 6.62342 26.4574C6.74972 26.7565 6.94305 27.0226 7.18848 27.2352C7.43391 27.4478 7.72489 27.6012 8.03897 27.6835C8.35306 27.7658 8.68186 27.7749 9.00001 27.71L9.01001 27.75ZM26 44C24.9806 43.7688 23.9783 43.4681 23 43.1C21.9201 42.6068 20.9111 41.9712 20 41.21C19.9 41.13 19.75 41.27 19.84 41.37C21.24 43.1 23.64 44.58 25.95 44.37C26.14 44.37 26.21 44.04 26.01 43.98" fill="#C6674D"/>
</g>
<defs>
<clipPath id="clip0_3_23">
<rect width="47.02" height="47.48" fill="white"/>
</clipPath>
</defs>
</svg>
