<svg width="80" height="52" viewBox="0 0 80 52" fill="none" xmlns="http://www.w3.org/2000/svg">
<g clip-path="url(#clip0_3_16)">
<path d="M52.86 29.4C52.6747 29.4214 52.5038 29.5101 52.3797 29.6493C52.2556 29.7885 52.187 29.9685 52.187 30.155C52.187 30.3415 52.2556 30.5215 52.3797 30.6607C52.5038 30.7999 52.6747 30.8886 52.86 30.91V30.91C52.9664 30.9223 53.0743 30.9119 53.1764 30.8796C53.2786 30.8472 53.3727 30.7936 53.4527 30.7223C53.5327 30.651 53.5967 30.5636 53.6405 30.4659C53.6844 30.3681 53.707 30.2621 53.707 30.155C53.707 30.0479 53.6844 29.9419 53.6405 29.8441C53.5967 29.7464 53.5327 29.659 53.4527 29.5877C53.3727 29.5164 53.2786 29.4628 53.1764 29.4304C53.0743 29.3981 52.9664 29.3877 52.86 29.4V29.4ZM51.42 27C51.2347 27.0214 51.0638 27.1101 50.9397 27.2493C50.8156 27.3885 50.747 27.5685 50.747 27.755C50.747 27.9415 50.8156 28.1215 50.9397 28.2607C51.0638 28.3999 51.2347 28.4886 51.42 28.51C51.6053 28.4886 51.7762 28.3999 51.9003 28.2607C52.0244 28.1215 52.093 27.9415 52.093 27.755C52.093 27.5685 52.0244 27.3885 51.9003 27.2493C51.7762 27.1101 51.6053 27.0214 51.42 27ZM53.33 26C53.1309 26.0025 52.9406 26.082 52.7989 26.2219C52.6572 26.3617 52.5752 26.551 52.57 26.75V26.75C52.57 26.9516 52.6501 27.1449 52.7926 27.2874C52.9351 27.4299 53.1284 27.51 53.33 27.51C53.5316 27.51 53.7249 27.4299 53.8674 27.2874C54.0099 27.1449 54.09 26.9516 54.09 26.75C54.0874 26.5502 54.0061 26.3594 53.8639 26.2191C53.7217 26.0787 53.5298 26 53.33 26V26ZM51.18 30.11C51.0106 30.0178 50.8121 29.9944 50.6259 30.0446C50.4397 30.0949 50.28 30.215 50.18 30.38V30.46C50.0926 30.6304 50.0718 30.8273 50.1217 31.0122C50.1716 31.1971 50.2887 31.3567 50.45 31.46C50.6194 31.5522 50.8179 31.5756 51.0041 31.5254C51.1903 31.4751 51.35 31.355 51.45 31.19V31.11C51.5398 30.9401 51.5618 30.7424 51.5117 30.5569C51.4616 30.3713 51.3431 30.2117 51.18 30.11V30.11ZM55.18 24.11C55.18 23.9102 55.1013 23.7183 54.9609 23.5761C54.8206 23.4339 54.6298 23.3526 54.43 23.35C54.2292 23.3526 54.0374 23.4335 53.8955 23.5755C53.7535 23.7174 53.6726 23.9092 53.67 24.11V24.11C53.6726 24.3098 53.7539 24.5006 53.8961 24.6409C54.0383 24.7813 54.2302 24.86 54.43 24.86C54.6281 24.8574 54.8174 24.7776 54.9575 24.6375C55.0976 24.4974 55.1774 24.3081 55.18 24.11V24.11ZM51.36 24.11C51.5616 24.11 51.7549 24.0299 51.8974 23.8874C52.0399 23.7449 52.12 23.5516 52.12 23.35C52.12 23.1484 52.0399 22.9551 51.8974 22.8126C51.7549 22.6701 51.5616 22.59 51.36 22.59C51.1584 22.59 50.9651 22.6701 50.8226 22.8126C50.6801 22.9551 50.6 23.1484 50.6 23.35C50.6 23.5516 50.6801 23.7449 50.8226 23.8874C50.9651 24.0299 51.1584 24.11 51.36 24.11ZM49.36 28.58C49.1747 28.6014 49.0038 28.6901 48.8797 28.8293C48.7556 28.9685 48.687 29.1485 48.687 29.335C48.687 29.5215 48.7556 29.7015 48.8797 29.8407C49.0038 29.9799 49.1747 30.0686 49.36 30.09C49.5453 30.0686 49.7162 29.9799 49.8403 29.8407C49.9644 29.7015 50.033 29.5215 50.033 29.335C50.033 29.1485 49.9644 28.9685 49.8403 28.8293C49.7162 28.6901 49.5453 28.6014 49.36 28.58V28.58ZM55.16 25.32C54.9747 25.3414 54.8038 25.4301 54.6797 25.5693C54.5556 25.7085 54.487 25.8885 54.487 26.075C54.487 26.2615 54.5556 26.4415 54.6797 26.5807C54.8038 26.7199 54.9747 26.8086 55.16 26.83C55.3453 26.8086 55.5162 26.7199 55.6403 26.5807C55.7644 26.4415 55.833 26.2615 55.833 26.075C55.833 25.8885 55.7644 25.7085 55.6403 25.5693C55.5162 25.4301 55.3453 25.3414 55.16 25.32V25.32ZM54.1 20.57C54.2064 20.5823 54.3143 20.5719 54.4164 20.5396C54.5186 20.5072 54.6127 20.4536 54.6927 20.3823C54.7727 20.311 54.8367 20.2236 54.8806 20.1259C54.9244 20.0281 54.947 19.9221 54.947 19.815C54.947 19.7079 54.9244 19.6019 54.8806 19.5041C54.8367 19.4064 54.7727 19.319 54.6927 19.2477C54.6127 19.1764 54.5186 19.1228 54.4164 19.0904C54.3143 19.0581 54.2064 19.0477 54.1 19.06C53.9019 19.0626 53.7126 19.1424 53.5725 19.2825C53.4324 19.4226 53.3526 19.6119 53.35 19.81C53.3525 20.0091 53.432 20.1994 53.5719 20.3411C53.7117 20.4828 53.901 20.5648 54.1 20.57V20.57ZM49.26 27.57C49.2574 27.3702 49.1761 27.1794 49.0339 27.0391C48.8917 26.8987 48.6998 26.82 48.5 26.82C48.3019 26.8226 48.1126 26.9024 47.9725 27.0425C47.8324 27.1826 47.7526 27.3719 47.75 27.57V27.57C47.75 27.7698 47.8287 27.9617 47.9691 28.1039C48.1094 28.2461 48.3002 28.3274 48.5 28.33C48.7 28.3249 48.8903 28.2432 49.0318 28.1018C49.1732 27.9603 49.2549 27.77 49.26 27.57V27.57ZM47.26 29.1C47.1925 29.0184 47.1088 28.9518 47.0141 28.9045C46.9194 28.8571 46.8159 28.8301 46.7102 28.8251C46.6044 28.8201 46.4988 28.8372 46.4001 28.8754C46.3014 28.9136 46.2117 28.972 46.1369 29.0469C46.062 29.1217 46.0036 29.2114 45.9654 29.3101C45.9272 29.4088 45.9101 29.5144 45.9151 29.6202C45.9201 29.7259 45.9471 29.8294 45.9945 29.9241C46.0418 30.0188 46.1084 30.1026 46.19 30.17V30.17C46.3358 30.3042 46.5268 30.3787 46.725 30.3787C46.9232 30.3787 47.1142 30.3042 47.26 30.17C47.3987 30.0264 47.4762 29.8346 47.4762 29.635C47.4762 29.4354 47.3987 29.2436 47.26 29.1V29.1ZM49.26 26.16C49.4138 26.3165 49.6235 26.4054 49.8429 26.4073C50.0623 26.4092 50.2735 26.3238 50.43 26.17C50.5865 26.0162 50.6754 25.8065 50.6773 25.5871C50.6792 25.3677 50.5938 25.1565 50.44 25V25C50.3725 24.9184 50.2888 24.8518 50.1941 24.8045C50.0994 24.7571 49.9959 24.7301 49.8902 24.7251C49.7844 24.7201 49.6788 24.7372 49.5801 24.7754C49.4814 24.8136 49.3917 24.872 49.3169 24.9469C49.242 25.0217 49.1836 25.1114 49.1454 25.2101C49.1072 25.3088 49.0901 25.4144 49.0951 25.5202C49.1001 25.6259 49.1271 25.7294 49.1745 25.8241C49.2218 25.9188 49.2884 26.0026 49.37 26.07V26.07L49.26 26.16ZM52.25 22.22C52.3958 22.3405 52.5812 22.4023 52.7702 22.3934C52.9591 22.3845 53.1379 22.3054 53.2717 22.1717C53.4054 22.0379 53.4845 21.8591 53.4934 21.6702C53.5023 21.4812 53.4405 21.2958 53.32 21.15V21.15C53.1742 21.0295 52.9888 20.9677 52.7998 20.9766C52.6109 20.9855 52.4321 21.0646 52.2983 21.1983C52.1646 21.3321 52.0855 21.5109 52.0766 21.6998C52.0677 21.8888 52.1295 22.0742 52.25 22.22V22.22ZM70 11.77C69.79 11.77 69.64 11.59 69.41 11.58C69.3635 11.575 69.3165 11.575 69.27 11.58C69.27 11.23 69.27 10.89 69.27 10.58C69.5781 10.5579 69.8797 10.4799 70.16 10.35C70.25 10.35 70.16 10.19 70.16 10.16C69.7496 10.0163 69.3132 9.96177 68.88 10C68.8039 10.0025 68.7316 10.0339 68.6777 10.0877C68.6239 10.1416 68.5925 10.2139 68.59 10.29C68.59 10.86 68.59 11.42 68.67 11.98C68.6709 12.0312 68.6849 12.0814 68.7107 12.1257C68.7365 12.17 68.7732 12.2069 68.8173 12.233C68.8615 12.259 68.9115 12.2734 68.9628 12.2746C69.014 12.2758 69.0647 12.2639 69.11 12.24C69.21 12.18 69.54 12.05 69.63 12.24C69.6458 12.2804 69.6715 12.3162 69.7047 12.3442C69.7378 12.3721 69.7775 12.3913 69.82 12.4C69.9084 12.5609 69.9548 12.7414 69.9548 12.925C69.9548 13.1086 69.9084 13.2891 69.82 13.45C69.59 13.9 69.25 13.95 68.82 13.93C68.39 13.91 68.47 14.3 68.67 14.45C69.29 14.93 70.11 14.35 70.39 13.76C70.5286 13.4783 70.5835 13.1627 70.548 12.8507C70.5126 12.5387 70.3883 12.2434 70.19 12C70.19 11.89 70.19 11.79 69.97 11.76L70 11.77ZM74.09 11.18C73.9891 11.2646 73.8617 11.311 73.73 11.311C73.5983 11.311 73.4709 11.2646 73.37 11.18C73.2929 11.1109 73.2353 11.0227 73.2031 10.9243C73.1709 10.8259 73.1651 10.7207 73.1864 10.6194C73.2077 10.518 73.2552 10.4241 73.3243 10.347C73.3934 10.2698 73.4816 10.2123 73.58 10.18V10.18C73.6865 10.1741 73.7929 10.1937 73.8903 10.2372C73.9877 10.2806 74.0733 10.3468 74.14 10.43C74.2193 10.5386 74.2569 10.6721 74.2459 10.8062C74.2349 10.9402 74.176 11.0658 74.08 11.16L74.09 11.18ZM74.65 10.27C74.5823 10.1585 74.4922 10.0623 74.3854 9.98755C74.2786 9.91277 74.1573 9.86104 74.0294 9.83565C73.9015 9.81025 73.7697 9.81175 73.6424 9.84004C73.5151 9.86834 73.3951 9.92281 73.29 10V10C73.1728 10.0432 73.066 10.1105 72.9766 10.1976C72.8871 10.2848 72.817 10.3898 72.7708 10.5058C72.7246 10.6218 72.7033 10.7462 72.7083 10.871C72.7134 10.9958 72.7446 11.1181 72.8 11.23C72.9326 11.4767 73.1578 11.6605 73.4259 11.7412C73.6941 11.8218 73.9834 11.7926 74.23 11.66C74.4767 11.5274 74.6605 11.3022 74.7412 11.0341C74.8218 10.7659 74.7926 10.4767 74.66 10.23L74.65 10.27ZM77.48 14C77.3783 14.0828 77.2512 14.1281 77.12 14.1281C76.9888 14.1281 76.8617 14.0828 76.76 14C76.6829 13.9309 76.6253 13.8427 76.5931 13.7443C76.5609 13.6459 76.5551 13.5407 76.5764 13.4394C76.5977 13.3381 76.6452 13.2441 76.7143 13.167C76.7834 13.0898 76.8716 13.0323 76.97 13V13C77.0765 12.9941 77.1829 13.0137 77.2803 13.0572C77.3777 13.1006 77.4633 13.1668 77.53 13.25C77.6093 13.3586 77.6469 13.4921 77.6359 13.6262C77.6249 13.7602 77.566 13.8858 77.47 13.98L77.48 14ZM76.67 12.82C76.5525 12.8643 76.4455 12.9327 76.356 13.0207C76.2665 13.1088 76.1964 13.2147 76.1503 13.3314C76.1041 13.4482 76.083 13.5734 76.0881 13.6989C76.0932 13.8243 76.1245 13.9474 76.18 14.06C76.2406 14.1908 76.3272 14.3078 76.4346 14.404C76.542 14.5002 76.6679 14.5734 76.8045 14.6193C76.9412 14.6652 77.0857 14.6827 77.2294 14.6708C77.3731 14.6588 77.5128 14.6178 77.64 14.55C77.7622 14.4804 77.8694 14.3875 77.9557 14.2765C78.0419 14.1654 78.1054 14.0385 78.1425 13.9029C78.1797 13.7673 78.1898 13.6257 78.1722 13.4862C78.1546 13.3468 78.1097 13.2121 78.04 13.09C77.9724 12.977 77.8819 12.8795 77.7742 12.8038C77.6666 12.728 77.5442 12.6757 77.4151 12.6503C77.2859 12.6248 77.1529 12.6268 77.0245 12.656C76.8962 12.6852 76.7754 12.7411 76.67 12.82V12.82ZM76.46 10C75.5201 11.3718 74.6972 12.8203 74 14.33C73.9682 14.3895 73.9608 14.459 73.9793 14.5239C73.9978 14.5888 74.0408 14.6439 74.0993 14.6776C74.1577 14.7114 74.2269 14.7211 74.2924 14.7047C74.3578 14.6884 74.4143 14.6473 74.45 14.59C75.3294 13.1811 76.0856 11.699 76.71 10.16C76.7203 10.1315 76.7204 10.1003 76.7102 10.0717C76.6999 10.0432 76.68 10.0191 76.6539 10.0037C76.6278 9.9883 76.5972 9.98248 76.5672 9.98728C76.5373 9.99208 76.51 10.0072 76.49 10.03L76.46 10ZM79.22 10.54V15.71H70.12C68.43 15.71 66.67 15.55 64.99 15.71C64.837 15.724 64.683 15.724 64.53 15.71C64.5602 15.2071 64.5602 14.7029 64.53 14.2C64.53 12.4 64.62 10.58 64.53 8.79H64.66C65.3556 8.84499 66.0544 8.84499 66.75 8.79H78.34C78.52 8.79 78.93 8.85 79.19 8.84C79.1597 9.4096 79.1597 9.9804 79.19 10.55L79.22 10.54ZM60.85 29.83C60.8762 31.0824 60.7213 32.332 60.39 33.54C57.55 33.02 54.66 32.78 51.81 32.25C48.96 31.72 46.18 30.95 43.35 30.37C47.41 27.16 50.79 22.06 53.57 17.75C57.71 20.42 60.74 24.59 60.85 29.83ZM60 41C59.8749 39.8011 59.9051 38.5911 60.09 37.4V37.4C60.5159 36.5716 60.8705 35.7085 61.15 34.82C61.1599 36.9341 60.7697 39.031 60 41V41ZM58.75 43.27C58.6268 42.0675 58.5934 40.8575 58.65 39.65C58.94 39.27 59.21 38.88 59.47 38.47C59.387 39.5574 59.4239 40.6507 59.58 41.73C59.5744 41.7631 59.5744 41.7969 59.58 41.83C59.324 42.3298 59.0333 42.8109 58.71 43.27H58.75ZM57.87 44.36C57.4897 44.7952 57.0858 45.2092 56.66 45.6C56.58 44.36 56.55 43.12 56.56 41.88C57.1017 41.3882 57.6096 40.8604 58.08 40.3C58.0582 41.3857 58.1117 42.4717 58.24 43.55C58.243 43.5891 58.2555 43.6268 58.2764 43.6599C58.2973 43.693 58.326 43.7205 58.36 43.74C58.2085 43.9557 58.0449 44.1627 57.87 44.36ZM49.12 44.84C42.36 47.22 34.21 46.2 28.7 41.45C26.1376 39.3539 24.3926 36.4246 23.7694 33.1733C23.1462 29.922 23.6844 26.5551 25.29 23.66C26.3111 21.838 27.6684 20.2262 29.29 18.91C33.08 23.25 37.78 27.03 42.08 30.91C42.1525 30.9676 42.2424 30.9989 42.335 30.9989C42.4276 30.9989 42.5175 30.9676 42.59 30.91C42.6315 30.9766 42.6953 31.0262 42.77 31.05C48.3166 33.0762 54.1567 34.1841 60.06 34.33C58.42 39.27 54.01 43.11 49.06 44.85L49.12 44.84ZM54.54 47.22C54.44 46.02 54.33 44.82 54.23 43.62C54.8466 43.2241 55.4378 42.79 56 42.32C56 43.48 56 44.64 56.1 45.81C56.105 45.8717 56.1337 45.929 56.18 45.97C55.6599 46.4205 55.1122 46.8379 54.54 47.22V47.22ZM52.3 48.49C52.23 47.27 52.17 46.04 52.1 44.81C52.6646 44.5412 53.2153 44.2442 53.75 43.92C53.86 45.12 53.96 46.32 54.06 47.53C53.4906 47.8928 52.9032 48.2266 52.3 48.53V48.49ZM50.01 49.47L49.92 45.76C50.5 45.56 51.06 45.33 51.61 45.08C51.67 46.27 51.74 47.46 51.8 48.66C51.7914 48.6894 51.7914 48.7206 51.8 48.75C51.2 49.02 50.6 49.26 49.98 49.47H50.01ZM47.44 50.19L47.35 46.49C48.04 46.33 48.72 46.15 49.35 45.93L49.44 49.64C48.77 49.85 48.09 50.04 47.44 50.19V50.19ZM44.72 50.64C44.6667 49.4067 44.6467 48.1767 44.66 46.95C45.4 46.86 46.13 46.75 46.85 46.6L46.94 50.3C46.2 50.45 45.46 50.56 44.72 50.64V50.64ZM43.34 50.76C42.85 50.76 42.34 50.76 41.84 50.76C41.7316 49.5298 41.6982 48.2942 41.74 47.06C42.55 47.06 43.35 47.06 44.15 46.96C44.15 48.19 44.15 49.42 44.22 50.66L43.34 50.72V50.76ZM39.73 50.72V47C40.22 47 40.73 47.08 41.22 47.09C41.1784 48.3276 41.2118 49.5665 41.32 50.8C40.79 50.8 40.25 50.8 39.71 50.72H39.73ZM39.21 50.72C38.58 50.66 37.94 50.57 37.31 50.46C37.24 49.21 37.22 47.95 37.26 46.7C37.91 46.83 38.57 46.92 39.26 47C39.26 48.24 39.26 49.48 39.26 50.72H39.21ZM35.65 50L35.77 46.23C36.15 46.33 36.54 46.43 36.93 46.51C36.93 47.77 36.93 49.03 36.93 50.29C36.49 50.21 36.04 50.11 35.6 50H35.65ZM35.1 49.87C34.4462 49.7015 33.8019 49.4979 33.17 49.26C33.33 48.02 33.45 46.77 33.55 45.51C34.1 45.73 34.65 45.92 35.22 46.09L35.1 49.87V49.87ZM32.73 49C32.15 48.77 31.58 48.52 31.03 48.24C31.1 46.94 31.18 45.65 31.26 44.35C31.86 44.68 32.48 44.97 33.11 45.24C33.02 46.49 32.89 47.75 32.73 49ZM30.54 48C30.0733 47.7533 29.6133 47.4833 29.16 47.19L29.4 43.19C29.85 43.5 30.3 43.8 30.77 44.07C30.69 45.37 30.62 46.67 30.54 47.97V48ZM28.68 46.83C28.37 46.61 28.06 46.39 27.76 46.15L27.33 45.78L27.51 41.66C27.9591 42.0776 28.4298 42.4715 28.92 42.84L28.68 46.84V46.83ZM26.85 45.33C26.5259 45.0161 26.222 44.6821 25.94 44.33C25.94 42.94 26.04 41.56 26.08 40.17C26.39 40.54 26.7 40.88 27.08 41.22L26.9 45.35L26.85 45.33ZM25.51 43.65C25.118 43.0599 24.7831 42.4337 24.51 41.78L24.69 38.15C24.9755 38.6316 25.2894 39.0957 25.63 39.54C25.58 40.91 25.54 42.28 25.49 43.65H25.51ZM24 40.53C23.5572 38.8457 23.3321 37.1116 23.33 35.37C23.5627 36.0541 23.8399 36.7222 24.16 37.37C24.11 38.44 24.05 39.51 24 40.58V40.53ZM30.87 17.8L30.66 19.21L29.8 18.56C30.15 18.3 30.5 18.04 30.87 17.8ZM31.11 19.54C31.22 18.85 31.33 18.15 31.43 17.45L32.25 16.98L31.8 20.11C31.57 19.92 31.35 19.73 31.11 19.55V19.54ZM34 16.18C33.83 17.9 33.59 19.61 33.29 21.32C32.95 21.03 32.62 20.75 32.29 20.48C32.47 19.22 32.66 17.96 32.84 16.7C33.22 16.51 33.61 16.34 34.01 16.18H34ZM36.4 15.36C35.86 17.78 35.33 20.2 34.79 22.63C34.45 22.31 34.09 22.01 33.79 21.7C34.13 19.8 34.4 17.89 34.58 15.97C35.191 15.7307 35.8154 15.5271 36.45 15.36H36.4ZM38.66 14.87C37.8 17.92 37 21 36.27 24L35.18 23C35.76 20.4 36.3333 17.7967 36.9 15.19C37.45 15.06 38.01 14.94 38.57 14.85L38.66 14.87ZM40.72 14.59L37.9 25.55L36.68 24.4C37.4933 21.2 38.3 18 39.1 14.8C39.63 14.72 40.17 14.66 40.71 14.62L40.72 14.59ZM41.24 14.62C41.69 14.62 42.14 14.62 42.59 14.62C41.47 18.74 40.39 22.89 39.38 27.04L38.31 26.04C39.2767 22.2533 40.2533 18.4633 41.24 14.67V14.62ZM41.24 6.24C41.24 4.44 41.33 2.62 41.24 0.83H41.37C42.0656 0.884989 42.7644 0.884989 43.46 0.83H55.07C55.25 0.83 55.66 0.89 55.92 0.88C55.8897 1.45293 55.8897 2.02707 55.92 2.6V7.69H46.85C45.17 7.69 43.4 7.53 41.72 7.69C41.5668 7.69934 41.4132 7.69934 41.26 7.69C41.2902 7.18378 41.2902 6.67622 41.26 6.17L41.24 6.24ZM43.12 14.59C43.75 14.59 44.38 14.65 45 14.72L41.5 29L39.76 27.32C39.8033 27.2875 39.8349 27.2419 39.85 27.19C40.85 22.96 41.98 18.75 43.12 14.55V14.59ZM47.26 15.05C45.8733 19.6433 44.6933 24.2933 43.72 29C43.39 29.41 43.09 29.83 42.79 30.26L41.91 29.42C41.9346 29.3952 41.9519 29.364 41.96 29.33C43.1467 24.4433 44.33 19.5867 45.51 14.76C46.1 14.84 46.68 14.94 47.26 15.07V15.05ZM49.39 15.7C48.67 18.78 47.94 21.86 47.22 24.94C46.31 26.02 45.34 27.06 44.42 28.15C45.3467 23.7833 46.46 19.45 47.76 15.15C48.31 15.3 48.85 15.47 49.39 15.67V15.7ZM51.28 16.45L50.17 21.04V21.12C49.45 22.12 48.71 23.05 47.95 24.01L49.87 15.85C50.35 16.03 50.82 16.23 51.28 16.45ZM52.93 17.33L50.93 20.11C51.2 18.96 51.48 17.82 51.75 16.68C52.16 16.88 52.55 17.1 52.94 17.33H52.93ZM15.42 7.53V12.69H6.35C4.66 12.69 2.9 12.53 1.22 12.69C1.06365 12.7042 0.906345 12.7042 0.75 12.69C0.779646 12.1838 0.779646 11.6762 0.75 11.17C0.75 9.37 0.84 7.55 0.75 5.76H0.88C1.58553 5.81658 2.29447 5.81658 3 5.76H14.57C14.75 5.76 15.15 5.82 15.42 5.76C15.3847 6.33279 15.3847 6.90721 15.42 7.48V7.53ZM80 8.4C80.0016 8.34532 79.9916 8.29093 79.9708 8.24035C79.95 8.18977 79.9187 8.14414 79.8791 8.10642C79.8395 8.0687 79.7924 8.03973 79.7409 8.02139C79.6893 8.00306 79.6345 7.99577 79.58 8H64.15C64.05 8.00253 63.9548 8.04338 63.8841 8.1141C63.8134 8.18483 63.7725 8.28002 63.77 8.38V16.07C63.7741 16.172 63.817 16.2686 63.89 16.34C62.35 18.08 61 20 59.57 21.85C59.5341 21.9142 59.5152 21.9865 59.5152 22.06C59.5152 22.1335 59.5341 22.2058 59.57 22.27C56.7962 18.2678 52.6513 15.4215 47.92 14.27C45.8261 13.8119 43.6807 13.6337 41.54 13.74C41.63 11.9945 41.63 10.2455 41.54 8.5H56.31C56.3547 8.50045 56.399 8.49182 56.4403 8.47463C56.4815 8.45744 56.5189 8.43205 56.55 8.4V8.4C56.6091 8.33021 56.6411 8.24145 56.64 8.15V0.38C56.6387 0.287888 56.6049 0.199199 56.5445 0.129645C56.4841 0.0600911 56.401 0.0141636 56.31 0L40.88 0C40.78 0.00253246 40.6848 0.043381 40.6141 0.114103C40.5434 0.184826 40.5025 0.280016 40.5 0.38C40.5 2.95333 40.5 5.51667 40.5 8.07C40.5009 8.14165 40.522 8.21159 40.5609 8.27175C40.5999 8.33191 40.655 8.37983 40.72 8.41C40.63 10.1889 40.63 11.9711 40.72 13.75C34.89 14.21 29.17 16.75 25.63 21.47C25.2129 22.0262 24.8353 22.611 24.5 23.22C21.73 19.91 19.03 16.49 16.12 13.29C16.1719 13.2284 16.2002 13.1505 16.2 13.07V5.38C16.1949 5.27742 16.1505 5.18074 16.076 5.11C16.0015 5.03926 15.9027 4.99987 15.8 5H0.38C0.280016 5.00253 0.184826 5.04338 0.114103 5.1141C0.043381 5.18483 0.00253246 5.28002 0 5.38L0 13.07C0 13.1708 0.0400356 13.2674 0.111299 13.3387C0.182563 13.41 0.279218 13.45 0.38 13.45H15.32C15.32 13.45 15.32 13.45 15.32 13.52C18.09 17.1 21.15 20.52 24.07 23.95C22.9525 26.2219 22.4328 28.7413 22.56 31.27C21.78 36.64 22.31 42.67 26.46 46.49C30.87 50.49 37.64 52.06 43.46 51.73C49.04 51.41 54.87 49.34 58.62 45.03C62.09 41.03 62.83 35.39 61.85 30.29C61.8838 27.4943 61.0943 24.7504 59.58 22.4C59.6088 22.4393 59.6464 22.4712 59.6899 22.4932C59.7333 22.5152 59.7813 22.5267 59.83 22.5267C59.8787 22.5267 59.9267 22.5152 59.9701 22.4932C60.0136 22.4712 60.0512 22.4393 60.08 22.4C61.59 20.47 63.29 18.6 64.65 16.56V16.48H79.58C79.6682 16.4796 79.7533 16.4476 79.82 16.39V16.39C79.8531 16.3596 79.8791 16.3224 79.8964 16.281C79.9136 16.2396 79.9217 16.1949 79.92 16.15V8.4H80ZM66.92 10C66.9126 9.97523 66.8974 9.95351 66.8767 9.93807C66.856 9.92262 66.8308 9.91428 66.805 9.91428C66.7792 9.91428 66.754 9.92262 66.7333 9.93807C66.7126 9.95351 66.6974 9.97523 66.69 10C66.4832 10.7377 66.4154 11.5075 66.49 12.27C66.4382 13.0413 66.4717 13.816 66.59 14.58C66.607 14.6259 66.6377 14.6655 66.678 14.6935C66.7182 14.7215 66.766 14.7365 66.815 14.7365C66.864 14.7365 66.9118 14.7215 66.952 14.6935C66.9923 14.6655 67.023 14.6259 67.04 14.58C67.155 13.8157 67.1852 13.041 67.13 12.27C67.2076 11.5081 67.1432 10.7384 66.94 10H66.92ZM55.59 29.51C55.7873 29.5049 55.9752 29.4243 56.1147 29.2847C56.2543 29.1452 56.3349 28.9573 56.34 28.76V28.76C56.34 28.5602 56.2613 28.3683 56.1209 28.2261C55.9806 28.0839 55.7898 28.0026 55.59 28C55.3892 28.0026 55.1974 28.0835 55.0555 28.2255C54.9135 28.3674 54.8326 28.5592 54.83 28.76V28.76C54.8326 28.9598 54.9139 29.1506 55.0561 29.2909C55.1983 29.4313 55.3902 29.51 55.59 29.51V29.51ZM58.59 31.15C58.4047 31.1714 58.2338 31.2601 58.1097 31.3993C57.9856 31.5385 57.917 31.7185 57.917 31.905C57.917 32.0915 57.9856 32.2715 58.1097 32.4107C58.2338 32.5499 58.4047 32.6386 58.59 32.66C58.7753 32.6386 58.9462 32.5499 59.0703 32.4107C59.1944 32.2715 59.263 32.0915 59.263 31.905C59.263 31.7185 59.1944 31.5385 59.0703 31.3993C58.9462 31.2601 58.7753 31.1714 58.59 31.15V31.15ZM55.26 30.67C55.1213 30.8136 55.0438 31.0054 55.0438 31.205C55.0438 31.4046 55.1213 31.5964 55.26 31.74C55.4006 31.8805 55.5913 31.9593 55.79 31.9593C55.9888 31.9593 56.1794 31.8805 56.32 31.74V31.74C56.4587 31.5964 56.5362 31.4046 56.5362 31.205C56.5362 31.0054 56.4587 30.8136 56.32 30.67C56.1794 30.5295 55.9888 30.4507 55.79 30.4507C55.5913 30.4507 55.4006 30.5295 55.26 30.67ZM58.75 30.67C58.9353 30.6486 59.1062 30.5599 59.2303 30.4207C59.3544 30.2815 59.423 30.1015 59.423 29.915C59.423 29.7285 59.3544 29.5485 59.2303 29.4093C59.1062 29.2701 58.9353 29.1814 58.75 29.16C58.5647 29.1814 58.3938 29.2701 58.2697 29.4093C58.1456 29.5485 58.077 29.7285 58.077 29.915C58.077 30.1015 58.1456 30.2815 58.2697 30.4207C58.3938 30.5599 58.5647 30.6486 58.75 30.67V30.67ZM55.9 21.11C55.7 21.1151 55.5097 21.1968 55.3682 21.3382C55.2268 21.4797 55.1451 21.67 55.14 21.87V21.87C55.1451 22.07 55.2268 22.2603 55.3682 22.4018C55.5097 22.5432 55.7 22.6249 55.9 22.63C56.099 22.6248 56.2883 22.5428 56.4281 22.4011C56.568 22.2594 56.6475 22.0691 56.65 21.87C56.6451 21.6717 56.5648 21.4827 56.4254 21.3416C56.2861 21.2004 56.0982 21.1176 55.9 21.11V21.11ZM57.41 25C57.6108 24.9974 57.8026 24.9165 57.9445 24.7745C58.0865 24.6326 58.1674 24.4408 58.17 24.24V24.24C58.1486 24.0547 58.0599 23.8838 57.9207 23.7597C57.7815 23.6356 57.6015 23.567 57.415 23.567C57.2285 23.567 57.0485 23.6356 56.9093 23.7597C56.7701 23.8838 56.6814 24.0547 56.66 24.24C56.66 24.4398 56.7387 24.6317 56.8791 24.7739C57.0194 24.9161 57.2102 24.9974 57.41 25V25ZM58.15 28.07C58.3353 28.0486 58.5062 27.9599 58.6303 27.8207C58.7544 27.6815 58.823 27.5015 58.823 27.315C58.823 27.1285 58.7544 26.9485 58.6303 26.8093C58.5062 26.6701 58.3353 26.5814 58.15 26.56C57.9647 26.5814 57.7938 26.6701 57.6697 26.8093C57.5456 26.9485 57.477 27.1285 57.477 27.315C57.477 27.5015 57.5456 27.6815 57.6697 27.8207C57.7938 27.9599 57.9647 28.0486 58.15 28.07V28.07ZM53.29 5.05C53.3978 5.04564 53.5051 5.06589 53.6039 5.10921C53.7026 5.15253 53.7902 5.21778 53.86 5.3C53.9374 5.40934 53.9737 5.54243 53.9628 5.67591C53.9518 5.8094 53.8942 5.93476 53.8 6.03C53.6991 6.11465 53.5717 6.16105 53.44 6.16105C53.3083 6.16105 53.1809 6.11465 53.08 6.03C53.0027 5.96159 52.9447 5.87411 52.9118 5.77628C52.8789 5.67845 52.8723 5.57371 52.8925 5.4725C52.9128 5.3713 52.9592 5.27717 53.0272 5.19952C53.0952 5.12187 53.1823 5.06342 53.28 5.03L53.29 5.05ZM53 4.87C52.8828 4.91316 52.776 4.9805 52.6866 5.06764C52.5971 5.15477 52.527 5.25976 52.4808 5.37577C52.4346 5.49178 52.4133 5.61622 52.4183 5.74099C52.4234 5.86577 52.4546 5.98809 52.51 6.1C52.5757 6.22213 52.6647 6.33013 52.7721 6.41784C52.8795 6.50554 53.0032 6.57123 53.1359 6.61116C53.2687 6.65109 53.4081 6.66448 53.546 6.65055C53.684 6.63662 53.8179 6.59566 53.94 6.53C54.0621 6.46434 54.1701 6.37527 54.2578 6.26787C54.3455 6.16047 54.4112 6.03684 54.4512 5.90406C54.4911 5.77127 54.5045 5.63192 54.4906 5.49396C54.4766 5.356 54.4357 5.22213 54.37 5.1C54.3002 4.98892 54.2076 4.89386 54.0985 4.82108C53.9893 4.7483 53.866 4.69945 53.7366 4.67773C53.6072 4.656 53.4747 4.6619 53.3477 4.69504C53.2208 4.72818 53.1023 4.78781 53 4.87V4.87ZM49.9 2.21C50.0073 2.20127 50.1151 2.21852 50.2143 2.2603C50.3136 2.30207 50.4013 2.36714 50.47 2.45C50.5463 2.56156 50.5819 2.69593 50.571 2.83062C50.5601 2.96532 50.5032 3.09218 50.41 3.19C50.3091 3.27465 50.1817 3.32105 50.05 3.32105C49.9183 3.32105 49.7909 3.27465 49.69 3.19C49.6097 3.12318 49.549 3.03592 49.5142 2.93743C49.4794 2.83894 49.4718 2.73289 49.4923 2.63046C49.5128 2.52803 49.5605 2.43304 49.6306 2.35551C49.7006 2.27799 49.7902 2.2208 49.89 2.19L49.9 2.21ZM50.58 3.73C50.8255 3.59105 51.0069 3.36154 51.0854 3.09057C51.1639 2.81959 51.1332 2.52866 51 2.28C50.8534 2.06079 50.6261 1.90837 50.3676 1.85593C50.1092 1.80349 49.8405 1.85527 49.62 2V2C49.5025 2.04428 49.3955 2.11265 49.306 2.20074C49.2165 2.28882 49.1465 2.39466 49.1003 2.51145C49.0541 2.62824 49.0329 2.75339 49.0381 2.87887C49.0432 3.00434 49.0745 3.12735 49.13 3.24C49.1917 3.36982 49.2789 3.48587 49.3865 3.58124C49.494 3.6766 49.6197 3.74932 49.7559 3.79505C49.8922 3.84079 50.0363 3.8586 50.1796 3.84742C50.3229 3.83624 50.4625 3.79631 50.59 3.73H50.58ZM50.75 6.55C51.6229 5.14953 52.3756 3.67759 53 2.15C53.0152 2.12212 53.0196 2.08965 53.0125 2.05872C53.0054 2.02779 52.9872 2.00053 52.9614 1.98208C52.9355 1.96363 52.9039 1.95527 52.8723 1.95857C52.8407 1.96187 52.8115 1.97661 52.79 2C51.8434 3.36255 51.0106 4.80075 50.3 6.3C50.2682 6.3595 50.2608 6.42902 50.2793 6.49389C50.2978 6.55875 50.3409 6.61388 50.3993 6.64763C50.4577 6.68137 50.5269 6.6911 50.5924 6.67475C50.6578 6.6584 50.7143 6.61725 50.75 6.56V6.55ZM46.06 5.87C45.79 6.01 45.83 5.67 45.54 5.56C45.5025 5.55152 45.4633 5.55463 45.4276 5.56892C45.3919 5.5832 45.3613 5.60799 45.34 5.64C45.3046 5.75246 45.3014 5.8726 45.3309 5.98677C45.3603 6.10094 45.4212 6.20454 45.5067 6.28581C45.5921 6.36707 45.6986 6.42273 45.8141 6.44645C45.9296 6.47018 46.0495 6.46101 46.16 6.42C46.66 6.23 46.88 5.48 47 5.02C47.0946 4.76083 47.1345 4.4849 47.1173 4.20954C47.1001 3.93419 47.0261 3.66537 46.9 3.42C46.6 3.08 46.19 3.2 45.9 3.42C45.8474 3.1492 45.8474 2.8708 45.9 2.6C46.06 2.23 46.71 2.31 47.05 2.19C47.0605 2.17462 47.0676 2.15715 47.0708 2.13879C47.0739 2.12043 47.0731 2.1016 47.0684 2.08359C47.0636 2.06557 47.0551 2.04878 47.0433 2.03436C47.0315 2.01994 47.0167 2.00822 47 2C46.7546 1.91861 46.4923 1.90162 46.2384 1.95064C45.9845 1.99967 45.7475 2.11308 45.55 2.28C45.22 2.72 45.32 3.49 45.28 4C45.28 4.26 45.59 4.34 45.75 4.2C45.91 4.06 46.37 3.52 46.57 3.93C46.6416 4.28217 46.6068 4.64769 46.47 4.98C46.41 5.22 46.27 5.79 46.02 5.92L46.06 5.87ZM3.63 9.94C3.61228 10.0144 3.57806 10.0838 3.52988 10.1432C3.4817 10.2025 3.4208 10.2503 3.35167 10.2829C3.28253 10.3156 3.20695 10.3323 3.1305 10.3318C3.05405 10.3313 2.97869 10.3136 2.91 10.28C2.58 10.14 2.53 9.83 2.48 9.5V9.21C2.51941 9.21974 2.56059 9.21974 2.6 9.21C3.03 9.21 3.86 9.21 3.66 9.9L3.63 9.94ZM2.43 8.77C2.42804 8.52821 2.4515 8.28688 2.5 8.05C2.51286 7.89956 2.55683 7.75344 2.62913 7.62089C2.70143 7.48834 2.80048 7.37226 2.92 7.28C3.11534 7.19781 3.32031 7.14069 3.53 7.11C3.54957 7.10368 3.5675 7.09312 3.58253 7.07908C3.59755 7.06505 3.6093 7.04787 3.61694 7.02878C3.62458 7.00968 3.62792 6.98914 3.62672 6.96861C3.62552 6.94809 3.61981 6.92807 3.61 6.91C3 6 2 7.24 1.83 7.87C1.63 8.78 1.58 10.52 2.63 10.95C2.83075 11.0343 3.05014 11.0642 3.26613 11.0368C3.48211 11.0093 3.68707 10.9255 3.86038 10.7938C4.0337 10.662 4.16927 10.4869 4.25347 10.2862C4.33766 10.0854 4.3675 9.86597 4.34 9.65C4.25 8.86 3.06 8.07 2.43 8.77V8.77ZM44.28 6.41C44.38 6.41 44.44 6.21 44.28 6.15C43.99 6.03 43.08 6.06 43.04 5.82C43 5.58 43.57 4.92 43.68 4.7C43.895 4.22687 44.0852 3.74288 44.25 3.25C44.3461 3.06626 44.392 2.86045 44.3833 2.65329C44.3745 2.44614 44.3113 2.24495 44.2 2.07C44.1881 2.0166 44.1558 1.96995 44.11 1.94C43.988 1.83863 43.8409 1.77211 43.6843 1.74747C43.5276 1.72282 43.3672 1.74097 43.22 1.8C43.0748 1.85971 42.9517 1.9629 42.8676 2.09541C42.7834 2.22791 42.7423 2.38322 42.75 2.54C42.7574 2.55032 42.7672 2.55873 42.7785 2.56454C42.7898 2.57034 42.8023 2.57336 42.815 2.57336C42.8277 2.57336 42.8402 2.57034 42.8515 2.56454C42.8628 2.55873 42.8726 2.55032 42.88 2.54C42.9929 2.36996 43.1312 2.2182 43.29 2.09C43.3844 2.03811 43.4946 2.02268 43.5997 2.04664C43.7048 2.07061 43.7974 2.13229 43.86 2.22V2.22C44.18 2.7 43.46 4.02 43.21 4.47C42.9428 4.82964 42.718 5.21887 42.54 5.63C42.29 6.53 43.7 6.58 44.23 6.35L44.28 6.41ZM11.59 6.72C10.6408 8.07907 9.81102 9.51778 9.11 11.02C9.07822 11.0795 9.0708 11.149 9.08932 11.2139C9.10785 11.2788 9.15085 11.3339 9.20926 11.3676C9.26767 11.4014 9.33691 11.4111 9.40235 11.3947C9.4678 11.3784 9.52433 11.3373 9.56 11.28C10.4362 9.87091 11.189 8.38873 11.81 6.85C11.8203 6.8215 11.8204 6.79028 11.8102 6.76175C11.7999 6.73321 11.78 6.70915 11.7539 6.69372C11.7278 6.6783 11.6972 6.67248 11.6672 6.67728C11.6373 6.68208 11.61 6.69719 11.59 6.72V6.72ZM9.28 7.94C9.17914 8.02465 9.05168 8.07105 8.92 8.07105C8.78833 8.07105 8.66086 8.02465 8.56 7.94C8.47972 7.87318 8.41897 7.78592 8.38417 7.68743C8.34937 7.58894 8.34182 7.48289 8.3623 7.38046C8.38279 7.27803 8.43055 7.18304 8.50055 7.10552C8.57055 7.02799 8.66019 6.9708 8.76 6.94V6.94C8.8662 6.93644 8.97181 6.95709 9.06884 7.00041C9.16586 7.04372 9.25175 7.10856 9.32 7.19C9.4006 7.29745 9.43989 7.43029 9.43071 7.5643C9.42153 7.6983 9.3645 7.82454 9.27 7.92L9.28 7.94ZM9.83 7.03C9.76259 6.91811 9.67236 6.82167 9.5652 6.74697C9.45803 6.67228 9.33633 6.62099 9.20803 6.59646C9.07972 6.57194 8.94769 6.57471 8.82053 6.60461C8.69337 6.63451 8.57393 6.69086 8.47 6.77V6.77C8.35457 6.81519 8.24985 6.88399 8.16255 6.972C8.07525 7.06001 8.0073 7.16529 7.96305 7.28108C7.9188 7.39688 7.89923 7.52064 7.9056 7.64444C7.91196 7.76824 7.94411 7.88935 8 8C8.13261 8.24665 8.35777 8.43052 8.62594 8.51116C8.89412 8.5918 9.18335 8.56261 9.43 8.43C9.67665 8.29739 9.86052 8.07223 9.94116 7.80406C10.0218 7.53588 9.99261 7.24665 9.86 7L9.83 7.03ZM12.69 10.74C12.5891 10.8246 12.4617 10.871 12.33 10.871C12.1983 10.871 12.0709 10.8246 11.97 10.74C11.8897 10.6732 11.829 10.5859 11.7942 10.4874C11.7594 10.3889 11.7518 10.2829 11.7723 10.1805C11.7928 10.078 11.8406 9.98304 11.9106 9.90551C11.9806 9.82799 12.0702 9.7708 12.17 9.74C12.2765 9.73408 12.3829 9.75368 12.4803 9.79717C12.5777 9.84065 12.6633 9.90676 12.73 9.99C12.8106 10.0974 12.8499 10.2303 12.8407 10.3643C12.8315 10.4983 12.7745 10.6245 12.68 10.72L12.69 10.74ZM11.88 9.56C11.7619 9.60213 11.6541 9.66872 11.5636 9.75542C11.4731 9.84211 11.4019 9.94695 11.3546 10.0631C11.3074 10.1792 11.2853 10.304 11.2897 10.4292C11.294 10.5545 11.3248 10.6775 11.38 10.79C11.4457 10.9121 11.5347 11.0201 11.6421 11.1078C11.7495 11.1955 11.8732 11.2612 12.0059 11.3012C12.1387 11.3411 12.2781 11.3545 12.416 11.3405C12.554 11.3266 12.6879 11.2857 12.81 11.22C12.9321 11.1543 13.0401 11.0653 13.1278 10.9579C13.2155 10.8505 13.2812 10.7268 13.3212 10.5941C13.3611 10.4613 13.3745 10.3219 13.3605 10.184C13.3466 10.046 13.3057 9.91213 13.24 9.79C13.1734 9.67732 13.0838 9.57996 12.9771 9.50429C12.8703 9.42861 12.7488 9.37632 12.6204 9.35084C12.492 9.32535 12.3597 9.32725 12.2321 9.3564C12.1046 9.38555 11.9846 9.4413 11.88 9.52V9.56ZM6.44 8.71C6.43034 8.96864 6.40025 9.22611 6.35 9.48C6.35 9.68 6.07 10.75 5.5 9.93C5.37649 9.53188 5.35245 9.10956 5.43 8.7C5.46618 8.20701 5.57398 7.72192 5.75 7.26H5.84C6.43 7.16 6.45 8.42 6.44 8.71V8.71ZM5.59 6.84C5.54959 6.88411 5.52496 6.94038 5.52 7C4.96651 7.85507 4.74261 8.88214 4.89 9.89C5.03 10.69 5.79 11.29 6.5 10.63C7.21 9.97 7.18 8.63 7.03 7.8C6.91 7.18 6.26 6.11 5.59 6.86" fill="#898989"/>
</g>
<defs>
<clipPath id="clip0_3_16">
<rect width="79.96" height="51.78" fill="white"/>
</clipPath>
</defs>
</svg>
