<?xml version="1.0" encoding="utf-8"?>
<!-- Generator: Adobe Illustrator 26.2.1, SVG Export Plug-In . SVG Version: 6.00 Build 0)  -->
<svg version="1.1" id="Layer_1" xmlns="http://www.w3.org/2000/svg" xmlns:xlink="http://www.w3.org/1999/xlink" x="0px" y="0px"
	 viewBox="0 0 60.28 57.45" style="enable-background:new 0 0 60.28 57.45;" xml:space="preserve">
<style type="text/css">
	.st0{fill:#898989;}
</style>
<g>
	<path class="st0" d="M30.46,30.15c0.05,0.05,0.1,0.1,0.14,0.16c0.21,0.23,0.61-0.06,0.39-0.3c-0.05-0.05-0.1-0.1-0.14-0.16
		C30.64,29.62,30.25,29.92,30.46,30.15 M29.75,30.27c-0.19-0.25-0.58,0.04-0.39,0.3l0.28,0.37c0.19,0.25,0.58-0.04,0.39-0.3
		C29.94,30.52,29.85,30.4,29.75,30.27 M9.9,35.82c-0.18,0.2-0.37,0.39-0.55,0.59c-0.22,0.23,0.17,0.54,0.38,0.3
		c0.18-0.2,0.37-0.39,0.55-0.59C10.5,35.89,10.11,35.59,9.9,35.82 M32.27,28.48l0.07,0.01c0.31,0.04,0.38-0.44,0.07-0.49l-0.07-0.01
		C32.02,27.95,31.95,28.43,32.27,28.48 M31.55,29.3c0.06,0.02,0.13,0.04,0.19,0.06c0.3,0.1,0.5-0.36,0.2-0.45
		c-0.06-0.02-0.13-0.04-0.19-0.06C31.45,28.76,31.25,29.21,31.55,29.3 M12.41,40.98l-0.01,0.03c-0.04,0.31,0.44,0.38,0.49,0.07
		l0.01-0.03C12.94,40.74,12.46,40.67,12.41,40.98 M11.15,38.32c-0.22,0.17-0.38,0.37-0.51,0.61c-0.15,0.28,0.3,0.47,0.45,0.2
		c0.09-0.17,0.21-0.3,0.35-0.42C11.69,38.51,11.4,38.12,11.15,38.32 M10.62,36.9c-0.2,0.21-0.36,0.43-0.49,0.69
		c-0.15,0.28,0.3,0.47,0.45,0.2c0.11-0.22,0.26-0.4,0.43-0.58C11.23,36.97,10.84,36.67,10.62,36.9 M11.53,39.49
		c-0.06,0.12-0.12,0.25-0.19,0.38c-0.14,0.28,0.31,0.48,0.45,0.2c0.06-0.12,0.12-0.25,0.19-0.38C12.12,39.4,11.67,39.21,11.53,39.49
		 M32.78,36.66c0.25,0.14,0.43-0.22,0.25-0.4c-0.12-0.22-0.52-0.15-0.46,0.13C32.61,36.53,32.66,36.6,32.78,36.66 M13.94,42.29
		c-0.31-0.04-0.38,0.44-0.07,0.49C14.19,42.82,14.26,42.33,13.94,42.29 M26.79,39.02c0.13,0.29,0.58,0.1,0.46-0.19
		c-0.07-0.15-0.14-0.31-0.2-0.46c-0.13-0.29-0.58-0.1-0.45,0.19C26.66,38.71,26.73,38.87,26.79,39.02 M44.76,43.57
		c-1.32,1.2-2.74,2.32-4.24,3.32c-0.16-0.38-0.45-0.7-0.7-1.03c-0.29-0.38-0.6-0.75-0.9-1.12c0.86-0.57,1.69-1.19,2.48-1.85
		c0.27,0.45,0.54,0.91,0.89,1.29c0.06,0.06,0.18,0.01,0.14-0.08c-0.21-0.48-0.54-0.93-0.84-1.37c3.68-3.11,6.6-7.13,8.45-11.66
		c1.65-4.05,3.12-9.67,2.59-14.62c1.4,4.02,1.87,8.19,0.92,12.53C52.3,34.64,49.02,39.69,44.76,43.57 M36.45,49.18
		c-0.16-0.32-0.45-0.6-0.66-0.85c-0.33-0.41-0.64-0.9-1.09-1.17c-0.1-0.06-0.22,0.02-0.19,0.14c0.15,0.51,0.54,0.94,0.85,1.36
		c0.17,0.23,0.35,0.53,0.56,0.77c-0.76,0.33-1.54,0.63-2.32,0.9c-0.16-0.32-0.41-0.62-0.6-0.91c-0.3-0.46-0.61-0.9-0.93-1.34
		c2.35-0.76,4.56-1.82,6.6-3.15c0.26,0.41,0.52,0.82,0.8,1.22c0.23,0.33,0.44,0.69,0.74,0.96C39,47.87,37.75,48.57,36.45,49.18
		 M30.26,51.18c-0.01,0-0.02,0-0.03,0c-0.19-0.32-0.47-0.61-0.66-0.86c-0.37-0.47-0.76-0.91-1.17-1.34
		c0.97-0.17,1.92-0.39,2.82-0.65c0.2-0.06,0.4-0.13,0.61-0.2c0.23,0.46,0.46,0.92,0.72,1.36c0.17,0.29,0.33,0.66,0.54,0.97
		C32.15,50.76,31.21,51,30.26,51.18 M27.81,51.48c-0.21-0.25-0.44-0.49-0.61-0.72c-0.36-0.49-0.7-0.99-1.04-1.49
		c0.65-0.06,1.29-0.14,1.92-0.24c0.35,0.54,0.7,1.06,1.07,1.59c0.13,0.19,0.26,0.43,0.41,0.66C28.98,51.37,28.39,51.44,27.81,51.48
		 M25.56,51.5c-0.35-0.45-0.82-0.81-1.2-1.23c-0.26-0.29-0.51-0.59-0.75-0.89c0.75,0.01,1.49-0.02,2.23-0.08
		c0.28,0.57,0.59,1.12,0.95,1.65c0.11,0.16,0.23,0.36,0.36,0.56C26.61,51.52,26.08,51.52,25.56,51.5 M22.92,51.17
		c-0.32-0.43-0.82-0.8-1.16-1.15c-0.25-0.26-0.5-0.54-0.75-0.8c0.7,0.08,1.4,0.13,2.1,0.15c0.24,0.46,0.53,0.89,0.88,1.29
		c0.21,0.25,0.44,0.52,0.7,0.76C24.08,51.37,23.5,51.29,22.92,51.17 M15.49,47.76c1.52,0.68,3.18,1.13,4.88,1.38
		c0.32,0.5,0.71,0.95,1.11,1.38c0.11,0.12,0.23,0.26,0.36,0.4C19.56,50.31,17.43,49.25,15.49,47.76 M12.42,44.46
		c-7.46-6.88-2.88-19.5,2.16-26.42c1.46,0.66,3.07,0.82,4.83,0.07c0.04-0.02,0.07-0.04,0.09-0.07c0.65,0.63,1.3,1.26,1.96,1.88
		c-0.02,0.01-0.04,0.02-0.06,0.04c-3.95,3.98-7.26,10.56-4.82,16.19c2.31,5.3,9.21,6.06,14.14,4.69c5.66-1.57,10.19-5.91,12.3-11.37
		c1.82-4.7,3.02-11.97-2.12-14.98c-5.5-3.23-13.13-0.57-17.51,3.4c-0.01,0.01-0.02,0.03-0.03,0.04c-0.69-0.68-1.39-1.37-2.09-2.05
		c0.27-1.14,0.06-2.36-0.4-3.52c6.45-4.51,15.6-8.06,23.39-5.14c8.88,3.32,7.86,13.6,5.48,21.1c-2.43,7.64-7.8,14.04-15.08,17.45
		C27.98,48.86,18.29,49.87,12.42,44.46 M13.99,16.86c1.22-0.12,2.47-0.36,3.65-0.65c0.01,0,0.02-0.01,0.03-0.01
		c0.18,0.19,0.36,0.38,0.55,0.57c-0.91,0.15-1.78,0.45-2.63,0.83c0,0,0,0-0.01,0.01C15.06,17.45,14.53,17.21,13.99,16.86
		 M12.18,15.5c0.63-0.1,1.27-0.2,1.9-0.31c0.71-0.13,1.47-0.18,2.13-0.47c0.03-0.01,0.05-0.03,0.06-0.06c0.33,0.37,0.66,0.74,1,1.1
		c-1.25,0.18-2.52,0.42-3.72,0.79C13.08,16.23,12.62,15.87,12.18,15.5 M10.68,14.12c1.47-0.11,2.95-0.18,4.39-0.5
		c0.08-0.02,0.12-0.09,0.13-0.15c0.01,0.13,0.13,0.24,0.26,0.24c0.21,0.25,0.42,0.5,0.63,0.74c-0.69-0.01-1.38,0.2-2.06,0.33
		c-0.72,0.14-1.43,0.3-2.15,0.46C11.46,14.89,11.07,14.51,10.68,14.12 M19.04,17.59c-1.08,0.2-2.02,0.28-2.94,0.12
		c0.81-0.22,1.64-0.39,2.45-0.61C18.71,17.26,18.87,17.42,19.04,17.59 M31.17,26.71c0-0.03,0-0.06-0.01-0.1
		c-0.35-1.28-1.26-2.45-2.32-3.52c2.33-0.63,6.39-1.71,6.28,2.14c0,0.04,0,0.09,0.01,0.12c-0.48,3.24-2.19,6.22-5.71,6.8
		c-1.96,0.32-3.78-0.35-4.33-2.43c-0.4-1.52,0.52-3.27,1.12-4.6c0.07-0.15-0.13-0.24-0.24-0.14c-2.8,2.74-2.53,7.81,1.92,8.35
		c4.53,0.56,8.12-3.43,8.38-7.71c0.03-0.06,0.05-0.14,0.05-0.23c0.07-4.56-4.73-4.94-7.83-2.83c-0.04,0.03-0.07,0.06-0.09,0.1
		c-1.05-1.01-2.2-1.93-3.07-2.8c-0.51-0.51-1.03-1.01-1.54-1.52c4.57-3.15,12.53-6.44,17.47-2.18c2.83,2.43,2.21,6.93,1.45,10.17
		c-0.79,3.34-2.43,6.48-4.87,8.91c-4.27,4.26-11.71,6.85-17.3,3.68c-7.07-4-2.85-14.12,1.07-18.82c0.01-0.01,0.01-0.02,0.02-0.04
		c0.83,0.79,1.66,1.57,2.48,2.36c1.7,1.64,4.08,5.3,6.82,4.64C31.12,27.04,31.2,26.86,31.17,26.71 M16.32,12.84
		c0.15-0.2,0.31-0.39,0.43-0.61c2.26,2.27,4.53,4.54,6.8,6.81c2.27,2.27,5.47,4.65,7.09,7.46c-1.75,0.14-2.97-1.53-4.08-2.6
		c-1.25-1.21-2.49-2.42-3.74-3.63c-2.33-2.26-4.61-4.64-7.19-6.63C15.9,13.43,16.12,13.11,16.32,12.84 M17.19,11.8
		c0.16-0.97,0.29-1.95,0.43-2.93c0.29,0.29,0.57,0.59,0.82,0.9c-0.12,0.4-0.21,0.81-0.29,1.22c-0.1,0.5-0.26,1.02-0.25,1.54
		c-0.24-0.24-0.48-0.47-0.72-0.71C17.18,11.82,17.19,11.81,17.19,11.8 M18.23,12.81c0.28-0.52,0.3-1.17,0.39-1.74
		c0.05-0.3,0.09-0.61,0.12-0.91c0.4,0.54,0.73,1.12,1.02,1.74c-0.1,0.29-0.19,0.58-0.28,0.88c-0.1,0.36-0.24,0.74-0.21,1.11
		c-0.36-0.35-0.71-0.7-1.07-1.05C18.21,12.83,18.22,12.83,18.23,12.81 M19.56,14.15c0.27-0.35,0.3-0.82,0.38-1.24
		c0.03-0.13,0.05-0.26,0.08-0.38c0.32,0.91,0.45,1.86,0.69,2.78c-0.39-0.38-0.78-0.76-1.16-1.15
		C19.55,14.16,19.56,14.16,19.56,14.15 M51.62,12.33c-0.01-0.02-0.03-0.02-0.04-0.04c-0.75-1.75-1.91-3.3-3.6-4.49
		c-8.21-5.79-20.29-1.9-27.38,3.94c-0.75-1.55-1.92-2.97-3.02-3.91C17.37,7.66,17.03,7.8,17,8.07c-0.16,1.21-0.33,2.43-0.46,3.64
		c0,0.04,0,0.07,0.01,0.11c-0.26,0.18-0.47,0.43-0.67,0.67c-0.23,0.26-0.51,0.54-0.66,0.86c-0.01,0.03-0.02,0.06-0.02,0.09
		c0-0.06-0.04-0.12-0.12-0.13c-1.72-0.12-3.44,0.11-5.16,0.22c-0.23,0.02-0.38,0.34-0.22,0.52c1.36,1.49,2.89,3,4.61,3.85
		c-5.21,6.43-9.4,16.77-4.79,24.63c0.95,1.62,2.2,2.9,3.64,3.91c3.09,4.4,9.02,6.15,14.19,5.96c0.2-0.01,0.41-0.03,0.61-0.04
		c0.05,0.03,0.1,0.05,0.15,0.07c0.07,0.02,0.14-0.02,0.15-0.09c6.13-0.48,11.88-3.48,16.47-7.48
		C53.68,37.05,58.92,23.03,51.62,12.33 M28.25,38.69c0.13,0.29,0.58,0.1,0.46-0.19c-0.07-0.15-0.14-0.31-0.2-0.46
		c-0.13-0.29-0.58-0.1-0.45,0.19C28.12,38.38,28.18,38.53,28.25,38.69 M34.83,35.27l0-0.03c0.04-0.31-0.44-0.38-0.49-0.07
		l-0.01,0.03C34.3,35.52,34.78,35.59,34.83,35.27 M29.9,38.28c0.27,0.16,0.57-0.22,0.3-0.39c-0.08-0.05-0.12-0.08-0.15-0.17
		c-0.11-0.3-0.57-0.11-0.45,0.19C29.66,38.06,29.75,38.19,29.9,38.28 M30.95,37.61c0.04,0.02,0.08,0.03,0.13,0.05
		c0.29,0.12,0.49-0.33,0.2-0.45l-0.13-0.05C30.85,37.04,30.66,37.5,30.95,37.61"/>
</g>
</svg>
