<svg width="59" height="38" viewBox="0 0 59 38" fill="none" xmlns="http://www.w3.org/2000/svg">
<g clip-path="url(#clip0_3_7)">
<path d="M9.91 33.18H9.57C9.64 33.7 9.7 34.23 9.77 34.75H10.04C10.04 34.22 9.96 33.69 9.91 33.16V33.18ZM42.55 31.54C42.7941 31.1696 42.9529 30.7496 43.0152 30.3104C43.0774 29.8712 43.0415 29.4237 42.91 29C42.674 29.387 42.5202 29.8185 42.4582 30.2675C42.3963 30.7166 42.4275 31.1736 42.55 31.61V31.54ZM15.11 35.83C14.96 34.37 14.81 33.01 14.67 31.64C14.03 33.71 14.17 34.81 15.11 35.83ZM39.53 32.88C39.6633 31.9956 39.7434 31.104 39.77 30.21C39.77 29.39 39.26 29.55 38.69 29.9C39.11 30.82 38.57 31.95 39.53 32.9V32.88ZM36 10.35C36 12.76 36.33 13.08 38.11 12.41C37.86 11.33 36.99 10.94 36 10.35ZM12.7 31.58C12.64 32.87 12.58 33.99 12.54 35.11C12.54 35.63 12.68 36.02 13.32 35.85C13.7 33.32 13.56 32.1 12.7 31.58V31.58ZM41.7 29.27C41.15 29.52 40.77 29.59 40.7 29.71C40.5441 30.5544 40.4671 31.4114 40.47 32.27C40.5148 32.4616 40.597 32.6424 40.712 32.802C40.827 32.9616 40.9725 33.0969 41.14 33.2C41.4821 33.3707 41.8507 33.4823 42.23 33.53C41.5 33.29 41.37 32.82 41.44 32.15C41.53 31.31 41.57 30.45 41.65 29.27H41.7ZM11.55 31.56C10.47 32.34 10.39 32.86 10.83 34.95C10.93 35.46 11.09 35.81 11.76 35.65C11.76 34.32 12.06 33.02 11.55 31.56V31.56ZM34.85 10.34C34.0713 10.5174 33.3379 10.8542 32.6959 11.3293C32.0539 11.8043 31.5173 12.4072 31.12 13.1L35.12 12.87C35.01 12.01 34.92 11.28 34.81 10.34H34.85ZM44.24 29.34C43.48 31.34 43.36 32.11 43.64 33.34C45.8 32.86 46.64 31.49 46.05 29.25L44.24 29.37V29.34ZM15.73 31.37C15.4322 32.8026 15.6408 34.294 16.32 35.59C18.43 34.33 18.66 33.65 17.77 31.37H15.73ZM12.35 14.14L12.49 14.07C13.41 11.34 14.34 8.61 15.25 5.87C15.59 4.87 15.93 3.92 17.25 4.1C20 2.9 23 2.86 25.88 2.72C28.6 2.59 31.27 2.13 33.97 1.9C35.0387 1.77699 36.1158 1.74354 37.19 1.8C37.5697 1.78121 37.9494 1.83833 38.3068 1.96801C38.6642 2.09768 38.9921 2.29732 39.2715 2.55524C39.5508 2.81315 39.7759 3.12418 39.9336 3.47012C40.0913 3.81606 40.1785 4.18998 40.19 4.57C40.38 5.64 40.46 6.72 40.62 7.79C40.7162 9.24695 41.0789 10.6739 41.69 12C42.31 13.14 42.61 13.28 43.91 12.63C43.61 11.39 43.27 10.15 43.03 8.9C42.73 7.37 42.52 5.84 42.27 4.31C42.238 3.94599 42.115 3.59587 41.9123 3.29183C41.7096 2.98778 41.4337 2.73957 41.11 2.57C38.87 1.54 36.68 0.389999 34.05 0.999999C32.7385 1.40344 31.372 1.59915 30 1.58C27.4077 1.22683 24.7826 1.18319 22.18 1.45C21.2645 1.50884 20.3531 1.61902 19.45 1.78C18.1846 2.17195 16.951 2.66004 15.76 3.24C15.4095 3.45305 15.1496 3.78765 15.03 4.18C14.33 6.29 13.63 8.4 13.03 10.54C12.7485 11.7279 12.5283 12.9295 12.37 14.14H12.35ZM39.8 34.37C39.2195 34.2581 38.706 33.9233 38.3695 33.4373C38.033 32.9512 37.9004 32.3527 38 31.77C38.0129 31.4594 37.9757 31.1488 37.89 30.85C37.7 29.98 37.5 29.85 36.62 29.96C35.74 30.07 34.8 30.33 33.89 30.38C29.74 30.61 25.59 30.78 21.44 31C20.5 31.05 19.56 31.18 18.44 31.29C19.68 33 19 34.41 18 35.87C25.49 36.42 32.57 34.41 39.82 34.37H39.8ZM40.82 12.61C40.37 10.19 39.96 7.91 39.53 5.61C39.46 5.26 39.34 4.92 39.27 4.61C39.2004 4.14716 38.9824 3.71943 38.6488 3.39119C38.3151 3.06296 37.8839 2.85197 37.42 2.79C36.5254 2.60905 35.6111 2.54518 34.7 2.6C31.65 2.93 28.62 3.33 25.54 3.41C23.2499 3.5816 20.9724 3.89217 18.72 4.34C18.1484 4.44116 17.607 4.66993 17.1361 5.00928C16.6652 5.34862 16.2768 5.78981 16 6.3C14.7534 8.58781 13.927 11.0806 13.56 13.66C13.8147 13.9241 14.13 14.1222 14.4784 14.2372C14.8269 14.3522 15.1981 14.3806 15.56 14.32C17.56 14.1 19.56 14.06 21.56 13.92L30.27 13.27C30.9593 11.8198 32.0947 10.6284 33.51 9.87C34.87 9.17 36.23 8.98 37.44 10.23C37.9643 10.714 38.4492 11.239 38.89 11.8C39.42 12.58 40.01 12.97 40.89 12.61H40.82ZM37.56 28.74C38.85 28.74 39.84 28.74 40.83 28.74C41.65 28.74 42.46 28.59 43.27 28.51C45.34 28.3 47.42 28.13 49.48 27.86C49.84 27.81 50.19 27.39 50.48 27.06C50.6538 26.7406 50.7977 26.4058 50.91 26.06C51.3813 25.1906 51.6113 24.211 51.5761 23.2227C51.5409 22.2345 51.2419 21.2737 50.71 20.44C49.465 18.5304 48.0848 16.7124 46.58 15C46.2468 14.604 45.8302 14.2866 45.3599 14.0705C44.8897 13.8544 44.3775 13.7449 43.86 13.75C40.99 13.75 38.12 13.47 35.26 13.59C30.97 13.77 26.68 14.2 22.4 14.51C19.74 14.71 17.07 14.79 14.4 15.12C12.7074 15.4207 11.037 15.835 9.4 16.36C8.91 16.5 7.88 18.07 8.11 18.29C8.92 19.03 8.2 19.62 8.03 20.29C7.82072 21.088 7.52916 21.8622 7.16 22.6C6.3 24.26 6.5 26.13 6.04 27.87C5.97 28.13 6.16 28.45 6.23 28.72L7.5 28.9L6.78 29.82C7.01171 30.2642 7.38268 30.6201 7.83604 30.8332C8.2894 31.0463 8.80015 31.1049 9.29 31C11.9 30.87 14.51 30.77 17.12 30.61C19.47 30.47 21.82 30.24 24.17 30.11C27 30 29.8 30 32.61 29.78C33.8367 29.686 35.0559 29.5123 36.26 29.26C36.7109 29.1343 37.1468 28.9599 37.56 28.74V28.74ZM44.79 34.38C49.18 34.15 53.58 33.92 57.97 33.72C58.07 33.72 58.18 33.91 58.39 34.11C58.12 34.28 57.9 34.54 57.67 34.55C52.76 34.82 47.85 35.09 42.94 35.32C41.56 35.38 40.16 35.32 38.79 35.32C35.31 35.56 31.84 35.89 28.37 36.13C25.56 36.33 22.75 36.46 19.93 36.6C18.31 36.69 16.69 36.49 15.07 37.09C14.1291 37.3515 13.1304 37.3165 12.21 36.99C10.3264 36.5052 8.36568 36.3965 6.44 36.67C4.81 36.79 3.17 36.81 1.53 36.83C1.12043 36.8002 0.721753 36.6843 0.36 36.49C0.22 36.42 0.19 36.1 0 35.63C3.11 36.74 6 36.02 8.89 35.79C9.21 34.48 7.99 32.89 9.62 31.94C8.52 31.71 7.4 31.49 6.28 31.23C6.04356 31.1617 5.84061 31.0086 5.71 30.8C5.43609 30.4193 5.25151 29.9818 5.17 29.52C5 27.36 4.78 25.14 5.6 23C6.17166 21.7768 6.45885 20.44 6.44 19.09C6.42601 18.9871 6.42601 18.8829 6.44 18.78C6.8 16.24 6.74 15.41 10.12 15.08C10.4592 15.022 10.7935 14.9384 11.12 14.83C11.3758 10.1008 12.7025 5.49152 15 1.35C15.12 1.12 15.56 1.05 16 1.11L15.14 2.29C15.3383 2.28372 15.5357 2.2603 15.73 2.22C19.5082 0.663209 23.6306 0.131959 27.68 0.679999C30.1801 0.887692 32.6974 0.702105 35.14 0.129999L35.59 -1.35042e-06C36.94 -0.220001 41.37 1.26 42.28 2.3C42.6296 2.67457 42.8775 3.13245 43 3.63C43.31 5.15 43.5 6.69 43.75 8.22C43.8894 9.22968 44.083 10.2311 44.33 11.22C44.5552 12.0786 45.1081 12.8146 45.87 13.27C48.79 15.06 50.56 17.84 51.96 20.87C52.3133 21.5692 52.4974 22.3416 52.4974 23.125C52.4974 23.9084 52.3133 24.6808 51.96 25.38C51.71 25.89 51.53 26.38 51.3 26.97C52.12 26.86 52.12 26.86 53.45 25.42C53.5774 25.9419 53.5095 26.4925 53.259 26.9677C53.0084 27.443 52.5926 27.8102 52.09 28C51.6308 28.083 51.2026 28.2884 50.8505 28.5947C50.4985 28.901 50.2357 29.2967 50.09 29.74C49.84 29.24 49.72 28.99 49.54 28.61L47.21 29C47.1 30.15 47.05 31.23 46.89 32.29C46.73 33.35 45.47 33.65 44.79 34.43" fill="#898989"/>
<path d="M20.86 21.42L20.92 21.76L21.92 21.7C24.92 21.5 27.92 21.28 30.97 21.1C31.4 21.1 31.97 20.82 32.28 21.69L21.52 22.41C21.52 22.53 21.52 22.65 21.52 22.77C22.2894 23.0791 23.1108 23.2386 23.94 23.24C26.94 22.81 29.94 22.43 32.94 22.02C34.08 21.86 34.42 21.44 34.46 20.27C34.46 19.96 34.46 19.65 34.46 19.34C34.37 17.49 33.55 16.59 31.69 16.49C29.7501 16.3484 27.8039 16.3116 25.86 16.38C24.5481 16.557 23.2488 16.8176 21.97 17.16C21.6092 17.2221 21.2799 17.4038 21.035 17.676C20.7901 17.9481 20.6439 18.2947 20.62 18.66C22.71 18.46 24.74 18.19 26.78 18.1C28.82 18.01 30.78 17.44 32.88 17.62C32.34 18.98 32.34 18.96 31.37 18.43C31.142 18.3372 30.8928 18.3095 30.65 18.35L23.47 19.1C22.52 19.2 21.56 19.23 20.61 19.31C20.53 19.31 20.46 19.42 20.32 19.53C20.4 19.82 20.5 20.14 20.6 20.47C20.8798 20.4855 21.1602 20.4855 21.44 20.47C24.29 20.2 27.15 19.91 30 19.62C31.07 19.51 32.13 19.35 33.2 19.26C33.37 19.26 33.56 19.5 33.75 19.63C33.6239 19.8167 33.4725 19.985 33.3 20.13C33.2 20.21 33 20.13 32.85 20.13L21.53 21.13C21.3085 21.1809 21.0961 21.2652 20.9 21.38L20.86 21.42ZM20.39 23.22C20.39 22.89 20.5 22.51 20.39 22.4C19.39 21.51 19.73 20.32 19.62 19.23C19.55 18.57 19.52 17.9 19.47 17.17C19.5992 17.0368 19.7517 16.9283 19.92 16.85C22.65 16.2 25.34 15.29 28.22 15.59C29.54 15.73 30.89 15.59 32.22 15.72C32.6231 15.7052 33.0251 15.7719 33.4019 15.916C33.7786 16.0601 34.1225 16.2788 34.4128 16.5588C34.7031 16.8389 34.934 17.1746 35.0916 17.546C35.2492 17.9173 35.3303 18.3166 35.33 18.72C35.41 19.44 35.33 20.17 35.41 20.9C35.4533 21.1841 35.3974 21.4745 35.2517 21.7222C35.106 21.9699 34.8794 22.1598 34.61 22.26C33.8788 22.6245 33.0844 22.8452 32.27 22.91C29.8116 22.949 27.3631 23.2304 24.96 23.75C23.4346 24.1502 21.8153 23.9758 20.41 23.26" fill="#898989"/>
<path d="M40.71 19.87C40.52 20.66 40.13 21.34 40.27 21.87C40.4108 22.2534 40.6268 22.6047 40.9055 22.9033C41.1842 23.2018 41.5198 23.4416 41.8926 23.6084C42.2654 23.7752 42.6678 23.8657 43.0761 23.8746C43.4844 23.8834 43.8903 23.8105 44.27 23.66C44.4926 23.5885 44.699 23.4738 44.8773 23.3225C45.0556 23.1712 45.2023 22.9863 45.3091 22.7783C45.4159 22.5702 45.4806 22.3432 45.4997 22.1102C45.5187 21.8771 45.4916 21.6426 45.42 21.42C45.0864 20.5116 44.6068 19.6638 44 18.91C43.8123 18.6972 43.5815 18.5267 43.3229 18.41C43.0642 18.2933 42.7837 18.2329 42.5 18.2329C42.2162 18.2329 41.9357 18.2933 41.6771 18.41C41.4185 18.5267 41.1877 18.6972 41 18.91C40.77 19.14 40.39 19.19 40.13 19.4C39.87 19.61 39.93 19.77 39.79 20.08L40.79 19.83L40.71 19.87ZM42.33 17.5C42.9397 17.4371 43.5541 17.5624 44.0905 17.8592C44.6269 18.156 45.0594 18.6099 45.33 19.16C45.6659 19.7371 45.9247 20.3557 46.1 21C46.66 22.8 46.01 24.15 44.23 24.55C43.513 24.7633 42.7524 24.7832 42.0253 24.6075C41.2982 24.4319 40.6305 24.0671 40.09 23.55C39.5955 22.9854 39.246 22.3087 39.0718 21.5787C38.8975 20.8486 38.9038 20.0871 39.09 19.36C39.1587 18.9224 39.3708 18.52 39.693 18.2159C40.0151 17.9119 40.4291 17.7234 40.87 17.68C41.32 17.6 41.78 17.59 42.24 17.54" fill="#898989"/>
<path d="M11.09 20.5C11.01 20.92 10.9 21.34 10.86 21.77C10.8056 22.0101 10.8095 22.2598 10.8715 22.4981C10.9335 22.7364 11.0518 22.9564 11.2163 23.1395C11.3809 23.3227 11.587 23.4637 11.8173 23.5508C12.0476 23.6379 12.2954 23.6685 12.54 23.64C13.4538 23.546 14.3533 23.3446 15.22 23.04C15.6153 22.9018 15.9549 22.6388 16.1876 22.2906C16.4203 21.9425 16.5335 21.5281 16.51 21.11C16.4807 20.5972 16.3088 20.1027 16.0138 19.6823C15.7188 19.2618 15.3122 18.932 14.84 18.73C14.2546 18.5396 13.6368 18.469 13.0235 18.5222C12.4102 18.5755 11.8139 18.7516 11.27 19.04C10.9482 19.1508 10.6104 19.2083 10.27 19.21C10.3373 18.8768 10.5152 18.576 10.7747 18.3565C11.0342 18.1369 11.3602 18.0113 11.7 18C12.8723 17.9066 14.0508 17.9233 15.22 18.05C16.22 18.18 17.41 20.05 17.4 21.16C17.4453 21.7785 17.2689 22.3928 16.9024 22.8931C16.5359 23.3933 16.0033 23.7467 15.4 23.89C14.4142 24.3177 13.3432 24.5128 12.27 24.46C11.8054 24.399 11.3709 24.1964 11.0255 23.8797C10.6802 23.563 10.4408 23.1476 10.34 22.69C10.16 22.2952 10.1408 21.8458 10.2864 21.437C10.432 21.0282 10.7309 20.6922 11.12 20.5" fill="#898989"/>
</g>
<defs>
<clipPath id="clip0_3_7">
<rect width="58.39" height="37.32" fill="white"/>
</clipPath>
</defs>
</svg>
