<svg width="227" height="90" viewBox="0 0 227 90" fill="none" xmlns="http://www.w3.org/2000/svg">
<g clip-path="url(#clip0_3_25)">
<path d="M218.33 22.63C213.56 23.48 210.49 21.13 208.4 17.69C210.01 18.8875 211.871 19.7026 213.843 20.0733C215.815 20.4441 217.845 20.3609 219.78 19.83C221.812 19.2433 223.579 17.9713 224.78 16.23C224.554 17.8526 223.804 19.3567 222.642 20.5124C221.481 21.6682 219.974 22.4119 218.35 22.63H218.33ZM210.87 2.43C210.94 2.5407 211.04 2.62885 211.159 2.68384C211.278 2.73883 211.41 2.75833 211.54 2.74C215.72 2.26 219.99 2.23 222.64 6.16C225.29 10.09 223.9 15.88 219.12 17.37C214.49 18.82 208.37 16.44 207.03 11.57C205.96 7.67 207.87 4.46 210.87 2.43V2.43ZM140.25 82.33C138.73 85.53 135.62 88 131.93 87.81C126.93 87.56 124.26 84.2 122.93 80.14C124.545 81.9194 126.621 83.2164 128.928 83.8872C131.235 84.558 133.683 84.5763 136 83.94C137.934 83.373 139.628 82.1853 140.82 80.56C140.672 81.1689 140.464 81.7617 140.2 82.33H140.25ZM124.85 68.55C125.207 68.5063 125.54 68.345 125.795 68.0916C126.05 67.8381 126.214 67.5068 126.26 67.15C126.529 66.9323 126.81 66.7287 127.1 66.54C127.171 66.6472 127.27 66.7322 127.387 66.7853C127.503 66.8384 127.633 66.8573 127.76 66.84C131.95 66.36 136.22 66.34 138.87 70.26C141.52 74.18 140.13 79.98 135.35 81.47C130.72 82.92 124.6 80.55 123.26 75.67C122.903 74.4454 122.861 73.1504 123.139 71.9055C123.417 70.6606 124.006 69.5063 124.85 68.55V68.55ZM80.69 33.55C76.06 35 69.94 32.64 68.6 27.76C67.53 23.86 69.44 20.65 72.44 18.63C72.5117 18.739 72.6124 18.8257 72.7308 18.8805C72.8492 18.9353 72.9805 18.9559 73.11 18.94C77.29 18.46 81.56 18.43 84.21 22.35C86.86 26.27 85.47 32.07 80.69 33.57V33.55ZM76 38.38C72 38.32 70.21 35.85 68.88 32.9C70.5207 34.4453 72.5317 35.5422 74.7192 36.0851C76.9067 36.6281 79.1971 36.5987 81.37 36V36L81.44 36.11C80.7361 36.8395 79.8903 37.4172 78.9547 37.8076C78.0192 38.1979 77.0136 38.3928 76 38.38V38.38ZM21.38 71.16C21.2841 73.1543 20.4348 75.0379 19.0036 76.43C17.5725 77.8222 15.6662 78.6192 13.67 78.66C12.0573 78.7883 10.438 78.5136 8.95774 77.8608C7.47751 77.2079 6.18277 76.1974 5.18999 74.92C6.72397 75.8351 8.42669 76.4317 10.1964 76.6739C11.9661 76.9162 13.7665 76.7992 15.49 76.33C16.7874 75.9458 17.9859 75.2845 19.0028 74.3919C20.0197 73.4993 20.8308 72.3966 21.38 71.16V71.16ZM2.71999 68.06C1.64999 64.16 3.55999 60.95 6.55999 58.93C6.63329 59.0373 6.73428 59.1228 6.85224 59.1774C6.9702 59.232 7.10073 59.2536 7.22999 59.24C11.41 58.76 15.68 58.73 18.33 62.65C20.98 66.57 19.59 72.37 14.81 73.87C10.03 75.37 4.05999 72.94 2.71999 68.06ZM226.53 11.44C226.701 9.88973 226.492 8.32116 225.92 6.87C224.899 4.37157 222.995 2.33582 220.57 1.15018C218.145 -0.0354574 215.369 -0.288219 212.77 0.44C212.693 0.409878 212.607 0.409878 212.53 0.44C211.191 0.609879 209.904 1.06531 208.756 1.7755C207.608 2.48569 206.625 3.43409 205.876 4.55657C205.126 5.67906 204.625 6.94947 204.409 8.28191C204.192 9.61436 204.264 10.9778 204.62 12.28C204.915 13.3549 205.396 14.3701 206.04 15.28C206.03 15.4565 206.03 15.6335 206.04 15.81C194.94 24.4033 183.897 33.07 172.91 41.81C162.03 50.43 150.51 58.64 140.32 68.09C138.97 66.4783 137.186 65.2873 135.18 64.6581C133.173 64.029 131.029 63.988 129 64.54C128.927 64.498 128.843 64.4804 128.76 64.49C127.538 64.6449 126.359 65.0391 125.29 65.65C113 54.59 99.23 43.53 84.73 35.43C85.148 34.7382 85.4836 33.9998 85.73 33.23C86.9254 31.8581 87.7239 30.186 88.0393 28.3939C88.3547 26.6018 88.1752 24.7576 87.52 23.06C86.4898 20.5685 84.5844 18.5396 82.1624 17.3553C79.7404 16.171 76.969 15.9131 74.37 16.63C74.2958 16.5924 74.213 16.5751 74.13 16.58C72.7915 16.7514 71.5053 17.2079 70.3582 17.9185C69.211 18.6291 68.2295 19.5774 67.4799 20.6995C66.7303 21.8215 66.2299 23.0913 66.0126 24.4231C65.7953 25.7549 65.866 27.1178 66.22 28.42C66.3597 28.9252 66.5437 29.4172 66.77 29.89C51.17 39.89 34.72 49.3 19.87 60.45C18.5105 58.8307 16.7132 57.6375 14.6932 57.0132C12.6732 56.3889 10.516 56.36 8.47999 56.93C8.40134 56.9092 8.31865 56.9092 8.23999 56.93C6.90702 57.1026 5.62628 57.5579 4.48344 58.2654C3.34061 58.9729 2.36203 59.9163 1.61318 61.0325C0.864333 62.1486 0.362475 63.4119 0.141181 64.7376C-0.0801128 66.0634 -0.0157398 67.4211 0.329994 68.72C0.552477 69.5618 0.888922 70.3693 1.32999 71.12C2.80999 77 8.40999 81.6 14.73 80.65C22 79.55 25.22 72 22.22 65.76C22.1314 64.9372 21.933 64.13 21.63 63.36C21.4436 62.9122 21.2264 62.4778 20.98 62.06C36.98 53.4 51.98 42.65 67.25 32.83C68.25 36.77 70.94 40.08 75.49 40.41C76.9076 40.4923 78.3263 40.2668 79.6485 39.7489C80.9708 39.2311 82.1653 38.4332 83.15 37.41C96.57 47.36 110.09 56.8 122.93 67.54C121.348 69.3149 120.498 71.6232 120.55 74C119.55 81.53 124.05 90 132.55 89.91C140.15 89.85 145.24 81.02 142.88 74.16C142.843 73.0604 142.62 71.975 142.22 70.95C141.999 70.4161 141.735 69.901 141.43 69.41C152.75 61.88 163.2 52.81 173.9 44.41C184.9 35.79 195.86 27.1233 206.78 18.41C207.849 20.5699 209.574 22.3361 211.708 23.4552C213.842 24.5744 216.276 24.9891 218.66 24.64C225.07 23.55 228.32 17.26 226.58 11.42" fill="#898989"/>
</g>
<defs>
<clipPath id="clip0_3_25">
<rect width="227" height="89.93" fill="white"/>
</clipPath>
</defs>
</svg>
