<svg width="59" height="81" viewBox="0 0 59 81" fill="none" xmlns="http://www.w3.org/2000/svg">
<g clip-path="url(#clip0_3_2)">
<path d="M54 34.1C54 32.8 53.34 31.83 52.35 31.85C51.36 31.87 49.78 33.15 49.74 34.03C49.67 35.72 50.62 37.22 51.74 37.26C52.86 37.3 53.93 35.7 54 34.1ZM54.06 30C56.06 29.86 57.06 28.94 57.73 26.84C58.22 25.21 57.42 24 55.73 24.1C54.8557 24.2764 54.0062 24.5585 53.2 24.94C54.62 27.45 54.62 27.45 54.03 30H54.06ZM43.83 30C40.83 30 38.83 31.7 38.24 34.92C40.4806 35.0253 42.6735 34.2501 44.35 32.76C44.16 31.76 44 30.88 43.83 30ZM43.65 40.66C44.7962 40.1639 45.7972 39.3839 46.5583 38.3936C47.3194 37.4032 47.8156 36.2353 48 35C48.19 34 47.58 33.48 46.65 33.63C43.94 34.1 42.21 37.74 43.65 40.63V40.66ZM42.42 20.78C39.42 24.47 39.42 25.67 42.26 28.5C43.37 27.9 45.04 29.1 46.02 27.3C44.5 25.38 44.95 22.4 42.42 20.78ZM44.92 31.46C49.33 33.26 52.92 31.21 52.81 27.02C52.1546 26.7138 51.4406 26.5534 50.7172 26.5499C49.9938 26.5465 49.2783 26.7 48.62 27C47.0339 28.1672 45.7625 29.71 44.92 31.49V31.46ZM47.71 25.83C48.55 25.57 49.12 25.37 49.71 25.22C50.2762 25.1436 50.794 24.8601 51.1634 24.4242C51.5327 23.9884 51.7275 23.4311 51.71 22.86C51.71 21.3 51.71 19.63 50.18 18.68C49.8713 18.5276 49.535 18.4393 49.1913 18.4204C48.8475 18.4015 48.5035 18.4524 48.18 18.57C47.6921 18.7648 47.2509 19.0607 46.8856 19.4383C46.5203 19.8158 46.2391 20.2665 46.0606 20.7606C45.882 21.2547 45.8102 21.781 45.8497 22.3049C45.8893 22.8288 46.0393 23.3383 46.29 23.8C46.7094 24.4891 47.1633 25.1566 47.65 25.8L47.71 25.83ZM6.32 45.85C6.26 50.74 11.97 57.85 16.66 58.85C13.9856 53.955 10.4877 49.5573 6.32 45.85ZM18 26.32C17.4 27.17 16.62 27.8 16.52 28.52C16.355 30.0756 16.355 31.6444 16.52 33.2C16.6649 33.9618 17.043 34.6597 17.6019 35.1972C18.1609 35.7347 18.8731 36.0851 19.64 36.2C21.16 36.3 21.77 35.74 22.23 33.59C22.4306 32.7422 22.4914 31.8674 22.41 31C22.3273 30.3351 22.0328 29.7145 21.57 29.23C20.57 28.23 19.47 27.45 18.04 26.28L18 26.32ZM24.93 52.52C24.61 52.89 24.06 53.26 23.93 53.75C23.571 54.8203 23.3854 55.9411 23.38 57.07C23.4588 59.5994 23.6993 62.1213 24.1 64.62C24.3 65.79 25.55 66.78 24.45 68.02C25.7 68.85 26.2 68.32 26.45 67.3C27.5994 63.6428 27.7888 59.7515 27 56C26.71 54.81 26.67 53.32 25 52.61L24.93 52.52ZM14 29.17C13.0566 29.0203 12.1047 28.9302 11.15 28.9C10.8653 28.8879 10.581 28.932 10.3133 29.0299C10.0456 29.1277 9.79986 29.2772 9.59 29.47C8.44669 31.0223 7.91293 32.9403 8.09 34.86C8.29178 35.8419 8.8061 36.732 9.556 37.3972C10.3059 38.0624 11.2511 38.4668 12.25 38.55C13.8 38.55 14.86 37.03 14.76 34.62C14.6044 32.791 14.3507 30.9718 14 29.17ZM29.4 22.76C28.89 21.82 28.61 20.59 27.83 19.99C26.65 19.08 25.16 19.4 23.91 20.21C23.41 20.54 23.06 21.09 22.58 21.46C22.0545 21.8962 21.4726 22.2595 20.85 22.54C19.12 23.27 18.85 24.38 20.18 25.59C21.0736 26.4181 22.0152 27.1928 23 27.91C23.5118 28.2199 24.1019 28.3761 24.7 28.36C27.38 28.36 29.1 26.18 29.42 22.76H29.4ZM20.21 19.76C21.74 19.56 23.31 19.06 24.03 17.33C25 15 26 12.61 25.08 10C24.75 9 24 8.77 23 9C20.645 9.72732 18.6698 11.3505 17.5 13.52C16.87 14.52 16.11 15.52 16.43 16.38L20.19 19.71L20.21 19.76ZM11.93 18.71C12.8806 18.2815 13.681 17.5781 14.2282 16.6905C14.7754 15.8029 15.0442 14.7718 15 13.73C15 12.87 15.27 12.01 15.3 11.14C15.5435 8.36139 15.1784 5.56309 14.23 2.94C13.47 1 12 0.750003 10.66 2.27C9 4.15 7.82 6.32 8.21 8.9C8.81391 12.4021 10.0762 15.758 11.93 18.79V18.71ZM12.77 24.18C12.11 23.44 11.61 23.18 11.6 22.82C11.48 19.67 9.6 17.15 8.66 14.29C8.50663 13.9182 8.26582 13.5889 7.95801 13.33C7.65019 13.0711 7.28446 12.8903 6.89185 12.803C6.49925 12.7156 6.09136 12.7243 5.70282 12.8282C5.31428 12.9321 4.95655 13.1283 4.66 13.4C3.34 15 4.35 18.31 6.32 19C7.57 19.43 8.8 19.93 10.2 20.46C8.45 22.13 7.6 22.27 5.79 21.46C3.5 20.4 2.6 20.78 1.79 23.15C1.11 25.15 1.56 26.02 3.54 26.74C5.24753 27.2852 7.08246 27.2852 8.79 26.74C9.23 25.47 9.63 24.34 10.02 23.22C10.269 23.9146 10.3445 24.6595 10.24 25.39C10.2118 25.8154 10.2898 26.2412 10.4671 26.6289C10.6444 27.0167 10.9154 27.3542 11.2557 27.6111C11.5959 27.8681 11.9947 28.0363 12.4162 28.1007C12.8377 28.1651 13.2686 28.1236 13.67 27.98C14.17 27.81 14.67 27.6 15.13 27.41C17.37 26.54 19.27 22.73 18.42 20.49C18.2727 20.0964 18.0444 19.7381 17.7499 19.4383C17.4553 19.1386 17.101 18.9041 16.71 18.75C16.2413 18.6843 15.7642 18.7135 15.3071 18.8359C14.8499 18.9583 14.422 19.1713 14.0489 19.4624C13.6757 19.7535 13.3649 20.1166 13.1349 20.5302C12.9049 20.9438 12.7604 21.3994 12.71 21.87C12.65 22.45 12.71 23.05 12.71 24.25L12.77 24.18ZM33.28 75.86C35.28 73.86 37.22 71.86 39.18 69.78C39.91 69.03 40.57 68.21 41.33 67.5C41.4631 67.3558 41.6233 67.2394 41.8015 67.1573C41.9797 67.0752 42.1723 67.0292 42.3684 67.0217C42.5644 67.0143 42.76 67.0457 42.9439 67.114C43.1278 67.1823 43.2964 67.2863 43.44 67.42C39.28 70.67 35.71 74.23 33.72 78.49L29.92 80.62C29.5508 80.5965 29.1995 80.4524 28.92 80.21C27.14 77.97 24.75 77.94 22.28 78.34C21.42 78.48 20.75 78.71 20.47 77.34C23.3 76.34 26.05 77.22 29.2 77.93C28.2 76.07 27.2 74.93 25.52 74.93C23.63 74.93 21.72 75.13 19.83 75.29C18.83 75.37 17.83 75.99 16.52 75.09C19.52 73.56 22.59 73.85 25.88 73.28C24.83 71.74 23.88 70.42 23.04 69.09C22.7699 68.6748 22.5516 68.2282 22.39 67.76C21.82 66.12 21.3 64.47 20.73 62.84C20.62 62.52 20.32 61.99 20.17 62.01C18.55 62.23 17.81 60.65 16.51 60.28C13.51 59.42 11.39 57.36 9.51 55.03C7.63 52.7 6 50.48 5.26 47.6C5 46.52 4.9 45.41 4.73 44.27C6.57 43.67 7.47 44.87 8.22 45.78C11.3 49.57 14.22 53.46 17.22 57.32C17.5967 57.903 18.0741 58.4143 18.63 58.83C17.05 52.31 15.45 45.83 15.42 38.99C14.79 39.2 14.25 39.43 13.69 39.57C12.7983 39.7676 11.872 39.7473 10.9899 39.5107C10.1077 39.2742 9.29552 38.8284 8.62232 38.2111C7.94911 37.5938 7.43469 36.8233 7.12268 35.9649C6.81067 35.1065 6.71027 34.1855 6.83 33.28C7.08 31.75 7.55 30.28 7.95 28.59C6.34 28.33 4.65 28.17 3.02 27.78C0.189999 27.11 -0.740001 25.11 0.609999 22.51C1.39756 21.207 2.26593 19.9545 3.21 18.76C3.1 17.57 2.85 16.11 2.83 14.65C2.83 12.14 3.51 11.46 6.08 11.3L7.5 11.17C7.14041 9.79646 7.06312 8.36425 7.27281 6.95999C7.48251 5.55572 7.97483 4.20858 8.72 3C9.66 1.55 10.49 -0.289997 12.62 3.4254e-06C14.75 0.290003 15.47 2.16 15.78 4C16.09 5.84 16.22 7.81 16.4 9.72C16.45 10.29 16.4 10.88 16.4 11.96C17.4 11.1 17.99 10.52 18.65 10.02C19.5833 9.23804 20.5877 8.54503 21.65 7.95C24.4 6.61 26.65 8.09 26.55 11.11C26.474 12.2581 26.2899 13.3965 26 14.51C25.76 15.6 25.38 16.65 25 17.92L27.1 18.25C29.1 18.58 30.1 19.48 30.36 21.39C30.6668 23.3995 30.237 25.4522 29.15 27.17C28.3387 28.0515 27.3365 28.7356 26.22 29.17C25.5765 29.4091 24.9038 29.5604 24.22 29.62C23.94 31.34 23.77 32.97 23.4 34.56C22.82 37.03 21.21 37.97 18.7 37.47C17.89 37.32 17.06 37.21 15.86 37.03C16.4491 38.0222 16.7277 39.1681 16.66 40.32C16.535 42.5836 16.7132 44.8537 17.19 47.07C18.0505 52.6574 19.7074 58.0927 22.11 63.21C22.97 62.26 22.54 61.3 22.57 60.42C22.64 57.99 22.65 55.54 22.86 53.12C22.91 52.49 23.57 51.45 24.04 51.4C24.4939 51.3432 24.9545 51.3786 25.3944 51.504C25.8343 51.6295 26.2443 51.8424 26.6 52.13C27.3351 52.9837 27.8257 54.0203 28.02 55.13C28.9072 59.8861 28.4714 64.7946 26.76 69.32C25.82 71.92 26.1 72.84 29.02 74.71C29.02 73.8 29.02 73.06 29.02 72.33C28.9 65 29.39 57.83 32.22 51C33.8 47.16 35.63 43.51 39.49 41.4C41.63 40.23 41.28 37.99 41.92 35.91C40.9781 36.0937 40.0266 36.2239 39.07 36.3C37.3 36.36 36.54 35.52 37.07 33.86C37.5644 32.6705 38.239 31.5642 39.07 30.58C39.6077 30.0396 40.2087 29.5662 40.86 29.17C40.618 28.8334 40.3505 28.5158 40.06 28.22C39.4795 27.7538 39.0675 27.1105 38.887 26.3883C38.7064 25.666 38.7672 24.9045 39.06 24.22C39.5039 22.8969 40.018 21.5984 40.6 20.33C40.6759 20.1211 40.7964 19.9313 40.953 19.7737C41.1097 19.6161 41.2989 19.4946 41.5073 19.4175C41.7157 19.3404 41.9384 19.3096 42.1599 19.3273C42.3815 19.345 42.5965 19.4108 42.79 19.52C43.372 19.8302 43.9272 20.1881 44.45 20.59C45.01 19.86 45.45 19.17 46.04 18.52C48.04 16.18 50.82 16.52 52.15 19.31C52.651 20.5162 53.0883 21.7479 53.46 23C54.16 23 54.85 23 55.54 23C57.84 23.11 59.02 24.46 58.87 26.77C58.8594 27.4726 58.6965 28.1645 58.3927 28.7981C58.0889 29.4317 57.6512 29.9919 57.11 30.44C56.37 31.04 55.59 31.59 54.7 32.26C55.52 34.65 55.36 36.94 53.1 38.51C51.35 39.74 50.03 38.38 48.73 37.38C47.79 38.58 46.92 39.75 45.97 40.87C45.6624 41.3078 45.2225 41.6354 44.7149 41.8046C44.2073 41.9738 43.6588 41.9757 43.15 41.81C41.98 41.36 41.15 41.91 40.21 42.37C36.71 44.12 34.7 47.22 33.21 50.61C30.1432 57.9824 29.0539 66.0276 30.05 73.95C30.2992 74.8301 30.6168 75.6894 31 76.52C33.44 71.99 34.68 67.52 37.67 63.98C37.73 63.9 38.13 64.1 38.6 64.23C35.85 67.66 34.4 71.6 32.77 75.45L33.31 75.86" fill="#231815"/>
</g>
<defs>
<clipPath id="clip0_3_2">
<rect width="58.97" height="80.62" fill="white"/>
</clipPath>
</defs>
</svg>
