<svg width="43" height="52" viewBox="0 0 43 52" fill="none" xmlns="http://www.w3.org/2000/svg">
<g clip-path="url(#clip0_3_21)">
<path d="M22.6 11.82C22.6411 11.7301 22.7005 11.6498 22.7744 11.5842C22.8484 11.5186 22.9352 11.4692 23.0293 11.4391C23.1234 11.4089 23.2228 11.3988 23.3211 11.4093C23.4193 11.4198 23.5143 11.4507 23.6 11.5L24.19 11.83C24.3584 11.9267 24.4827 12.085 24.5368 12.2715C24.5909 12.458 24.5705 12.6582 24.48 12.83C24.4138 12.965 24.3065 13.0755 24.1735 13.1455C24.0405 13.2156 23.8887 13.2417 23.74 13.22C23.6595 13.2119 23.5814 13.1881 23.51 13.15L22.92 12.82C22.7516 12.7233 22.6273 12.565 22.5732 12.3785C22.5191 12.192 22.5395 11.9918 22.63 11.82H22.6ZM20.87 12.45C19.3019 12.3493 17.7351 12.6665 16.3296 13.3692C14.9241 14.072 13.7303 15.1351 12.87 16.45C12.7977 16.5668 12.6931 16.6602 12.5689 16.7188C12.4447 16.7773 12.3061 16.7986 12.17 16.78C12.0652 16.7635 11.9658 16.7224 11.88 16.66C11.7321 16.545 11.6312 16.38 11.5962 16.1959C11.5612 16.0118 11.5946 15.8213 11.69 15.66C12.691 14.1293 14.0802 12.8914 15.7157 12.0728C17.3513 11.2541 19.1747 10.8839 21 11C21.1912 11.025 21.365 11.1237 21.4846 11.275C21.6041 11.4263 21.6599 11.6182 21.64 11.81C21.6337 11.9069 21.6081 12.0015 21.5648 12.0883C21.5215 12.1752 21.4613 12.2526 21.3878 12.3159C21.3142 12.3792 21.2288 12.4272 21.1364 12.4571C21.0441 12.487 20.9467 12.4982 20.85 12.49L20.87 12.45ZM41 28.24C40.9324 28.3766 40.8237 28.4887 40.6892 28.5604C40.5547 28.6322 40.4011 28.66 40.25 28.64C40.1737 28.6273 40.0996 28.6037 40.03 28.57L37.24 27.06C37.0699 26.965 36.9434 26.8074 36.8874 26.6208C36.8314 26.4341 36.8503 26.233 36.94 26.06C36.9801 25.9693 37.0389 25.888 37.1124 25.8213C37.1859 25.7547 37.2725 25.7042 37.3668 25.6731C37.461 25.642 37.5607 25.631 37.6594 25.6408C37.7581 25.6506 37.8537 25.681 37.94 25.73L40.73 27.23C40.8965 27.3285 41.0198 27.4861 41.0754 27.6714C41.1309 27.8567 41.1147 28.0561 41.03 28.23L41 28.24ZM41.56 20.44C41.6549 20.429 41.751 20.4372 41.8426 20.4641C41.9342 20.4911 42.0195 20.5363 42.0933 20.597C42.167 20.6577 42.2278 20.7326 42.2719 20.8173C42.316 20.902 42.3426 20.9948 42.35 21.09C42.373 21.283 42.3202 21.4774 42.2027 21.6323C42.0851 21.7871 41.9121 21.8903 41.72 21.92C41.1264 22.0051 40.5236 22.0051 39.93 21.92C39.5106 21.8535 39.0987 21.7463 38.7 21.6C38.5193 21.5285 38.3739 21.3888 38.2953 21.2111C38.2167 21.0333 38.2112 20.8318 38.28 20.65C38.3083 20.5592 38.3545 20.475 38.4159 20.4024C38.4773 20.3298 38.5527 20.2703 38.6376 20.2274C38.7225 20.1845 38.8151 20.159 38.91 20.1526C39.0049 20.1462 39.1001 20.1589 39.19 20.19C39.9481 20.4635 40.7597 20.556 41.56 20.46V20.44ZM35.84 11.75C35.7552 11.5761 35.739 11.3767 35.7946 11.1914C35.8502 11.0061 35.9735 10.8485 36.14 10.75L38.61 9.35C38.6936 9.29684 38.7876 9.26229 38.8857 9.24871C38.9838 9.23513 39.0837 9.24283 39.1786 9.27129C39.2735 9.29976 39.3611 9.34831 39.4356 9.41366C39.51 9.47901 39.5695 9.55961 39.61 9.65C39.6947 9.8239 39.7109 10.0233 39.6554 10.2086C39.5998 10.3939 39.4765 10.5515 39.31 10.65L36.8 12C36.716 12.0515 36.622 12.0847 36.5243 12.0975C36.4266 12.1102 36.3273 12.1021 36.2329 12.0738C36.1385 12.0455 36.0511 11.9975 35.9765 11.9331C35.9019 11.8687 35.8418 11.7893 35.8 11.7L35.84 11.75ZM38.35 16.86C38.2938 16.8701 38.2362 16.8701 38.18 16.86C38.0195 16.8313 37.8733 16.7498 37.7646 16.6284C37.6558 16.507 37.5909 16.3526 37.58 16.19C37.5601 15.9956 37.617 15.8011 37.7384 15.6479C37.8598 15.4948 38.0362 15.3951 38.23 15.37L41.01 15.07C41.1054 15.0618 41.2015 15.0727 41.2926 15.1021C41.3837 15.1315 41.4681 15.1788 41.5407 15.2412C41.6133 15.3036 41.6728 15.3798 41.7156 15.4655C41.7584 15.5511 41.7837 15.6445 41.79 15.74C41.8125 15.9349 41.7567 16.1308 41.6348 16.2846C41.5129 16.4384 41.3349 16.5374 41.14 16.56L38.35 16.86ZM33.14 6.86L35 4.47C35.0568 4.39509 35.128 4.33237 35.2096 4.28559C35.2911 4.23882 35.3812 4.20894 35.4745 4.19774C35.5678 4.18654 35.6625 4.19425 35.7527 4.22041C35.843 4.24657 35.9271 4.29064 36 4.35C36.1508 4.47666 36.2465 4.65692 36.2671 4.85279C36.2876 5.04865 36.2313 5.24484 36.11 5.4L34.28 7.81C34.2039 7.91266 34.1014 7.99286 33.9835 8.04214C33.8656 8.09142 33.7365 8.10796 33.61 8.09C33.4857 8.06974 33.3687 8.01811 33.27 7.94C33.1228 7.81058 33.0306 7.62991 33.012 7.43481C32.9934 7.23972 33.0499 7.04488 33.17 6.89L33.14 6.86ZM27.13 4L28 0.800004C28.0232 0.706801 28.0649 0.619187 28.1225 0.542323C28.1801 0.465458 28.2525 0.400896 28.3354 0.35244C28.4183 0.303983 28.5101 0.272611 28.6054 0.260171C28.7006 0.247731 28.7974 0.254474 28.89 0.280004C29.0747 0.339756 29.2285 0.46968 29.3183 0.641772C29.4081 0.813864 29.4266 1.01435 29.37 1.2L28.48 4.44C28.4352 4.61196 28.3292 4.76167 28.182 4.86108C28.0347 4.9605 27.8562 5.00278 27.68 4.98H27.59C27.4933 4.94889 27.4041 4.8982 27.3279 4.83111C27.2516 4.76403 27.19 4.68196 27.1469 4.59004C27.1037 4.49811 27.08 4.39829 27.0771 4.29678C27.0742 4.19527 27.0922 4.09425 27.13 4ZM19.21 0.900004C19.1681 0.705215 19.2043 0.501749 19.3109 0.333418C19.4175 0.165086 19.586 0.0453544 19.78 4.12017e-06C19.8735 -0.0201931 19.9701 -0.021013 20.064 -0.00240501C20.1578 0.016203 20.2468 0.053844 20.3255 0.108195C20.4042 0.162545 20.471 0.232452 20.5216 0.3136C20.5723 0.394748 20.6057 0.485415 20.62 0.580004L21.13 3.32C21.1662 3.51182 21.1272 3.7102 21.021 3.87403C20.9149 4.03787 20.7498 4.15459 20.56 4.2C20.4773 4.21479 20.3927 4.21479 20.31 4.2C20.1626 4.1751 20.0265 4.10491 19.9208 3.99918C19.8151 3.89345 19.7449 3.75743 19.72 3.61L19.21 0.900004ZM10.15 4C10.0619 3.83256 10.0377 3.63882 10.0818 3.45485C10.126 3.27088 10.2355 3.10923 10.39 3C10.4692 2.94439 10.5592 2.90605 10.6541 2.88747C10.7491 2.8689 10.8469 2.87051 10.9412 2.8922C11.0355 2.9139 11.1242 2.95518 11.2015 3.01338C11.2789 3.07157 11.3431 3.14538 11.39 3.23L12.32 4.81C12.4337 5.03734 12.5938 5.23832 12.79 5.4C12.962 5.49317 13.0902 5.65068 13.1464 5.83808C13.2026 6.02548 13.1823 6.22752 13.09 6.4C13.0252 6.53949 12.9174 6.65456 12.7824 6.72834C12.6474 6.80212 12.4924 6.83074 12.34 6.81C12.2673 6.79581 12.1967 6.77229 12.13 6.74C11.7018 6.45928 11.3566 6.06912 11.13 5.61L10.15 4ZM4.57999 6.89C4.6263 6.80489 4.68977 6.73032 4.76639 6.67101C4.843 6.6117 4.9311 6.56894 5.0251 6.54544C5.1191 6.52194 5.21695 6.51821 5.31247 6.53449C5.40798 6.55077 5.49908 6.5867 5.57999 6.64L7.99999 8.21C8.15634 8.31781 8.26666 8.48025 8.30923 8.66533C8.3518 8.85041 8.32353 9.04472 8.22999 9.21C8.15712 9.33214 8.05016 9.43033 7.92225 9.4925C7.79434 9.55468 7.65105 9.57814 7.50999 9.56C7.41388 9.54633 7.32182 9.51223 7.23999 9.46L4.80999 7.92C4.65364 7.8122 4.54332 7.64976 4.50075 7.46468C4.45818 7.2796 4.48645 7.08529 4.57999 6.92V6.89ZM1.13999 12.92C1.14827 12.8178 1.17769 12.7185 1.22637 12.6283C1.27505 12.5381 1.34193 12.459 1.42278 12.3961C1.50364 12.3331 1.59669 12.2876 1.69605 12.2624C1.79541 12.2373 1.89891 12.233 1.99999 12.25V12.25L4.90999 12.75C5.1015 12.787 5.27108 12.897 5.38277 13.0569C5.49446 13.2168 5.53947 13.414 5.50825 13.6065C5.47703 13.799 5.37203 13.9718 5.21554 14.0882C5.05905 14.2046 4.86336 14.2555 4.66999 14.23V14.23L1.75999 13.74C1.66522 13.722 1.57496 13.6855 1.4944 13.6324C1.41385 13.5794 1.3446 13.5109 1.29067 13.4309C1.23674 13.351 1.19919 13.2611 1.18019 13.1665C1.1612 13.072 1.16113 12.9746 1.17999 12.88L1.13999 12.92ZM0.999991 19.77C0.885745 19.8036 0.764236 19.8036 0.649991 19.77C0.520022 19.7492 0.398542 19.6922 0.29949 19.6056C0.200437 19.5189 0.127827 19.4061 0.0899907 19.28C0.024988 19.0955 0.0346096 18.893 0.116804 18.7155C0.198999 18.5381 0.347264 18.3997 0.529991 18.33C1.57433 17.9443 2.69965 17.8307 3.79999 18V18C3.99174 18.0342 4.16227 18.1426 4.27459 18.3018C4.38691 18.4609 4.43197 18.6579 4.39999 18.85C4.38767 18.9453 4.35666 19.0372 4.30874 19.1204C4.26083 19.2037 4.19695 19.2767 4.12077 19.3352C4.04459 19.3938 3.95761 19.4367 3.86481 19.4615C3.77201 19.4864 3.67522 19.4926 3.57999 19.48C2.70924 19.3621 1.82284 19.4618 0.999991 19.77V19.77ZM3.99999 25.23C2.94022 25.6105 1.82574 25.8165 0.699991 25.84H0.599991C0.430499 25.8114 0.276844 25.723 0.166801 25.591C0.0567581 25.4589 -0.00241072 25.2919 -9.34512e-06 25.12C-0.00550187 24.9244 0.06567 24.7344 0.198318 24.5905C0.330966 24.4467 0.514585 24.3604 0.709991 24.35C1.6852 24.3328 2.65113 24.1572 3.56999 23.83C3.65979 23.7974 3.7553 23.7836 3.85064 23.7893C3.94599 23.7951 4.03915 23.8203 4.12439 23.8634C4.20964 23.9065 4.28516 23.9665 4.34632 24.0399C4.40747 24.1133 4.45296 24.1984 4.47999 24.29C4.5413 24.4771 4.52761 24.6807 4.44181 24.8579C4.35601 25.0351 4.20478 25.1721 4.01999 25.24L3.99999 25.23ZM6.54999 29.67C6.62672 29.8493 6.63444 30.0506 6.57168 30.2352C6.50891 30.4198 6.38008 30.5747 6.20999 30.67L3.70999 32C3.57096 32.0699 3.41458 32.0977 3.25999 32.08C3.14961 32.0582 3.04556 32.0118 2.95555 31.9443C2.86553 31.8768 2.79186 31.7899 2.73999 31.69C2.6607 31.5142 2.64845 31.3155 2.70556 31.1313C2.76266 30.9471 2.88517 30.7901 3.04999 30.69L5.22999 29.5C5.30303 29.4178 5.39602 29.3558 5.49999 29.32L5.66999 29.26C5.84256 29.2044 6.02987 29.217 6.19349 29.295C6.35712 29.3731 6.48467 29.5109 6.54999 29.68V29.67ZM25.86 27C25.8082 27.0725 25.741 27.1325 25.6632 27.1757C25.5853 27.219 25.4988 27.2443 25.41 27.25C25.3038 27.2629 25.196 27.2526 25.0941 27.2198C24.9923 27.187 24.8987 27.1324 24.82 27.06C24.671 26.8855 24.5826 26.6674 24.5682 26.4383C24.5538 26.2093 24.6141 25.9818 24.74 25.79C24.9138 25.5249 25.176 25.33 25.48 25.24L25.62 25.46C25.76 25.7 26.2 26.46 25.86 27V27ZM20.68 25.73C20.7487 25.9549 20.7487 26.1951 20.68 26.42C20.63 26.57 20.51 26.7 20.4 26.71C20.29 26.72 20.02 26.46 19.94 26.2C19.7923 25.6939 19.8424 25.1506 20.08 24.68C20.3444 24.9842 20.5389 25.3426 20.65 25.73H20.68ZM16.36 26C16.5974 26.1425 16.7697 26.3722 16.84 26.64C16.8684 26.6993 16.8831 26.7642 16.8831 26.83C16.8831 26.8958 16.8684 26.9607 16.84 27.02C16.8006 27.0822 16.7459 27.1333 16.6811 27.1683C16.6163 27.2033 16.5436 27.2211 16.47 27.22C16.3516 27.228 16.233 27.2067 16.1248 27.1578C16.0167 27.109 15.9223 27.0342 15.85 26.94C15.7527 26.7741 15.6909 26.5897 15.6685 26.3986C15.6461 26.2076 15.6637 26.0139 15.72 25.83C15.9578 25.8244 16.1928 25.8831 16.4 26H16.36ZM28 25.29C27.4871 24.7114 26.7706 24.3531 26 24.29H25.79C25.2548 23.5866 24.5396 23.0408 23.72 22.71C23.1611 22.4805 22.5538 22.3942 21.9531 22.4588C21.3524 22.5234 20.7773 22.7369 20.28 23.08C20.1409 23.1825 20.0105 23.2962 19.89 23.42C19.4495 23.1406 18.9493 22.9693 18.43 22.92C17.7247 22.8777 17.0227 23.045 16.4123 23.4009C15.802 23.7568 15.3106 24.2854 15 24.92V24.92L14.76 25C14.4323 25.1205 14.1347 25.3108 13.8877 25.5578C13.6408 25.8047 13.4505 26.1023 13.33 26.43C13.2183 26.7566 13.1748 27.1026 13.2024 27.4466C13.2299 27.7906 13.3278 28.1254 13.49 28.43C13.64 28.738 13.8556 29.0095 14.1217 29.2254C14.3877 29.4414 14.6977 29.5965 15.03 29.68C15.1409 29.6949 15.2532 29.667 15.3442 29.602C15.4353 29.5369 15.4981 29.4397 15.52 29.33C15.5442 29.2161 15.5234 29.0973 15.4619 28.9985C15.4003 28.8996 15.3029 28.8285 15.19 28.8C14.9731 28.749 14.7705 28.6496 14.5973 28.5094C14.4242 28.3691 14.2849 28.1916 14.19 27.99C14.0829 27.7946 14.017 27.5793 13.9963 27.3574C13.9757 27.1356 14.0008 26.9118 14.07 26.7C14.1833 26.4053 14.3861 26.1535 14.65 25.98C14.6088 26.4522 14.7287 26.9245 14.99 27.32C15.1443 27.531 15.3482 27.7006 15.5836 27.814C15.8191 27.9274 16.0789 27.9809 16.34 27.97C16.5581 27.9624 16.7708 27.9009 16.9593 27.791C17.1478 27.681 17.3061 27.5261 17.42 27.34C17.6019 27.0072 17.6519 26.618 17.56 26.25C17.4247 25.7521 17.1023 25.3257 16.66 25.06C16.4497 24.9395 16.2193 24.8581 15.98 24.82C16.2485 24.4629 16.6003 24.177 17.0047 23.987C17.409 23.797 17.8537 23.7088 18.3 23.73C18.6536 23.7649 18.9951 23.8776 19.3 24.06C19.0997 24.4172 18.9726 24.8109 18.9262 25.2178C18.8799 25.6247 18.9152 26.0369 19.03 26.43C19.0937 26.7399 19.2612 27.0188 19.5048 27.2206C19.7485 27.4224 20.0537 27.5351 20.37 27.54C20.6055 27.4979 20.8242 27.3901 21.0012 27.2291C21.1781 27.0681 21.3059 26.8605 21.37 26.63C21.4845 26.2314 21.4845 25.8086 21.37 25.41C21.2343 24.8917 20.9849 24.41 20.64 24L20.83 23.85C21.2149 23.5893 21.6585 23.4282 22.121 23.3811C22.5835 23.3339 23.0504 23.4023 23.48 23.58C24.0208 23.8053 24.5056 24.1467 24.9 24.58C24.5385 24.7604 24.2339 25.0373 24.02 25.38C23.7857 25.7485 23.6784 26.1835 23.7145 26.6187C23.7506 27.0538 23.9281 27.4652 24.22 27.79C24.3873 27.9498 24.588 28.0704 24.8077 28.143C25.0273 28.2157 25.2604 28.2385 25.49 28.21C25.7042 28.1922 25.9117 28.1263 26.0969 28.0172C26.2822 27.9081 26.4405 27.7587 26.56 27.58C26.7618 27.2431 26.8684 26.8577 26.8684 26.465C26.8684 26.0723 26.7618 25.6869 26.56 25.35C26.9039 25.4795 27.2123 25.6885 27.46 25.96C27.8568 26.4103 28.1624 26.9333 28.36 27.5C28.3809 27.5526 28.412 27.6005 28.4515 27.6411C28.491 27.6816 28.5381 27.714 28.5902 27.7363C28.6422 27.7586 28.6981 27.7704 28.7547 27.771C28.8113 27.7717 28.8675 27.7611 28.92 27.74C29.0268 27.6897 29.1107 27.6012 29.1552 27.4919C29.1996 27.3826 29.2014 27.2605 29.16 27.15C28.8992 26.4599 28.505 25.8279 28 25.29V25.29ZM30.66 31.13C29.017 33.6758 27.7821 36.4628 27 39.39C26.6424 39.2268 26.2608 39.1222 25.87 39.08C25.3387 39.022 24.8044 38.9953 24.27 39C24.0745 38.9999 23.8867 39.0762 23.7466 39.2126C23.6065 39.3489 23.5252 39.5346 23.52 39.73C23.5146 39.8259 23.5282 39.9219 23.5599 40.0126C23.5917 40.1032 23.6411 40.1867 23.7052 40.2582C23.7693 40.3297 23.8469 40.3879 23.9335 40.4294C24.0201 40.4709 24.1141 40.4949 24.21 40.5C24.6916 40.5106 25.1723 40.5474 25.65 40.61C25.9264 40.6237 26.1963 40.6988 26.44 40.83C26.4935 40.8583 26.5401 40.8981 26.5764 40.9465C26.6127 40.9949 26.6378 41.0507 26.65 41.11C26.6374 41.1626 26.614 41.2119 26.5813 41.255C26.5486 41.298 26.5073 41.3338 26.46 41.36C26.2409 41.4951 26.001 41.593 25.75 41.65C24.7629 41.9277 23.7614 42.1514 22.75 42.32C22.5521 37.8479 22.9455 33.3692 23.92 29C23.9349 28.9442 23.9383 28.8859 23.9302 28.8287C23.9221 28.7715 23.9025 28.7165 23.8726 28.667C23.8427 28.6175 23.8032 28.5746 23.7564 28.5407C23.7095 28.5069 23.6563 28.4828 23.6 28.47C23.4862 28.449 23.3687 28.4726 23.2719 28.5359C23.1751 28.5992 23.1063 28.6974 23.08 28.81C22.0856 33.2778 21.6855 37.8574 21.89 42.43C21.39 42.5 20.89 42.56 20.39 42.6C20.38 40.3044 20.115 38.0171 19.6 35.78L18.2 28.59C18.1916 28.5335 18.1718 28.4793 18.1418 28.4307C18.1118 28.3821 18.0722 28.3401 18.0254 28.3073C17.9786 28.2746 17.9256 28.2517 17.8696 28.2401C17.8137 28.2286 17.756 28.2285 17.7 28.24C17.6421 28.253 17.5874 28.2773 17.539 28.3115C17.4905 28.3457 17.4493 28.3891 17.4177 28.4393C17.3861 28.4895 17.3648 28.5454 17.3549 28.6039C17.3449 28.6624 17.3467 28.7222 17.36 28.78L18.76 36C19.2671 38.1904 19.522 40.4317 19.52 42.68C18.72 42.68 17.91 42.74 17.1 42.68C16.8789 42.689 16.6581 42.6551 16.45 42.58C16.39 42.58 16.35 42.5 16.34 42.51C16.3502 42.4706 16.3502 42.4294 16.34 42.39V42.3C16.8779 41.849 17.4999 41.5091 18.17 41.3H18.35C18.5374 41.244 18.6964 41.1188 18.7949 40.9498C18.8933 40.7808 18.9237 40.5806 18.88 40.39C18.8611 40.2966 18.8236 40.208 18.7698 40.1295C18.716 40.0509 18.6469 39.984 18.5666 39.9326C18.4864 39.8813 18.3966 39.8467 18.3027 39.8308C18.2088 39.8148 18.1127 39.818 18.02 39.84H17.84C17.1661 40.0421 16.5282 40.3492 15.95 40.75C15.0548 37.7938 13.8058 34.9566 12.23 32.3C8.99999 26.28 5.92999 20.6 10.35 13.7C12.0825 11.3499 14.5224 9.61682 17.3119 8.75477C20.1014 7.89273 23.0937 7.94713 25.85 8.91C31.13 10.8 34.24 15.55 34.19 21.63C34.19 25.23 32.47 28.1 30.69 31.13H30.66ZM25.79 46.46C23.3562 47.4719 20.7345 47.9526 18.1 47.87C17.692 47.8769 17.2859 47.8126 16.9 47.68C16.7669 47.6321 16.6456 47.5565 16.5438 47.4583C16.4421 47.36 16.3624 47.2413 16.31 47.11C16.2863 47.0352 16.2841 46.9553 16.3036 46.8793C16.323 46.8033 16.3633 46.7343 16.42 46.68V46.68H16.47C16.6565 46.7375 16.847 46.781 17.04 46.81C17.5221 46.8596 18.0079 46.8596 18.49 46.81C21.0273 46.7113 23.546 46.3324 26 45.68C26.4719 45.5689 26.9285 45.401 27.36 45.18C27.3367 45.3156 27.2856 45.445 27.21 45.56C26.8395 45.9742 26.3673 46.2845 25.84 46.46H25.79ZM23.2 49.61C22.2637 49.8821 21.295 50.0267 20.32 50.04C19.7827 50.0786 19.2447 49.9751 18.76 49.74C18.6055 49.6489 18.4752 49.522 18.38 49.37C20.6865 49.4081 22.9816 49.0391 25.16 48.28C25.0682 48.4767 24.943 48.656 24.79 48.81C24.3283 49.1951 23.7843 49.4688 23.2 49.61V49.61ZM26.11 43.05C26.5158 42.9549 26.9017 42.789 27.25 42.56L27.33 42.49C27.3794 42.5374 27.4176 42.5952 27.4418 42.6592C27.466 42.7232 27.4756 42.7918 27.47 42.86C27.4469 43.031 27.3865 43.1948 27.2932 43.3399C27.1999 43.4851 27.0759 43.608 26.93 43.7C26.5241 43.952 26.0775 44.1314 25.61 44.23C23.2724 44.8718 20.8713 45.2541 18.45 45.37C17.9342 45.4261 17.4126 45.3888 16.91 45.26C16.722 45.2118 16.5472 45.1221 16.3983 44.9975C16.2495 44.8729 16.1305 44.7166 16.05 44.54C15.9842 44.3729 15.9842 44.1871 16.05 44.02C16.1776 44.0595 16.308 44.0896 16.44 44.11C16.6299 44.1199 16.8201 44.1199 17.01 44.11C20.0725 44.2101 23.132 43.8357 26.08 43L26.11 43.05ZM26.3 7.44C23.2478 6.39358 19.9407 6.35234 16.8634 7.32233C13.7861 8.29231 11.1004 10.2225 9.19999 12.83C4.24999 20.55 7.67999 26.9 11 33C12.79 36.32 14.49 39.46 14.92 42.78C14.9332 42.8626 14.9567 42.9432 14.99 43.02C14.7892 43.3078 14.6593 43.639 14.6106 43.9865C14.562 44.334 14.596 44.6881 14.71 45.02C14.8184 45.316 14.9889 45.5853 15.21 45.81C15.0427 46.0542 14.9318 46.3324 14.8851 46.6247C14.8384 46.9169 14.8572 47.2159 14.94 47.5C15.0481 47.841 15.2321 48.1531 15.478 48.4128C15.7239 48.6726 16.0254 48.8734 16.36 49C16.508 49.0649 16.6621 49.1152 16.82 49.15C16.8645 49.5274 16.9937 49.8898 17.1981 50.2102C17.4024 50.5306 17.6766 50.8006 18 51C18.3894 51.2229 18.8165 51.372 19.26 51.44C19.5916 51.4821 19.9257 51.5022 20.26 51.5C21.3603 51.4821 22.4533 51.3173 23.51 51.01C24.317 50.8087 25.0643 50.4179 25.69 49.87C26.0039 49.5851 26.2549 49.2378 26.4271 48.8504C26.5993 48.463 26.6888 48.0439 26.69 47.62C27.3109 47.3574 27.8522 46.9368 28.26 46.4C28.5161 46.0614 28.6787 45.6614 28.7313 45.2402C28.784 44.8189 28.7249 44.3912 28.56 44C28.7672 43.6576 28.8874 43.2696 28.91 42.87C28.9233 42.5436 28.8564 42.2189 28.7152 41.9243C28.574 41.6297 28.3628 41.3741 28.1 41.18C28.58 37.55 30.27 34.67 31.91 31.88C33.71 28.8 35.58 25.62 35.62 21.6C35.68 14.86 32.21 9.6 26.33 7.47" fill="#898989"/>
</g>
<defs>
<clipPath id="clip0_3_21">
<rect width="42.34" height="51.54" fill="white"/>
</clipPath>
</defs>
</svg>
